<?xml version="1.0" encoding="utf-8"?>
<!-- Generator: Adobe Illustrator 27.1.1, SVG Export Plug-In . SVG Version: 6.00 Build 0)  -->
<svg version="1.1" id="レイヤー_1" xmlns="http://www.w3.org/2000/svg" xmlns:xlink="http://www.w3.org/1999/xlink" x="0px"
	 y="0px" viewBox="0 0 622 194" style="enable-background:new 0 0 622 194;" xml:space="preserve">
<style type="text/css">
	.st0{fill:#006837;}
</style>
<g>
	<path d="M40.2,153l10.4-11.1l2.5,0.6c3.3,0.8,6.4,1.4,9.3,1.8c4.4-2.7,7.4-6,9-9.9c1.6-3.8,3-11.3,4.2-22.4l6.8-61.6
		c-11.3,0.8-20.4,3.9-27.2,9.2c-6.8,5.3-10.1,11.9-10.1,20c0,4.8,1.2,9.3,3.6,13.6l-13.2,11.6c-1.1-4.2-1.7-8.5-1.7-12.8
		c0-14.7,6.3-26.8,18.9-36.2c12.6-9.4,28.7-14.1,48.3-14.1c25.3,0,37.9,7.3,37.9,21.8c0,12.4-8.8,22.3-26.3,29.7
		c17.2,6.2,25.8,15.8,25.8,28.7c0,10.5-5.3,18.9-16,25.1c-10.6,6.2-24.9,9.3-42.8,9.3C68.7,156.1,55.5,155.1,40.2,153z M90.2,99.6
		l-1.2,11l-0.7,6.9c-0.9,8.1-2.6,13.8-4.9,17.1c-2.3,3.3-7.2,6.9-14.8,10.7c10.8,1.8,21.5,2.7,32.1,2.7c17.1,0,25.6-6.8,25.6-20.3
		c0-5.8-2.3-11.5-7-16.9c-4.7-5.4-10.4-9.1-17.1-11.1l-2.1,0.1L96,99.9l-3.6-0.2L90.2,99.6z M95.7,49.7L90.9,93
		c3.2,0.3,6,0.4,8.4,0.4c2.6,0,5.8-0.2,9.4-0.6c11.6-6.7,17.5-14.7,17.5-24.2C126.2,56,116,49.7,95.7,49.7z"/>
	<path d="M218.4,157.1c-12.3,0-18.4-8.1-18.4-24.4c0-13.1,4.8-25.7,14.4-37.9c9.6-12.1,19.6-18.2,29.9-18.2
		c12.5,0,18.7,8.1,18.7,24.4c0,13.2-4.8,25.8-14.4,37.9C238.9,151,228.9,157.1,218.4,157.1z M228.3,147.9c6.3,0,11.5-3.5,15.8-10.5
		c4.2-7,6.3-15.7,6.3-26.1c0-17-5.3-25.6-15.9-25.6c-6.2,0-11.5,3.5-15.7,10.5c-4.2,7-6.3,15.7-6.3,26.1
		C212.5,139.4,217.8,147.9,228.3,147.9z"/>
	<path d="M267,152.7l11.3-9.3c4.3,4.5,9.6,6.8,16.1,6.8c7.9,0,11.8-3.8,11.8-11.4c0-4.2-3.6-10.1-10.8-17.6l-4.7-4.8
		c-6.8-7.2-10.3-12.9-10.3-17.4c0-6.3,2.7-11.7,8.2-16c5.5-4.3,12.2-6.5,20.3-6.5c4.4,0,9.1,0.8,14.3,2.5l-9.8,9.1
		c-4.2-3.1-8.8-4.7-13.8-4.7c-6,0-8.9,2.5-8.9,7.5c0,3.6,3.3,8.8,9.9,15.6l5.1,5.4c7.5,7.9,11.3,14.2,11.3,19c0,6.9-3.3,13-9.9,18.2
		c-6.6,5.3-14.2,7.9-22.9,7.9C278.1,157.1,272.3,155.6,267,152.7z"/>
	<path d="M326.6,152.7l11.3-9.3c4.3,4.5,9.6,6.8,16.1,6.8c7.9,0,11.8-3.8,11.8-11.4c0-4.2-3.6-10.1-10.8-17.6l-4.7-4.8
		c-6.8-7.2-10.3-12.9-10.3-17.4c0-6.3,2.7-11.7,8.2-16c5.5-4.3,12.2-6.5,20.3-6.5c4.4,0,9.1,0.8,14.3,2.5l-9.8,9.1
		c-4.2-3.1-8.8-4.7-13.8-4.7c-6,0-8.9,2.5-8.9,7.5c0,3.6,3.3,8.8,9.9,15.6l5.1,5.4c7.5,7.9,11.3,14.2,11.3,19c0,6.9-3.3,13-9.9,18.2
		s-14.2,7.9-22.9,7.9C337.7,157.1,332,155.6,326.6,152.7z"/>
	<path d="M409.6,157.1c-12.3,0-18.4-8.1-18.4-24.4c0-13.1,4.8-25.7,14.4-37.9c9.6-12.1,19.6-18.2,29.9-18.2
		c12.5,0,18.7,8.1,18.7,24.4c0,13.2-4.8,25.8-14.4,37.9C430.1,151,420.1,157.1,409.6,157.1z M419.5,147.9c6.3,0,11.5-3.5,15.8-10.5
		c4.2-7,6.3-15.7,6.3-26.1c0-17-5.3-25.6-15.9-25.6c-6.2,0-11.5,3.5-15.7,10.5c-4.2,7-6.3,15.7-6.3,26.1
		C403.7,139.4,408.9,147.9,419.5,147.9z"/>
	<path d="M527.3,152.1l-12.2,5l0.2-2.3l0.7-6.1l0.6-5.7l4.1-36.8l0.6-4.2c0.2-2.2,0.3-4.3,0.3-6.4c0-5.3-1.6-7.9-4.8-7.9
		c-5,0-10.9,5.1-17.6,15.4c-6.7,10.3-10.6,20-11.6,29.3l-2.1,19.7l-12.3,5l0.2-2.3l0.7-6.1l0.7-5.7l4.2-38l0.5-4.3
		c0.4-3.4,0.6-6.1,0.6-8.2c0-3.5-0.9-5.2-2.6-5.2c-4.1,0-8.5,4.6-13.3,13.9c-1.3-1-1.9-1.9-1.9-2.7c0-3.3,3-7.7,9-13.4
		c6-5.7,10.7-8.5,14.2-8.5c4.7,0,7.1,3,7.1,9c0,1.5-0.1,3.6-0.4,6.1l-0.7,6.6l-0.7,5.6l-0.7,5.8l2.3-3.6
		c12.2-19.7,23.6-29.6,34.2-29.6c5.1,0,7.6,3.7,7.6,11c0,1.3-0.2,3.9-0.7,7.9l-0.8,7.5l-1.1,10.2c5.1-10.5,11.1-19.3,18.1-26.3
		c7-7,13.2-10.4,18.6-10.4c5.4,0,8.1,3.5,8.1,10.5c0,3-0.3,6.6-0.9,10.7l-4.4,30.4c-1,6.3-1.5,11.1-1.5,14.6c0,2.9,0.8,4.3,2.4,4.3
		c1.9,0,4.2-1.6,7-4.7c2.8-3.1,5.1-6.6,6.8-10.6c1.5,1,2.2,1.9,2.2,2.7c0,3.4-3.1,8.1-9.2,13.8c-6.1,5.8-11,8.7-14.6,8.7
		c-4.7,0-7-3.1-7-9.3c0-3.9,0.6-10,1.8-18.3l2.9-19.7c0.1-0.7,0.3-2.3,0.6-4.7c0.1-1,0.3-2.6,0.6-5c0.3-2.3,0.4-4.1,0.4-5.4
		c0-4.6-1.5-7-4.6-7c-5.1,0-11.1,5.1-17.8,15.4c-6.8,10.3-10.7,20-11.7,29.3L527.3,152.1z"/>
</g>
<g>
	<g>
		<path class="st0" d="M165.9,155.1c-0.5-2.3-1-4.6-1.4-6.9c-0.1-0.6-0.2-1.1-0.3-1.7c0-0.3-0.1-0.6-0.1-0.9c0.1,0.5,0-0.3-0.1-0.4
			c-0.1-1.2-0.3-2.4-0.4-3.6c-0.4-4.7-0.6-9.4-0.4-14.1c0.1-2.3,0.2-4.6,0.5-6.9c0.1-1.2,0.3-2.4,0.4-3.6c0-0.1,0.1-0.5,0,0
			c0-0.1,0-0.2,0-0.3c0-0.3,0.1-0.6,0.1-0.9c0.1-0.6,0.2-1.2,0.3-1.8c0.8-4.7,1.8-9.3,3.2-13.8c0.7-2.3,1.4-4.5,2.2-6.7
			c0.4-1.1,0.8-2.2,1.3-3.2c0.1-0.3,0.2-0.6,0.3-0.8c0.1-0.3,0,0.1-0.1,0.1c0-0.1,0.1-0.2,0.2-0.4c0.2-0.5,0.4-1,0.6-1.5
			c1.7-3.8,3.6-7.5,5.8-11.1c2.1-3.6,4.5-7.1,7-10.4c0.2-0.2,0.3-0.4,0.5-0.6c0,0,0.2-0.3,0-0.1c-0.2,0.3,0.1-0.1,0.1-0.1
			c0.3-0.4,0.7-0.8,1-1.2c0.7-0.8,1.3-1.6,2-2.5c1.4-1.6,2.8-3.1,4.2-4.7c2.9-3,5.9-5.8,9.1-8.5c0.8-0.7,1.6-1.3,2.4-1.9
			c0.2-0.2,0.4-0.3,0.6-0.5c0.4-0.3,0,0,0,0c0.1-0.1,0.2-0.2,0.3-0.2c0.4-0.3,0.8-0.6,1.3-1c1.7-1.2,3.4-2.4,5.1-3.6
			c0.9-0.6,1.7-1.1,2.6-1.7c-1.2-0.9-2.4-1.9-3.7-2.8c-1.7,8.2-3.8,16.4-6.4,24.3c-1.3,4-2.8,7.9-4.3,11.8c-0.4,1-0.8,1.9-1.2,2.9
			c-0.1,0.1-0.3,0.8-0.1,0.3c-0.1,0.2-0.2,0.5-0.3,0.7c-0.2,0.5-0.4,1-0.6,1.5c-0.8,1.9-1.7,3.8-2.6,5.7c-3.6,7.6-7.6,15-12.1,22.1
			c-2.2,3.6-4.6,7-7,10.4c-2.5,3.4-5.1,6.7-7.5,10.2c-2.4,3.6-4.6,7.4-6,11.5c-1.5,4.4-1.5,9-1.5,13.5c0,1.1,0,2.2,0,3.3
			c0,1.3,1.2,2.6,2.5,2.5c1.4-0.1,2.5-1.1,2.5-2.5c0-2.2,0-4.5,0-6.7c0-1.1,0.1-2.2,0.2-3.3c0-0.3,0.1-0.5,0.1-0.8
			c0-0.1,0-0.2,0-0.3c0-0.4-0.1,0.4,0,0c0.1-0.6,0.2-1.1,0.3-1.7c0.2-1,0.5-2,0.8-2.9c0.2-0.5,0.3-0.9,0.5-1.4c0.2-0.4,0-0.1,0,0
			c0-0.1,0.1-0.2,0.1-0.3c0.1-0.3,0.3-0.6,0.4-0.9c0.9-1.9,1.9-3.7,3-5.4c2.3-3.6,4.9-7,7.5-10.4c2.5-3.4,4.8-6.8,7.1-10.3
			c4.5-7,8.7-14.3,12.3-21.8c3.7-7.6,7-15.5,9.8-23.6c2.7-7.9,5-16,6.8-24.1c0.2-1,0.4-2.1,0.6-3.1c0.2-1-0.1-2-0.9-2.6
			c-0.8-0.6-1.9-0.7-2.8-0.2c-7.3,4.5-14.2,9.9-20.3,16c-6.1,6.1-11.5,12.8-16.1,20.1c-4.8,7.5-8.6,15.7-11.4,24.1
			c-3.1,9.2-4.9,18.8-5.5,28.5c-0.6,9.7,0,19.4,1.8,28.9c0.2,1.2,0.5,2.3,0.7,3.5c0.3,1.3,1.8,2.1,3.1,1.7
			C165.5,157.8,166.2,156.5,165.9,155.1L165.9,155.1z"/>
	</g>
</g>
</svg>
