<?xml version="1.0" encoding="UTF-8"?>
<svg id="_レイヤー_1" data-name="レイヤー 1" xmlns="http://www.w3.org/2000/svg" xmlns:xlink="http://www.w3.org/1999/xlink" viewBox="0 0 622 194">
  <defs>
    <style>
      .cls-1 {
        fill: url(#_名称未設定グラデーション_51);
      }

      .cls-1, .cls-2, .cls-3, .cls-4 {
        stroke-width: 0px;
      }

      .cls-5 {
        opacity: .92;
      }

      .cls-6 {
        fill: none;
        opacity: .1;
        stroke: #84d8ac;
        stroke-miterlimit: 10;
      }

      .cls-3 {
        fill: #148444;
      }

      .cls-4 {
        fill: #212529;
      }
    </style>
    <linearGradient id="_名称未設定グラデーション_51" data-name="名称未設定グラデーション 51" x1="160.98" y1="93.76" x2="218.04" y2="88.62" gradientUnits="userSpaceOnUse">
      <stop offset="0" stop-color="#000"/>
      <stop offset="0" stop-color="#000603" stop-opacity=".99"/>
      <stop offset=".77" stop-color="#006837" stop-opacity=".6"/>
    </linearGradient>
  </defs>
  <path class="cls-4" d="m62.33,153.27l9.55-10.22,2.33.53c3.01.76,5.86,1.32,8.57,1.68,4.06-2.5,6.8-5.52,8.23-9.04,1.43-3.53,2.72-10.39,3.87-20.59l6.26-56.51c-10.41.75-18.71,3.55-24.92,8.4-6.2,4.85-9.31,10.95-9.31,18.31,0,4.4,1.1,8.55,3.31,12.45l-12.1,10.65c-1.05-3.86-1.58-7.76-1.58-11.72,0-13.53,5.77-24.61,17.32-33.25,11.55-8.64,26.31-12.96,44.3-12.96,23.19,0,34.79,6.65,34.79,19.96,0,11.35-8.05,20.43-24.15,27.23,15.75,5.72,23.63,14.5,23.63,26.33,0,9.63-4.88,17.31-14.65,23.02-9.77,5.72-22.84,8.58-39.22,8.58-10.07,0-22.14-.95-36.22-2.86Zm45.9-48.99l-1.11,10.06-.68,6.31c-.85,7.46-2.34,12.7-4.47,15.73-2.13,3.03-6.65,6.29-13.56,9.8,9.92,1.63,19.72,2.44,29.4,2.44,15.66,0,23.49-6.21,23.49-18.64,0-5.36-2.15-10.53-6.44-15.52-4.29-4.98-9.53-8.38-15.71-10.18l-1.96.07-3.62.15-3.32-.15-2.03-.07Zm5.07-45.76l-4.4,39.68c2.96.25,5.51.37,7.67.37,2.4,0,5.29-.17,8.64-.52,10.67-6.14,16.01-13.53,16.01-22.16,0-11.58-9.31-17.37-27.93-17.37Z"/>
  <path class="cls-2" d="m206.4,157.1c-12.29,0-18.43-8.14-18.43-24.41,0-13.11,4.8-25.73,14.42-37.88,9.61-12.15,19.58-18.22,29.9-18.22,12.45,0,18.68,8.14,18.68,24.41,0,13.16-4.81,25.8-14.42,37.92-9.61,12.12-19.66,18.18-30.14,18.18Zm9.91-9.17c6.28,0,11.54-3.49,15.77-10.48,4.23-6.99,6.35-15.7,6.35-26.13,0-17.04-5.3-25.56-15.89-25.56-6.23,0-11.45,3.51-15.69,10.53-4.23,7.02-6.35,15.71-6.35,26.09,0,17.04,5.27,25.56,15.81,25.56Z"/>
  <path class="cls-4" d="m246.97,152.68l11.33-9.26c4.27,4.53,9.63,6.8,16.09,6.8,7.88,0,11.82-3.79,11.82-11.39,0-4.2-3.62-10.07-10.85-17.61l-4.68-4.83c-6.85-7.15-10.27-12.94-10.27-17.36,0-6.33,2.74-11.66,8.23-15.97,5.49-4.31,12.25-6.47,20.27-6.47,4.37,0,9.15.82,14.33,2.46l-9.83,9.09c-4.15-3.11-8.76-4.67-13.84-4.67-5.95,0-8.93,2.49-8.93,7.45,0,3.55,3.3,8.76,9.91,15.64l5.08,5.41c7.54,7.86,11.3,14.2,11.3,19,0,6.88-3.3,12.96-9.91,18.22-6.61,5.27-14.23,7.9-22.85,7.9-6.12,0-11.85-1.47-17.2-4.42Z"/>
  <path class="cls-4" d="m296.6,152.68l11.33-9.26c4.27,4.53,9.63,6.8,16.09,6.8,7.88,0,11.82-3.79,11.82-11.39,0-4.2-3.62-10.07-10.85-17.61l-4.68-4.83c-6.85-7.15-10.27-12.94-10.27-17.36,0-6.33,2.74-11.66,8.23-15.97,5.49-4.31,12.25-6.47,20.27-6.47,4.37,0,9.14.82,14.33,2.46l-9.83,9.09c-4.15-3.11-8.76-4.67-13.84-4.67-5.95,0-8.93,2.49-8.93,7.45,0,3.55,3.3,8.76,9.91,15.64l5.08,5.41c7.54,7.86,11.3,14.2,11.3,19,0,6.88-3.3,12.96-9.91,18.22s-14.22,7.9-22.85,7.9c-6.12,0-11.85-1.47-17.2-4.42Z"/>
  <path class="cls-4" d="m373.58,157.1c-12.29,0-18.43-8.14-18.43-24.41,0-13.11,4.8-25.73,14.42-37.88,9.61-12.15,19.58-18.22,29.9-18.22,12.45,0,18.68,8.14,18.68,24.41,0,13.16-4.81,25.8-14.42,37.92-9.61,12.12-19.66,18.18-30.14,18.18Zm9.91-9.17c6.28,0,11.54-3.49,15.77-10.48,4.23-6.99,6.35-15.7,6.35-26.13,0-17.04-5.3-25.56-15.89-25.56-6.22,0-11.45,3.51-15.69,10.53-4.23,7.02-6.35,15.71-6.35,26.09,0,17.04,5.27,25.56,15.81,25.56Z"/>
  <path class="cls-4" d="m479.52,152.11l-10.71,5,.22-2.29.58-6.06.5-5.73,3.63-36.78.51-4.18c.19-2.18.29-4.31.29-6.39,0-5.3-1.42-7.95-4.25-7.95-4.42,0-9.58,5.13-15.47,15.4-5.89,10.27-9.29,20.04-10.2,29.32l-1.84,19.66-10.78,5,.22-2.29.58-6.06.58-5.73,3.69-38.01.43-4.34c.34-3.38.5-6.11.5-8.19,0-3.49-.77-5.24-2.31-5.24-3.61,0-7.51,4.64-11.7,13.92-1.11-1.04-1.66-1.94-1.66-2.7,0-3.28,2.63-7.74,7.9-13.39,5.27-5.65,9.44-8.48,12.52-8.48,4.13,0,6.2,3,6.2,9.01,0,1.53-.12,3.58-.36,6.14l-.58,6.63-.59,5.57-.59,5.82,2.02-3.6c10.76-19.71,20.78-29.57,30.05-29.57,4.47,0,6.7,3.66,6.7,10.98,0,1.26-.19,3.9-.58,7.94l-.72,7.54-1,10.24c4.47-10.54,9.76-19.29,15.88-26.25,6.12-6.96,11.58-10.44,16.39-10.44s7.13,3.5,7.13,10.48c0,3-.28,6.58-.83,10.73l-3.83,30.39c-.85,6.28-1.28,11.14-1.28,14.58,0,2.9.7,4.34,2.1,4.34,1.64,0,3.71-1.56,6.2-4.67,2.49-3.11,4.48-6.63,5.98-10.57,1.3.98,1.96,1.88,1.96,2.7,0,3.44-2.69,8.06-8.07,13.84-5.38,5.79-9.66,8.68-12.84,8.68-4.1,0-6.14-3.11-6.14-9.34,0-3.93.53-10.02,1.58-18.27l2.56-19.74c.1-.71.26-2.27.5-4.67.1-.98.26-2.65.5-5,.24-2.35.36-4.15.36-5.41,0-4.64-1.34-6.96-4.03-6.96-4.5,0-9.73,5.13-15.7,15.4-5.96,10.27-9.4,20.04-10.31,29.32l-1.91,19.66Z"/>
  <g class="cls-5">
    <path class="cls-1" d="m163.71,155.77c-5.58-24.34-3.33-50.41,6.33-73.44,9.66-23.03,26.69-42.9,47.97-55.97-6.57,32.79-20.49,64.09-40.46,90.91-5.05,6.79-10.71,13.93-12.87,21.87-1.4,5.16-.99,10.74-1.05,16.03"/>
    <path class="cls-3" d="m164.19,155.64c-2.3-10.06-3.26-20.4-2.92-30.71.35-10.31,2.01-20.57,4.95-30.46,2.76-9.27,6.66-18.17,11.59-26.48,4.67-7.87,10.23-15.2,16.54-21.83s13.37-12.53,21.02-17.55c.95-.62,1.9-1.23,2.87-1.82l-.73-.56c-1.8,8.99-4.15,17.87-7.03,26.57s-6.34,17.36-10.28,25.72-8.33,16.34-13.22,24.1c-2.44,3.88-5,7.68-7.68,11.41s-5.62,7.45-8.26,11.31-4.89,7.69-6.34,12.01c-1.55,4.61-1.61,9.44-1.58,14.25,0,1.2.02,2.39,0,3.59,0,.64.99.64,1,0,.05-4.91-.31-9.91.75-14.74.99-4.5,3.18-8.65,5.64-12.5s5.37-7.57,8.13-11.31,5.28-7.4,7.75-11.22c4.98-7.7,9.49-15.7,13.5-23.94s7.48-16.6,10.47-25.19,5.49-17.5,7.43-26.46c.24-1.1.47-2.21.69-3.31.08-.41-.34-.81-.73-.56-7.86,4.84-15.16,10.6-21.72,17.1s-12.38,13.75-17.3,21.56-9.24,16.79-12.28,25.86c-3.3,9.87-5.29,20.16-5.98,30.54s-.04,20.85,1.94,31.06c.25,1.29.52,2.58.82,3.86.14.63,1.11.36.96-.27h0Z"/>
  </g>
  <path class="cls-6" d="m162.93,147.99c-2.48-22.34,9.55-52.11,24.83-83.16,10.52-21.38,24.83-40.96,37.24-54.62"/>
</svg>