<?xml version="1.0" encoding="UTF-8"?>
<svg id="_レイヤー_1" data-name="レイヤー 1" xmlns="http://www.w3.org/2000/svg" xmlns:xlink="http://www.w3.org/1999/xlink" viewBox="0 0 622 194">
  <defs>
    <style>
      .cls-1 {
        fill: url(#_名称未設定グラデーション_51);
      }

      .cls-1, .cls-2, .cls-3 {
        stroke-width: 0px;
      }

      .cls-4 {
        opacity: .92;
      }

      .cls-5 {
        fill: none;
        opacity: .1;
        stroke: #84d8ac;
        stroke-miterlimit: 10;
      }

      .cls-2 {
        fill: #148444;
      }

      .cls-3 {
        fill: #212529;
      }
    </style>
    <linearGradient id="_名称未設定グラデーション_51" data-name="名称未設定グラデーション 51" x1="139.25" y1="86.95" x2="199.32" y2="81.53" gradientUnits="userSpaceOnUse">
      <stop offset="0" stop-color="#000"/>
      <stop offset="0" stop-color="#000603" stop-opacity=".99"/>
      <stop offset=".77" stop-color="#006837" stop-opacity=".6"/>
    </linearGradient>
  </defs>
  <g class="cls-4">
    <path class="cls-1" d="m142.13,152.22c-5.87-25.62-3.51-53.07,6.66-77.31,10.17-24.24,28.09-45.16,50.49-58.92-6.91,34.52-21.57,67.46-42.58,95.7-5.32,7.14-11.27,14.66-13.54,23.02-1.48,5.43-1.04,11.3-1.11,16.87"/>
    <path class="cls-2" d="m142.61,152.09c-2.42-10.59-3.44-21.48-3.07-32.34s2.12-21.66,5.22-32.07c2.91-9.76,7.01-19.13,12.2-27.88,4.91-8.29,10.77-16.01,17.42-22.98s14.08-13.2,22.14-18.48c1-.65,2-1.29,3.02-1.92l-.73-.56c-1.9,9.46-4.37,18.81-7.4,27.97s-6.67,18.28-10.83,27.07c-4.12,8.73-8.77,17.2-13.91,25.37-2.57,4.08-5.27,8.09-8.08,12.01s-5.92,7.85-8.69,11.9-5.15,8.1-6.67,12.63c-1.63,4.85-1.7,9.93-1.66,14.99,0,1.26.02,2.52,0,3.78,0,.64.99.64,1,0,.05-5.17-.33-10.43.79-15.52,1.04-4.74,3.35-9.11,5.94-13.17s5.66-7.97,8.55-11.91,5.56-7.79,8.16-11.81c5.24-8.1,9.99-16.53,14.21-25.2s7.87-17.47,11.02-26.51,5.78-18.42,7.82-27.85c.25-1.16.49-2.32.73-3.48.08-.41-.34-.81-.73-.56-8.28,5.1-15.95,11.15-22.85,17.99s-13.02,14.47-18.21,22.69-9.73,17.66-12.92,27.21c-3.47,10.38-5.57,21.22-6.29,32.14s-.05,21.94,2.04,32.69c.26,1.36.55,2.71.86,4.06.14.63,1.11.36.96-.27h0Z"/>
  </g>
  <path class="cls-5" d="m141.04,145c-2.3-20.73,8.86-48.35,23.03-77.16,9.76-19.84,23.03-38.01,34.55-50.67"/>
  <path class="cls-3" d="m131.56,120.38c0,5.09-1.31,9.67-3.93,13.74-2.62,4.07-6.42,7.4-11.4,10-4.42,2.29-9.28,3.96-14.57,5-5.29,1.04-11.34,1.56-18.15,1.56-5.03,0-10.21-.09-15.52-.27-5.31-.18-8.27-.29-8.88-.34.15-9.77.25-19,.31-27.67.05-8.68.08-16.96.08-24.85,0-14.96-.06-26.81-.19-35.54-.13-8.73-.19-13.27-.19-13.63.71-.05,3.52-.18,8.42-.38,4.9-.2,9.67-.31,14.3-.31,5.24,0,10.06.34,14.49,1.03s8.16,1.64,11.21,2.86c4.63,1.83,8.26,4.47,10.9,7.9,2.64,3.44,3.96,7.65,3.96,12.63,0,5.24-1.66,9.89-4.98,13.93-3.32,4.05-7.1,6.81-11.36,8.28v.76c3.5.31,6.9,1.13,10.2,2.48,3.3,1.35,6.19,3.27,8.68,5.76,2.18,2.19,3.83,4.61,4.95,7.25,1.12,2.65,1.67,5.9,1.67,9.77Zm-12.98.38c0-2.6-.46-4.92-1.37-6.99-.92-2.06-2.29-4.03-4.12-5.92-1.73-1.73-4.11-3.13-7.14-4.2-3.03-1.07-6.32-1.6-9.89-1.6-2.85,0-5.15.03-6.91.08-1.76.05-2.91.08-3.47.08l-1.22-9.16c3.77-.1,7.09-.55,9.96-1.34,2.87-.79,5.43-1.97,7.67-3.55,2.14-1.53,3.89-3.47,5.27-5.84,1.37-2.37,2.06-5.03,2.06-7.98,0-3.1-.76-5.79-2.29-8.05-1.52-2.26-3.61-4.06-6.25-5.38-2.24-1.07-4.98-1.87-8.23-2.4-3.25-.53-6.73-.8-10.44-.8-2.39,0-4.58.04-6.59.11-2.01.08-3.29.11-3.85.11-.15,7.43-.24,15.32-.27,23.67-.03,8.35-.04,14.4-.04,18.17,0,8.75.04,17.55.11,26.38.08,8.83.11,13.55.11,14.16,1.02.05,2.37.11,4.08.19,1.7.08,3.34.11,4.92.11,5.84,0,11.27-.3,16.27-.92,5-.61,9.23-1.88,12.69-3.82,2.84-1.58,5.04-3.64,6.59-6.18,1.55-2.54,2.32-5.52,2.32-8.93Z"/>
  <path class="cls-3" d="m249.78,111.83c0,5.9-1.06,11.55-3.17,16.95-2.11,5.39-5.15,10-9.12,13.82-3.36,3.21-7.09,5.65-11.18,7.33-4.1,1.68-8.74,2.52-13.93,2.52-4.89,0-9.47-.83-13.74-2.48-4.27-1.65-8.09-4.08-11.45-7.29-3.87-3.71-6.86-8.3-8.97-13.74-2.11-5.45-3.17-11.2-3.17-17.25s.9-11.23,2.71-16.15c1.81-4.91,4.62-9.33,8.44-13.25,3.41-3.56,7.38-6.3,11.91-8.21,4.53-1.91,9.31-2.86,14.35-2.86,5.29,0,10.09.88,14.39,2.63,4.3,1.76,8.13,4.39,11.49,7.9,3.87,4.02,6.74,8.54,8.63,13.55,1.88,5.01,2.82,10.52,2.82,16.53Zm-12.21.53c0-4.78-.78-9.44-2.33-13.97-1.55-4.53-3.96-8.35-7.21-11.45-1.99-1.93-4.34-3.42-7.06-4.47-2.72-1.04-5.56-1.56-8.51-1.56-3.51,0-6.56.56-9.16,1.68-2.6,1.12-5.04,2.88-7.33,5.27-2.7,2.75-4.82,6.26-6.37,10.53-1.55,4.27-2.33,8.7-2.33,13.28,0,5.19.79,9.96,2.37,14.31s4.12,8.1,7.63,11.26c1.98,1.78,4.27,3.14,6.87,4.08,2.6.94,5.34,1.41,8.24,1.41,3.21,0,6.2-.56,8.97-1.68,2.77-1.12,5.2-2.75,7.29-4.89,2.9-2.95,5.11-6.51,6.64-10.69,1.53-4.17,2.29-8.55,2.29-13.13Z"/>
  <path class="cls-3" d="m303.74,128.09c0,3.77-.92,7.13-2.75,10.08-1.83,2.95-4.23,5.34-7.19,7.18-3.11,1.93-6.79,3.4-11.05,4.39-4.26.99-8.96,1.49-14.11,1.49-2.5,0-5.09-.11-7.76-.34-2.68-.23-4.19-.37-4.55-.42l-.46-10c.46.05,2.23.19,5.31.42,3.08.23,6.15.34,9.2.34,1.78,0,4.07-.15,6.87-.46,2.8-.31,5.12-.87,6.95-1.68,2.54-1.12,4.43-2.49,5.65-4.12,1.22-1.63,1.83-3.59,1.83-5.88,0-2.09-.53-3.78-1.6-5.08-1.07-1.3-2.55-2.56-4.43-3.78-2.04-1.37-4.82-2.84-8.36-4.39-3.54-1.55-6.5-3.04-8.89-4.46-3.41-2.09-6.02-4.55-7.82-7.41-1.81-2.85-2.71-6.16-2.71-9.92s1.03-7.15,3.1-10.15c2.06-3,4.83-5.42,8.3-7.25,3.01-1.63,6.33-2.71,9.98-3.24,3.64-.53,7.18-.8,10.59-.8,3.11,0,5.66.05,7.65.15,1.99.1,3.14.15,3.44.15l.84,10.15c-.36,0-1.93-.1-4.71-.31-2.78-.2-5.83-.31-9.14-.31-2.35,0-4.58.2-6.7.61-2.12.41-3.92.99-5.39,1.76-2.19,1.12-3.76,2.47-4.71,4.05-.94,1.58-1.42,3.11-1.42,4.58,0,2.04.66,3.79,1.99,5.27,1.33,1.48,2.88,2.72,4.67,3.74,2.09,1.22,4.95,2.67,8.57,4.35s6.25,3.03,7.88,4.05c3.57,2.24,6.29,4.73,8.15,7.48,1.86,2.75,2.79,6.01,2.79,9.77Z"/>
  <path class="cls-3" d="m362.17,128.09c0,3.77-.92,7.13-2.75,10.08-1.83,2.95-4.23,5.34-7.19,7.18-3.11,1.93-6.79,3.4-11.05,4.39-4.26.99-8.96,1.49-14.11,1.49-2.5,0-5.09-.11-7.76-.34-2.68-.23-4.19-.37-4.55-.42l-.46-10c.46.05,2.23.19,5.31.42,3.08.23,6.15.34,9.2.34,1.78,0,4.07-.15,6.87-.46,2.8-.31,5.12-.87,6.95-1.68,2.54-1.12,4.43-2.49,5.65-4.12,1.22-1.63,1.83-3.59,1.83-5.88,0-2.09-.53-3.78-1.6-5.08-1.07-1.3-2.55-2.56-4.43-3.78-2.04-1.37-4.82-2.84-8.36-4.39-3.54-1.55-6.5-3.04-8.89-4.46-3.41-2.09-6.02-4.55-7.82-7.41-1.81-2.85-2.71-6.16-2.71-9.92s1.03-7.15,3.1-10.15c2.06-3,4.83-5.42,8.3-7.25,3.01-1.63,6.33-2.71,9.98-3.24,3.64-.53,7.18-.8,10.59-.8,3.11,0,5.66.05,7.65.15,1.99.1,3.14.15,3.44.15l.84,10.15c-.36,0-1.93-.1-4.71-.31-2.78-.2-5.83-.31-9.14-.31-2.35,0-4.58.2-6.7.61-2.12.41-3.92.99-5.39,1.76-2.19,1.12-3.76,2.47-4.71,4.05-.94,1.58-1.42,3.11-1.42,4.58,0,2.04.66,3.79,1.99,5.27,1.33,1.48,2.88,2.72,4.67,3.74,2.09,1.22,4.95,2.67,8.57,4.35s6.25,3.03,7.88,4.05c3.57,2.24,6.29,4.73,8.15,7.48,1.86,2.75,2.79,6.01,2.79,9.77Z"/>
  <path class="cls-3" d="m444.4,111.83c0,5.9-1.06,11.55-3.17,16.95-2.11,5.39-5.15,10-9.12,13.82-3.36,3.21-7.09,5.65-11.18,7.33-4.1,1.68-8.74,2.52-13.93,2.52-4.89,0-9.47-.83-13.74-2.48-4.27-1.65-8.09-4.08-11.45-7.29-3.87-3.71-6.86-8.3-8.97-13.74-2.11-5.45-3.17-11.2-3.17-17.25s.9-11.23,2.71-16.15c1.81-4.91,4.62-9.33,8.44-13.25,3.41-3.56,7.38-6.3,11.91-8.21,4.53-1.91,9.31-2.86,14.35-2.86,5.29,0,10.09.88,14.39,2.63,4.3,1.76,8.13,4.39,11.49,7.9,3.87,4.02,6.74,8.54,8.63,13.55,1.88,5.01,2.82,10.52,2.82,16.53Zm-12.21.53c0-4.78-.78-9.44-2.33-13.97-1.55-4.53-3.96-8.35-7.21-11.45-1.99-1.93-4.34-3.42-7.06-4.47-2.72-1.04-5.56-1.56-8.51-1.56-3.51,0-6.56.56-9.16,1.68-2.6,1.12-5.04,2.88-7.33,5.27-2.7,2.75-4.82,6.26-6.37,10.53-1.55,4.27-2.33,8.7-2.33,13.28,0,5.19.79,9.96,2.37,14.31s4.12,8.1,7.63,11.26c1.98,1.78,4.27,3.14,6.87,4.08,2.6.94,5.34,1.41,8.24,1.41,3.21,0,6.2-.56,8.97-1.68,2.77-1.12,5.2-2.75,7.29-4.89,2.9-2.95,5.11-6.51,6.64-10.69,1.53-4.17,2.29-8.55,2.29-13.13Z"/>
  <path class="cls-3" d="m563.76,150.46h-12.06c.05-.56.11-4.12.19-10.69.08-6.56.11-12.75.11-18.55,0-2.29-.01-6.04-.04-11.26-.03-5.22-.06-9.12-.11-11.72-.15-6.11-1.36-10.33-3.63-12.67-2.27-2.34-5.76-3.51-10.5-3.51-2.8,0-6.12.69-9.96,2.08s-8.18,3.54-13.02,6.47c0,.26.01.76.04,1.53.03.76.04,1.75.04,2.97,0,4.12-.03,8.3-.08,12.54-.05,4.24-.08,8.3-.08,12.16,0,8.44.06,15.53.19,21.27.13,5.74.19,8.87.19,9.38h-12.06c0-.56.05-3.64.15-9.24s.15-12.22.15-19.85c0-2.54-.01-6.4-.04-11.57-.03-5.16-.06-8.97-.11-11.41-.05-2.24-.25-4.38-.61-6.41-.36-2.04-1.02-3.77-1.99-5.19-1.07-1.58-2.44-2.76-4.12-3.55s-4.07-1.18-7.18-1.18c-2.85,0-6.18.83-10,2.5-3.82,1.67-8.2,4.07-13.13,7.19,0,.86-.03,4.11-.08,9.72-.05,5.62-.08,10.2-.08,13.76,0,6.05.06,13.31.19,21.77.13,8.46.19,12.95.19,13.46h-12.06c0-.41.05-3.37.15-8.89.1-5.52.15-14.67.15-27.44,0-4.17-.01-9.8-.04-16.87-.03-7.07-.11-15.09-.27-24.05h11.91l-.08,8.78.08.08c3.41-2.44,7.7-4.86,12.86-7.25,5.16-2.39,9.73-3.59,13.7-3.59,4.99,0,9.15,1.04,12.48,3.13,3.33,2.09,5.71,4.73,7.14,7.94h.15c5.85-3.61,11.23-6.36,16.15-8.25,4.91-1.88,9.1-2.82,12.56-2.82,7.02,0,12.51,2.05,16.45,6.15,3.94,4.1,5.92,9.63,5.92,16.6,0,5.4-.04,9.94-.11,13.63s-.11,7.6-.11,11.72c0,8.55.06,15.78.19,21.68.13,5.9.19,9.06.19,9.47Z"/>
</svg>