<?xml version="1.0" encoding="UTF-8"?>
<svg id="_レイヤー_1" data-name=" レイヤー 1" xmlns="http://www.w3.org/2000/svg" xmlns:xlink="http://www.w3.org/1999/xlink" viewBox="0 0 577 118">
  <defs>
    <style>
      .cls-1 {
        font-size: 25.07px;
      }

      .cls-1, .cls-2 {
        font-family: HiraMinProN-W3-83pv-RKSJ-H, 'Hiragino Mincho ProN';
      }

      .cls-1, .cls-2, .cls-3, .cls-4 {
        isolation: isolate;
      }

      .cls-1, .cls-2, .cls-5 {
        fill: #212529;
      }

      .cls-6 {
        letter-spacing: -.09em;
      }

      .cls-7 {
        letter-spacing: -.16em;
      }

      .cls-8 {
        letter-spacing: -.14em;
      }

      .cls-9 {
        letter-spacing: -.09em;
      }

      .cls-10 {
        letter-spacing: -.16em;
      }

      .cls-11 {
        fill: url(#_名称未設定グラデーション);
      }

      .cls-11, .cls-12, .cls-13, .cls-5 {
        stroke-width: 0px;
      }

      .cls-14 {
        letter-spacing: -.06em;
      }

      .cls-15 {
        letter-spacing: -.06em;
      }

      .cls-16 {
        letter-spacing: -.11em;
      }

      .cls-17 {
        letter-spacing: -.05em;
      }

      .cls-18 {
        opacity: .92;
      }

      .cls-2 {
        font-size: 23.88px;
      }

      .cls-19 {
        letter-spacing: -.13em;
      }

      .cls-20 {
        letter-spacing: -.08em;
      }

      .cls-13 {
        fill: #148444;
      }

      .cls-4 {
        fill: none;
        opacity: .1;
        stroke: #84d8ac;
        stroke-miterlimit: 10;
      }
    </style>
    <linearGradient id="_名称未設定グラデーション" data-name="名称未設定グラデーション" x1="336.77" y1="68.43" x2="367.79" y2="71.23" gradientTransform="translate(0 120) scale(1 -1)" gradientUnits="userSpaceOnUse">
      <stop offset="0" stop-color="#000"/>
      <stop offset="0" stop-color="#000603" stop-opacity=".99"/>
      <stop offset=".77" stop-color="#006837" stop-opacity=".6"/>
    </linearGradient>
  </defs>
  <g class="cls-3">
    <text class="cls-1" transform="translate(31.58 57.22)"><tspan class="cls-17" x="0" y="0">T</tspan><tspan x="15.22" y="0">otal Esthetic Salon</tspan></text>
    <text class="cls-2" transform="translate(27.9 84.58)"><tspan class="cls-19" x="0" y="0">ト</tspan><tspan class="cls-20" x="20.87" y="0">ー</tspan><tspan class="cls-10" x="42.91" y="0">タ</tspan><tspan class="cls-15" x="62.97" y="0">ル</tspan><tspan class="cls-6" x="85.37" y="0">エ</tspan><tspan class="cls-8" x="107.05" y="0">ス</tspan><tspan class="cls-9" x="127.64" y="0">テ</tspan><tspan class="cls-16" x="149.25" y="0">サ</tspan><tspan class="cls-7" x="170.46" y="0">ロ</tspan><tspan class="cls-14" x="190.61" y="0">ン</tspan></text>
  </g>
  <path class="cls-5" d="m283.15,83.92l5.19-5.56,1.27.29c1.63.41,3.19.72,4.66.91,2.21-1.36,3.7-3,4.47-4.92.78-1.92,1.48-5.65,2.11-11.19l3.4-30.72c-5.66.41-10.17,1.93-13.55,4.57-3.37,2.64-5.06,5.95-5.06,9.95,0,2.39.6,4.65,1.8,6.77l-6.58,5.79c-.57-2.1-.86-4.22-.86-6.37,0-7.35,3.14-13.38,9.42-18.07,6.28-4.7,14.3-7.05,24.08-7.05,12.61,0,18.91,3.62,18.91,10.85,0,6.17-4.38,11.11-13.13,14.8,8.56,3.11,12.84,7.88,12.84,14.31,0,5.24-2.65,9.41-7.97,12.52-5.31,3.11-12.42,4.66-21.32,4.66-5.47,0-12.04-.52-19.69-1.55h.01Zm24.95-26.63l-.6,5.47-.37,3.43c-.46,4.05-1.27,6.91-2.43,8.55-1.16,1.65-3.61,3.42-7.37,5.33,5.39.88,10.72,1.33,15.98,1.33,8.51,0,12.77-3.38,12.77-10.13,0-2.91-1.17-5.72-3.5-8.43s-5.18-4.55-8.54-5.53l-1.06.04-1.97.08-1.8-.08-1.11-.04v-.02Zm2.76-24.88l-2.39,21.57c1.61.14,3,.2,4.17.2,1.31,0,2.87-.09,4.7-.28,5.8-3.34,8.7-7.35,8.7-12.05,0-6.29-5.06-9.44-15.18-9.44h0Z"/>
  <path class="cls-12" d="m361.46,86c-6.68,0-10.02-4.42-10.02-13.27,0-7.12,2.61-13.99,7.84-20.59,5.22-6.6,10.64-9.91,16.25-9.91,6.77,0,10.15,4.42,10.15,13.27,0,7.15-2.61,14.03-7.84,20.62-5.22,6.59-10.69,9.88-16.39,9.88h0Zm5.39-4.99c3.41,0,6.27-1.9,8.57-5.7,2.3-3.8,3.45-8.53,3.45-14.2,0-9.26-2.88-13.89-8.64-13.89-3.38,0-6.23,1.91-8.53,5.72s-3.45,8.54-3.45,14.18c0,9.26,2.86,13.89,8.59,13.89h.01Z"/>
  <path class="cls-5" d="m383.52,83.6l6.16-5.03c2.32,2.46,5.24,3.7,8.75,3.7,4.28,0,6.42-2.06,6.42-6.19,0-2.29-1.97-5.48-5.9-9.57l-2.55-2.63c-3.72-3.89-5.58-7.03-5.58-9.44,0-3.44,1.49-6.34,4.47-8.68s6.66-3.52,11.02-3.52c2.37,0,4.97.45,7.79,1.34l-5.34,4.94c-2.26-1.69-4.76-2.54-7.52-2.54-3.24,0-4.85,1.35-4.85,4.05,0,1.93,1.8,4.76,5.39,8.5l2.76,2.94c4.1,4.27,6.14,7.72,6.14,10.33,0,3.74-1.8,7.04-5.39,9.91-3.59,2.86-7.73,4.3-12.42,4.3-3.32,0-6.44-.8-9.35-2.4h0Z"/>
  <path class="cls-5" d="m410.5,83.6l6.16-5.03c2.32,2.46,5.24,3.7,8.75,3.7,4.28,0,6.42-2.06,6.42-6.19,0-2.29-1.97-5.48-5.9-9.57l-2.55-2.63c-3.72-3.89-5.58-7.03-5.58-9.44,0-3.44,1.49-6.34,4.48-8.68,2.98-2.34,6.66-3.52,11.02-3.52,2.37,0,4.97.45,7.79,1.34l-5.34,4.94c-2.26-1.69-4.76-2.54-7.52-2.54-3.24,0-4.85,1.35-4.85,4.05,0,1.93,1.8,4.76,5.39,8.5l2.76,2.94c4.1,4.27,6.14,7.72,6.14,10.33,0,3.74-1.8,7.04-5.39,9.91-3.59,2.86-7.73,4.3-12.42,4.3-3.32,0-6.44-.8-9.35-2.4h-.01Z"/>
  <path class="cls-5" d="m452.34,86c-6.68,0-10.02-4.42-10.02-13.27,0-7.12,2.61-13.99,7.84-20.59,5.22-6.6,10.64-9.91,16.25-9.91,6.77,0,10.15,4.42,10.15,13.27,0,7.15-2.61,14.03-7.84,20.62s-10.69,9.88-16.39,9.88h0Zm5.39-4.99c3.41,0,6.27-1.9,8.57-5.7,2.3-3.8,3.45-8.53,3.45-14.2,0-9.26-2.88-13.89-8.64-13.89-3.38,0-6.23,1.91-8.53,5.72s-3.45,8.54-3.45,14.18c0,9.26,2.86,13.89,8.59,13.89h.01Z"/>
  <path class="cls-5" d="m509.93,83.29l-5.82,2.72.12-1.25.31-3.3.27-3.12,1.97-19.99.28-2.27c.1-1.19.16-2.34.16-3.47,0-2.88-.77-4.32-2.31-4.32-2.4,0-5.21,2.79-8.41,8.37-3.2,5.58-5.05,10.89-5.54,15.94l-1,10.69-5.86,2.72.12-1.25.31-3.3.31-3.12,2.01-20.66.24-2.36c.18-1.84.27-3.32.27-4.45,0-1.9-.42-2.85-1.26-2.85-1.96,0-4.08,2.52-6.36,7.57-.6-.56-.9-1.05-.9-1.47,0-1.78,1.43-4.21,4.29-7.28,2.86-3.07,5.13-4.61,6.8-4.61,2.25,0,3.37,1.63,3.37,4.9,0,.83-.07,1.94-.2,3.34l-.31,3.61-.32,3.03-.32,3.16,1.1-1.96c5.85-10.72,11.29-16.07,16.34-16.07,2.43,0,3.64,1.99,3.64,5.97,0,.68-.11,2.12-.31,4.32l-.39,4.1-.54,5.57c2.43-5.73,5.3-10.49,8.63-14.27,3.33-3.78,6.3-5.68,8.91-5.68s3.88,1.9,3.88,5.7c0,1.63-.15,3.58-.45,5.83l-2.08,16.52c-.46,3.41-.69,6.06-.69,7.93,0,1.57.38,2.36,1.14,2.36.89,0,2.02-.85,3.37-2.54s2.44-3.61,3.25-5.74c.71.53,1.06,1.02,1.06,1.47,0,1.87-1.46,4.38-4.38,7.52-2.92,3.15-5.25,4.72-6.98,4.72-2.23,0-3.34-1.69-3.34-5.08,0-2.14.29-5.45.86-9.93l1.39-10.73c.05-.39.14-1.23.27-2.54.05-.53.14-1.44.27-2.72.13-1.28.2-2.26.2-2.94,0-2.52-.73-3.78-2.19-3.78-2.45,0-5.29,2.79-8.53,8.37-3.24,5.58-5.11,10.89-5.6,15.94l-1.04,10.69h0Z"/>
  <g class="cls-18">
    <path class="cls-11" d="m338.25,85.28c-3.03-13.23-1.81-27.4,3.44-39.92,5.25-12.52,14.51-23.32,26.07-30.43-3.57,17.82-11.14,34.84-21.99,49.42-2.75,3.69-5.82,7.57-6.99,11.89-.76,2.8-.54,5.84-.57,8.71"/>
    <path class="cls-13" d="m338.74,85.15c-2.48-10.91-2.08-22.41,1.11-33.13,2.91-9.76,8.18-18.75,15.2-26.13,3.85-4.05,8.22-7.59,12.97-10.53l-.73-.56c-1.98,9.83-5.15,19.41-9.44,28.47-2.14,4.52-4.55,8.9-7.22,13.13-1.35,2.14-2.77,4.24-4.26,6.3s-2.99,3.96-4.39,6.01c-1.55,2.28-2.96,4.72-3.68,7.4-.78,2.88-.56,5.9-.59,8.85,0,.64.99.64,1,0,.03-2.67-.18-5.4.42-8.03.55-2.45,1.76-4.7,3.11-6.8s2.88-4.05,4.36-6.05,2.9-4.07,4.25-6.17c5.36-8.31,9.72-17.27,12.97-26.62,1.84-5.3,3.32-10.73,4.43-16.23.08-.41-.34-.81-.73-.56-8.59,5.3-15.91,12.57-21.3,21.11-5.83,9.24-9.23,19.89-9.95,30.78-.42,6.37.09,12.8,1.51,19.02.14.63,1.11.36.96-.27h0Z"/>
  </g>
  <path class="cls-4" d="m337.83,81.05c-1.35-12.15,5.19-28.32,13.49-45.21,5.72-11.62,13.49-22.27,20.24-29.69"/>
</svg>