<?xml version="1.0" encoding="UTF-8"?>
<svg id="_レイヤー_1" data-name="レイヤー 1" xmlns="http://www.w3.org/2000/svg" viewBox="0 0 87 25.5">
  <defs>
    <style>
      .cls-1 {
        fill: #9eb384;
      }

      .cls-1, .cls-2 {
        stroke-width: 0px;
      }

      .cls-2 {
        fill: #fff;
      }
    </style>
  </defs>
  <path class="cls-1" d="m74,24.8H13c-6.6,0-12-5.4-12-12h0C1,6.2,6.4.8,13,.8h61c6.6,0,12,5.4,12,12h0c0,6.6-5.4,12-12,12Z"/>
  <g>
    <path class="cls-2" d="m35.5,15.8h-.6l-1.3-5.4c-.1-.4-.2-.7-.4-.8-.1-.1-.2-.1-.5-.2v-.2h2.3v.2c-.3,0-.4,0-.5.1s-.2.2-.2.4c0,.1,0,.2.1.7l1,4.2,1.6-5.5h.6l1.5,5.4,1-3.9c.1-.3.1-.6.1-.8s-.1-.4-.3-.5c-.1,0-.3-.1-.4-.1v-.2h2.1v.2c-.6.1-.8.3-1,1.3l-1.4,5h-.5l-1.5-5.5-1.7,5.6Z"/>
    <path class="cls-2" d="m42,15.5c.3,0,.5,0,.6-.1s.1-.1.1-.8v-4.9c-.1-.2-.2-.3-.6-.3v-.2h4.5l.1,1.6h-.3c-.2-1.1-.5-1.4-1.7-1.4h-1.2v2.7h.9c1,0,1.2-.1,1.3-.9h.3v2.1h-.3c-.1-.4-.1-.6-.3-.7-.1-.1-.5-.2-1-.2h-.9v3h1.4c1.1,0,1.5-.3,1.7-1.5h.3l-.2,1.8h-4.7v-.2Z"/>
    <path class="cls-2" d="m47.7,15.5c.3,0,.5,0,.6-.1s.1-.1.1-.8v-4.9c-.1-.2-.2-.3-.6-.3v-.2h2.5c.7,0,1.3.1,1.7.3.5.3.8.7.8,1.3,0,.9-.5,1.3-1.7,1.5v.1c.4,0,.7.1,1,.2.6.3.9.8.9,1.5,0,.8-.4,1.3-1.2,1.6-.3.1-.9.2-1.5.2h-2.4v-.4h-.2Zm2.4-3.4c1.1,0,1.6-.5,1.6-1.3,0-.9-.6-1.3-1.7-1.3h-.8v2.6h.9Zm-.1,3.3c.7,0,1.1-.1,1.4-.4.3-.2.5-.7.5-1.2,0-.6-.2-1.1-.7-1.3-.3-.1-.7-.2-1.2-.2h-.9v3.1h.9Z"/>
    <path class="cls-2" d="m61.7,9.1c.2-.2.2-.3.4-.5.3.3.4.3.7.6q.1.1.1.2c0,.1-.1.1-.2.1h-.3c-.6.4-1.6,1.1-2,1.3.2.2.3.3.3.5s-.1.4-.2.5h2.1c.2-.2.2-.3.4-.4.4.3.5.4.8.6.1,0,.1.1.1.1h0s0,.1-.1.1c0,0-.1,0-.2.1h-.4c-.8.6-1.4,1-2.1,1.3l-.1-.1c.7-.6,1.2-1,1.5-1.6h-2.4v3.7c0,.4-.1.5-.3.7-.1.1-.3.1-.7.2-.1-.3-.2-.5-.5-.6-.2-.1-.4-.1-1.3-.2v-.1q1.2.1,2,.1.2,0,.2-.2v-3.7h-3.8l-.1-.3c.3.1.6.1,1.1.1h3.5s-.2-.2-.4-.6c-.3-.4-.9-.9-1.5-1.4l.1-.1c.7.3,1.2.6,1.7,1,.4-.3,1-.9,1.4-1.3h-4.7v-.2c.4.1.6.1,1,.1h3.9Z"/>
    <path class="cls-2" d="m64.8,16.3c.4-.9.5-1.8.6-2.9q.8.2.8.3c0,.1-.1.1-.3.2-.3,1-.5,1.5-1,2.5l-.1-.1Zm.2-6.5c.4.2.5.2.7.4.4-.7.6-1.3.7-1.8.2.1.4.1.5.2.4.1.5.2.5.3s-.1.1-.4.1c-.2.3-.3.4-.9,1q0,.1-.3.3c.2.2.3.2.4.3s.2.2.2.3-.1.3-.1.4-.1.1-.1.1q-.1,0-.2-.2c0-.1-.2-.4-.3-.5-.2-.3-.4-.4-.7-.9h0Zm1.5,2.8c-.3.1-.4.1-1.1.2,0,.2-.1.3-.2.3s-.1-.1-.3-.9h1c.3-.3.4-.5.8-1.1.5-.8.7-1.2.8-1.7.2.1.4.1.5.2.4.1.5.2.5.2,0,.1-.1.1-.4.1-.6.8-1.2,1.6-1.8,2.2.4,0,.6,0,1.6-.1-.1-.3-.2-.4-.4-.7l.1-.1c.4.3.6.6.8.8.1.2.2.3.2.4,0,.2-.2.5-.3.5s-.1-.1-.2-.3c0-.1-.1-.2-.2-.4,0,0-.3.1-.8.2v4.1c0,.1-.1.1-.4.1q-.1,0-.1-.1v-3.9h-.1Zm1,.7c.6.8.9,1.3.9,1.6s-.2.7-.4.7q-.1,0-.1-.1t-.1-.5c-.1-.6-.2-1.1-.5-1.7h.2Zm4.6-3q.2-.2.4-.4c.2.2.3.2.5.4l.1.1c0,.1-.1.1-.3.2-.1,2.6-.1,2.7-.2,3.4s-.2,1.4-.4,1.8c-.2.5-.5.7-1.3.8-.1-.3-.1-.4-.4-.5-.2-.1-.4-.1-1.1-.3v-.1c1.1.1,1.5.1,1.8.1.2,0,.3,0,.4-.3.3-.6.5-2.6.5-4.7v-.4h-2.7c-.3.6-.5.9-1,1.5l-.1-.1c.4-.7.6-1.3.9-2.2.1-.5.2-.8.3-1.3.8.2,1,.3,1,.4s-.1.1-.4.2c-.3.7-.4.9-.6,1.3h2.6v.1Zm-2.7,1.4c.5.4.8.7,1.2,1,.3.3.4.5.4.7,0,.3-.2.7-.4.7-.1,0-.1-.1-.2-.2-.2-.7-.6-1.4-1.1-2.1l.1-.1Z"/>
  </g>
  <g>
    <path class="cls-2" d="m23.6,7.9h-1.2v-.3c0-.6-.5-1.1-1.1-1.1h-.5c-.6,0-1.1.5-1.1,1.1v.3h-1.7v-.3c0-.6-.5-1.1-1-1.1h-.5c-.6,0-1.1.5-1.1,1.1v.3h-1.2c-.2,0-.4.2-.4.4v9.2c0,.2.2.4.4.4h9.2c.2,0,.4-.2.4-.4v-9.2c.2-.2,0-.4-.2-.4Zm-7.1-.4h.5c.1,0,.1.1.1.2v1.2s0,.1-.1.1h-.6s-.1,0-.1-.1v-1.3q.1-.1.2-.1Zm4.4,0h.5c.1,0,.2.1.2.2v1.2s0,.1-.1.1h-.6s-.1,0-.1-.1v-1.3c-.1-.1,0-.1.1-.1Zm1.9,3.1v6.2h-7.7v-6.2h7.7Z"/>
    <polygon class="cls-2" points="16.3 12.7 16.3 12.7 17.2 12.7 17.2 11.8 16.3 11.8 16.3 12.7"/>
    <rect class="cls-2" x="17.8" y="11.8" width=".9" height=".9"/>
    <rect class="cls-2" x="19.2" y="11.8" width=".9" height=".9"/>
    <polygon class="cls-2" points="20.7 12.7 20.7 12.7 21.6 12.7 21.6 11.8 20.7 11.8 20.7 12.7"/>
    <polygon class="cls-2" points="16.3 14.2 17.2 14.2 17.2 13.2 16.3 13.2 16.3 14.1 16.3 14.1 16.3 14.1 16.3 14.2"/>
    <rect class="cls-2" x="17.8" y="13.2" width=".9" height=".9"/>
    <rect class="cls-2" x="19.2" y="13.2" width=".9" height=".9"/>
    <polygon class="cls-2" points="20.7 14.2 21.6 14.2 21.6 13.2 20.7 13.2 20.7 14.1 20.7 14.1 20.7 14.1 20.7 14.2"/>
    <polygon class="cls-2" points="16.3 15.6 17.2 15.6 17.2 14.7 16.3 14.7 16.3 15.6 16.3 15.6 16.3 15.6"/>
    <rect class="cls-2" x="17.8" y="14.7" width=".9" height=".9"/>
    <rect class="cls-2" x="19.2" y="14.7" width=".9" height=".9"/>
    <polygon class="cls-2" points="20.7 15.6 21.6 15.6 21.6 14.7 20.7 14.7 20.7 15.6 20.7 15.6 20.7 15.6"/>
  </g>
</svg>