<?xml version="1.0" encoding="UTF-8"?>
<svg id="_レイヤー_1" data-name=" レイヤー 1" xmlns="http://www.w3.org/2000/svg" viewBox="0 0 787.06 413.23">
  <defs>
    <style>
      .cls-1 {
        fill: none;
        isolation: isolate;
        opacity: .2;
        stroke: #665a48;
        stroke-miterlimit: 10;
      }

      .cls-2, .cls-3, .cls-4, .cls-5 {
        stroke-width: 0px;
      }

      .cls-3 {
        fill: #665a48;
      }

      .cls-4 {
        fill: #ffd95a;
      }

      .cls-5 {
        fill: #e82147;
      }
    </style>
  </defs>
  <path class="cls-3" d="m66.21,43.17v39.77H26.44v-39.77h39.77m2-2H24.44v43.77h43.77v-43.77h0Z"/>
  <path class="cls-3" d="m66.21,348.16v39.77H26.44v-39.77h39.77m2-2H24.44v43.77h43.77v-43.77h0Z"/>
  <path class="cls-3" d="m66.21,248.96v39.77H26.44v-39.77h39.77m2-2H24.44v43.77h43.77v-43.77h0Z"/>
  <path class="cls-3" d="m66.21,146.98v39.77H26.44v-39.77h39.77m2-2H24.44v43.77h43.77v-43.77h0Z"/>
  <g>
    <path class="cls-2" d="m89.17,34.48c.8.68.84.7,1.2.84.3.1.74.16,1.18.16.94,0,3.12-.32,4.42-.64.88-.22,1.6-.5,2.1-.8.14-.08.22-.12.3-.12.18,0,.62.16.92.34.4.22.6.46.6.7,0,.26-.32.42-1.24.6-1.12.22-3.28.52-4.6.66.98.58,1.34.92,1.34,1.3,0,.12-.02.24-.14.9-.16.88-.32,2.54-.42,4.26,1.02-.06,2.34-.12,3.16-.14,1.92-.04,2.04-.06,2.68-.26.04-.02.08-.02.16-.02.28,0,.64.14,1.14.46.46.3.78.68.78.94,0,.24-.2.42-.48.42-.12,0-.16,0-1.44-.24-1.08-.2-2.98-.36-4.28-.36-1.64,0-3.42.2-5.04.56-1.18.26-1.58.4-2.58.84-.2.1-.42.16-.58.16-.56,0-1.28-.54-1.76-1.32-.28-.42-.42-.8-.42-1.04,0-.1.02-.14.1-.24.54.74,1.12,1.08,1.88,1.08.62,0,1.06-.06,3.88-.5.26-.04.48-.08,1.64-.22.06-1.4.1-2.62.1-3.88,0-1.74-.1-2.2-.62-2.56-.62.02-.94.04-1.3.04-1.32,0-1.94-.36-2.94-1.72l.26-.2h0Z"/>
    <path class="cls-2" d="m106.47,46.24c1.92-1.2,3.9-2.82,5.38-4.38,1.2-1.26,2.64-3.14,3.82-4.98.64-.98.98-1.64,1.36-2.58-.96.06-2.02.28-4.22.88-.96.26-1.04.28-1.68.54-.1.04-.22.06-.34.06-.44,0-.86-.36-1.3-1.14-.28-.46-.42-.88-.42-1.2,0-.12.04-.22.14-.4.58,1.04,1,1.34,1.88,1.34.66,0,2.68-.26,4.2-.56,1.16-.22,1.52-.34,1.88-.56.22-.14.32-.18.46-.18.42,0,1.56,1.02,1.56,1.4,0,.14-.08.26-.26.38-.28.19-.66.64-1.14,1.36-.64.96-1.48,2.12-2.52,3.48,2.82,1.48,4.4,2.5,5.18,3.38.54.58.76,1.16.76,1.98,0,.64-.2,1.04-.54,1.04-.14,0-.3-.1-.46-.32-.05-.07-.21-.33-.48-.8-1-1.68-2.72-3.46-4.76-4.9-1.62,1.96-2.92,3.18-4.84,4.5-1.26.88-2.12,1.36-3.5,1.96l-.16-.3h0Z"/>
    <path class="cls-2" d="m130.47,47.6c1.32-1.48,2.16-2.86,2.88-4.72.56-1.46.96-3.14.96-4.08,0-.48-.12-.7-.5-.98-1.3.14-3.5.76-4.44,1.26-.34.16-.42.2-.64.2-.42,0-1.02-.42-1.56-1.14-.2-.26-.4-.7-.4-.88,0-.1.02-.16.08-.38.48.68.96.96,1.68.96.54,0,.66-.02,3.42-.5,1.22-.2,3.48-.48,6.16-.74.4-.04,1.14-.2,1.56-.34.21-.07.38-.1.5-.1.28,0,.66.1,1.06.3.54.26.94.64.94.92,0,.24-.22.4-.56.4-.16,0-.22,0-.5-.06-.8-.16-2.12-.26-3.22-.26-1.22,0-2.28.06-3.28.2.92.52,1.3.92,1.3,1.38,0,.76-.56,2.48-1.26,3.92-1.1,2.26-2.1,3.48-3.96,4.88l-.22-.24h0Zm-.38-15.44c.84.8,1.46,1.08,2.38,1.08,1.34,0,3.12-.42,4.22-.98.22-.12.4-.16.6-.16.52,0,1.36.66,1.36,1.06,0,.24-.24.36-1.04.54-1.3.26-3.52.52-4.56.52-1.5,0-2.28-.44-3.24-1.86l.28-.2h0Z"/>
    <path class="cls-2" d="m150.87,39.58c-.36,1.26-.92,3.44-1.16,4.42-.2.88-.26,1.2-.26,1.7-.02.64-.04.72-.14.88-.1.14-.22.22-.38.22-.34,0-.62-.28-.86-.9-.4-1.02-.64-2.54-.64-4.02,0-1.84.22-3.52.9-6.66.26-1.24.3-1.46.3-1.8,0-.6-.16-1.08-.58-1.76.46.02.84.28,1.4,1,.46.58.72,1.14.72,1.52,0,.15-.11.44-.32.88-.96,2-1.52,4.38-1.52,6.52,0,1.02.08,1.66.32,2.48l.84-2,1.08-2.58.3.1h0Zm2-3.62c.96.62,1.58.82,2.58.82.7,0,1.46-.1,2.28-.28v-.88c0-2.24-.02-2.5-.28-2.78-.24-.26-.68-.4-1.32-.46.28-.26.44-.32.96-.32.44,0,.98.08,1.36.18.58.18.88.42.88.72,0,.14,0,.16-.18.62-.22.58-.34,1.3-.42,2.68.92-.26,1.5-.52,1.84-.82.2-.2.26-.22.44-.22.24,0,.7.12.94.26.16.08.26.22.26.36,0,.44-1.46,1.04-3.54,1.44,0,2.66.06,3.76.26,5.44,2.32.62,3.3,1.4,3.3,2.56,0,.42-.18.74-.4.74-.16,0-.3-.1-.7-.5-.88-.9-1.38-1.26-2.16-1.6.02.18.02.34.02.48,0,1.44-1.2,2.3-3.2,2.3-1.74,0-2.96-.84-2.96-2.04,0-1.38,1.48-2.26,3.76-2.26.38,0,.66.02,1.22.06v-.34l-.04-2.14-.02-2.56c-.6.12-1.18.16-1.76.16-1.46,0-2.3-.36-3.3-1.4l.18-.22h0Zm3.06,7.3c-1.58,0-2.56.52-2.56,1.4,0,.7.78,1.18,1.96,1.18,1.1,0,1.88-.32,2.2-.94.2-.36.26-.66.26-1.4-.56-.16-1.12-.24-1.86-.24Z"/>
    <path class="cls-2" d="m172.79,31.3c.48,0,1.02.08,1.6.24.68.18,1,.46,1,.86,0,.11-.05.29-.16.56-.22.62-.4,1.86-.4,2.88v.38c.2.18.3.22.54.22.76,0,2.3-.6,3.04-1.18.22-.16.32-.22.44-.22.18,0,.58.12.86.26.32.18.42.3.42.48,0,.3-.26.46-1.18.8-1.08.4-2.04.62-2.78.62-.58,0-.9-.12-1.34-.5v.88c0,1.58.1,3.92.22,5.22,1.56.26,3.04.78,4.22,1.46.86.48,1.24,1.02,1.24,1.72,0,.48-.14.76-.4.76-.14,0-.26-.08-.48-.26-1.7-1.44-2.64-1.98-4.5-2.54.03.63.04,1.06.04,1.3,0,.98-.46,1.62-1.42,1.98-.48.18-1.32.3-2.04.3-2.1,0-3.42-.84-3.42-2.18,0-.96.68-1.72,1.94-2.2.78-.3,1.86-.48,2.9-.48.16,0,.42,0,.76.02-.08-5.36-.17-8.49-.28-9.38-.14-1.16-.44-1.48-1.74-1.7.32-.24.48-.3.92-.3h0Zm-.44,12.3c-2.06,0-3.54.7-3.54,1.7,0,.8.82,1.26,2.24,1.26,1.16,0,2.12-.32,2.5-.82.26-.32.32-.74.32-2.1-.64-.04-.88-.04-1.52-.04h0Z"/>
    <path class="cls-2" d="m194.37,30.74c.56,0,1.66.52,2.22,1.06.32.32.44.52.44.8,0,.26-.1.38-1.16,1.24-1.08.9-3.04,2.74-3.68,3.46-.7.78-.96,1.24-.96,1.62,0,.28.2.64.6,1.04.19.2.65.64,1.4,1.32,2.18,2.02,3.2,3.14,3.68,4.08.22.42.3.78.3,1.32,0,.76-.26,1.2-.68,1.2-.26,0-.34-.1-.68-.82-.36-.78-.98-1.84-1.68-2.82-.74-1.06-.84-1.18-2.92-3.62-.54-.66-.76-1.14-.76-1.68,0-.64.32-1.18,1.54-2.68,2.42-2.94,3.02-3.78,3.02-4.26,0-.34-.26-.64-1.1-1.18.14-.06.24-.08.42-.08h0Z"/>
    <path class="cls-2" d="m206.71,35.7c.8.72,1.5,1.02,2.38,1.02.56,0,1.08-.06,2-.26.02-.58.02-1.48.02-1.84,0-2.1-.24-2.52-1.62-2.76.28-.22.44-.28.86-.28.68,0,1.52.2,2.06.5.26.14.44.42.44.64,0,.08-.07.25-.22.52-.32.58-.52,1.52-.62,2.98,1.06-.36,1.54-.62,2.18-1.16.16-.12.36-.2.48-.2.18,0,.52.08.76.18.2.08.34.26.34.44,0,.28-.18.44-.9.78-.9.42-1.84.74-2.92.98-.01.19-.03.52-.06,1-.02.54-.06,1.42-.08,2.62,2.24-.8,3.68-1.1,5.3-1.1,2.74,0,4.46,1.3,4.46,3.42,0,1.96-1.5,3.48-3.42,3.48s-3.16-1.22-3.86-3.54l.3-.1c.48.92.78,1.34,1.2,1.74.56.52,1.18.76,1.9.76,1.46,0,2.5-1.14,2.5-2.74s-1.04-2.38-2.96-2.38c-1.58,0-3.48.5-5.42,1.44,0,1.41,0,2.32.02,2.72.02.38.02.6.02.76,0,.48-.08.86-.26,1.18-.24.46-.62.74-.96.74-.19,0-.69-.36-1.5-1.08-.42-.34-1-.74-1.34-.9-.44-.2-.66-.5-.66-.84,0-.32.2-.72.6-1.12.74-.76,1.42-1.2,3.18-2.06.02-.28.02-.58.04-.96.03-.6.06-1.56.1-2.88-.62.1-1.08.14-1.56.14-1.28,0-2.14-.46-2.98-1.64l.2-.2h0Zm2.2,8.1c-.4.42-.6.74-.6.96,0,.2.26.42.8.62.44.18.98.32,1.24.32.24,0,.34-.14.36-.5.1-1.8.14-2.78.14-2.9-.94.58-1.44.96-1.94,1.5Zm8.92-10.12c1.22.06,2.12.28,2.94.72.88.48,1.4,1.14,1.4,1.76,0,.36-.24.58-.6.58-.04,0-.14,0-.3-.04-.28-.04-.36-.04-.42-.04-.3,0-.78.1-2.46.54l-.12-.2c1.2-.62,1.9-1.04,2.18-1.28-.32-.56-.64-.88-1.26-1.24-.4-.22-.72-.34-1.38-.52l.02-.28h0Z"/>
    <path class="cls-2" d="m231.41,47.82c2.32-1.58,3.3-2.86,3.8-5-.46.28-.82.4-1.28.4-1.4,0-2.46-1.24-2.46-2.88,0-1.76,1.1-3.06,2.58-3.06.38,0,.6.06,1.12.34,0-.34.02-1.44.02-2.08,0-.04,0-.22-.02-.4-1.56.14-3.42.52-5.04,1-.5.16-.84.3-1.3.54-.12.04-.34.1-.46.1-.36,0-.82-.28-1.28-.76-.44-.48-.8-1.14-.8-1.46,0-.04.04-.14.1-.24.52.68,1.14,1.02,1.94,1.02.4,0,.84-.04,1.72-.18,2.36-.38,3.08-.48,5.12-.7,0-1.2-.06-1.78-.22-2.22-.22-.56-.7-.84-1.72-.98.24-.3.38-.36.92-.36.68,0,1.36.1,1.94.28.48.16.76.42.76.7,0,.16-.02.2-.2.54-.22.42-.36.98-.44,1.94.35-.04.78-.08,1.3-.12,1.92-.14,2.14-.18,2.66-.36.5-.2.58-.22.74-.22.4,0,1.2.34,1.7.74.24.18.32.32.32.54s-.14.34-.44.34c-.14,0-.18,0-1.08-.12-1.04-.14-1.9-.2-3.08-.2-.74,0-1.32.02-2.14.08-.08.76-.14,1.98-.14,2.72,0,.14,0,.38.02.68.5,1.02.64,1.64.64,2.66,0,1.96-.78,3.78-2.16,5.08-.76.72-1.74,1.36-2.98,1.9,0,0-.16-.26-.16-.26Zm2.54-10.06c-.9,0-1.6.94-1.6,2.16s.68,2.18,1.62,2.18c.86,0,1.28-.64,1.28-1.88,0-1.66-.42-2.46-1.3-2.46h0Z"/>
    <path class="cls-2" d="m251.41,47.82c2.32-1.58,3.3-2.86,3.8-5-.46.28-.82.4-1.28.4-1.4,0-2.46-1.24-2.46-2.88,0-1.76,1.1-3.06,2.58-3.06.38,0,.6.06,1.12.34,0-.34.02-1.44.02-2.08,0-.04,0-.22-.02-.4-1.56.14-3.42.52-5.04,1-.5.16-.84.3-1.3.54-.12.04-.34.1-.46.1-.36,0-.82-.28-1.28-.76-.44-.48-.8-1.14-.8-1.46,0-.04.04-.14.1-.24.52.68,1.14,1.02,1.94,1.02.4,0,.84-.04,1.72-.18,2.36-.38,3.08-.48,5.12-.7,0-1.2-.06-1.78-.22-2.22-.22-.56-.7-.84-1.72-.98.24-.3.38-.36.92-.36.68,0,1.36.1,1.94.28.48.16.76.42.76.7,0,.16-.02.2-.2.54-.22.42-.36.98-.44,1.94.35-.04.78-.08,1.3-.12,1.92-.14,2.14-.18,2.66-.36.5-.2.58-.22.74-.22.4,0,1.2.34,1.7.74.24.18.32.32.32.54s-.14.34-.44.34c-.14,0-.18,0-1.08-.12-1.04-.14-1.9-.2-3.08-.2-.74,0-1.32.02-2.14.08-.08.76-.14,1.98-.14,2.72,0,.14,0,.38.02.68.5,1.02.64,1.64.64,2.66,0,1.96-.78,3.78-2.16,5.08-.76.72-1.74,1.36-2.98,1.9l-.16-.26h0Zm2.54-10.06c-.9,0-1.6.94-1.6,2.16s.68,2.18,1.62,2.18c.86,0,1.28-.64,1.28-1.88,0-1.66-.42-2.46-1.3-2.46h0Z"/>
    <path class="cls-2" d="m268.91,32.86c.78.58,1.26,1.1,1.54,1.64.18.36.4,1.1.62,2.1,1.38-.74,2.4-1.04,4.18-1.26.26-.98.38-1.76.38-2.34,0-.5-.22-.66-.94-.66h-.38l-.06-.22c.54-.24.96-.34,1.28-.34.76,0,1.58.64,1.58,1.22,0,.36-.3,1.5-.6,2.32,3.32.14,5.6,2.28,5.6,5.28,0,2.22-1.28,4.12-3.64,5.36-1.22.64-2.34.96-3.92,1.16l-.08-.28c1.72-.52,2.82-1.1,3.88-2,1.44-1.26,2.2-2.84,2.2-4.58,0-1.54-.62-2.82-1.72-3.6-.72-.5-1.42-.72-2.5-.78-.82,2.22-2.1,4.62-3.36,6.24.28.42.38.56.72,1,.58.72.62.8.62,1.04s-.22.44-.48.44c-.46,0-1.08-.54-1.72-1.46-.3.42-.76.86-1.54,1.48-.66.5-1.12.72-1.6.72s-.68-.26-.88-1.02c-.18-.64-.26-.82-.6-1.3-.34-.46-.46-.8-.46-1.22,0-1.58,1.14-3.28,3.14-4.66-.36-2.28-.58-2.92-1.52-4.08,0,0,.26-.2.26-.2Zm-.08,6.88c-.44.74-.68,1.6-.68,2.36,0,.9.56,1.92,1.04,1.92s1.46-.7,2.42-1.72c-.56-1.3-.82-2.22-1.24-4.32-.78.68-1.16,1.1-1.54,1.76h0Zm3.62,1.52c1.12-1.58,2.02-3.38,2.62-5.32-1.72.26-2.64.6-3.86,1.44.6,2.34.76,2.84,1.24,3.88Z"/>
    <path class="cls-2" d="m297.09,32.62c.8.32,1.9.62,2.26.62.08,0,.12,0,.2-.02h.12c.5,0,.78.22.78.62,0,.3-.34.6-1.1,1.04-.72.38-.98.5-2.92,1.24,1.04,1.48,2.14,3.2,2.74,4.32.32.58.44,1,.44,1.5,0,.78-.14,1.06-.54,1.06-.22,0-.34-.06-.62-.34-.4-.38-.9-.74-1.34-.94-1.02-.48-2.34-.76-3.62-.76-2.3,0-3.74.9-3.74,2.34,0,.86.58,1.6,1.56,2.02.7.28,1.7.44,2.78.44.76,0,1.22-.04,1.74-.14.1-.02.18-.04.24-.04.52,0,1.24.64,1.24,1.08,0,.5-.34.62-1.74.62-1.5,0-2.88-.18-3.92-.54-1.8-.6-2.86-1.82-2.86-3.26,0-2,1.98-3.2,5.26-3.2,1.34,0,2.84.2,3.92.52-.44-1.38-1.28-2.88-2.4-4.44-1.44.44-2.74.66-4.06.66-1.52,0-2.66-.54-3.68-1.76l.22-.2c1.08.8,1.94,1.1,3.2,1.1,1.06,0,2.36-.22,3.7-.62-.84-1.1-1.98-2.16-2.78-2.6-.62-.34-.76-.5-.76-.78,0-.46.5-.74,1.36-.74.72,0,1.44.12,2.34.42l-.1.3c-.46-.06-.76-.08-.9-.08-.42,0-.62.08-.62.22,0,.1.2.36.82,1.06.22.26.74.9,1.54,1.92.17-.08.59-.25,1.26-.52.46-.2.84-.38,1.46-.74-.52-.42-.54-.44-1.62-1.16l.14-.22h0Z"/>
    <path class="cls-2" d="m310.07,37.76c.01-.21.03-.49.04-.84.01-.35.03-.58.06-.7-.6.4-1.66,1.12-2.02,1.38-.38.26-.5.32-.68.32-.52,0-1.48-1.18-1.48-1.82,0-.04.02-.2.06-.34.44.64.88.96,1.3.96s1.7-.54,2.88-1.2c.1-.84.14-1.4.14-2.12,0-1.16-.18-1.5-1.14-2.22.12-.08.16-.1.26-.1.32,0,.76.2,1.28.54.64.44,1.04.94,1.04,1.32,0,.15-.07.42-.2.82-.14.38-.28,1.02-.36,1.58.44.46.58.62.58.78,0,.12-.02.16-.28.58-.24.44-.44.82-.64,1.3-.04.34-.04.42-.04.74,1.96-1.86,2.62-2.44,3.48-3.06,1.4-1,2.34-1.42,3.22-1.42.62,0,1.18.26,1.58.72.38.44.54.98.54,1.76s-.02.9-.4,2.96c-.24,1.3-.36,2.46-.36,3.28s.14,1.22.5,1.48c.28.2.64.3,1.02.3,1,0,2.4-.52,3.72-1.42l.16.24c-1.44,1.48-3,2.3-4.42,2.3-1.52,0-2.34-.98-2.34-2.8,0-.72.18-2,.5-3.56.46-2.14.5-2.42.5-3.16,0-.98-.44-1.54-1.22-1.54-.86,0-1.9.6-3.5,2.02-1.04.92-1.98,1.9-3.04,3.16-.02.48-.02.74-.02,1.04,0,1.08.06,2.04.2,3.58.06.48.06.64.06.94,0,1.14-.38,2.08-.86,2.08-.22,0-.38-.16-.48-.54-.06-.2-.28-.82-.34-.96-.22-.4-.86-1.22-1.76-2.18-.4.96-.48,1.08-.68,1.08-.18,0-.34-.16-.46-.46-.12-.32-.22-.8-.22-1.1,0-.24.02-.28.34-.6.32-.3.64-.74,1.3-1.78,0,0,2.18-3.34,2.18-3.34Zm-1.22,3.74c-.46.88-.68,1.32-1.06,2.12,1.18.98,1.54,1.26,2.12,1.62.03-.51.05-1.75.06-3.74,0-.98.02-1.44.08-2.26-.28.58-.3.58-1.2,2.26h0Z"/>
    <path class="cls-2" d="m336.13,32.98c-.78.24-2.66.98-4.04,1.58-.4.18-.66.26-.82.26-.36,0-.76-.28-1.14-.84-.36-.54-.56-1.06-.56-1.48,0-.18.04-.32.18-.52.3.94.84,1.46,1.5,1.46.52,0,2.42-.44,3.78-.86.78-.26.82-.26,1.24-.62.08-.06.18-.1.28-.1.26,0,.58.2,1.08.7.46.44.6.66.6.9,0,.14-.1.26-.34.38-.58.3-.78.46-1.66,1.34-1.26,1.26-2,2-2.94,3-1.28,1.37-2.06,2.2-2.34,2.48l.04.04c2.14-1.34,3.76-1.9,5.44-1.9,2.56,0,4.28,1.5,4.28,3.74,0,2.86-2.66,4.98-6.28,4.98-1.96,0-3.22-.78-3.22-2,0-.98.92-1.7,2.16-1.7.98,0,1.88.36,2.54.98.36.34.58.66.88,1.24,1.52-.66,2.42-2.04,2.42-3.74,0-1.1-.44-2-1.24-2.48-.42-.24-1.2-.4-1.98-.4-1.96,0-4.7,1.6-6.36,3.72-.34.42-.48.54-.68.54-.3,0-.66-.7-.66-1.3,0-.24.14-.46.42-.7.76-.58,1.08-.9,2.78-2.78,2.44-2.74,3.2-3.62,4.78-5.66.11-.15.17-.25.2-.32.04-.1-.04-.04-.06-.04,0,0-.02,0-.02.02h-.06s-.04.02-.1.04l-.1.04h0Zm-3.08,11.48c-.76,0-1.26.4-1.26,1.02,0,.74.88,1.22,2.28,1.22.54,0,.8-.04,1.42-.18-.4-1.28-1.32-2.06-2.44-2.06Z"/>
    <path class="cls-2" d="m351.25,38.84c-.86,3.54-1.22,5.36-1.22,6.06v.22c.02.16.02.24.02.32,0,.64-.16.94-.5.94-.3,0-.6-.26-.84-.72-.64-1.24-.96-2.98-.96-5.18,0-1.48.1-2.44.44-4.54.26-1.46.32-2.02.32-2.48,0-.62-.24-1.24-.72-1.92.44.02.84.28,1.32.78.58.64.88,1.18.88,1.6,0,.26-.02.38-.28,1.1-.68,1.9-1.04,3.8-1.04,5.56,0,1.48.14,2.42.48,3.12.24-.6,1.44-3.86,1.8-4.94l.3.08Zm1.6-3.3c.9.64,1.38.8,2.32.8.82,0,1.98-.16,2.88-.42v-.7c0-1.66-.06-2.46-.24-2.8-.2-.4-.76-.7-1.7-.92.3-.26.44-.3,1.1-.3,1.44,0,2.4.4,2.4,1,0,.08-.04.28-.1.48-.2.74-.22.98-.26,2.88,1.08-.34,1.32-.46,1.82-.86.14-.1.24-.14.42-.14.64,0,1.2.28,1.2.6,0,.24-.14.36-.7.64-.64.3-1.26.5-2.72.88v2.94c0,3.16-.54,4.78-2.04,6.36-.88.9-1.76,1.56-3.04,2.18l-.16-.26c1.46-1.14,2.16-1.9,2.82-3.08.94-1.64,1.26-3.42,1.26-6.86v-1.02c-.9.18-1.6.26-2.32.26-1.34,0-2.24-.4-3.14-1.42,0,0,.2-.24.2-.24Z"/>
    <path class="cls-2" d="m371.09,31.26c.6,0,1.54.18,2.02.38.4.16.56.34.56.64v.04c0,.14-.02.16-.16.52-.24.66-.44,2.38-.44,4.04,0,1.18.16,1.48.78,1.48.42,0,.86-.16,2.68-1,.36-.18.58-.24.82-.24.48,0,.96.42.96.84,0,.26-.14.48-.42.6-.14.06-.42.16-1.34.42-2.42.68-3.74,1.28-5,2.24-1.08.84-1.56,1.62-1.56,2.56,0,1.44,1.14,2.18,3.36,2.18,1.24,0,3.2-.26,4.64-.6.2-.04.28-.06.4-.06.52,0,1.08.5,1.08.98,0,.38-.22.54-.86.68-.64.12-2.64.26-3.84.26-1.46,0-2.56-.16-3.4-.46-1.34-.5-2.18-1.64-2.18-2.98,0-1.16.64-2.24,1.96-3.36.6-.52,1.26-.94,2.44-1.6h-.08c-.34,0-.54-.06-.88-.3-.5-.42-.64-1.12-.72-3.92-.04-1.7-.08-1.98-.24-2.3-.26-.42-.62-.6-1.44-.74.3-.24.46-.3.86-.3h0Zm7.16,1c.74.42,1.28.8,1.78,1.24.72.66,1,1.12,1,1.6s-.28.84-.62.84c-.17,0-.47-.43-.9-1.3-.36-.7-.98-1.58-1.52-2.12l.26-.26h0Zm2.06-1.16c.72.32,1.3.68,1.9,1.14.78.58,1.04.98,1.04,1.54,0,.48-.2.82-.5.82-.18,0-.3-.1-.46-.38-.7-1.26-1.1-1.78-2.2-2.86,0,0,.22-.26.22-.26Z"/>
    <path class="cls-2" d="m385.81,43.8c1.52.56,3.08,1.32,3.9,1.92.78.58,1.06,1.04,1.06,1.76,0,.64-.38,1.32-.72,1.32-.06,0-.2-.06-.28-.12-.09-.08-.43-.56-1.02-1.44-.68-1-1.76-2.12-3.08-3.18l.14-.26h0Z"/>
    <path class="cls-4" d="m104.65,69.28c.79,1.91,1.12,2.48,1.84,3.64,2.16,3.24,5.11,6.01,8.75,8.1,1.66.97,2.63,1.44,4.75,2.23v.4c-1.12.43-1.66.86-2.16,1.73-.25.43-.65,1.19-.79,1.58-.14.36-.29.5-.43.5-.18,0-.54-.22-1.44-.86-3.24-2.38-5.51-4.93-7.59-8.64-1.51-2.63-2.27-4.5-3.31-7.88l.07,14.94h1.76c.79-1.01,1.55-1.98,2.27-2.88,1.69,1.3,2.16,1.73,3.67,3.1.14.14.22.25.22.32,0,.11-.18.22-.36.22h-7.56c.07,3.65.13,6.11.18,7.38,0,.79-.32.9-2.77.9-1.33,0-1.51-.11-1.55-.76.11-2.66.14-3.28.18-7.52h-4.68c-1.01,0-1.48.04-2.23.18l-.18-1.19c.9.18,1.58.25,2.41.25h4.72l.07-10.69c-2.27,3.74-4.14,5.94-7.23,8.5-2.56,2.12-4.72,3.53-7.99,5.18l-.25-.36c4.25-3.6,6.73-6.37,9.5-10.47,1.73-2.59,3.28-5.44,4.28-7.88h-9.57c-.94,0-1.69.07-2.52.25l-.22-1.33c.97.22,1.87.32,2.74.32h11.16v-3.96c0-1.8-.04-2.34-.22-3.74,1.15.14,2.09.22,2.66.29,2.45.25,2.92.4,2.92.83,0,.36-.36.58-1.48.94v5.65h7.7c1.19-1.44,1.55-1.87,2.74-3.2,1.84,1.44,2.41,1.91,4.18,3.46.11.14.18.22.18.29,0,.14-.18.22-.36.22h-14.04l-.02-.04Z"/>
    <path class="cls-4" d="m147.2,75.36c.94-1.04,1.22-1.37,2.23-2.45,1.44.97,1.87,1.26,3.13,2.27.36.32.54.54.54.76,0,.36-.36.65-1.33,1.08v6.12c0,2.37.05,5.5.14,9.39,0,.5-.11.76-.47.9-.36.18-1.55.32-2.52.32s-1.26-.18-1.33-.86v-1.3h-20.37c-1.19,0-1.91.07-3.02.22l-.22-1.3c1.12.22,2.09.32,3.17.32h20.45v-7.42h-19.22c-1.04,0-1.8.07-2.7.22l-.25-1.26c1.08.18,1.94.25,2.95.25h19.22v-6.48h-20.45c-1.01,0-1.94.07-2.74.22l-.22-1.3c1.15.22,1.94.29,3.02.29h8.57v-10.04c0-1.84-.04-2.63-.25-4.32,5.22.54,5.87.65,5.87,1.19,0,.36-.43.65-1.48.94v12.24h7.28Zm-22.57-12.35c2.74,1.58,4.07,2.52,5.44,3.71,1.66,1.44,2.2,2.3,2.2,3.53,0,1.73-1.37,3.64-2.63,3.64-.5,0-.83-.47-1.15-1.69-1.04-3.89-2.12-6.23-4.1-8.89l.25-.29h0Zm17.42,11.45c2.27-3.85,4.18-8.24,5.18-11.91,5.47,1.94,5.83,2.09,5.83,2.56,0,.43-.47.61-1.87.76-4.03,4.79-5.26,6.05-8.78,8.89l-.36-.29h0Z"/>
    <path class="cls-4" d="m168.48,77.06c-1.62,6.66-1.98,8.53-1.98,10.08,0,.24.05.68.14,1.33.04.11.04.29.04.5,0,.72-.11,1.26-.29,1.58-.32.54-.9.86-1.55.86-.94,0-1.73-.65-2.27-1.91-.9-2.02-1.37-4.79-1.37-7.92s.29-5.26,1.44-10.69c.58-2.63.72-3.53.72-4.39,0-1.26-.32-2.23-1.19-3.46,1.04.11,2.02.72,3.2,2.05,1.4,1.58,2.09,2.92,2.09,4.03,0,.61-.14,1.01-.83,2.27-1.87,3.46-2.74,6.48-2.74,9.57,0,1.48.14,2.48.54,3.74.94-1.87,1.15-2.34,1.51-3.17,1.17-2.57,1.88-4.11,2.12-4.64l.4.14.02.03Zm4.07,1.8c-.07.83-.11,1.19-.11,1.58,0,1.87.5,3.2,1.58,4.14,1.19,1.01,2.81,1.44,5.47,1.44,1.08,0,2.2-.11,3.28-.25.55-.09,1.24-.3,2.05-.61.25-.11.5-.14.72-.14.65,0,1.62.47,2.3,1.15.61.58.86,1.08.86,1.66,0,1.55-1.66,2.09-6.48,2.09-7.2,0-10.76-2.45-10.76-7.38,0-1.33.18-2.41.65-3.78l.43.11h0Zm-.5-11.41c1.22.79,2.02,1.01,3.35,1.01,2.27,0,5.62-.79,7.34-1.73.72-.4.76-.4,1.15-.4,1.37,0,3.17,1.51,3.17,2.7,0,.83-.43,1.15-1.94,1.37-1.66.25-2.77.54-4.32,1.08-2.81.97-3.89,1.44-5.62,2.48l-.25-.32c1.22-1.15,2.84-2.59,3.31-2.99h-.83c-2.41,0-4.14-.86-5.65-2.92l.29-.29h0Z"/>
    <path class="cls-4" d="m217.8,66.58c.9-1.04,1.19-1.37,2.23-2.41,1.4,1.01,1.8,1.3,3.06,2.23.4.29.54.47.54.72,0,.32-.29.58-1.3,1.08v5.98c0,9.36.07,14.33.22,18.83-.04.83-.5,1.01-2.92,1.01-1.19,0-1.37-.11-1.37-.76v-2.12h-15.59v1.87c0,.83-.5,1.01-2.95,1.01-1.12,0-1.3-.11-1.3-.83.14-4.57.18-8.28.18-16.45s-.04-9.97-.18-12.6c2.12.94,2.77,1.26,4.86,2.45h2.81c.72-2.34,1.08-4.1,1.19-6.3,1.3.25,2.34.43,2.99.54,2.63.47,3.28.68,3.28,1.08,0,.32-.36.5-1.8.83-2.48,2.59-2.56,2.66-3.92,3.85h9.97Zm.43,7.45v-6.7h-15.55v6.7h15.55Zm-15.55.76v6.98h15.55v-6.98h-15.55Zm0,7.74v7.85h15.55v-7.85h-15.55Z"/>
    <path class="cls-4" d="m229.28,78.24c3.02-3.06,5.15-5.76,7.23-9.29,1.69-2.92,2.7-5.18,3.53-8.06,2.92,1.15,5,2.02,5.33,2.27.07.07.18.22.18.32,0,.36-.47.54-1.76.65-2.3,4.07-3.92,6.26-6.33,8.71-2.27,2.27-4.28,3.74-7.88,5.72l-.29-.32h0Zm16.31-2.66c-.25,2.16-.29,2.41-.54,3.56-1.62,7.77-5.51,11.73-14.54,14.83l-.18-.4c4.93-3.2,7.7-6.23,9.25-10.11.86-2.23,1.26-4.1,1.66-7.88h-2.52c-.83,0-1.69.07-2.52.22l-.25-1.26c1.08.22,1.84.29,2.74.29h13.64c.72-.76.94-.97,1.66-1.62,1.4.97,1.8,1.26,3.13,2.23.29.25.43.43.43.61,0,.22-.18.4-.83.76-.4,5.58-.61,7.56-1.04,10.22-.61,3.46-1.4,4.86-3.13,5.58-.97.4-2.56.68-3.96.68-.65,0-.72-.07-.76-.83-.07-.9-.58-1.69-1.4-2.16-.9-.5-1.58-.76-4.03-1.48l.04-.47c2.74.32,5.76.61,6.73.61,1.55,0,2.02-.36,2.34-1.8.65-2.81,1.01-6.66,1.15-11.59h-7.07Zm3.82-14.4c-.04.22-.04.32-.04.36,0,1.04,1.33,3.13,3.31,5.11,1.76,1.8,4,3.31,6.55,4.5,1.48.65,2.41.97,4.61,1.51v.36c-.97.47-1.37.79-2.05,1.69-.4.58-.76,1.22-1.01,1.84-.11.32-.25.47-.4.47-.32,0-2.02-1.12-3.46-2.3-3.6-2.99-5.9-6.33-7.81-11.27-.4-.97-.61-1.37-1.01-1.8l1.3-.47h0Z"/>
    <path class="cls-4" d="m276.48,77.06c-1.62,6.66-1.98,8.53-1.98,10.08,0,.24.05.68.14,1.33.04.11.04.29.04.5,0,.72-.11,1.26-.29,1.58-.32.54-.9.86-1.55.86-.94,0-1.73-.65-2.27-1.91-.9-2.02-1.37-4.79-1.37-7.92s.29-5.26,1.44-10.69c.58-2.63.72-3.53.72-4.39,0-1.26-.32-2.23-1.19-3.46,1.04.11,2.02.72,3.2,2.05,1.4,1.58,2.09,2.92,2.09,4.03,0,.61-.14,1.01-.83,2.27-1.87,3.46-2.74,6.48-2.74,9.57,0,1.48.14,2.48.54,3.74.94-1.87,1.15-2.34,1.51-3.17,1.17-2.57,1.88-4.11,2.12-4.64l.4.14.02.03Zm4.07,1.8c-.07.83-.11,1.19-.11,1.58,0,1.87.5,3.2,1.58,4.14,1.19,1.01,2.81,1.44,5.47,1.44,1.08,0,2.2-.11,3.28-.25.55-.09,1.24-.3,2.05-.61.25-.11.5-.14.72-.14.65,0,1.62.47,2.3,1.15.61.58.86,1.08.86,1.66,0,1.55-1.66,2.09-6.48,2.09-7.2,0-10.76-2.45-10.76-7.38,0-1.33.18-2.41.65-3.78l.43.11h.01Zm-.5-11.41c1.22.79,2.02,1.01,3.35,1.01,2.27,0,5.62-.79,7.34-1.73.72-.4.76-.4,1.15-.4,1.37,0,3.17,1.51,3.17,2.7,0,.83-.43,1.15-1.94,1.37-1.66.25-2.77.54-4.32,1.08-2.81.97-3.89,1.44-5.62,2.48l-.25-.32c1.22-1.15,2.84-2.59,3.31-2.99h-.83c-2.41,0-4.14-.86-5.65-2.92l.29-.29h0Z"/>
    <path class="cls-4" d="m301.35,77.88c3.82-2.88,6.41-5.4,9.18-9.04,2.3-3.02,3.85-5.72,4.61-8.17,5.98,1.26,6.19,1.33,6.19,1.8,0,.36-.5.58-1.62.72,1.84,2.74,4.14,4.72,7.34,6.44,2.84,1.51,5.94,2.59,8.96,3.06l-.04.47c-1.51.5-2.34,1.48-3.17,3.92-.07.25-.25.36-.43.36-.32,0-1.48-.61-2.95-1.55-4.72-3.1-7.27-6.16-10.22-12.24-2.7,4.28-4.82,6.66-8.46,9.43-2.95,2.27-5.22,3.56-9.18,5.18l-.22-.4v.02Zm9.9,14.69c0,.54-.14.79-.58.97-.29.11-1.48.25-2.38.25-1.01,0-1.33-.22-1.33-.86v-.25c.11-2.7.18-5.47.18-8.75s-.04-4.68-.14-6.23c2.12.9,2.74,1.22,4.75,2.3h12.92l2.16-2.38c1.4.97,1.84,1.3,3.17,2.34.32.29.47.47.47.61,0,.32-.29.54-1.33,1.01,0,4.68.04,6.33.18,10.83v.22c0,.4-.14.61-.5.76-.36.14-1.76.32-2.59.32-.9,0-1.19-.22-1.19-.79v-1.51h-13.79v1.15h0Zm-1.08-18.68c.97.18,1.76.29,2.41.29h6.95l2.48-2.88c1.76,1.3,2.27,1.69,3.96,3.06.14.18.22.25.22.36,0,.14-.14.22-.47.22h-13.25c-.68,0-1.15.04-2.02.22l-.29-1.26h0Zm1.08,16.77h13.79v-9.9h-13.79v9.9Z"/>
    <path class="cls-4" d="m350.49,93.9c3.42-2.38,5.26-4.43,6.73-7.49,1.26-2.63,1.94-5.62,1.94-8.67,0-3.74-1.15-5.87-3.24-5.87-1.08,0-2.3.54-3.74,1.66-.94.76-1.51,1.33-2.81,2.92-.79.94-1.19,1.19-1.94,1.19-1.87,0-4.1-2.63-4.1-4.82,0-.61.14-.97.61-1.58.43,1.55,1.33,2.45,2.48,2.45.58,0,1.37-.32,4.18-1.69,2.74-1.33,4.25-1.8,5.94-1.8,1.22,0,2.34.29,3.38.9,2.27,1.33,3.53,4,3.53,7.45,0,4.43-1.98,8.75-5.36,11.7-1.94,1.69-4.07,2.84-7.38,4l-.22-.32v-.03Zm-2.02-33.4c1.04.86,2.05,1.37,3.67,1.76.94.22,2.02.36,2.99.36.58,0,.76,0,1.98-.18.14-.04.29-.04.43-.04,1.4,0,3.35,1.73,3.35,2.99,0,.5-.32.97-.79,1.19-.4.14-.54.18-2.23.18-2.12,0-4.46.43-9.43,1.76l-.18-.4c.45-.21,1.04-.5,1.76-.86s1.66-.85,2.81-1.48c.33-.17.71-.35,1.12-.54-2.84-.9-4.28-2.02-5.76-4.54l.29-.22v.02Z"/>
    <path class="cls-4" d="m389.01,90.88c3.85-1.19,6.55-2.77,8.71-5.11,2.41-2.59,3.6-5.76,3.6-9.47,0-6.16-3.74-9.83-9.93-9.83-.47,0-.76,0-1.44.07,1.26,1.48,1.66,2.45,1.66,3.85,0,2.88-1.83,7.92-4.43,12.27-2.34,3.89-4.43,5.87-6.23,5.87-.79,0-1.55-.43-1.94-1.04-.29-.54-.5-1.04-.83-2.38-.22-.86-.5-1.37-1.55-2.66-.86-1.08-1.4-2.66-1.4-4.14,0-2.27,1.15-5,3.02-7.2,3.1-3.67,8.21-5.9,13.57-5.9,8.03,0,13.75,5.08,13.75,12.2,0,5.22-2.88,9.4-8.1,11.81-2.23,1.04-4.54,1.66-8.31,2.16l-.14-.5h-.01Zm-6.73-20.48c-2.48,2.48-3.85,5.54-3.85,8.57,0,2.48,1.22,5.04,2.45,5.04s3.56-2.99,5.9-7.42c1.8-3.38,2.88-6.37,2.88-7.96,0-.4-.04-.86-.14-1.19-.07-.29-.25-.79-.29-.79-2.92.65-4.86,1.69-6.95,3.74h0Z"/>
    <path class="cls-4" d="m417.85,85.3c2.81,1.4,4.46,2.05,5.18,2.05.76,0,1.26-.47,1.87-1.73,1.51-3.06,2.63-7.74,2.63-10.94,0-2.09-.58-2.92-2.09-2.92-.9,0-1.73.18-3.17.65-3.42,8.35-5.4,13.1-5.87,14.25-1.66,3.82-2.3,4.72-3.31,4.72s-1.69-1.37-1.69-3.38c0-1.26.18-1.76,1.04-2.59,1.69-1.76,3.71-5.44,6.55-12.02-2.02.86-2.99,1.33-3.92,1.91-.54.32-.76.4-1.08.4-.65,0-1.37-.5-2.02-1.37-.72-1.04-1.22-2.38-1.22-3.31,0-.29.04-.5.22-.94.76,1.58,1.69,2.23,3.17,2.23.94,0,2.7-.36,5.54-1.08.76-2.16,1.26-4.39,1.26-5.8s-.86-2.34-2.92-3.02c.61-.36.9-.43,1.4-.43.79,0,2.12.22,3.13.54,2.05.65,3.13,1.48,3.13,2.45,0,.36-.11.68-.47,1.22-.76,1.15-1.15,1.94-2.23,4.5,1.22-.25,1.8-.32,2.63-.32,1.73,0,3.1.54,3.89,1.62.86,1.12,1.19,2.48,1.19,4.93,0,4.43-1.66,10.08-3.64,12.53-1.19,1.48-2.84,2.34-4.5,2.34-.54,0-1.01-.22-1.22-.58-.12-.19-.2-.65-.25-1.37-.07-.83-1.08-2.05-3.49-4.14l.25-.4h0Zm15.41-15.08c2.99.54,5.11,1.62,7.09,3.56,1.8,1.8,2.77,3.96,2.77,6.12s-.94,3.56-2.52,3.56c-.58,0-.97-.18-1.58-.72-.79-.72-1.48-.83-5.54-.86l-.07-.36c2.95-.76,4.64-1.26,5.29-1.58.18-.11.25-.25.25-.58,0-.72-.43-2.41-.94-3.53-1.12-2.56-2.63-4.14-4.93-5.22l.18-.4h0Z"/>
    <path class="cls-4" d="m462.74,90.73c3.74-1.44,6.08-2.95,7.81-5,1.55-1.84,2.38-4.18,2.38-6.59,0-3.67-2.09-6.01-5.33-6.01s-6.48,1.66-10.29,4.97v.5c0,2.3.22,5.4.58,8.67.04.18.04.43.04.72,0,2.74-1.12,4.79-2.66,4.79-.54,0-.94-.29-1.19-.83-.14-.32-.14-.4-.4-1.4-.25-1.08-1.76-3.38-3.17-4.75-.18.32-.32.54-.4.72-.65,1.19-1.01,1.51-1.51,1.51-.47,0-.83-.32-1.12-.97-.25-.61-.47-1.69-.47-2.38,0-.79.18-1.08,1.15-1.91,1.12-.97,4.82-5.58,6.84-8.57.03-.33.05-.74.07-1.22,0-.68,0-.76.04-1.26-.96.55-2.04,1.26-3.24,2.12-.65.47-1.12.65-1.55.65-1.26,0-3.06-2.27-3.06-3.89,0-.18.04-.4.18-.79.9,1.4,1.51,1.91,2.45,1.91.83,0,3.06-.76,5.33-1.84.11-1.01.22-3.1.22-4,0-1.44-.07-1.91-.47-2.52-.36-.61-.76-.97-1.87-1.73.36-.14.54-.18.76-.18,1.04,0,2.41.54,3.82,1.44,1.19.79,1.87,1.66,1.87,2.38,0,.31-.19.84-.58,1.58-.22.36-.36.9-.76,2.27,1.08.79,1.44,1.22,1.44,1.76,0,.32-.11.54-.65,1.15-.54.65-.76.97-1.48,2.12v.32c-.05.39-.07.66-.07.83,4.68-2.74,7.6-3.74,10.87-3.74,2.52,0,4.93.9,6.59,2.41,1.62,1.51,2.38,3.38,2.38,5.83,0,5.9-5.36,10.11-14.4,11.34l-.14-.43v.02Zm-10.12-8.6c-.79,1.33-1.19,2.02-1.76,3.06,1.37.86,1.37.9,3.71,2.12.04-1.87.14-6.88.22-8.96-.65,1.26-.97,1.84-2.16,3.78h0Z"/>
    <path class="cls-4" d="m489.85,85.3c2.81,1.4,4.46,2.05,5.18,2.05.76,0,1.26-.47,1.87-1.73,1.51-3.06,2.63-7.74,2.63-10.94,0-2.09-.58-2.92-2.09-2.92-.9,0-1.73.18-3.17.65-3.42,8.35-5.4,13.1-5.87,14.25-1.66,3.82-2.3,4.72-3.31,4.72s-1.69-1.37-1.69-3.38c0-1.26.18-1.76,1.04-2.59,1.69-1.76,3.71-5.44,6.55-12.02-2.02.86-2.99,1.33-3.92,1.91-.54.32-.76.4-1.08.4-.65,0-1.37-.5-2.02-1.37-.72-1.04-1.22-2.38-1.22-3.31,0-.29.04-.5.22-.94.76,1.58,1.69,2.23,3.17,2.23.94,0,2.7-.36,5.54-1.08.76-2.16,1.26-4.39,1.26-5.8s-.86-2.34-2.92-3.02c.61-.36.9-.43,1.4-.43.79,0,2.12.22,3.13.54,2.05.65,3.13,1.48,3.13,2.45,0,.36-.11.68-.47,1.22-.76,1.15-1.15,1.94-2.23,4.5,1.22-.25,1.8-.32,2.63-.32,1.73,0,3.1.54,3.89,1.62.86,1.12,1.19,2.48,1.19,4.93,0,4.43-1.66,10.08-3.64,12.53-1.19,1.48-2.84,2.34-4.5,2.34-.54,0-1.01-.22-1.22-.58-.12-.19-.2-.65-.25-1.37-.07-.83-1.08-2.05-3.49-4.14l.25-.4h0Zm15.41-15.08c2.99.54,5.11,1.62,7.09,3.56,1.8,1.8,2.77,3.96,2.77,6.12s-.94,3.56-2.52,3.56c-.58,0-.97-.18-1.58-.72-.79-.72-1.48-.83-5.54-.86l-.07-.36c2.95-.76,4.64-1.26,5.29-1.58.18-.11.25-.25.25-.58,0-.72-.43-2.41-.94-3.53-1.12-2.56-2.63-4.14-4.93-5.22l.18-.4h0Z"/>
    <path class="cls-4" d="m529.38,61.04c1.04,1.44,2.05,2.2,3.82,2.81,1.12.4,2.2.65,3.35.72,1.33.11,1.84.36,2.56,1.15.65.68,1.01,1.51,1.01,2.23,0,.86-.61,1.4-1.55,1.4-.29,0-.43-.04-2.02-.32-.29-.04-.79-.07-1.51-.07-2.23,0-4.79.36-6.77.94-.97.29-1.55.79-1.55,1.33,0,.4.14.79.72,1.87.14.29.25.86.25,1.44,0,.25-.04.76-.11,1.55-.18,2.48-.32,4.97-.32,5.62v.32c4.54-3.02,8.13-4.39,11.41-4.39,4.64,0,7.78,2.56,7.78,6.37,0,2.38-1.15,4.39-3.28,5.9-3.13,2.16-7.56,3.2-13.75,3.24l-.11-.43c4.28-.79,6.95-1.84,9.36-3.6,2.38-1.73,3.46-3.6,3.46-5.9,0-2.52-1.55-4.07-4.07-4.07-2.12,0-4.28.97-6.37,2.88-1.22,1.12-2.34,2.52-2.88,3.56-.36.68-.43.83-.65,1.01-.29.29-.65.43-1.01.43-.86,0-1.8-.65-2.52-1.73-.5-.79-.83-1.62-.83-2.16,0-.17.1-.61.29-1.33.07-.36.18-1.04.4-2.41.18-1.37.32-2.38.43-3.02.36-2.27.5-3.35.5-3.78,0-.07,0-.22-.04-.4v-.36c0-1.3.43-1.94,1.69-2.63.76-.4,1.62-.72,4.03-1.51,1.2-.41,2.04-.69,2.52-.86-2.52-1.37-3.78-2.88-4.61-5.62l.36-.18h.01Z"/>
    <path class="cls-4" d="m556.16,67.8c1.62,1.66,2.7,2.16,4.68,2.16.9,0,2.02-.11,3.38-.4.83-2.41,1.15-3.92,1.15-5.18,0-1.33-.65-2.05-2.48-2.74.5-.32.72-.4,1.3-.4,1.15,0,2.56.36,3.89.97s1.84,1.15,1.84,1.87c0,.47-.07.65-.61,1.37-.43.58-.47.61-1.87,3.38,2.09-.76,2.48-.94,3.31-1.58.68-.54.9-.65,1.44-.65,1.55,0,2.77.72,2.77,1.58,0,.79-.65,1.33-2.27,1.91-1.66.58-3.56,1.08-6.37,1.69-3.02,6.88-4.86,10.98-5.47,12.27-1.22,2.59-1.69,3.13-2.59,3.13-.54,0-.9-.25-1.26-.83-.36-.61-.58-1.55-.58-2.41,0-1.01.14-1.33.9-2.16,1.91-1.98,4.21-5.76,5.94-9.72-.68.07-1.04.11-1.37.11-2.95,0-4.71-1.19-6.08-4.18l.36-.22v.03Zm20.08,2.27h.83c2.23,0,4.75.68,6.44,1.69,1.26.79,2.02,1.91,2.02,3.02,0,1.19-.65,1.98-1.58,1.98-.32,0-.58-.11-1.12-.47-1.12-.83-2.16-1.12-3.85-1.12-2.3,0-3.06.61-3.06,2.45,0,1.22.25,2.92.97,6.3,2.2.61,4.07,1.4,5.22,2.27,1.12.83,1.73,1.94,1.73,3.2s-.58,2.16-1.33,2.16c-.43,0-.68-.18-1.44-.97-1.3-1.44-2.16-2.12-3.85-3.1v.68c0,2.99-2.34,4.75-6.33,4.75-3.6,0-6.05-1.76-6.05-4.36,0-2.99,3.13-5.15,7.49-5.15.5,0,.94.04,1.48.11-.04-1.76-.04-1.87-.04-2.27,0-2.56.29-4,.94-5,.97-1.51,2.23-2.12,6.05-3.02-1.01-1.26-2.09-1.91-4.57-2.74l.07-.43-.02.02Zm-5.44,15.84c-2.99,0-4.86.97-4.86,2.56,0,1.22,1.19,1.94,3.35,1.94,1.87,0,3.24-.47,3.89-1.33.4-.5.58-1.22.58-2.2,0-.43,0-.5-.04-.5-.94-.32-1.94-.47-2.92-.47h0Z"/>
    <path class="cls-4" d="m604.62,75.76c-1.44,3.74-1.73,4.64-2.16,6.41-.29,1.22-.47,2.41-.47,3.02,0,.65.07.94.5,2.2.07.29.11.47.11.79,0,.97-.72,1.73-1.73,1.73-1.48,0-3.38-1.4-4.75-3.46-1.8-2.74-2.7-6.52-2.7-11.37,0-.17.02-1.31.07-3.42v-.58c0-2.88-.36-3.92-2.12-5.94.83,0,1.33.18,2.45.86,1.73,1.01,2.99,2.27,3.71,3.71.25.5.32.86.32,1.4,0,.32-.07.61-.25,1.33-.5,1.69-.79,3.74-.79,5.33s.25,3.2.72,4.57c.32.97.65,1.44,1.4,2.02,2.34-4.03,3.74-6.37,5.33-8.78l.36.18h0Zm6.84-6.52c3.28.54,5.62,1.87,7.45,4.18,1.69,2.09,2.52,4.5,2.52,7.2,0,2.45-1.22,4.18-2.99,4.18-.58,0-.94-.18-1.44-.76-.86-.97-1.62-1.12-5.51-1.19l-.07-.36c3.17-.94,4.54-1.37,5.11-1.62.65-.29.76-.43.76-1.15,0-1.58-.47-3.67-1.15-5.18-1.08-2.34-2.59-3.89-4.82-4.9l.14-.4h0Z"/>
  </g>
  <g>
    <path class="cls-2" d="m89.91,160.02c.8.68.84.7,1.2.84.3.1.74.16,1.18.16.94,0,3.12-.32,4.42-.64.88-.22,1.6-.5,2.1-.8.14-.08.22-.12.3-.12.18,0,.62.16.92.34.4.22.6.46.6.7,0,.26-.32.42-1.24.6-1.12.22-3.28.52-4.6.66.98.58,1.34.92,1.34,1.3,0,.12-.02.24-.14.9-.16.88-.32,2.54-.42,4.26,1.02-.06,2.34-.12,3.16-.14,1.92-.04,2.04-.06,2.68-.26.04-.02.08-.02.16-.02.28,0,.64.14,1.14.46.46.3.78.68.78.94,0,.24-.2.42-.48.42-.12,0-.16,0-1.44-.24-1.08-.2-2.98-.36-4.28-.36-1.64,0-3.42.2-5.04.56-1.18.26-1.58.4-2.58.84-.2.1-.42.16-.58.16-.56,0-1.28-.54-1.76-1.32-.28-.42-.42-.8-.42-1.04,0-.1.02-.14.1-.24.54.74,1.12,1.08,1.88,1.08.62,0,1.06-.06,3.88-.5.26-.04.48-.08,1.64-.22.06-1.4.1-2.62.1-3.88,0-1.74-.1-2.2-.62-2.56-.62.02-.94.04-1.3.04-1.32,0-1.94-.36-2.94-1.72l.26-.2h0Z"/>
    <path class="cls-2" d="m107.21,171.79c1.92-1.2,3.9-2.82,5.38-4.38,1.2-1.26,2.64-3.14,3.82-4.98.64-.98.98-1.64,1.36-2.58-.96.06-2.02.28-4.22.88-.96.26-1.04.28-1.68.54-.1.04-.22.06-.34.06-.44,0-.86-.36-1.3-1.14-.28-.46-.42-.88-.42-1.2,0-.12.04-.22.14-.4.58,1.04,1,1.34,1.88,1.34.66,0,2.68-.26,4.2-.56,1.16-.22,1.52-.34,1.88-.56.22-.14.32-.18.46-.18.42,0,1.56,1.02,1.56,1.4,0,.14-.08.26-.26.38-.28.19-.66.64-1.14,1.36-.64.96-1.48,2.12-2.52,3.48,2.82,1.48,4.4,2.5,5.18,3.38.54.58.76,1.16.76,1.98,0,.64-.2,1.04-.54,1.04-.14,0-.3-.1-.46-.32-.05-.07-.21-.33-.48-.8-1-1.68-2.72-3.46-4.76-4.9-1.62,1.96-2.92,3.18-4.84,4.5-1.26.88-2.12,1.36-3.5,1.96l-.16-.3h0Z"/>
    <path class="cls-2" d="m131.21,173.15c1.32-1.48,2.16-2.86,2.88-4.72.56-1.46.96-3.14.96-4.08,0-.48-.12-.7-.5-.98-1.3.14-3.5.76-4.44,1.26-.34.16-.42.2-.64.2-.42,0-1.02-.42-1.56-1.14-.2-.26-.4-.7-.4-.88,0-.1.02-.16.08-.38.48.68.96.96,1.68.96.54,0,.66-.02,3.42-.5,1.22-.2,3.48-.48,6.16-.74.4-.04,1.14-.2,1.56-.34.21-.07.38-.1.5-.1.28,0,.66.1,1.06.3.54.26.94.64.94.92,0,.24-.22.4-.56.4-.16,0-.22,0-.5-.06-.8-.16-2.12-.26-3.22-.26-1.22,0-2.28.06-3.28.2.92.52,1.3.92,1.3,1.38,0,.76-.56,2.48-1.26,3.92-1.1,2.26-2.1,3.48-3.96,4.88l-.22-.24h0Zm-.38-15.44c.84.8,1.46,1.08,2.38,1.08,1.34,0,3.12-.42,4.22-.98.22-.12.4-.16.6-.16.52,0,1.36.66,1.36,1.06,0,.24-.24.36-1.04.54-1.3.26-3.52.52-4.56.52-1.5,0-2.28-.44-3.24-1.86l.28-.2h0Z"/>
    <path class="cls-2" d="m151.55,165.13c-.04.18-.34,1.44-.9,3.76-.28,1.18-.34,1.5-.34,2.12,0,.58-.02.74-.06.86-.08.22-.26.34-.48.34-.34,0-.64-.28-.86-.82-.44-1.04-.7-2.66-.7-4.26,0-.6.06-1.34.16-2.14.09-.77.33-2.03.7-3.78.2-.94.28-1.44.28-1.86,0-.66-.16-1.16-.56-1.88.44.02.8.28,1.34.98.5.62.74,1.14.74,1.58,0,.32-.02.4-.42,1.2-.4.84-.88,2.24-1.08,3.18-.18.76-.26,1.62-.26,2.48,0,1.1.1,1.8.38,2.64.34-.7.5-1.1.72-1.7l1.06-2.8.28.1h0Zm2.52,1c-.04.4-.06.58-.06.84,0,2.2,1.26,3.1,4.36,3.1.58,0,1.16-.04,1.7-.14.28-.04.63-.15,1.06-.32.12-.04.22-.06.3-.06.52,0,1.26.7,1.26,1.18,0,.24-.16.4-.44.5-.42.14-1.38.22-2.5.22-2.5,0-4.28-.42-5.18-1.22-.72-.66-1.08-1.5-1.08-2.6,0-.5.06-.94.24-1.58l.34.08h0Zm-.04-6.36c.7.42,1.14.54,1.86.54,1.24,0,3.18-.44,4.02-.9.26-.14.3-.16.44-.16.16,0,.42.1.7.28.42.24.62.48.62.74s-.14.38-.56.46c-1.32.2-2.06.38-2.84.7-.62.26-1.78.9-2.58,1.42l-.2-.2c.9-.76,1.58-1.32,1.9-1.56-.42.02-.64.04-.82.04-1.12,0-1.86-.3-2.72-1.12l.18-.24h0Z"/>
    <path class="cls-2" d="m169.15,164.8c-1.34,1.32-1.84,1.7-3.08,2.46l-.18-.26c1.26-1.08,2.1-2.06,3.34-3.88.88-1.26,1.3-2.04,1.72-3.08.44.18.76.32.96.4.86.34,1.04.44,1.04.6,0,.18-.26.28-.76.28-.02,0-.08,0-.14-.02-.88,1.24-1.38,1.88-2.22,2.8,1.08.24,1.32.32,1.32.5,0,.14-.08.18-.64.36v3.42c0,.71,0,1.93.02,3.68v1.46c-.02.16-.06.18-.24.22-.28.04-.6.08-.82.08-.34,0-.44-.04-.44-.18v-.1c.04-.52.08-2.14.12-4.86v-3.88Zm-2.84-3.42c1.04-.94,1.9-1.9,2.94-3.32.56-.74.92-1.32,1.46-2.3,1.08.46,1.64.74,1.82.88.02.02.06.08.1.2,0,.12-.2.22-.42.22-.12,0-.28-.02-.46-.02-1.68,2.02-3.24,3.4-5.24,4.58l-.2-.24h0Zm7.86,1.44c-.56,0-.94.04-1.76.14l-.16-.8c.86.18,1.14.2,1.92.2h7.44c.52-.64.68-.82,1.2-1.42.8.66,1.02.88,1.76,1.6.06.08.08.12.08.14,0,.08-.1.14-.18.14h-4v4c0,1.8,0,2.8.04,5.32v.18c0,.44-.18.7-.64.98-.42.24-.88.38-1.86.56-.04-.64-.2-.88-.68-1.1-.2-.08-.52-.16-1.1-.24l-1.34-.2v-.34c1.54.1,2.14.14,3.8.18.28-.02.34-.06.34-.28v-9.06h-4.86Zm-1.04-5.68c.7.14,1.24.2,2,.2h5.26c.46-.6.6-.78,1.08-1.34.8.6,1.04.8,1.84,1.5.04.06.06.1.06.14,0,.08-.12.16-.24.16h-8c-.72,0-1.08.02-1.86.14l-.14-.8h0Z"/>
    <path class="cls-2" d="m193.19,171.93c2.5-.52,4.14-1.22,5.54-2.42,1.1-.9,1.68-2.04,1.68-3.24,0-1.74-1.2-2.9-2.98-2.9-1.94,0-4.52,1.04-6.64,2.72-.38.28-.56.38-.8.38-.74,0-1.94-1.44-1.94-2.36,0-.1.04-.2.14-.4.32.72.76,1.1,1.24,1.1.26,0,.74-.16,1.76-.56,1.8-.72,3.42-1.22,4.56-1.42.48-.08.92-.12,1.56-.12,2.62,0,4.46,1.6,4.46,3.88,0,1.42-.84,2.88-2.16,3.76-1.6,1.08-3.36,1.62-6.34,1.96l-.08-.38h0Z"/>
    <path class="cls-2" d="m207.99,160.46c.28.26.5.34.9.34.56,0,1.06-.1,5.54-1.18.84-.2,1.92-.44,3.24-.7,1.52-.3,2.1-.44,2.7-.64.4-.12.54-.16.7-.16.24,0,.68.18,1.08.42.4.26.58.48.58.76,0,.3-.24.5-.62.5-.08,0-.22,0-.36-.02-.26-.04-.36-.04-.56-.04-3.42,0-6.72,3.26-6.72,6.62,0,1.84.92,3.2,2.64,3.94.66.28,1.46.46,2.04.48.4,0,.54.06.84.32.36.36.6.72.6.96,0,.34-.3.56-.74.56-1.14,0-2.94-.64-4.06-1.44-1.52-1.08-2.32-2.62-2.32-4.48,0-1.62.8-3.4,2.18-4.88.8-.88,1.6-1.42,3.26-2.28-1.82.26-3.46.64-5.74,1.38-1.26.4-2.56.94-3.2,1.28-.4.24-.54.28-.8.28-.48,0-1.08-.46-1.54-1.18-.32-.48-.52-1.02-.52-1.34,0-.16.04-.28.22-.52.18.48.34.74.66,1.02h0Z"/>
    <path class="cls-2" d="m234.31,173.19c1.46-1.18,2.12-1.84,2.84-2.84s1.2-1.94,1.78-3.46c-1.74-.92-3.46-1.36-5.74-1.46-1.22,2.22-1.74,3.06-2.42,3.96-.74.92-1.36,1.38-1.92,1.38-.84,0-1.54-.96-1.54-2.12,0-1.02.5-2.04,1.36-2.76.88-.74,2.2-1.2,3.8-1.32.28-.48.32-.62,1.42-3.14.64-1.52.72-1.74,1.04-2.82-.48.12-1.86.56-2.88.92-.32.1-.48.14-.66.14-.62,0-1.26-.98-1.26-1.94,0-.2.04-.3.22-.46.4.92.76,1.22,1.5,1.22.52,0,1.14-.1,2.12-.34.52-.14.6-.18.88-.42.12-.14.24-.18.42-.18.44,0,1.44,1.06,1.44,1.56,0,.16-.08.3-.3.46-.46.38-.64.66-2.02,3.4-.54,1.08-.62,1.24-.82,1.62,2.02.1,3.76.44,5.74,1.14.34-1.04.66-2.58.66-3.22,0-.54-.28-.9-1.04-1.38.14-.1.22-.12.36-.12.34,0,.8.16,1.4.46.64.32.94.64.94,1,0,.2-.02.3-.18.7-.06.14-.18.56-.48,1.5-.1.36-.18.6-.46,1.52,2.4,1.2,3.04,1.78,3.04,2.84,0,.4-.2.72-.46.72-.18,0-.32-.1-.68-.42-.64-.64-1.3-1.16-2.38-1.88-.88,1.92-1.5,2.88-2.56,3.9-.9.86-1.72,1.44-3,2.06l-.16-.22h0Zm-6.14-5.02c0,.74.42,1.44.86,1.44.66,0,1.5-1.16,3.04-4.2-2.56.28-3.9,1.22-3.9,2.76Z"/>
    <path class="cls-2" d="m247.35,160.76c.82.84,1.34,1.1,2.2,1.1.78,0,1.62-.12,2.54-.38.4-1.3.68-2.7.68-3.38,0-.62-.3-.88-1.42-1.26.26-.14.36-.18.62-.18.46,0,1.12.14,1.72.38.6.22.9.5.9.8,0,.09-.08.25-.24.48-.26.38-.7,1.44-1.2,2.86,1.12-.4,1.84-.78,2.32-1.22.32-.3.4-.34.56-.34.26,0,.74.1,1.06.22.22.08.32.2.32.36,0,.34-.32.6-1.16.98-.9.4-2.24.84-3.5,1.16-.16.45-.44,1.3-.84,2.54-.27.8-.77,2.29-1.5,4.46-.8,2.38-1.06,2.88-1.48,2.88-.2,0-.34-.12-.46-.4-.16-.32-.28-.82-.28-1.16,0-.32.02-.38.44-.98,1-1.46,1.78-3.2,3.14-7.16-.76.14-1.34.2-1.92.2-1.22,0-2-.52-2.74-1.8l.24-.16h0Zm7.98,6.9c-.02.3-.02.54-.02.62,0,1.14.54,2,1.52,2.42.54.24,1.36.38,2.14.38.82,0,1.28-.06,1.92-.3.14-.06.26-.08.34-.08.22,0,.68.22,1.02.48.24.2.36.38.36.56,0,.44-.78.66-2.36.66s-2.82-.22-3.7-.64c-1.08-.52-1.7-1.56-1.7-2.9,0-.44.04-.78.18-1.26l.3.06h0Zm.54-3.7c1.44-.86,3.08-1.34,4.64-1.34.42,0,.94.14,1.26.36.2.12.32.34.32.56,0,.32-.18.44-.76.46-.74.04-.98.1-1.54.4-.4.22-.42.22-1.1.68-.25.16-.49.3-.7.42l-.12-.18c.16-.16.48-.46.96-.9.18-.16.36-.32.98-.94-1.32,0-2.38.22-3.82.74l-.12-.26h0Z"/>
    <path class="cls-2" d="m274.33,164.52c-1.46,3.36-1.88,4.54-1.88,5.34,0,.11.04.33.12.68.02.1.04.22.04.32,0,.28-.2.5-.44.5-.56,0-1.58-.78-2.2-1.7-.68-.98-1.16-2.4-1.36-4-.12-.88-.14-1.38-.14-3.52-.02-1.86-.16-2.32-1.02-3.44h.18c.32,0,.9.38,1.5.98.6.58.9,1.12.9,1.58,0,.12-.02.28-.06.52-.24,1.22-.36,2.16-.36,2.98,0,1.08.16,2.08.46,2.9.3.82.54,1.18,1.04,1.56.15-.21.37-.57.66-1.06.43-.72.99-1.66,1.68-2.82.21-.35.41-.67.58-.96l.3.14h0Zm4.26-3.62c2.52.56,4.52,3.22,4.52,5.98,0,.96-.4,1.58-1,1.58-.2,0-.32-.04-.6-.22-.26-.18-.64-.24-1.5-.24-.46,0-.84,0-1.52.04l-.06-.3c1.62-.44,2.52-.7,2.7-.76.4-.14.46-.22.46-.6,0-.74-.28-1.9-.62-2.62-.54-1.16-1.34-2-2.48-2.62l.1-.24h0Z"/>
    <path class="cls-2" d="m291.99,164.38c-.86,3.54-1.22,5.36-1.22,6.06v.22c.02.16.02.24.02.32,0,.64-.16.94-.5.94-.3,0-.6-.26-.84-.72-.64-1.24-.96-2.98-.96-5.18,0-1.48.1-2.44.44-4.54.26-1.46.32-2.02.32-2.48,0-.62-.24-1.24-.72-1.92.44.02.84.28,1.32.78.58.64.88,1.18.88,1.6,0,.26-.02.38-.28,1.1-.68,1.9-1.04,3.8-1.04,5.56,0,1.48.14,2.42.48,3.12.24-.6,1.44-3.86,1.8-4.94l.3.08h0Zm1.6-3.3c.9.64,1.38.8,2.32.8.82,0,1.98-.16,2.88-.42v-.7c0-1.66-.06-2.46-.24-2.8-.2-.4-.76-.7-1.7-.92.3-.26.44-.3,1.1-.3,1.44,0,2.4.4,2.4,1,0,.08-.04.28-.1.48-.2.74-.22.98-.26,2.88,1.08-.34,1.32-.46,1.82-.86.14-.1.24-.14.42-.14.64,0,1.2.28,1.2.6,0,.24-.14.36-.7.64-.64.3-1.26.5-2.72.88v2.94c0,3.16-.54,4.78-2.04,6.36-.88.9-1.76,1.56-3.04,2.18l-.16-.26c1.46-1.14,2.16-1.9,2.82-3.08.94-1.64,1.26-3.42,1.26-6.86v-1.02c-.9.18-1.6.26-2.32.26-1.34,0-2.24-.4-3.14-1.42l.2-.24Z"/>
    <path class="cls-2" d="m311.83,156.8c.6,0,1.54.18,2.02.38.4.16.56.34.56.64v.04c0,.14-.02.16-.16.52-.24.66-.44,2.38-.44,4.04,0,1.18.16,1.48.78,1.48.42,0,.86-.16,2.68-1,.36-.18.58-.24.82-.24.48,0,.96.42.96.84,0,.26-.14.48-.42.6-.14.06-.42.16-1.34.42-2.42.68-3.74,1.28-5,2.24-1.08.84-1.56,1.62-1.56,2.56,0,1.44,1.14,2.18,3.36,2.18,1.24,0,3.2-.26,4.64-.6.2-.04.28-.06.4-.06.52,0,1.08.5,1.08.98,0,.38-.22.54-.86.68-.64.12-2.64.26-3.84.26-1.46,0-2.56-.16-3.4-.46-1.34-.5-2.18-1.64-2.18-2.98,0-1.16.64-2.24,1.96-3.36.6-.52,1.26-.94,2.44-1.6h-.08c-.34,0-.54-.06-.88-.3-.5-.42-.64-1.12-.72-3.92-.04-1.7-.08-1.98-.24-2.3-.26-.42-.62-.6-1.44-.74.3-.24.46-.3.86-.3h0Zm7.16,1c.74.42,1.28.8,1.78,1.24.72.66,1,1.12,1,1.6s-.28.84-.62.84c-.17,0-.47-.43-.9-1.3-.36-.7-.98-1.58-1.52-2.12l.26-.26h0Zm2.06-1.16c.72.32,1.3.68,1.9,1.14.78.58,1.04.98,1.04,1.54,0,.48-.2.82-.5.82-.18,0-.3-.1-.46-.38-.7-1.26-1.1-1.78-2.2-2.86l.22-.26Z"/>
    <path class="cls-4" d="m340.49,178.13c.58-.79.76-1.04,1.37-1.84.94.83,1.22,1.04,1.8,1.62,2.77-4.68,4-10.08,4.36-19.11h-.54c-.5,0-1.4.11-2.02.22l-.22-1.22c.68.14,1.62.25,2.12.25h.65c.04-1.22.07-2.16.07-3.74,0-3.6-.04-4.39-.18-5.54,1.12.11,1.91.22,2.45.29,2.45.25,3.02.4,3.02.83,0,.32-.36.58-1.44.97-.04.61-.11,3.02-.29,7.2h3.06c.83-.86,1.12-1.12,2.02-1.98,1.4,1.01,1.8,1.33,3.1,2.41.14.14.18.22.18.32,0,.29-.36.61-1.3,1.15-.03.75-.11,2.53-.25,5.36-.32,7.56-.94,11.88-1.91,13.64-.58,1.01-1.3,1.55-2.52,1.87-.68.18-1.62.29-2.23.29-.36,0-.4-.04-.43-.61-.14-1.84-.65-2.27-3.89-3.31l.11-.4c.45.03,1.41.11,2.88.25.5.04,1.44.11,1.73.11.97,0,1.19-.25,1.51-1.73.32-1.37.76-5,1.01-8.31.14-2.02.18-3.1.29-8.31h-3.38c-.25,5.72-.72,8.78-1.87,12.17-1.15,3.46-2.84,6.12-5.33,8.35-.9.83-1.69,1.4-3.31,2.56l-.29-.36c1.15-1.15,1.62-1.66,2.23-2.63h-9.9v1.4c-.07.43-.22.58-.68.68-.32.07-1.19.14-1.91.14-.86,0-1.04-.11-1.08-.58.11-2.3.22-7.06.22-11.19v-3.06c-1.12,1.01-1.73,1.44-3.46,2.59l-.29-.29c3.06-3.53,4.54-5.9,6.05-9.72h-2.92c-.65,0-1.73.11-2.38.22l-.22-1.26c.94.18,1.94.29,2.59.29h3.2c.4-1.04,1.01-3.17,1.26-4.36h-1.48c-1.76,1.76-2.48,2.3-4.75,3.78l-.32-.25c2.38-3.35,3.38-5.51,4.14-8.82,4.39.86,5.11,1.08,5.11,1.51,0,.36-.5.58-1.66.79-.83,1.15-1.12,1.51-1.8,2.23h6.41l2.12-2.59c1.55,1.12,2.02,1.51,3.53,2.77.11.14.14.22.14.29,0,.18-.18.29-.4.29h-6.98c-.61,1.76-1.3,3.35-1.84,4.36h3.85c.86-1.08,1.12-1.44,2.09-2.48,1.44,1.15,1.87,1.51,3.28,2.74.07.07.11.18.11.22,0,.14-.18.29-.36.29h-9.32c-.76,1.48-1.8,3.1-2.92,4.46l.43.29h2.81c.65-1.3,1.08-2.56,1.4-4.18.9.18,1.58.32,2.02.4,1.94.36,2.3.5,2.3.76,0,.36-.18.43-1.66.79-1.3,1.04-1.51,1.22-2.88,2.23h3.35c.79-.86,1.04-1.15,1.87-2.02,1.3,1.01,1.69,1.3,2.99,2.34.07.11.14.22.14.25,0,.11-.11.18-.32.18h-5.54v3.78h1.12c.68-.83.9-1.08,1.58-1.91,1.12.94,1.44,1.22,2.56,2.27.07.07.11.18.11.22,0,.11-.14.18-.29.18h-5.08v3.78h1.12c.68-.83.9-1.08,1.66-1.94,1.04.94,1.37,1.22,2.38,2.2.11.11.14.22.14.29,0,.14-.14.22-.32.22h-4.97v4.68h1.08v-.03Zm-4.43-9.97v-3.78h-2.92v3.78h2.92Zm-2.92,4.54h2.92v-3.78h-2.92v3.78Zm2.92.76h-2.92v4.68h2.92v-4.68Z"/>
    <path class="cls-4" d="m362.31,155.13c.9.22,1.58.29,2.41.29h5.15c.97-1.19,1.3-1.51,2.34-2.63,1.55,1.15,2.02,1.51,3.42,2.77.14.18.22.29.22.4s-.14.22-.4.22h-10.8c-.76,0-1.22.04-2.12.22l-.22-1.26h0Zm1.12,4.68c.79.18,1.51.25,2.3.25h4.07c.9-1.08,1.19-1.4,2.12-2.45,1.4,1.12,1.84,1.48,3.17,2.63.11.18.18.25.18.32,0,.14-.14.25-.36.25h-9.18c-.83,0-1.26.04-2.09.22l-.22-1.22h0Zm0,4.75c.72.14,1.62.25,2.3.25h3.96c.9-1.08,1.19-1.4,2.16-2.45,1.4,1.12,1.83,1.48,3.17,2.66.11.14.18.25.18.32,0,.11-.14.22-.36.22h-9.11c-.83,0-1.26.04-2.05.22l-.25-1.22h0Zm.14-14.11c.83.18,1.55.29,2.3.29h4.14c.94-1.12,1.22-1.44,2.2-2.52,1.51,1.12,1.98,1.48,3.35,2.7.14.14.22.25.22.36s-.14.22-.32.22h-9.57c-.83,0-1.22.04-2.09.22l-.22-1.26h-.01Zm3.92,30.06c-.04.72-.5.9-2.3.9-1.26,0-1.48-.11-1.48-.76.11-2.63.14-3.82.14-6.37,0-3.46-.04-4.9-.18-6.62,1.8.79,2.3,1.08,4,2.02h2.66c.76-.86,1.01-1.12,1.8-1.94,1.22.86,1.58,1.12,2.66,1.91.25.22.36.36.36.5,0,.29-.32.58-1.08,1.04v2.81c0,2.09,0,2.23.07,4.97,0,.32-.07.5-.25.65-.36.22-1.12.36-2.09.36-1.04,0-1.22-.07-1.26-.54v-.76h-3.06v1.84h0Zm0-2.59h3.06v-7.49h-3.06v7.49Zm15.87-11.52c-.22,3.42-.68,5.54-1.69,7.7-1.15,2.41-2.92,4.36-5.25,5.8-1.01.61-1.84,1.01-3.64,1.69l-.22-.29c2.3-1.76,3.42-2.95,4.46-4.75,1.62-2.81,2.27-5.51,2.52-10.15h-1.33c-.72,0-1.12.04-1.84.22l-.22-1.22c.83.18,1.37.25,2.12.25h8.53c.72-.83.97-1.08,1.73-1.87,1.22.9,1.62,1.19,2.74,2.09.25.22.32.36.32.47,0,.32-.5.61-1.48.9-.32,1.4-.43,1.87-.72,2.84h1.73c.72-.86.94-1.12,1.69-1.94,1.26.9,1.62,1.19,2.77,2.16.25.22.32.32.32.47,0,.25-.36.5-1.15.9-.65,4.46-1.4,7.13-2.41,8.17-.72.79-2.52,1.37-4.21,1.37-.43,0-.47-.07-.54-.61-.07-.97-.36-1.48-1.08-1.91-.76-.5-1.87-.9-3.82-1.4l.07-.43c2.99.29,5.18.47,6.23.47.61,0,.86-.18,1.12-.86.4-.9.86-3.31,1.15-5.62h-2.09c-.14.4-.18.54-.32,1.12-.18.43-.47.58-1.3.58-1.4,0-2.12-.22-2.12-.58,0-.07,0-.18.04-.25.61-2.05.79-2.81,1.37-5.29h-3.49v-.03Zm-.4-13.61c-2.81.25-4.28.32-7.2.4l-.07-.4c3.85-.76,6.88-1.62,10.01-2.88,2.2-.9,2.99-1.3,3.96-2.09,4.36,2.88,4.46,2.99,4.46,3.31,0,.22-.29.4-.58.4-.47,0-1.04-.11-1.66-.29-2.27.58-3.24.79-5.51,1.12v3.2h3.89c1.01-1.12,1.29-1.44,2.34-2.52,1.51,1.15,1.98,1.51,3.35,2.66.18.18.25.29.25.36,0,.14-.14.25-.43.25h-9.11c2.23,2.63,5,3.78,10.01,4.25v.4c-1.15.76-1.66,1.51-2.05,3.24-.07.25-.14.36-.32.36s-.4-.07-.79-.25c-1.87-.86-3.6-2.23-4.97-3.92-.76-.97-1.26-1.84-2.16-3.53v2.2c0,.58.07,3.78.11,4.68,0,.29-.07.43-.18.54-.25.18-1.15.29-2.27.29-.97,0-1.15-.11-1.15-.61.05-1.49.07-2.67.07-3.56l.04-1.33c-2.52,2.52-4.25,3.64-8.24,5.18l-.18-.32c3.02-2.45,4.93-4.68,6.59-7.59h-2.63c-.76,0-1.51.07-2.27.22l-.22-1.26c.83.18,1.73.29,2.52.29h4.39v-2.8Z"/>
    <path class="cls-4" d="m406.34,173.24c2.81,1.4,4.46,2.05,5.18,2.05.76,0,1.26-.47,1.87-1.73,1.51-3.06,2.63-7.74,2.63-10.94,0-2.09-.58-2.92-2.09-2.92-.9,0-1.73.18-3.17.65-3.14,7.7-5.1,12.45-5.87,14.25-1.66,3.82-2.3,4.72-3.31,4.72s-1.69-1.37-1.69-3.38c0-1.26.18-1.76,1.04-2.59,1.62-1.66,3.96-5.94,6.55-12.02-1.91.79-3.1,1.4-3.92,1.91-.5.32-.76.4-1.08.4-.68,0-1.37-.47-2.02-1.37-.72-1.04-1.22-2.38-1.22-3.31,0-.29.04-.5.22-.94.76,1.58,1.69,2.23,3.17,2.23.94,0,2.7-.36,5.54-1.08.76-2.16,1.26-4.39,1.26-5.76,0-1.48-.86-2.38-2.92-3.06.61-.32.9-.4,1.4-.4.79,0,2.12.22,3.13.54,2.05.65,3.13,1.48,3.13,2.45,0,.32-.11.65-.47,1.22-.76,1.12-1.08,1.76-2.23,4.46,1.22-.25,1.8-.32,2.63-.32,1.73,0,3.1.54,3.89,1.62.86,1.12,1.19,2.48,1.19,4.93,0,4.43-1.66,10.08-3.64,12.53-1.19,1.48-2.84,2.34-4.5,2.34-.54,0-1.01-.22-1.22-.58-.12-.19-.2-.65-.25-1.37,0-.76-1.19-2.16-3.49-4.14l.25-.4h0Zm15.41-15.08c2.99.54,5.11,1.62,7.09,3.56,1.8,1.8,2.77,3.92,2.77,6.12s-.94,3.56-2.52,3.56c-.58,0-.97-.18-1.58-.72-.61-.68-1.62-.83-5.54-.86l-.07-.32c2.81-.76,4.64-1.3,5.29-1.62.18-.11.25-.25.25-.54,0-.76-.43-2.45-.94-3.56-1.12-2.56-2.63-4.14-4.93-5.22l.18-.4Zm.65-7.38c1.73.54,2.81,1.01,3.85,1.73,1.66,1.12,2.41,2.16,2.41,3.31,0,.83-.43,1.4-1.12,1.4-.47,0-.72-.22-1.22-1.04-1.08-1.87-2.48-3.46-4.25-4.79l.32-.61h0Zm3.67-2.81c1.84.4,3.17.9,4.21,1.58,1.44.94,2.09,1.76,2.09,2.77,0,.86-.43,1.44-1.08,1.44-.4,0-.65-.22-1.19-.97-1.22-1.76-2.48-2.99-4.32-4.25l.29-.58h0Z"/>
    <path class="cls-4" d="m461.49,165.18c.94-.86,1.22-1.12,2.23-1.91,1.51,1.08,1.98,1.44,3.46,2.56.25.22.32.32.32.5,0,.36-.22.47-1.98.9-2.77,3.89-5.26,6.3-8.89,8.57-3.85,2.45-7.92,3.92-13.35,4.9-1.94.32-3.56.54-6.55.86l-.14-.4c5.98-1.55,9.9-2.99,13.97-5.18,2.48-1.33,4.1-2.48,6.12-4.36,2.12-1.94,3.24-3.28,4.82-5.69h-7.96c-1.58,1.44-2.52,2.16-3.96,3.1,1.94.58,2.41.76,3.06,1.04,1.37.58,1.87,1.04,1.87,1.84,0,1.22-1.12,2.63-2.12,2.63-.32,0-.54-.22-.72-.72-.76-2.16-1.51-3.42-2.63-4.46-1.69,1.04-3.35,1.87-5.18,2.63-1.3.54-1.58.65-5.22,1.76l-.18-.32c4.32-2.3,7.13-4.28,10.11-7.13,2.05-1.91,3.6-3.78,4.43-5.26-2.56,1.8-4.39,2.84-6.91,3.96-3.6,1.55-6.37,2.38-10.94,3.17l-.11-.36c5.69-2.09,9.32-3.96,12.92-6.62,3.38-2.56,5.76-4.93,7.85-7.96h-7.38c-1.44,1.37-2.3,2.05-3.64,2.99,2.23.61,2.77.79,3.6,1.26.58.36.94.9.94,1.37,0,1.04-1.12,2.3-2.05,2.3-.43,0-.61-.22-.97-1.22-.54-1.58-1.15-2.59-2.02-3.38-2.95,1.94-4.64,2.77-8.21,4l-.18-.32c3.28-2.27,5.25-3.92,7.42-6.26,1.98-2.2,3.24-4.18,3.96-6.16,4.93,1.4,5.54,1.62,5.54,2.02,0,.43-.11.47-1.76.83-.79.83-1.01,1.04-1.83,1.84h6.66c.9-.86,1.19-1.15,2.12-1.94,1.62,1.15,2.09,1.51,3.6,2.63.25.22.32.36.32.54,0,.5-.58.72-2.12.86-2.2,2.74-3.53,4.03-6.33,6.16l1.91.5c2.05.54,2.77.83,2.77,1.22,0,.36-.5.58-1.76.83-.96.93-1.62,1.57-1.98,1.91h7.09l-.02-.03Z"/>
    <path class="cls-4" d="m481.07,152.72c1.01,0,3.28-.5,6.08-1.37,1.39-.43,2.38-.89,2.95-1.37.22-.22.65-.36.94-.36,1.51,0,4.25,2.81,4.25,4.36,0,.5-.22.68-1.26,1.12-.72.29-1.51.83-3.92,2.63-1.37,1.04-6.37,4.43-12.56,8.53,3.67-1.3,5.69-1.94,8.21-2.74.75-.21,2.56-.73,5.44-1.55.55-.15,1.39-.39,2.52-.72,1.15-.32,1.44-.4,1.87-.61.72-.29,1.21-.43,1.48-.43.54,0,1.44.32,2.2.76,1.01.58,1.48,1.22,1.48,1.94,0,.47-.29.94-.65,1.12-.29.15-1.37.27-3.24.36-2.09.11-4.9.79-6.8,1.62-2.74,1.22-4.5,3.53-4.5,5.94s2.09,4.07,5.36,4.07c.5,0,1.15-.04,1.69-.14.25-.04.43-.04.58-.04,1.3,0,3.02,1.76,3.02,3.1,0,1.04-.97,1.55-2.95,1.55-5.9,0-9.9-2.95-9.9-7.27,0-1.66.72-3.42,1.98-4.97,1.01-1.22,1.94-1.98,3.89-3.17-4.5,1.33-9.65,3.49-11.91,5.04-.65.43-.86.54-1.22.54-1.22,0-2.77-1.66-2.77-2.99,0-.54.25-.79,1.04-1.04,1.08-.36,1.91-.79,3.24-1.76,3.13-2.27,9.04-7.7,12.02-11.05.79-.9,1.01-1.22,1.01-1.51,0-.22-.14-.32-.36-.32-.4,0-1.62.47-3.6,1.37-1.69.79-1.76.86-3.96,2.23-.58.36-.83.47-1.26.47-1.51,0-3.49-2.56-3.49-4.54,0-.4.04-.61.25-1.01.86,1.58,1.66,2.23,2.88,2.23l-.03-.02Z"/>
    <path class="cls-4" d="m519.23,181.45c3.42-2.38,5.26-4.43,6.73-7.49,1.26-2.63,1.94-5.62,1.94-8.67,0-3.74-1.15-5.87-3.24-5.87-1.08,0-2.3.54-3.74,1.66-.94.76-1.51,1.33-2.81,2.92-.79.94-1.19,1.19-1.94,1.19-1.87,0-4.1-2.63-4.1-4.82,0-.61.14-.97.61-1.58.43,1.55,1.33,2.45,2.48,2.45.58,0,1.37-.32,4.18-1.69,2.74-1.33,4.25-1.8,5.94-1.8,1.22,0,2.34.29,3.38.9,2.27,1.33,3.53,4,3.53,7.45,0,4.43-1.98,8.75-5.36,11.7-1.94,1.69-4.07,2.84-7.38,4l-.22-.32v-.03Zm-2.02-33.4c1.04.86,2.05,1.37,3.67,1.76.94.22,2.02.36,2.99.36.58,0,.76,0,1.98-.18.14-.04.29-.04.43-.04,1.4,0,3.35,1.73,3.35,2.99,0,.5-.32.97-.79,1.19-.4.14-.54.18-2.23.18-2.12,0-4.46.43-9.43,1.76l-.18-.4c.45-.21,1.04-.5,1.76-.86.72-.36,1.66-.85,2.81-1.48.33-.17.71-.35,1.12-.54-2.84-.9-4.28-2.02-5.76-4.54l.29-.22v.02Z"/>
    <path class="cls-4" d="m547.17,157.19c1.15,0,2.45-.29,9.68-2.12,1.76-.47,3.64-.9,7.99-1.84,1.4-.32,2.09-.54,2.92-.94.5-.22.97-.32,1.37-.32.65,0,1.8.43,2.66,1.01.94.61,1.4,1.3,1.4,1.98,0,.86-.68,1.4-1.76,1.4-.22,0-.54-.04-.94-.07-.47-.04-.61-.04-1.04-.04-3.31,0-6.41,1.44-8.64,4.07-1.87,2.09-2.84,4.57-2.84,7.05,0,3.06,1.58,5.44,4.36,6.48.9.36,2.02.58,2.88.58.07,0,.18,0,.4-.04h.36c.68,0,1.33.25,1.87.76.9.79,1.4,1.76,1.4,2.59,0,1.15-.83,1.69-2.52,1.69-2.63,0-5.62-1.08-7.67-2.74-2.45-1.94-3.74-4.72-3.74-7.99,0-3.06,1.48-6.33,4.03-9.03,1.4-1.48,2.66-2.41,5.76-4.14-5.4,1.15-13.17,3.92-15.01,5.33-.65.43-1.22.61-1.8.61-1.94,0-4.68-3.42-4.68-5.8,0-.32.07-.58.29-1.04.83,1.76,1.87,2.56,3.28,2.56h-.01Zm19.73,3.96c1.69.54,2.81,1.01,3.85,1.73,1.66,1.12,2.41,2.16,2.41,3.31,0,.83-.43,1.4-1.12,1.4-.47,0-.76-.22-1.22-1.04-1.08-1.87-2.48-3.46-4.25-4.79l.32-.61h.01Zm3.67-2.81c1.8.4,3.17.9,4.21,1.58,1.44.94,2.09,1.76,2.09,2.77,0,.86-.43,1.44-1.08,1.44-.4,0-.65-.22-1.19-.97-1.22-1.76-2.48-2.99-4.32-4.25l.29-.58h0Z"/>
    <path class="cls-4" d="m583.49,165.86c-1.37,1.22-2.88,2.23-5.04,3.46l-.29-.4c2.38-2.41,3.96-4.43,5.72-7.23,1.48-2.38,2.23-3.89,2.84-5.76,4.46,1.58,5.04,1.87,5.04,2.27,0,.36-.32.5-1.62.58-1.51,2.05-2.34,3.06-3.89,4.61,1.8.29,2.3.47,2.3.86,0,.25-.22.4-1.19.72v5.76c0,1.73.04,4.82.07,9.32,0,.47-.11.72-.25.9-.32.29-1.22.43-2.52.43-1.15,0-1.44-.18-1.44-.9.11-2.23.25-7.52.25-9.21v-5.4h.02Zm-4.93-6.73c2.3-2.34,3.71-4.07,5.11-6.37,1.04-1.76,1.55-2.81,2.05-4.36,1.15.43,2.02.76,2.59.94,2.2.79,2.74,1.08,2.74,1.44s-.43.5-1.58.58c-2.2,2.52-3.85,4.03-6.16,5.62-1.3.86-2.3,1.4-4.54,2.48l-.22-.32h0Zm14.65,1.91c-.9,0-1.48.04-2.48.22l-.29-1.26c1.04.22,1.76.29,2.77.29h12.24l2.7-3.17c1.87,1.4,2.41,1.87,4.1,3.31.14.18.22.29.22.4,0,.14-.14.22-.43.22h-6.55v7.38c0,2.64.02,5.62.07,8.93,0,1.62-.36,2.34-1.51,2.99-.94.5-2.74.94-3.92.94-.32,0-.43-.11-.47-.47-.11-.79-.29-1.3-.65-1.73-.65-.79-1.19-.97-5.36-2.05l.04-.5c4.14.29,4.43.29,7.13.32.47-.07.58-.14.58-.54v-15.26h-8.17l-.02-.02Zm-1.3-9.86c1.19.25,1.87.32,2.63.32h8.78l2.7-3.02c1.87,1.37,2.41,1.76,4.1,3.13.18.18.25.29.25.4,0,.14-.18.25-.47.25h-15.37c-.72,0-1.3.04-2.38.22l-.25-1.3h0Z"/>
    <path class="cls-4" d="m618.49,154.81c1.66,1.15,3.02,1.58,5,1.58,1.62,0,4.18-.43,6.12-1.04-.86-1.48-2.16-3.06-2.95-3.64-.65-.5-1.76-.79-2.95-.79h-.5c.4-.79.79-1.04,2.02-1.33.72-.18,1.51-.25,2.41-.25,1.51,0,2.59.22,3.06.68.4.32.43.47.54,1.55.04.65.29,1.3,1.15,2.95,2.88-1.08,3.74-1.55,4.82-2.63.25-.25.72-.4,1.37-.4,1.51,0,2.45.54,2.45,1.37,0,1.04-1.58,1.84-7.49,3.82.19.31.41.67.65,1.08.18.32.65,1.15,1.44,2.52,2.2-.83,3.17-1.26,4.07-1.87-.72-.76-1.01-1.01-2.12-2.02l.22-.29c1.3.65,2.27.94,3.13.94.15,0,.51-.05,1.08-.14.14-.04.25-.04.36-.04.86,0,1.44.54,1.44,1.33,0,1.37-1.8,2.48-6.95,4.36.94,1.62,1.08,1.87,1.44,2.52.53.91,1.04,1.79,1.55,2.63.65,1.04.86,1.69.86,2.45,0,.94-.29,1.98-.68,2.52-.29.43-.72.65-1.22.65-.47,0-.79-.18-1.33-.68-1.15-1.15-1.55-1.4-2.59-1.91-1.87-.9-4.03-1.4-5.94-1.4-3.49,0-5.94,1.48-5.94,3.64s2.23,3.28,6.37,3.28c1.48,0,2.12-.07,3.96-.54.32-.11.65-.14.86-.14,1.51,0,3.24,1.44,3.24,2.74,0,.61-.4,1.08-1.15,1.3-1.01.32-2.77.5-4.9.5-4.14,0-7.02-.68-8.96-2.16-1.33-1.04-2.12-2.52-2.12-4.07,0-3.49,4-5.94,9.65-5.94,1.98,0,4.07.22,6.88.72-.36-1.3-1.12-3.02-2.38-5.4-2.66.86-5.58,1.37-7.99,1.37-3.02,0-4.71-1.08-6.16-3.96l.32-.25c1.37,1.58,2.59,2.16,4.54,2.16,2.2,0,4.93-.5,8.14-1.48-.61-1.19-1.3-2.3-2.2-3.64-2.48.68-4.68,1.04-6.48,1.04-2.56,0-4.72-1.15-6.41-3.38l.29-.29-.02-.02Z"/>
    <path class="cls-4" d="m661.22,164.6c-1.62,6.66-1.98,8.53-1.98,10.08,0,.24.05.68.14,1.33.04.11.04.29.04.5,0,.72-.11,1.26-.29,1.58-.32.54-.9.86-1.55.86-.94,0-1.73-.65-2.27-1.91-.9-2.02-1.37-4.79-1.37-7.92s.29-5.26,1.44-10.69c.58-2.63.72-3.53.72-4.39,0-1.26-.32-2.23-1.19-3.46,1.04.11,2.02.72,3.2,2.05,1.4,1.58,2.09,2.92,2.09,4.03,0,.61-.14,1.01-.83,2.27-1.87,3.46-2.74,6.48-2.74,9.57,0,1.48.14,2.48.54,3.74.94-1.87,1.15-2.34,1.51-3.17,1.17-2.57,1.88-4.11,2.12-4.64l.4.14.02.03Zm4.07,1.8c-.07.83-.11,1.19-.11,1.58,0,1.87.5,3.2,1.58,4.14,1.19,1.01,2.81,1.44,5.47,1.44,1.08,0,2.2-.11,3.28-.25.55-.09,1.24-.3,2.05-.61.25-.11.5-.14.72-.14.65,0,1.62.47,2.3,1.15.61.58.86,1.08.86,1.66,0,1.55-1.66,2.09-6.48,2.09-7.2,0-10.76-2.45-10.76-7.38,0-1.33.18-2.41.65-3.78l.43.11h.01Zm-.5-11.41c1.22.79,2.02,1.01,3.35,1.01,2.27,0,5.62-.79,7.34-1.73.72-.4.76-.4,1.15-.4,1.37,0,3.17,1.51,3.17,2.7,0,.83-.43,1.15-1.94,1.37-1.66.25-2.77.54-4.32,1.08-2.81.97-3.89,1.44-5.62,2.48l-.25-.32c1.22-1.15,2.84-2.59,3.31-2.99h-.83c-2.41,0-4.14-.86-5.65-2.92l.29-.29h0Z"/>
    <path class="cls-4" d="m702.51,148.51c.94,0,2.3.5,3.53,1.3,1.66,1.04,2.63,2.27,2.63,3.28,0,.9-.43,1.33-2.38,2.56-2.95,1.8-4.9,3.28-7.06,5.22-1.51,1.44-2.27,2.52-2.27,3.38,0,.54.32,1.12,1.08,1.8.45.41,1.55,1.26,3.28,2.56,1.66,1.22,3.85,3.17,5.26,4.57,1.55,1.58,2.2,2.99,2.2,4.64,0,1.94-.94,3.35-2.2,3.35-.83,0-1.26-.43-1.84-1.8-1.33-3.1-3.17-5.9-6.16-9.5-2.05-2.41-2.41-2.84-2.77-3.49-.43-.79-.61-1.4-.61-2.12,0-.94.36-1.84,1.08-2.92.55-.77,2.03-2.61,4.43-5.54,1.98-2.38,2.92-3.85,2.92-4.61,0-.43-.25-.94-.68-1.44-.4-.43-.43-.47-1.4-1.04.43-.14.61-.18.97-.18v-.02Z"/>
    <path class="cls-4" d="m737.36,163.3c-1.44,3.74-1.73,4.64-2.16,6.41-.29,1.22-.47,2.41-.47,3.02,0,.65.07.94.5,2.2.07.29.11.47.11.79,0,.97-.72,1.73-1.73,1.73-1.48,0-3.38-1.4-4.75-3.46-1.8-2.74-2.7-6.52-2.7-11.37,0-.17.02-1.31.07-3.42v-.58c0-2.88-.36-3.92-2.12-5.94.83,0,1.33.18,2.45.86,1.73,1.01,2.99,2.27,3.71,3.71.25.5.32.86.32,1.4,0,.32-.07.61-.25,1.33-.5,1.69-.79,3.74-.79,5.33s.25,3.2.72,4.57c.32.97.65,1.44,1.4,2.02,2.34-4.03,3.74-6.37,5.33-8.78l.36.18h0Zm6.84-6.52c3.28.54,5.62,1.87,7.45,4.18,1.69,2.09,2.52,4.5,2.52,7.2,0,2.45-1.22,4.18-2.99,4.18-.58,0-.94-.18-1.44-.76-.86-.97-1.62-1.12-5.51-1.19l-.07-.36c3.17-.94,4.54-1.37,5.11-1.62.65-.29.76-.43.76-1.15,0-1.58-.47-3.67-1.15-5.18-1.08-2.34-2.59-3.89-4.82-4.9l.14-.4h0Z"/>
  </g>
  <g>
    <path class="cls-2" d="m98.7,240.76c.36-.46.46-.6.86-1,.56.44.72.56,1.22.98.14.14.2.22.2.32,0,.14-.16.28-.66.52v3.64c0,6.94,0,7.2.14,10.38-.02.18-.06.24-.2.28-.14.06-.78.14-1.1.14-.16,0-.22-.06-.22-.24v-1.46h-9.32v1.34c0,.14-.06.22-.2.26-.1.02-.68.06-.9.06-.28,0-.38-.06-.38-.24v-.04c.06-2.42.1-5.56.1-7.72,0-4.88-.02-7.2-.08-8.36.76.46,1,.62,1.74,1.14h2.18c.48-1.08.82-2.24.98-3.4,2.3.6,2.36.62,2.36.82,0,.16-.18.24-.92.4-.22.26-.38.48-.48.6-.74.96-.92,1.18-1.34,1.58h6.02Zm.24,4.14v-3.68h-9.32v3.68h9.32Zm-9.32.46v3.9h9.32v-3.9h-9.32Zm0,4.36v4.14h9.32v-4.14h-9.32Z"/>
    <path class="cls-2" d="m112.26,245.45c-2.28.5-3.78.74-6,.92l-.06-.34c2.66-.42,5.3-1.14,7.92-2.14,1.8-.7,2.92-1.26,3.58-1.78,1.28.82,1.66,1.1,1.66,1.22s-.2.2-.48.2c-.14,0-.36-.02-.56-.04-.26.08-.46.16-.58.2-2.2.81-3.57,1.29-4.1,1.44v3.38l6.1-.8c.4-.7.52-.92.92-1.5.94.5,1.22.68,2.18,1.32.04.04.06.08.06.1,0,.06-.06.12-.14.14l-9.12,1.22v4.88c0,.16.06.24.24.3.28.08,1.5.14,3.38.14s2.86-.06,3.12-.2c.36-.18.78-1.48,1.4-4.22l.28.02c0,.29-.05,1.42-.14,3.38v.14c0,.38.06.46.4.54.38.08.64.3.64.54,0,.32-.24.62-.62.74-.66.24-1.74.3-4.98.32h-1.42c-1.6,0-2.54-.08-3.04-.28-.44-.16-.62-.42-.68-1.06,0-.95.01-2.35.04-4.2v-.86l-3.32.44c-1.16.14-2.3.38-3.22.64l-.4-.86c.86,0,2.76-.14,3.64-.26l3.3-.44v-3.24h0Zm8.32-4.76c.42-.52.56-.66.98-1.16.76.54,1,.72,1.8,1.3.16.12.26.26.26.34s-.06.12-.16.16c-.06.02-.14.04-.44.1-.32.06-.4.08-.76.16-.24.2-.63.57-1.18,1.1-.41.39-.71.67-.9.86l-.24-.12c.62-1.54.64-1.62.84-2.28h-12.94c-.08.76-.2,1.24-.44,1.78-.3.74-1.06,1.6-1.4,1.6-.26,0-.66-.78-.66-1.28,0-.28.06-.42.28-.54.5-.28,1.02-.82,1.28-1.34.24-.44.4-.96.68-2.06h.32c-.03.69-.04,1.15-.04,1.38h5.76v-1.38c0-.82,0-.88-.06-1.38,2.04.2,2.36.26,2.36.54,0,.09-.29.25-.88.48v1.74h5.54Z"/>
    <path class="cls-2" d="m126.94,242.67c.28.26.5.34.9.34.56,0,1.06-.1,5.56-1.18.72-.18,1.86-.44,3.24-.7,1.4-.28,2.1-.46,2.7-.66.4-.12.54-.16.7-.16.24,0,.68.18,1.08.42.4.24.58.5.58.76,0,.3-.24.5-.62.5-.1,0-.22,0-.38-.02-.24-.04-.34-.04-.56-.04-3.42,0-6.72,3.26-6.72,6.68,0,1.78.94,3.18,2.66,3.9.66.28,1.42.46,2.02.48.4,0,.56.06.84.32.38.36.6.72.6.96,0,.32-.3.56-.72.56-1.16,0-2.96-.64-4.08-1.44-1.52-1.08-2.32-2.64-2.32-4.48,0-1.62.8-3.42,2.18-4.88.8-.88,1.58-1.42,3.26-2.3-2.48.3-7.06,1.66-8.94,2.68-.4.24-.54.28-.8.28-.48,0-1.08-.46-1.54-1.18-.32-.48-.52-1.02-.52-1.34,0-.16.04-.28.22-.54.18.5.34.76.66,1.04h0Zm11.88,1.8c.74.42,1.28.8,1.78,1.24.72.66,1,1.12,1,1.6s-.28.84-.62.84c-.17,0-.47-.43-.88-1.3-.36-.7-1-1.58-1.54-2.12l.26-.26h0Zm2.06-1.16c.72.32,1.3.68,1.92,1.14.76.58,1.02,1,1.02,1.54,0,.48-.2.82-.5.82-.18,0-.3-.1-.46-.38-.7-1.26-1.08-1.78-2.2-2.84l.22-.28Z"/>
    <path class="cls-2" d="m154.24,254.19c2.16-.64,3.54-1.46,4.68-2.78,1.18-1.34,1.78-2.98,1.78-4.82,0-1.94-.78-3.48-2.26-4.42-.88-.58-2.2-.92-3.46-.92-.24,0-.38,0-.7.04.48.7.62,1.08.62,1.66,0,1.56-1.12,4.48-2.64,6.92-1.26,2-2.24,2.98-2.98,2.98-.34,0-.66-.16-.88-.42-.18-.24-.22-.32-.56-1.28-.18-.52-.3-.76-.88-1.88-.32-.64-.46-1.18-.46-1.82,0-1.26.68-2.74,1.8-3.96,1.62-1.72,4.26-2.8,6.88-2.8,2.02,0,3.88.66,5.16,1.84s1.92,2.76,1.92,4.7c0,2.5-1.46,4.72-3.98,6.06-1.16.62-2.2.94-3.9,1.24l-.14-.34h0Zm-6.58-6.22c0,.96.3,1.94.8,2.64.28.36.54.58.76.58.44,0,1.4-1.08,2.38-2.64,1.48-2.36,2.54-4.94,2.54-6.18,0-.3-.06-.5-.28-1-3.48.62-6.2,3.52-6.2,6.6h0Z"/>
    <path class="cls-2" d="m175.5,249.09c1.04-1.04,2.14-2.34,3.08-3.66.3-.42.5-.74.5-.82s-.06-.14-.14-.14c-.3,0-.96.2-2.7.82-2.4.84-2.74.98-3.54,1.3-.04.92-.04,1.26-.04,1.84,0,2.02.1,2.96.4,3.42.3.48,1,.7,2.26.7,1.4,0,2.78-.2,3.62-.52.26-.1.3-.12.4-.12.18,0,.48.12.78.32.4.26.6.56.6.84,0,.24-.16.4-.46.46-.68.18-1.86.26-3.3.26-2.84,0-4.16-.42-4.76-1.54-.44-.78-.58-2.02-.62-5.28-.12.07-.45.21-.98.42-.14.06-.4.18-.78.34-.2.1-.42.2-.62.3-.28.12-.3.14-.56.3s-.44.22-.64.22c-.42,0-.96-.4-1.46-1.04-.34-.44-.56-.92-.56-1.2,0-.06.02-.14.04-.24.62.74,1.04,1,1.62,1,.5,0,2.46-.52,3.96-1.04-.04-3.78-.04-3.96-.18-4.46-.16-.54-.62-.88-1.48-1.12.18-.2.34-.26.68-.26.68,0,1.54.24,2.22.6.4.22.6.48.6.74,0,.08-.05.24-.16.48-.24.52-.42,1.84-.52,3.68,2.32-.78,3.7-1.24,4.3-1.48.73-.28,1.23-.51,1.48-.7.2-.16.32-.2.52-.2.38,0,.94.32,1.56.86.44.4.62.64.62.88,0,.28-.1.36-.56.54-.2.08-.72.48-2.1,1.64-.94.76-1.62,1.26-2.88,2.1l-.2-.24h0Z"/>
    <path class="cls-2" d="m186.2,253.81c1.1-1.02,1.9-2.18,2.68-3.8.76-1.58,1.38-4.04,1.38-5.42,0-.78-.34-1.18-1.36-1.56.22-.14.32-.18.54-.18.44,0,.92.16,1.5.5.74.44,1.08.78,1.08,1.1,0,.16-.04.32-.26.92-.01.05-.08.29-.2.7-.64,2.1-.82,2.6-1.36,3.68-.96,1.9-2.08,3.18-3.78,4.28l-.22-.22Zm17.08-7.98c-.62,1.06-1.14,1.72-2.18,2.82-1.16,1.24-3,2.84-4.24,3.66-.38.26-.96.72-1.14.9-.16.16-.26.22-.4.22-.46,0-1.2-1.04-1.2-1.66,0-.04.04-.24.14-.62.12-.46.18-2.24.18-5.42,0-4.54-.08-4.8-1.54-5.12.2-.24.34-.3.64-.3.48,0,1.1.22,1.76.62.58.36.82.64.82.92,0,.1-.02.18-.16.54-.1.26-.2.94-.28,1.96-.08.84-.26,5.26-.26,6.02,0,.26,0,.48.04.92,2.32-.9,5.26-3.12,7.56-5.66l.26.2Z"/>
    <path class="cls-2" d="m209.58,254.93c3.14-2.68,4.86-4.68,6.6-7.66,1.3-2.24,2.38-4.66,2.38-5.34,0-.2-.1-.26-.4-.26-.38,0-2.24.34-3.7.68-1.5.34-2.78.74-3.66,1.12-.3.14-.54.2-.74.2-.4,0-.94-.4-1.42-1.08-.34-.46-.52-.9-.52-1.24,0-.14.02-.22.14-.42.32.76,1,1.16,1.88,1.16.66,0,2.3-.24,5.68-.82,1.76-.3,1.9-.34,2.32-.56.16-.09.29-.14.4-.14.3,0,.86.36,1.46.92.42.42.62.72.62.96,0,.2-.04.28-.28.54-.26.28-.34.4-.68,1.1-1.62,3.26-3.66,6.1-5.78,8.1-1.26,1.16-2.44,2.02-4.12,2.98l-.18-.24h0Z"/>
    <path class="cls-2" d="m226.54,248.37c1.32-1.52,2.28-2.96,3.16-4.6.88-1.68,1.42-3,1.42-3.5,0-.54-.4-.94-1.32-1.32.22-.1.32-.14.5-.14.48,0,1.14.22,1.82.58.6.34.9.64.9.92,0,.2-.02.24-.4.82-.04.08-.16.28-.34.58-.3.58-.86,1.52-1.18,2.02.32.28.68.4,1.18.4.92,0,2.66-.26,4.42-.66,1.66-.4,2.32-.6,3.02-.98.08-.06.24-.1.36-.1.2,0,.72.18,1.12.4.48.26.66.44.66.68,0,.18-.12.3-.36.36-.12.04-.18.04-1.04.14-.16.02-1.8.24-2.42.34-1.05.16-1.74.26-2.06.3.84.52,1.24.94,1.24,1.3,0,.28-.24,1.16-.54,1.96-1.28,3.44-3.36,6.04-6.18,7.78l-.22-.22c1.48-1.32,2.74-2.98,3.78-4.98,1.04-1.96,1.6-3.68,1.6-4.84,0-.36-.12-.56-.54-.92-.16.02-.3.04-.38.04-.92.1-1.4.14-2.06.14-.88,0-1.14-.1-1.86-.7-1.46,2.08-2.68,3.4-4.12,4.38l-.16-.18h0Z"/>
    <path class="cls-2" d="m249.16,254.99c1.48-1.22,2.74-2.98,3.62-5.04.66-1.52,1.2-3.48,1.2-4.36,0-.54-.38-.94-1.18-1.28.12-.14.26-.2.46-.2.26,0,.96.26,1.54.58.52.28.72.44.86.7.92-.56,2.72-1.98,3.58-2.86.46-.44.62-.66.62-.8,0-.24-.24-.3-1.18-.3-1.32,0-4.74.54-6.9,1.1-.76.2-1.46.44-2.04.7-.12.06-.32.1-.46.1-.44,0-1.16-.6-1.6-1.34-.22-.38-.38-.84-.38-1.08,0-.14.04-.28.14-.46.36.82,1,1.2,1.98,1.2.72,0,1.08-.04,4.82-.52.18-.02.62-.08,1.38-.16,3.1-.36,3.26-.4,3.68-.6.12-.04.16-.06.26-.06.22,0,.58.2,1.06.58.86.66,1.44,1.34,1.44,1.68,0,.3-.12.38-.72.54-.32.1-.54.18-.98.42-1.66.94-2.56,1.4-4.72,2.42-.12.34-.14.38-.3.9-.9,2.74-1.68,4.3-2.88,5.72-.98,1.14-1.98,2.02-3.1,2.68l-.2-.26h0Z"/>
    <path class="cls-2" d="m268.06,241.76c1.06.88,1.7,1.08,3.22,1.08.86,0,1.64-.06,2.86-.24-.08-3.06-.22-3.34-1.74-3.56.28-.28.44-.32,1-.32s1.22.1,1.68.26c.48.16.68.36.68.66,0,.08-.09.31-.26.68-.18.38-.3,1.08-.36,2.12,1.98-.38,3.06-.72,3.72-1.18.06-.04.18-.08.24-.08.24,0,.82.18,1.04.34.22.14.34.3.34.48,0,.28-.32.44-1.56.74-1.36.32-2.62.56-3.82.7-.02.52-.02.82-.02,1.28,0,.54,0,.94.02,1.82.82-.14,1.6-.32,2.28-.54.52-.18.62-.24,1-.5.08-.06.18-.08.3-.08.28,0,.78.14,1.02.3.16.08.24.22.24.38,0,.36-.28.52-1.54.86-1,.26-2.3.5-3.26.58.04.78.04,1.1.06,1.8.04.76.06,1.06.12,1.56,1.84.34,3.6,1.02,4.4,1.72.38.34.58.8.58,1.32,0,.42-.18.7-.44.7-.2,0-.28-.06-.8-.56-.34-.32-1.1-.9-1.68-1.24-.68-.4-1.18-.62-2-.84.04.44.06.64.06.88,0,.78-.22,1.3-.68,1.68-.56.46-1.6.74-2.68.74-2,0-3.38-.88-3.38-2.14,0-1.42,1.86-2.42,4.52-2.42.32,0,.52,0,1,.02-.02-.96-.02-1.1-.02-1.38v-1.74c-.8.04-1.18.06-1.48.06-1.3,0-2.18-.14-2.66-.44-.58-.34-.9-.9-.9-1.52,0-.14.02-.34.04-.56l.3.02c.02.62.12.9.42,1.14.32.28,1.18.44,2.34.44.56,0,1.04-.04,1.94-.14v-1.4l-.04-1.46v-.24c-1.1.1-1.9.14-2.58.14-1.9,0-2.72-.38-3.72-1.72l.2-.2h0Zm4.44,9.84c-.78,0-1.56.14-2.18.38-.72.28-1.08.68-1.08,1.2,0,.72.82,1.14,2.18,1.14.98,0,1.8-.26,2.28-.72.26-.24.38-.54.44-1.04.02-.14.04-.6.04-.76v-.06c-.78-.1-1.14-.14-1.68-.14h0Z"/>
    <path class="cls-2" d="m286.94,242.67c.28.26.5.34.9.34.56,0,1.06-.1,5.56-1.18.72-.18,1.86-.44,3.24-.7,1.4-.28,2.1-.46,2.7-.66.4-.12.54-.16.7-.16.24,0,.68.18,1.08.42s.58.5.58.76c0,.3-.24.5-.62.5-.1,0-.22,0-.38-.02-.24-.04-.34-.04-.56-.04-3.42,0-6.72,3.26-6.72,6.68,0,1.78.94,3.18,2.66,3.9.66.28,1.42.46,2.02.48.4,0,.56.06.84.32.38.36.6.72.6.96,0,.32-.3.56-.72.56-1.16,0-2.96-.64-4.08-1.44-1.52-1.08-2.32-2.64-2.32-4.48,0-1.62.8-3.42,2.18-4.88.8-.88,1.58-1.42,3.26-2.3-2.48.3-7.06,1.66-8.94,2.68-.4.24-.54.28-.8.28-.48,0-1.08-.46-1.54-1.18-.32-.48-.52-1.02-.52-1.34,0-.16.04-.28.22-.54.18.5.34.76.66,1.04h0Zm11.88,1.8c.74.42,1.28.8,1.78,1.24.72.66,1,1.12,1,1.6s-.28.84-.62.84c-.17,0-.47-.43-.88-1.3-.36-.7-1-1.58-1.54-2.12l.26-.26h0Zm2.06-1.16c.72.32,1.3.68,1.92,1.14.76.58,1.02,1,1.02,1.54,0,.48-.2.82-.5.82-.18,0-.3-.1-.46-.38-.7-1.26-1.08-1.78-2.2-2.84l.22-.28Z"/>
    <path class="cls-4" d="m111.75,298.78c1.37-1.51,1.76-1.98,3.1-3.42,1.91,1.51,2.52,2.02,4.43,3.64.11.14.18.25.18.32,0,.14-.14.22-.4.22h-29.84c-1.51,0-2.52.07-3.31.18l-.22-1.26c1.04.22,2.02.32,3.53.32h2.23v-16.45c0-1.4-.04-2.12-.22-3.6,1.15.14,2.05.25,2.63.29,2.38.25,3.17.5,3.17.97,0,.32-.4.58-1.44.9v17.89h5.79v-27h-10.47c-1.48,0-2.45.04-3.46.18l-.22-1.26c1.22.25,2.12.32,3.67.32h20.16c1.19-1.4,1.55-1.84,2.77-3.2,1.87,1.4,2.45,1.87,4.28,3.35.18.18.25.29.25.4,0,.14-.14.22-.43.22h-12.42v12.02h4.36c1.19-1.37,1.55-1.8,2.77-3.13,1.76,1.4,2.34,1.87,4.14,3.38.14.14.18.25.18.32,0,.11-.14.18-.36.18h-11.09v14.22h6.24Z"/>
    <path class="cls-4" d="m152.32,289.16c-.22.4-.4.68-.47.9-1.3,2.48-1.44,2.74-2.2,3.71-2.99,3.92-7.31,6.26-11.63,6.26-2.99,0-5.36-1.15-6.66-3.24-1.01-1.58-1.4-3.85-1.4-7.74,0-2.23.04-3.2.47-11.56.04-1.08.07-2.09.07-2.99,0-2.56-.54-3.42-2.88-4.43.47-.29.68-.36,1.15-.36,1.33,0,3.1.5,4.57,1.3,1.58.83,2.3,1.69,2.3,2.63,0,.47-.07.65-.43,1.51-1.08,2.41-2.38,11.12-2.38,16.02,0,3.46,1.55,5,4.93,5,3.06,0,6.48-1.12,9.54-3.1,1.8-1.15,2.63-1.91,4.64-4.18l.36.25.02.02Z"/>
    <path class="cls-4" d="m173.67,268.61c.94,0,2.3.5,3.53,1.3,1.66,1.04,2.63,2.27,2.63,3.28,0,.9-.43,1.33-2.38,2.56-2.95,1.8-4.9,3.28-7.05,5.22-1.51,1.44-2.27,2.52-2.27,3.38,0,.54.32,1.12,1.08,1.8.45.41,1.55,1.26,3.28,2.56,1.66,1.22,3.85,3.17,5.26,4.57,1.55,1.58,2.2,2.99,2.2,4.64,0,1.94-.94,3.35-2.2,3.35-.83,0-1.26-.43-1.84-1.8-1.33-3.1-3.17-5.9-6.16-9.5-2.05-2.41-2.41-2.84-2.77-3.49-.43-.79-.61-1.4-.61-2.12,0-.94.36-1.84,1.08-2.92.55-.77,2.03-2.61,4.43-5.54,1.98-2.38,2.92-3.85,2.92-4.61,0-.43-.25-.94-.68-1.44-.4-.43-.43-.47-1.4-1.04.43-.14.61-.18.97-.18l-.02-.02Z"/>
    <path class="cls-4" d="m205.14,300.54c3.13-1.91,5.51-4.54,6.84-7.59,1.3-2.95,1.8-6.26,1.87-11.74-2.12.07-4.32.36-7.27.94v1.94c0,1.15.04,3.89.07,5.08v.22c0,1.87-.47,2.74-1.48,2.74-.61,0-1.22-.47-1.84-1.33-.47-.72-.79-1.55-.79-2.12,0-.29.07-.5.25-1.01.4-1.01.58-2.34.61-4.79-1.62.32-2.56.68-3.82,1.37-.5.25-1.04.43-1.44.43-.9,0-2.27-1.19-3.24-2.84-.4-.68-.65-1.44-.65-1.87,0-.11.04-.25.07-.43,1.04,1.3,2.05,1.84,3.49,1.84.9,0,3.02-.29,5.54-.79.04-2.12-.18-4.25-.43-5.08-.36-1.12-1.04-1.8-2.52-2.48.43-.29.72-.36,1.19-.36,1.19,0,3.1.68,4.39,1.55.94.61,1.26,1.08,1.26,1.69,0,.36-.04.47-.25,1.12-.22.61-.4,1.91-.43,3.1,1.26-.22,2.16-.36,3.71-.54.29-.03,1.14-.12,2.56-.29.33-.03.67-.06,1.01-.11.04-.54.04-1.48.04-2.84,0-2.56-.18-3.64-.72-4.28-.58-.68-1.26-1.08-2.63-1.4.54-.4.94-.5,1.73-.5,1.44,0,3.13.4,4.54,1.08,1.08.5,1.55,1.04,1.55,1.76,0,.29-.04.43-.22.86-.5,1.12-.65,2.09-.79,4.9,2.02-.14,2.88-.29,4-.79.5-.22.65-.25.97-.25.65,0,1.62.36,2.52.94.9.58,1.33,1.12,1.33,1.69,0,.61-.47,1.08-1.15,1.08-.14,0-.32,0-.58-.04-1.76-.18-3.78-.25-6.01-.25h-1.15c-.11,4.18-.22,5.65-.5,7.42-.72,4.43-2.52,7.27-6.23,9.83-1.69,1.19-3.1,1.87-5.15,2.52l-.25-.32v-.06Z"/>
    <path class="cls-4" d="m238.51,284.63c-.07,3.31-.5,5.76-1.51,8.1-.9,2.12-2.05,3.28-3.24,3.28-1.01,0-1.73-1.15-1.73-2.81,0-.5.14-1.04.32-1.37.22-.32.32-.4,1.08-.79,2.3-1.3,4.14-3.96,4.57-6.48l.5.07h0Zm-4.61-6.98c1.33,1.66,2.41,2.09,4.97,2.09,1.33,0,3.42-.18,5.87-.54,0-3.74-.04-4.75-.32-5.62-.32-.97-1.37-1.73-2.92-2.05.47-.47.83-.58,1.55-.58,1.37,0,3.6.5,4.79,1.08,1.08.54,1.55,1.04,1.55,1.69,0,.47-.07.65-.5,1.37-.47.79-.68,1.76-.86,3.53,2.84-.47,5.4-1.3,5.94-1.91.4-.29.58-.36,1.08-.36.54,0,1.73.4,2.52.86.76.47,1.12.94,1.12,1.48,0,.83-.58,1.15-2.7,1.44-.22.04-1.01.18-2.38.36-2.95.47-4.82.76-5.72.86-.04,1.91-.04,2.02-.04,2.59,0,3.35.14,6.23.5,9.94.04.65.07,1.01.07,1.44,0,2.77-1.33,5-3.02,5-.86,0-1.26-.36-1.51-1.44-.18-1.22-1.73-2.7-5.36-5.04l.14-.29c2.45.76,3.6,1.01,5.87,1.33.14-3.1.25-8.67.25-13.21-2.3.22-3.64.32-4.72.32-3.42,0-5.18-1.12-6.52-4.1l.36-.25h0Zm18.47,6.48c3.06,1.44,4.64,2.45,6.12,3.92,1.26,1.26,1.8,2.34,1.8,3.64,0,2.02-1.01,3.67-2.23,3.67-.72,0-.9-.29-1.33-1.98-1.01-3.6-2.7-6.91-4.64-8.96l.29-.29h0Zm9.03-12.85c0,2.16-1.73,3.89-3.85,3.89s-3.92-1.76-3.92-3.89,1.76-3.89,3.89-3.89,3.89,1.73,3.89,3.89h-.01Zm-6.48,0c0,1.44,1.15,2.59,2.59,2.59s2.63-1.15,2.63-2.59-1.15-2.63-2.63-2.63-2.59,1.15-2.59,2.63h0Z"/>
    <path class="cls-4" d="m269.65,282.61c.79.58,1.62.76,3.6.76,1.44,0,8.03-.11,14.25-.25.61-.04,2.95-.04,4.03-.04,3.6,0,4.72.14,5.29.65.29.25.43.65.43,1.08,0,.9-.79,1.48-2.34,1.69-2.02.25-5.18.36-16.05.43-1.66,0-1.84.04-4.46.14-.86.07-1.04.11-1.58.32s-.9.29-1.22.29c-.86,0-1.84-.79-2.66-2.23-.83-1.44-1.26-2.7-1.26-3.74,0-.61.04-.72.43-1.19.76,1.33.97,1.66,1.55,2.09h-.01Z"/>
    <path class="cls-4" d="m312.45,269.87c1.08,0,2.66.43,3.96,1.04,1.58.79,2.34,1.55,2.34,2.38,0,.32-.07.5-.32.97-.43.79-.5,1.08-.61,2.38-.07.72-.14,3.06-.22,4.97,3.24.14,6.59.86,8.67,1.76,1.84.83,2.63,1.91,2.63,3.53s-.65,2.56-1.58,2.56c-.54,0-.76-.14-1.69-1.19-2.3-2.56-5.08-4.54-8.03-5.62v5.65c0,2.01.04,4.45.11,7.31.04.61.04,1.12.04,1.73,0,1.19-.07,1.76-.22,2.16-.22.58-.68.9-1.26.9-.65,0-1.3-.4-1.94-1.26-.76-.94-1.3-2.16-1.3-2.92,0-.43.04-.58.32-1.44.61-1.76.83-5.94.83-15.15,0-5.18-.11-6.55-.65-7.52-.4-.76-1.22-1.4-2.48-1.87.54-.29.83-.36,1.4-.36h0Z"/>
    <path class="cls-4" d="m368.32,289.16c-.22.4-.4.68-.47.9-1.3,2.48-1.44,2.74-2.2,3.71-2.99,3.92-7.31,6.26-11.63,6.26-2.99,0-5.36-1.15-6.66-3.24-1.01-1.58-1.4-3.85-1.4-7.74,0-2.23.04-3.2.47-11.56.04-1.08.07-2.09.07-2.99,0-2.56-.54-3.42-2.88-4.43.47-.29.68-.36,1.15-.36,1.33,0,3.1.5,4.57,1.3,1.58.83,2.3,1.69,2.3,2.63,0,.47-.07.65-.43,1.51-1.08,2.41-2.38,11.12-2.38,16.02,0,3.46,1.55,5,4.93,5,3.06,0,6.48-1.12,9.54-3.1,1.8-1.15,2.63-1.91,4.64-4.18l.36.25.02.02Z"/>
    <path class="cls-4" d="m378.69,277.14c1.15,0,2.45-.29,9.68-2.12,1.8-.47,3.06-.76,7.99-1.84,1.44-.32,1.87-.47,2.92-.94.5-.22.97-.32,1.33-.32.65,0,1.84.43,2.7,1.01.94.61,1.4,1.3,1.4,1.98,0,.86-.68,1.4-1.76,1.4-.22,0-.54-.04-.94-.07-.47-.04-.61-.04-1.04-.04-3.28,0-6.37,1.44-8.64,4.03-1.84,2.12-2.81,4.57-2.81,7.09,0,3.06,1.58,5.43,4.32,6.48.9.36,2.05.58,2.88.58.07,0,.22,0,.4-.04h.36c.68,0,1.33.25,1.87.76.86.76,1.4,1.76,1.4,2.56,0,1.15-.83,1.73-2.56,1.73-2.59,0-5.58-1.08-7.63-2.74-2.45-1.94-3.74-4.75-3.74-7.99,0-3.06,1.48-6.37,4.03-9.03,1.4-1.48,2.7-2.41,5.76-4.14-3.13.68-6.62,1.73-9.72,2.88-3.06,1.15-3.85,1.51-5.29,2.45-.65.43-1.22.61-1.8.61-1.94,0-4.68-3.42-4.68-5.8,0-.36.07-.58.29-1.04.79,1.73,1.87,2.56,3.28,2.56h0Z"/>
    <path class="cls-4" d="m425.67,268.61c.94,0,2.3.5,3.53,1.3,1.66,1.04,2.63,2.27,2.63,3.28,0,.9-.43,1.33-2.38,2.56-2.95,1.8-4.9,3.28-7.06,5.22-1.51,1.44-2.27,2.52-2.27,3.38,0,.54.32,1.12,1.08,1.8.45.41,1.55,1.26,3.28,2.56,1.66,1.22,3.85,3.17,5.26,4.57,1.55,1.58,2.2,2.99,2.2,4.64,0,1.94-.94,3.35-2.2,3.35-.83,0-1.26-.43-1.84-1.8-1.33-3.1-3.17-5.9-6.16-9.5-2.05-2.41-2.41-2.84-2.77-3.49-.43-.79-.61-1.4-.61-2.12,0-.94.36-1.84,1.08-2.92.55-.77,2.03-2.61,4.43-5.54,1.98-2.38,2.92-3.85,2.92-4.61,0-.43-.25-.94-.68-1.44-.4-.43-.43-.47-1.4-1.04.43-.14.61-.18.97-.18v-.02Z"/>
    <path class="cls-4" d="m449.33,294.2c-.58,1.3-.86,1.62-1.4,1.62-.9,0-1.66-1.55-1.66-3.38,0-.76.11-.97.79-1.66.72-.68,1.37-1.44,2.41-2.92,2.28-3.17,3.7-5.19,4.25-6.08.03-.36.05-.79.07-1.3.03-.39.05-.76.07-1.12-.75.45-1.84,1.19-3.28,2.2-.61.43-.86.54-1.22.54-.68,0-1.48-.61-2.16-1.69-.5-.76-.83-1.62-.83-2.16,0-.18.07-.43.22-.86.79,1.3,1.58,1.87,2.59,1.87.83,0,2.77-.68,4.82-1.73.18-1.58.22-2.52.22-3.92,0-2.02-.65-3.24-2.3-4.18.29-.14.47-.18.68-.18.97,0,2.45.61,3.71,1.58,1.22.94,1.87,1.84,1.87,2.63,0,.47-.07.72-.47,1.51s-.54,1.26-.72,2.05c.83.61,1.22,1.12,1.22,1.58,0,.25-.14.5-.61,1.19-.65.97-1.01,1.58-1.26,2.09-.04.22-.07.61-.07,1.22,5.11-5.22,8.64-7.56,11.34-7.56s4.64,1.91,4.64,4.79c0,1.04-.22,2.74-.61,5.15-.72,4.36-.86,5.47-.86,6.91,0,1.62.83,2.48,2.41,2.48,1.94,0,4.39-1.12,6.84-3.1l.22.29c-2.09,3.64-5.44,5.94-8.53,5.94s-4.79-2.02-4.79-5.33c0-1.58.18-2.74,1.22-7.56.58-2.63.83-4.32.83-5.44,0-1.66-.79-2.59-2.2-2.59-2.38,0-6.26,3.24-10.66,8.93-.04.72-.04.76-.04,1.55,0,2.7.07,4.28.4,7.05.07.65.11,1.22.11,1.66,0,.94-.29,2.16-.68,2.99-.47.94-1.12,1.4-1.91,1.4-.43,0-.83-.22-1.08-.58-.14-.22-.18-.36-.25-.94-.22-1.22-.4-1.87-.83-2.59-.61-1.04-1.22-1.83-2.23-2.95l-.29.58v.02Zm.61-1.3c1.15.9,2.41,1.73,3.38,2.2.05-1.23.09-3.17.14-5.83.04-1.22.04-2.02.11-3.31-2.16,4.14-3.38,6.44-3.64,6.95h.01Z"/>
    <path class="cls-4" d="m492.63,286.83c3.67-2.34,6.52-3.31,9.65-3.31,4.97,0,8.35,2.99,8.35,7.34,0,5.4-5.11,9.36-12.06,9.36-4.1,0-6.8-1.69-6.8-4.28,0-2.16,1.87-3.67,4.57-3.67s4.97,1.4,6.44,4.18c2.48-1.3,3.74-3.38,3.74-6.23,0-3.24-1.91-5.04-5.36-5.04-2.45,0-4.97.94-7.24,2.66-1.37,1.04-3.1,2.84-4.14,4.28-.61.83-.68.94-1.01,1.15-.22.18-.58.32-.76.32-.97,0-1.87-1.58-1.87-3.24,0-1.01.18-1.26,1.69-2.48,1.87-1.55,6.95-7.05,9.57-10.44,2.31-2.95,3.46-4.47,3.46-4.54,0-.11-.04-.04-.07-.04h-.04c-.11.07-.32.14-.72.29-.29.14-.94.4-1.84.83-.25.11-.9.4-1.8.79-.79.36-1.69.78-2.7,1.26-.72.36-1.15.5-1.58.5-.79,0-1.55-.54-2.3-1.69-.68-1.08-1.04-2.09-1.04-2.99,0-.4.07-.72.32-1.3.72,1.76,1.8,2.7,3.13,2.7.97,0,2.99-.43,5.36-1.12,2.02-.61,2.59-.86,3.24-1.37.47-.36.76-.5,1.15-.5h.07c.79.04,1.94.86,3.1,2.16.47.58.72,1.08.72,1.55s-.22.72-1.15,1.22c-1.08.58-1.33.76-4.32,3.6-1.91,1.8-2.66,2.56-5.26,5.29-1.22,1.29-2.07,2.19-2.56,2.7l.04.04.02.02Zm2.66,7.16c-1.3,0-2.2.72-2.2,1.73,0,1.33,1.69,2.27,4.1,2.27.79,0,1.19-.04,2.3-.29-.68-2.34-2.27-3.71-4.21-3.71h.01Z"/>
    <path class="cls-4" d="m543.75,273.47c1.19-1.37,1.55-1.8,2.81-3.13,1.76,1.37,2.3,1.8,4.03,3.28.14.18.22.29.22.36,0,.14-.18.25-.4.25h-18.5c-1.48,2.95-2.41,4.43-4.5,7.13.36.18.5.32.5.47,0,.32-.32.5-1.33.79v5.8c0,.43.04,4.46.11,12.09-.04.43-.11.61-.29.76-.25.18-1.22.32-2.27.32-1.48,0-1.62-.07-1.66-.86.11-5.76.11-6.01.11-8.89v-5.26c-1.51,1.33-3.06,2.45-5.18,3.67l-.29-.4c2.23-2.2,3.49-3.71,5.44-6.55,0-1.8,0-1.94-.14-3.28l1.91.5c1.37-2.34,2.09-3.74,3.2-6.3h-6.12c-1.12,0-2.2.07-3.28.25l-.22-1.33c1.15.22,2.3.32,3.53.32h6.41c.97-2.41,1.22-3.38,1.51-5.4,5.29,1.08,5.9,1.26,5.9,1.76,0,.36-.47.58-1.73.72-.61,1.51-.79,1.91-1.26,2.92h11.49Zm1.26,14.43c1.15-1.37,1.51-1.8,2.66-3.1,1.69,1.33,2.2,1.76,3.74,3.2.18.18.25.29.25.4,0,.14-.18.25-.47.25h-10.22v4.86c0,.4,0,.47.04,4.1,0,1.55-.29,2.23-1.15,2.81-.9.65-2.66,1.12-4.1,1.12-.36,0-.43-.11-.47-.65-.07-.9-.43-1.58-1.08-2.02-.68-.5-1.55-.79-4.32-1.33l.04-.47c2.84.14,3.82.18,6.52.18.43,0,.54-.11.54-.68v-7.92h-6.23c-.94,0-1.98.07-3.06.22l-.22-1.26c1.19.22,2.12.29,3.28.29h6.23v-.32c0-1.66-.07-2.77-.25-3.96,1.51.18,2.2.29,3.17.43.94-1.22,1.48-2.05,2.77-4.28h-9.03c-1.37,0-2.09.04-3.28.22l-.22-1.26c1.15.22,2.2.29,3.38.29h8.96c.97-1.01,1.3-1.33,2.3-2.3,1.73,1.26,2.23,1.66,3.82,2.99.32.29.47.47.47.68,0,.36-.43.47-2.16.58-2.3,1.55-3.42,2.2-5.69,3.31.86.11,1.12.25,1.12.58,0,.29-.25.43-1.37.86v2.2h4.03v-.02Z"/>
    <path class="cls-4" d="m579.75,274.62c.97-1.08,1.94-2.16,2.88-3.2,1.8,1.4,2.38,1.84,4.14,3.38.14.14.22.25.22.36,0,.14-.14.22-.4.22h-18.79c-1.37,2.74-2.74,4.93-4.32,6.88.29.11.4.18.4.36,0,.29-.29.47-1.22.79v13.53l.04,2.3v1.15c0,.83-.4.97-2.7.97-1.19,0-1.4-.11-1.44-.72.15-4.03.23-8.46.25-13.28-1.62,1.51-2.77,2.38-5.47,4.21l-.29-.4c2.45-2.52,3.78-4.14,5.72-7.02,0-1.26,0-1.62-.14-2.99.94.18,1.04.18,1.84.32,1.4-2.38,2.12-3.82,3.09-6.12h-7.05c-.86,0-1.62.07-2.3.25l-.22-1.33c.86.22,1.58.32,2.56.32h7.34c.97-2.59,1.33-3.89,1.66-6.23,1.26.22,2.23.4,2.84.5,2.56.43,3.2.65,3.2,1.04,0,.32-.4.54-1.73.83-.79,1.98-1.08,2.63-1.66,3.85h11.55v.03Zm.4,24.23l2.88-3.28c1.73,1.44,2.27,1.91,4,3.49.14.14.22.25.22.32,0,.14-.14.22-.4.22h-21.02c-.9,0-1.48.07-2.23.25l-.25-1.3c.9.22,1.51.29,2.56.29h5.87v-12.35h-4.75c-.83,0-1.48.07-2.05.22l-.25-1.26c.79.18,1.55.29,2.27.29h4.79v-2.77c0-2.7-.04-3.56-.18-5.62,1.08.11,1.94.22,2.48.25,2.59.25,3.17.4,3.17.83,0,.32-.29.5-1.48.94v6.37h3.31c1.22-1.37,1.58-1.8,2.77-3.1,1.69,1.37,2.2,1.8,3.78,3.31.14.14.22.25.22.32,0,.14-.14.22-.4.22h-9.68v12.35h4.39-.02Z"/>
    <path class="cls-4" d="m597.5,293.34c2.81,1.4,4.46,2.05,5.18,2.05.76,0,1.26-.47,1.87-1.73,1.51-3.06,2.63-7.74,2.63-10.94,0-2.09-.58-2.92-2.09-2.92-.9,0-1.73.18-3.17.65-3.14,7.7-5.1,12.45-5.87,14.25-1.66,3.82-2.3,4.71-3.31,4.71s-1.69-1.37-1.69-3.38c0-1.26.18-1.76,1.04-2.59,1.62-1.66,3.96-5.94,6.55-12.02-1.91.79-3.1,1.4-3.92,1.91-.5.32-.76.4-1.08.4-.68,0-1.37-.47-2.02-1.37-.72-1.04-1.22-2.38-1.22-3.31,0-.29.04-.5.22-.94.76,1.58,1.69,2.23,3.17,2.23.94,0,2.7-.36,5.54-1.08.76-2.16,1.26-4.39,1.26-5.76,0-1.48-.86-2.38-2.92-3.06.61-.32.9-.4,1.4-.4.79,0,2.12.22,3.13.54,2.05.65,3.13,1.48,3.13,2.45,0,.32-.11.65-.47,1.22-.76,1.12-1.08,1.76-2.23,4.46,1.22-.25,1.8-.32,2.63-.32,1.73,0,3.1.54,3.89,1.62.86,1.12,1.19,2.48,1.19,4.93,0,4.43-1.66,10.08-3.64,12.53-1.19,1.48-2.84,2.34-4.5,2.34-.54,0-1.01-.22-1.22-.58-.12-.19-.2-.65-.25-1.37,0-.76-1.19-2.16-3.49-4.14l.25-.4v.02Zm15.41-15.08c2.99.54,5.11,1.62,7.09,3.56,1.8,1.8,2.77,3.92,2.77,6.12s-.94,3.56-2.52,3.56c-.58,0-.97-.18-1.58-.72-.61-.68-1.62-.83-5.54-.86l-.07-.32c2.81-.76,4.64-1.3,5.29-1.62.18-.11.25-.25.25-.54,0-.76-.43-2.45-.94-3.56-1.12-2.56-2.63-4.14-4.93-5.22l.18-.4Zm.65-7.38c1.73.54,2.81,1.01,3.85,1.73,1.66,1.12,2.41,2.16,2.41,3.31,0,.83-.43,1.4-1.12,1.4-.47,0-.72-.22-1.22-1.04-1.08-1.87-2.48-3.46-4.25-4.79l.32-.61h.01Zm3.67-2.81c1.84.4,3.17.9,4.21,1.58,1.44.94,2.09,1.76,2.09,2.77,0,.86-.43,1.44-1.08,1.44-.4,0-.65-.22-1.19-.97-1.22-1.76-2.48-2.99-4.32-4.25l.29-.58h0Z"/>
    <path class="cls-4" d="m636.81,287.04c.5-.58,1.01-1.15,1.51-1.8,1.19.9,1.55,1.15,2.59,1.98.29.25.43.4.43.5,0,.18-.22.4-.58.58,0,3.53,0,3.92.04,4.61.05,2.09.07,3.6.07,4.54.04.07.04.14.04.18,0,.61-.54.9-1.83.97-.65.04-1.08.04-1.15.07h-.11c-.47,0-.65-.18-.65-.68v-.9h-4.68v2.09c-.07.4-.14.54-.36.68-.18.11-1.76.25-2.95.25-.4-.04-.54-.25-.54-.79.07-2.59.14-5.47.14-8.6,0-.87-.01-1.98-.04-3.35-1.08.79-1.66,1.15-3.2,2.09l-.25-.29c2.38-2.74,3.85-4.75,5.36-7.38,1.33-2.38,2.12-4.25,2.56-5.94,3.29,1.03,4.93,1.67,4.93,1.91,0,.32-.25.43-1.44.65-.36.61-.47.79-.83,1.3,2.66.76,4.61,1.55,6.19,2.52.97-1.91,1.8-4.18,2.48-6.98.65-2.59.97-4.57,1.08-6.3,4.36.72,4.75.83,5.26,1.04.29.11.47.29.47.47,0,.29-.4.5-1.62.86-.22.5-.4.86-.54,1.12-.57,1.25-1.21,2.49-1.91,3.74h6.26c.9-1.04,1.19-1.33,2.2-2.27,1.51,1.22,1.98,1.58,3.42,2.88.25.22.4.43.4.58,0,.11-.14.25-.29.32-.29.14-.47.18-1.48.36-2.34,2.77-3.2,3.71-5.36,5.62l-.32-.22c.9-2.45,1.19-3.53,1.8-6.52h-7.09c-1.48,2.48-2.95,4.39-4.36,5.69.5.54.72,1.04.72,1.76,0,1.48-.76,2.77-1.58,2.77-.32,0-.61-.25-.86-.83-.97-2.12-2.74-4.18-5.15-6.08-1.87,2.66-2.88,3.82-4.86,5.51.86.54,1.04.65,1.94,1.3h4.14Zm-11.34-7.27c2.59-3.53,4.14-6.7,5.08-10.26,4.21,1.44,5.15,1.84,5.15,2.2,0,.11-.11.25-.22.32-.19.09-.66.18-1.4.25-2.59,3.31-4.9,5.47-8.28,7.81l-.32-.32h-.01Zm7.02,16.56h4.68v-8.53h-4.68v8.53Zm3.74-26.35c4.79,1.84,7.02,3.46,7.02,5.15,0,1.26-1.37,3.06-2.34,3.06-.47,0-.72-.36-1.08-1.48-.72-2.3-1.91-4.32-3.85-6.44l.25-.29h0Zm1.48,31.42c2.7-2.05,4-3.35,5.22-5.29,1.62-2.52,2.56-5.33,3.09-9.11.25-1.87.43-3.85.43-5.36,0-.83-.04-1.33-.18-2.52,4.28.5,4.5.54,4.89.68.29.11.47.22.47.4,0,.29-.5.58-1.37.83,0,3.13.25,4.75,1.01,6.8.97,2.52,2.66,4.89,4.72,6.69,1.19,1.01,2.09,1.55,3.82,2.38l-.07.4c-.97.36-1.69,1.01-2.38,2.23-.29.47-.32.65-.61,1.51-.07.22-.14.32-.29.32-.47,0-1.84-1.62-2.92-3.42-2.05-3.46-2.84-6.37-3.64-13.03-.65,4.97-1.51,7.74-3.24,10.29-1.91,2.77-4.43,4.64-8.75,6.51l-.22-.32h.02Z"/>
    <path class="cls-4" d="m692.32,289.16c-.22.4-.4.68-.47.9-1.3,2.48-1.44,2.74-2.2,3.71-2.99,3.92-7.31,6.26-11.63,6.26-2.99,0-5.36-1.15-6.66-3.24-1.01-1.58-1.4-3.85-1.4-7.74,0-2.23.04-3.2.47-11.56.04-1.08.07-2.09.07-2.99,0-2.56-.54-3.42-2.88-4.43.47-.29.68-.36,1.15-.36,1.33,0,3.1.5,4.57,1.3,1.58.83,2.3,1.69,2.3,2.63,0,.47-.07.65-.43,1.51-1.08,2.41-2.38,11.12-2.38,16.02,0,3.46,1.55,5,4.93,5,3.06,0,6.48-1.12,9.54-3.1,1.8-1.15,2.63-1.91,4.64-4.18l.36.25.02.02Z"/>
    <path class="cls-4" d="m712.52,283.41c-1.44,3.74-1.73,4.64-2.16,6.41-.29,1.22-.47,2.41-.47,3.02,0,.65.07.94.5,2.2.07.29.11.47.11.79,0,.97-.72,1.73-1.73,1.73-1.48,0-3.38-1.4-4.75-3.46-1.8-2.74-2.7-6.51-2.7-11.37,0-.17.02-1.31.07-3.42v-.58c0-2.88-.36-3.92-2.12-5.94.83,0,1.33.18,2.45.86,1.73,1.01,2.99,2.27,3.71,3.71.25.5.32.86.32,1.4,0,.32-.07.61-.25,1.33-.5,1.69-.79,3.74-.79,5.33s.25,3.2.72,4.57c.32.97.65,1.44,1.4,2.02,2.34-4.03,3.74-6.37,5.33-8.78l.36.18h0Zm6.84-6.52c3.28.54,5.62,1.87,7.45,4.18,1.69,2.09,2.52,4.5,2.52,7.2,0,2.45-1.22,4.18-2.99,4.18-.58,0-.94-.18-1.44-.76-.86-.97-1.62-1.12-5.51-1.19l-.07-.36c3.17-.94,4.54-1.37,5.11-1.62.65-.29.76-.43.76-1.15,0-1.58-.47-3.67-1.15-5.18-1.08-2.34-2.59-3.89-4.82-4.9l.14-.4h0Z"/>
  </g>
  <g>
    <path class="cls-2" d="m86.84,369.33c2.5-1.82,3.92-3.12,5.58-5.16.92-1.1,1.94-2.48,2.44-3.32.22-.34.28-.48.46-.96.96.18,1.88.38,2.16.48.12.04.18.1.18.2,0,.16-.2.26-.84.36.52.86.9,1.34,1.78,2.22,1.42,1.4,2.94,2.54,4.62,3.46,1,.54,1.52.74,2.56,1v.3c-.88.18-1.16.44-1.52,1.42-.98-.52-1.46-.88-2.4-1.7-1.5-1.34-2.9-2.82-3.82-4.02-.48-.64-.88-1.24-1.6-2.42-1.9,2.54-3.1,3.9-4.74,5.3-1.58,1.36-2.88,2.22-4.68,3.1l-.18-.26h0Zm2.62.48c.84.14,1.1.16,1.92.16h8.56c.34-.42.44-.54.78-.92.54.4.72.52,1.26.92.14.12.2.2.2.28,0,.16-.16.28-.82.56-.2.4-.77,1.57-1.72,3.5-.46.9-.96,1.82-1.86,3.34-.1.16-.18.2-.34.2-.36,0-1.12-.1-1.22-.16-.06-.04-.1-.1-.1-.16,0-.04.02-.12.06-.22,1.36-2.04,2.58-4.26,3.76-6.88h-8.76c-.62,0-.94.02-1.56.12,0,0-.16-.74-.16-.74Zm2.5-3.16c.48.12.92.16,1.64.16h4.16c.4-.54.54-.68.96-1.16.72.58.94.78,1.64,1.4.06.06.1.12.1.14,0,.08-.02.08-.18.08h-6.84c-.62,0-.82.02-1.36.1l-.12-.72h0Z"/>
    <path class="cls-2" d="m107.16,367.95c.6.14,1.14.22,1.7.22h1.22c.28-.38.38-.5.7-.86.6.38.78.5,1.3.96.1.12.12.16.12.2,0,.1-.22.3-.62.52v4.82c.16.56.28.76.62,1.06.6.54,1.62.96,2.72,1.14.52.1,1.3.14,2.18.14,1.64,0,7.3-.2,8.94-.34v.2c-.84.42-1,.64-1.06,1.42l-.62.02-2.82.06c-5.94,0-7.02-.12-8.34-.96-1.06-.66-1.62-1.36-2.18-2.74-.17.2-.41.49-.72.88-.31.39-.54.69-.7.9-.52.59-.87.99-1.06,1.22v.3c.02.06.02.12.02.16,0,.24-.1.4-.24.4s-.36-.38-1.18-2.04c.22-.12.4-.2.5-.26,1.26-.6,1.46-.72,2.6-1.56v-5.18h-1.38c-.81.04-1.31.08-1.5.12l-.2-.8h0Zm.84-7.7c1.66,1.1,2.16,1.48,2.78,2.12.42.44.64.82.64,1.08,0,.68-.44,1.48-.82,1.48-.22,0-.3-.12-.54-.78-.2-.54-.74-1.56-1.12-2.18-.36-.52-.66-.92-1.2-1.52l.26-.2Zm11.44,10.92c.01.89.02,2.04.02,3.44-.02.2-.08.26-.26.28-.24.04-.62.08-.86.08-.14,0-.18-.04-.22-.18.02-.22.06-1.36.1-3.42v-.68h-3.32v2.04l.02,1.6v.3c-.02.18-.06.26-.18.3-.06,0-.72.04-.96.04-.14,0-.2-.04-.24-.14.04-1.3.08-4.26.08-7.24,0-1.52-.02-2.54-.08-3.68.62.3.8.4,1.36.72h4.32c-.66-.82-.72-.88-1.26-1.32-.78-.66-1.3-1.02-2-1.36l.16-.2c1.46.34,2.84.88,3.72,1.46.7-.64,1.1-1.08,1.96-2.12h-6.92c-.52,0-1.4.06-1.76.12l-.18-.76c.46.1,1.36.18,1.94.18h7c.24-.26.52-.54.84-.88.66.44.86.58,1.52,1.06.14.1.2.16.2.22,0,.12-.12.18-.36.28-.08.02-.16.04-.24.06-.18.02-.42.1-.74.2-.78.56-1.56,1.04-3.06,1.94.06.28.06.38.06.66,0,.18-.02.3-.1.46h2.74l.86-.86c.52.34.68.46,1.18.86.06.06.1.14.1.2,0,.14-.22.34-.64.56v6.2c.02.66.02,1.08.02,1.26v.58c-.04.62-.24.94-.74,1.2-.28.14-.56.2-1.32.28-.12-.6-.18-.7-.46-.86-.16-.08-.42-.16-.92-.28l-.38-.1c-.1-.02-.2-.04-.3-.08v-.28c.28.01.69.03,1.24.06.74.06.76.06,1.18.08h.1c.18,0,.26-.1.26-.3v-2.46h-3.48v.48h0Zm-1.22-6.08h-3.32v2.38h3.32v-2.38Zm0,2.84h-3.32v2.3h3.32v-2.3Zm4.7-.46v-2.38h-3.48v2.38h3.48Zm0,2.76v-2.3h-3.48v2.3h3.48Z"/>
    <path class="cls-2" d="m134.36,375.95c2.5-.52,4.14-1.22,5.54-2.42,1.1-.9,1.68-2.04,1.68-3.24,0-1.74-1.2-2.9-2.98-2.9-1.94,0-4.52,1.04-6.64,2.72-.38.28-.56.38-.8.38-.74,0-1.94-1.44-1.94-2.36,0-.1.04-.2.14-.4.32.72.76,1.1,1.24,1.1.26,0,.74-.16,1.76-.56,1.8-.72,3.42-1.22,4.56-1.42.48-.08.92-.12,1.56-.12,2.62,0,4.46,1.6,4.46,3.88,0,1.42-.84,2.88-2.16,3.76-1.6,1.08-3.36,1.62-6.34,1.96l-.08-.38h0Z"/>
    <path class="cls-2" d="m149.16,364.48c.28.26.5.34.9.34.56,0,1.06-.1,5.54-1.18.84-.2,1.92-.44,3.24-.7,1.52-.3,2.1-.44,2.7-.64.4-.12.54-.16.7-.16.24,0,.68.18,1.08.42.4.26.58.48.58.76,0,.3-.24.5-.62.5-.08,0-.22,0-.36-.02-.26-.04-.36-.04-.56-.04-3.42,0-6.72,3.26-6.72,6.62,0,1.84.92,3.2,2.64,3.94.66.28,1.46.46,2.04.48.4,0,.54.06.84.32.36.36.6.72.6.96,0,.34-.3.56-.74.56-1.14,0-2.94-.64-4.06-1.44-1.52-1.08-2.32-2.62-2.32-4.48,0-1.62.8-3.4,2.18-4.88.8-.88,1.6-1.42,3.26-2.28-1.82.26-3.46.64-5.74,1.38-1.26.4-2.56.94-3.2,1.28-.4.24-.54.28-.8.28-.48,0-1.08-.46-1.54-1.18-.32-.48-.52-1.02-.52-1.34,0-.16.04-.28.22-.52.18.48.34.74.66,1.02h0Z"/>
    <path class="cls-2" d="m175.5,368.55c-1.46,3.36-1.88,4.54-1.88,5.34,0,.11.04.33.12.68.02.1.04.22.04.32,0,.28-.2.5-.44.5-.56,0-1.58-.78-2.2-1.7-.68-.98-1.16-2.4-1.36-4-.12-.88-.14-1.38-.14-3.52-.02-1.86-.16-2.32-1.02-3.44h.18c.32,0,.9.38,1.5.98.6.58.9,1.12.9,1.58,0,.12-.02.28-.06.52-.24,1.22-.36,2.16-.36,2.98,0,1.08.16,2.08.46,2.9s.54,1.18,1.04,1.56c.15-.21.37-.57.66-1.06.43-.72.99-1.66,1.68-2.82.21-.35.41-.67.58-.96l.3.14h0Zm4.26-3.62c2.52.56,4.52,3.22,4.52,5.98,0,.96-.4,1.58-1,1.58-.2,0-.32-.04-.6-.22-.26-.18-.64-.24-1.5-.24-.46,0-.84,0-1.52.04l-.06-.3c1.62-.44,2.52-.7,2.7-.76.4-.14.46-.22.46-.6,0-.74-.28-1.9-.62-2.62-.54-1.16-1.34-2-2.48-2.62l.1-.24h0Z"/>
    <path class="cls-2" d="m198.04,362.54c-.78.24-2.66.98-4.04,1.58-.4.18-.66.26-.82.26-.36,0-.76-.28-1.14-.84-.36-.54-.56-1.06-.56-1.48,0-.18.04-.32.18-.52.3.94.84,1.46,1.5,1.46.52,0,2.42-.44,3.78-.86.78-.26.82-.26,1.24-.62.08-.06.18-.1.28-.1.26,0,.58.2,1.08.7.46.44.6.66.6.9,0,.14-.1.26-.34.38-.58.3-.78.46-1.66,1.34-1.26,1.26-2,2-2.94,3-1.28,1.37-2.06,2.2-2.34,2.48l.04.04c2.14-1.34,3.76-1.9,5.44-1.9,2.56,0,4.28,1.5,4.28,3.74,0,2.86-2.66,4.98-6.28,4.98-1.96,0-3.22-.78-3.22-2,0-.98.92-1.7,2.16-1.7.98,0,1.88.36,2.54.98.36.34.58.66.88,1.24,1.52-.66,2.42-2.04,2.42-3.74,0-1.1-.44-2-1.24-2.48-.42-.24-1.2-.4-1.98-.4-1.96,0-4.7,1.6-6.36,3.72-.34.42-.48.54-.68.54-.3,0-.66-.7-.66-1.3,0-.24.14-.46.42-.7.76-.58,1.08-.9,2.78-2.78,2.44-2.74,3.2-3.62,4.78-5.66.11-.15.17-.25.2-.32.04-.1-.04-.04-.06-.04,0,0-.02,0-.02.02h-.06s-.04.02-.1.04l-.1.04h0Zm-3.08,11.48c-.76,0-1.26.4-1.26,1.02,0,.74.88,1.22,2.28,1.22.54,0,.8-.04,1.42-.18-.4-1.28-1.32-2.06-2.44-2.06Z"/>
    <path class="cls-2" d="m211.08,364.04c.8.68.84.7,1.2.84.3.1.74.16,1.18.16.94,0,3.12-.32,4.42-.64.88-.22,1.6-.5,2.1-.8.14-.08.22-.12.3-.12.18,0,.62.16.92.34.4.22.6.46.6.7,0,.26-.32.42-1.24.6-1.12.22-3.28.52-4.6.66.98.58,1.34.92,1.34,1.3,0,.12-.02.24-.14.9-.16.88-.32,2.54-.42,4.26,1.02-.06,2.34-.12,3.16-.14,1.92-.04,2.04-.06,2.68-.26.04-.02.08-.02.16-.02.28,0,.64.14,1.14.46.46.3.78.68.78.94,0,.24-.2.42-.48.42-.12,0-.16,0-1.44-.24-1.08-.2-2.98-.36-4.28-.36-1.64,0-3.42.2-5.04.56-1.18.26-1.58.4-2.58.84-.2.1-.42.16-.58.16-.56,0-1.28-.54-1.76-1.32-.28-.42-.42-.8-.42-1.04,0-.1.02-.14.1-.24.54.74,1.12,1.08,1.88,1.08.62,0,1.06-.06,3.88-.5.26-.04.48-.08,1.64-.22.06-1.4.1-2.62.1-3.88,0-1.74-.1-2.2-.62-2.56-.62.02-.94.04-1.3.04-1.32,0-1.94-.36-2.94-1.72l.26-.2h0Z"/>
    <path class="cls-2" d="m228.38,375.81c1.92-1.2,3.9-2.82,5.38-4.38,1.2-1.26,2.64-3.14,3.82-4.98.64-.98.98-1.64,1.36-2.58-.96.06-2.02.28-4.22.88-.96.26-1.04.28-1.68.54-.1.04-.22.06-.34.06-.44,0-.86-.36-1.3-1.14-.28-.46-.42-.88-.42-1.2,0-.12.04-.22.14-.4.58,1.04,1,1.34,1.88,1.34.66,0,2.68-.26,4.2-.56,1.16-.22,1.52-.34,1.88-.56.22-.14.32-.18.46-.18.42,0,1.56,1.02,1.56,1.4,0,.14-.08.26-.26.38-.28.19-.66.64-1.14,1.36-.64.96-1.48,2.12-2.52,3.48,2.82,1.48,4.4,2.5,5.18,3.38.54.58.76,1.16.76,1.98,0,.64-.2,1.04-.54,1.04-.14,0-.3-.1-.46-.32-.05-.07-.21-.33-.48-.8-1-1.68-2.72-3.46-4.76-4.9-1.62,1.96-2.92,3.18-4.84,4.5-1.26.88-2.12,1.36-3.5,1.96l-.16-.3h0Z"/>
    <path class="cls-2" d="m252.38,377.17c1.32-1.48,2.16-2.86,2.88-4.72.56-1.46.96-3.14.96-4.08,0-.48-.12-.7-.5-.98-1.3.14-3.5.76-4.44,1.26-.34.16-.42.2-.64.2-.42,0-1.02-.42-1.56-1.14-.2-.26-.4-.7-.4-.88,0-.1.02-.16.08-.38.48.68.96.96,1.68.96.54,0,.66-.02,3.42-.5,1.22-.2,3.48-.48,6.16-.74.4-.04,1.14-.2,1.56-.34.21-.07.38-.1.5-.1.28,0,.66.1,1.06.3.54.26.94.64.94.92,0,.24-.22.4-.56.4-.16,0-.22,0-.5-.06-.8-.16-2.12-.26-3.22-.26-1.22,0-2.28.06-3.28.2.92.52,1.3.92,1.3,1.38,0,.76-.56,2.48-1.26,3.92-1.1,2.26-2.1,3.48-3.96,4.88l-.22-.24h0Zm-.38-15.44c.84.8,1.46,1.08,2.38,1.08,1.34,0,3.12-.42,4.22-.98.22-.12.4-.16.6-.16.52,0,1.36.66,1.36,1.06,0,.24-.24.36-1.04.54-1.3.26-3.52.52-4.56.52-1.5,0-2.28-.44-3.24-1.86l.28-.2h0Z"/>
    <path class="cls-2" d="m276.24,376.11c2.16-.64,3.54-1.46,4.68-2.78,1.18-1.34,1.78-2.98,1.78-4.82,0-1.94-.78-3.48-2.26-4.42-.88-.58-2.2-.92-3.46-.92-.24,0-.38,0-.7.04.48.7.62,1.08.62,1.66,0,1.56-1.12,4.48-2.64,6.92-1.26,2-2.24,2.98-2.98,2.98-.34,0-.66-.16-.88-.42-.18-.24-.22-.32-.56-1.28-.18-.52-.3-.76-.88-1.88-.32-.64-.46-1.18-.46-1.82,0-1.26.68-2.74,1.8-3.96,1.62-1.72,4.26-2.8,6.88-2.8,2.02,0,3.88.66,5.16,1.84s1.92,2.76,1.92,4.7c0,2.5-1.46,4.72-3.98,6.06-1.16.62-2.2.94-3.9,1.24l-.14-.34h0Zm-6.58-6.22c0,.96.3,1.94.8,2.64.28.36.54.58.76.58.44,0,1.4-1.08,2.38-2.64,1.48-2.36,2.54-4.94,2.54-6.18,0-.3-.06-.5-.28-1-3.48.62-6.2,3.52-6.2,6.6Z"/>
    <path class="cls-2" d="m296.16,364.01c-.58,0-1.18.04-1.88.12l-.16-.8c.8.16,1.32.22,2.04.22h2.1v-1.78c0-.62-.04-1.08-.14-2,2.08.2,2.28.24,2.28.48,0,.16-.12.24-.8.5v2.8h2.94c.46-.64.62-.82,1.14-1.38.76.66.98.86,1.68,1.52.08.1.1.14.1.2s-.08.12-.2.12h-5.66v3.52h2.46c.36-.42.46-.56.82-1,.37.32.83.71,1.36,1.16.18.16.26.26.26.34,0,.06-.06.14-.12.18-.04.04-.28.14-.7.3-1.3,2.14-2.34,3.46-3.92,4.94,1.72,1.16,3.7,1.96,5.98,2.42l-.08.34c-.84.16-1.16.46-1.48,1.38-1.22-.44-1.94-.82-3.12-1.62-.86-.58-1.5-1.1-2.18-1.74-2.04,1.66-4.26,2.82-7.22,3.76l-.1-.32c2.48-1.06,4.24-2.18,6.54-4.24-1.54-1.76-2.32-3.2-2.92-5.4-.36.02-.46.02-.82.08l-.16-.74c-1.36,1.1-1.62,1.3-2.64,2.04v3.78l.02,3.34c-.06.86-.34,1.08-2.04,1.52-.08-.86-.38-1.04-2.12-1.4l.02-.34c.94.12,1.1.14,2.58.24.18-.02.26-.12.26-.26v-6.16c-.54.38-.62.44-1.64,1.06,0,.64-.06.84-.24.84-.1,0-.18-.08-.28-.26-.04-.08-.1-.2-.28-.66-.18-.42-.22-.52-.42-.98.74-.22,2.2-.82,2.86-1.18v-4.3h-1.54c-.54,0-.8.02-1.26.1l-.16-.74c.54.14.9.18,1.42.18h1.54v-1.88c0-1.26-.02-1.82-.12-2.54,2.06.22,2.32.26,2.32.48,0,.18-.14.26-.92.52v3.42h.38c.34-.48.46-.62.84-1.08.6.54.78.7,1.3,1.24.06.08.08.14.08.18,0,.08-.08.12-.18.12h-2.42v3.74c1.46-.74,1.88-.98,2.8-1.54l.2.24-.34.26c.62.14,1.04.18,1.94.18h2.1v-3.52h-2.1,0Zm0,3.98c-.08,0-.14,0-.56.02.76,2.04,1.68,3.4,3.24,4.74,1.52-1.5,2.4-2.74,3.38-4.76h-6.06Z"/>
    <path class="cls-2" d="m309.36,369.13c-1,1.12-1.32,1.42-2.3,2.18l-.16-.22c1.26-1.5,1.78-2.24,2.62-3.74.68-1.26,1-1.94,1.44-3.2,1.72.62,1.82.66,1.82.84,0,.22-.18.3-.72.36-.68,1.22-1,1.68-1.8,2.7.84.18.96.22,1,.44,0,.12-.22.22-.6.32v3.28c0,1.3,0,2.32.02,3.08v2.38c-.08.16-.16.22-.48.26-.08.02-.5.04-.58.04-.2,0-.28-.06-.32-.26.03-.91.05-2.7.06-5.38v-3.08Zm-2.16-3.72c.98-1,1.6-1.84,2.54-3.32.64-1.04.88-1.5,1.22-2.32.62.2,1.36.48,1.82.7.14.06.18.1.18.2,0,.2-.18.24-.88.26-1.44,1.92-2.92,3.4-4.68,4.7l-.2-.22h0Zm4.46,10.32c.44-1.12.64-1.92,1.1-4.28.3-1.64.52-3.48.52-4.54v-.24c1.76.32,2.02.42,2.02.62,0,.16-.16.24-.72.36-.08.38-.16.7-.18.9-.54,2.78-.64,3.16-1.14,4.54-.36.98-.66,1.62-1.26,2.78l-.34-.14h0Zm6.64-11.46c.38-.42.38-.44.78-.92-.24-.06-.28-.12-.4-.48-.24-.74-.38-1.06-.88-1.92l.16-.18c.56.28,1.08.6,1.48.96.2.18.28.34.28.54,0,.42-.2.84-.5,1.04.54.48.68.62,1.26,1.22.06.06.08.12.08.16,0,.08-.08.12-.22.12h-3.36v.74c0,.32-.02.66-.02.98v.74c0,2.44.06,8.56.1,10.14-.04.16-.1.22-.22.26-.22.06-.66.12-.9.12-.2,0-.28-.08-.28-.22v-.1c.08-5.24.08-5.92.08-7.48v-5.18h-1.44c-.36,0-.64.02-1.22.08l-.16-.76c.54.08,1.04.14,1.46.14h1.34v-1.2c0-1-.03-1.99-.08-2.96,1.82.24,1.94.28,1.94.5,0,.12-.04.16-.56.38l-.04,3.28h1.32,0Zm-.28,2.6c1.02,2.04,1.24,2.54,1.64,3.62.46,1.26.58,1.76.58,2.32,0,.9-.54,2.02-.96,2.02-.16,0-.18-.06-.24-.68-.24-3.14-.68-5.38-1.34-7.14l.32-.14h0Zm5.54,4.68c0,.22,0,.92.02,1.94.02.98.02,1.3.02,2.9-.02.5-.1.72-.38.94-.24.2-.58.3-1.76.52-.1-.98-.36-1.14-2.46-1.46v-.28c1.46.08,1.86.1,3,.1.2-.02.22-.04.22-.26v-9.7h-1.08c-.6,0-.8.02-1.3.12l-.14-.76c.46.12,1.08.18,1.56.18h2.06c.4-.56.54-.72.94-1.28.72.62.92.82,1.6,1.5.04.04.06.1.06.12,0,.06-.08.12-.18.12h-2.18v5.3h0Zm-.56-9.76c.42-.54.54-.68.94-1.2.66.6.88.8,1.52,1.4.04.06.06.1.06.14,0,.08-.08.12-.22.12h-4.06c-.28,0-.52.02-1.04.08l-.12-.68c.6.14.64.14,1.26.14h1.66Z"/>
    <path class="cls-2" d="m332.72,369.15c-.04.18-.34,1.44-.9,3.76-.28,1.18-.34,1.5-.34,2.12,0,.58-.02.74-.06.86-.08.22-.26.34-.48.34-.34,0-.64-.28-.86-.82-.44-1.04-.7-2.66-.7-4.26,0-.6.06-1.34.16-2.14.09-.77.33-2.03.7-3.78.2-.94.28-1.44.28-1.86,0-.66-.16-1.16-.56-1.88.44.02.8.28,1.34.98.5.62.74,1.14.74,1.58,0,.32-.02.4-.42,1.2-.4.84-.88,2.24-1.08,3.18-.18.76-.26,1.62-.26,2.48,0,1.1.1,1.8.38,2.64.34-.7.5-1.1.72-1.7l1.06-2.8.28.1Zm2.52,1c-.04.4-.06.58-.06.84,0,2.2,1.26,3.1,4.36,3.1.58,0,1.16-.04,1.7-.14.28-.04.63-.15,1.06-.32.12-.04.22-.06.3-.06.52,0,1.26.7,1.26,1.18,0,.24-.16.4-.44.5-.42.14-1.38.22-2.5.22-2.5,0-4.28-.42-5.18-1.22-.72-.66-1.08-1.5-1.08-2.6,0-.5.06-.94.24-1.58l.34.08h0Zm-.04-6.36c.7.42,1.14.54,1.86.54,1.24,0,3.18-.44,4.02-.9.26-.14.3-.16.44-.16.16,0,.42.1.7.28.42.24.62.48.62.74s-.14.38-.56.46c-1.32.2-2.06.38-2.84.7-.62.26-1.78.9-2.58,1.42l-.2-.2c.9-.76,1.58-1.32,1.9-1.56-.42.02-.64.04-.82.04-1.12,0-1.86-.3-2.72-1.12l.18-.24h0Z"/>
    <path class="cls-4" d="m347.51,361.03c4.36,1.12,6.12,2.23,6.12,3.85,0,1.33-1.33,2.99-2.38,2.99-.58,0-.9-.36-1.15-1.26-.65-2.2-1.4-3.64-2.81-5.26l.22-.32h0Zm28.29,1.76c.97-1.15,1.3-1.48,2.3-2.59,1.51,1.19,1.98,1.55,3.42,2.81.14.18.18.25.18.32,0,.14-.14.22-.4.22h-11.77v3.31h5.76c.86-.9,1.12-1.15,1.94-1.98,1.26.86,1.62,1.12,2.77,2.05.29.25.4.4.4.58,0,.29-.25.5-1.19,1.01v7.45c0,1.66.04,3.46.07,5.54,0,1.48-.25,2.12-.97,2.59-.83.58-2.48,1.01-3.71,1.01-.43,0-.5-.11-.58-.58-.11-1.08-.36-1.48-1.12-2.02-.76-.5-1.73-.83-3.85-1.26l.04-.4,5.8.14c.61,0,.72-.07.72-.72v-12.67h-6.08v9.68h1.66v-5.4c0-.68-.04-1.15-.14-2.16,3.67.36,4,.43,4,.83,0,.25-.22.43-1.01.72,0,5.44,0,5.65.11,7.42v.11c0,.54-.47.72-2.12.72-.68,0-.83-.07-.83-.47v-1.01h-6.44v2.09c0,.76-.29.9-1.98.9-.86,0-.97-.07-.97-.58.07-2.56.11-3.6.11-5.98,0-2.7-.04-3.49-.14-4.79.86.11,1.51.18,1.91.22,1.69.14,2.12.29,2.12.61,0,.29-.22.43-1.04.76v6.01h1.62v-9.68h-5.94v16.59c0,.36-.04.5-.14.65-.22.29-.94.43-2.27.43-1.08,0-1.3-.11-1.3-.72v-.04c.07-3.46.11-8.32.11-15.01,0-2.23,0-2.81-.11-4.68,1.76.79,2.3,1.08,4.03,2.02h5.62v-3.31h-10.04l-2.95,10.73c-.14.5-.29,1.3-.29,1.66,0,.43.14.97.47,1.91.58,1.69.72,2.41.72,3.49,0,2.02-1.51,3.71-3.35,3.71-.72,0-1.19-.43-1.19-1.12,0-.11.07-.68.11-1.22.29-2.12.4-3.6.4-4.72,0-2.3-.32-2.7-2.84-3.49l.11-.47c1.55.29,1.98.36,2.38.36.65,0,.65-.04,2.12-3.2,1.58-3.38,3.46-7.85,4.97-11.77l.43.18-.86,3.2h5.33v-4.82h-2.41c-.9,0-1.37.04-2.2.22l-.22-1.3c.94.22,1.73.32,2.52.32h2.3v-2.3c0-1.12-.04-1.55-.18-2.63,1.01.07,1.76.14,2.23.18,2.56.25,3.17.4,3.17.83,0,.32-.29.47-1.51.86v3.06h4.61v-2.48c0-.76-.04-1.26-.14-2.41,4.21.4,4.5.43,4.93.61.29.11.4.25.4.43,0,.29-.32.5-1.44.86v2.99h1.33c1.01-1.12,1.33-1.48,2.3-2.52,1.44,1.19,1.87,1.55,3.28,2.77.14.14.18.22.18.29,0,.14-.14.22-.36.22h-6.73v4.82h1.87-.04Zm-26.35-9.86c4.79,1.22,6.62,2.41,6.62,4.25,0,1.33-1.22,2.81-2.38,2.81-.5,0-.76-.29-1.12-1.22-.86-2.34-1.62-3.56-3.31-5.51l.18-.32h.01Zm20.73,5.04h-4.61v4.82h4.61v-4.82Z"/>
    <path class="cls-4" d="m402.73,380.14c1.26.18,2.74.25,4.43.25,2.99,0,6.23-.22,10.33-.68l.04.4c-1.26.83-1.94,1.84-2.16,3.24-.11.83-.14.86-.54.9-.36.04-2.38.07-3.38.07-4.61,0-7.42-.18-9.07-.58-3.42-.79-6.05-2.81-8.21-6.23-.65-1.04-.94-1.69-1.37-2.95-.76,1.91-1.58,3.38-2.66,4.89-1.8,2.45-3.46,3.89-6.8,5.9l-.25-.32c2.34-2.77,3.42-4.43,4.54-6.98,1.33-2.99,2.27-6.62,2.41-9.21.03-.24.04-.68.04-1.33,1.12.25,2.09.5,2.63.61,2.41.54,3.13.79,3.13,1.22,0,.32-.36.5-1.55.72-.5,1.84-.76,2.56-1.19,3.74.76,1.26,1.15,1.8,1.98,2.63,1.15,1.19,2.38,2.09,3.71,2.7v-14.79h-5.76v.94c0,.83-.5,1.04-2.59,1.04-1.4,0-1.58-.07-1.58-.76.11-3.49.11-4.39.11-6.26,0-3.17-.07-4.79-.25-6.8,2.09.86,2.74,1.15,4.82,2.16h13.61c.6-.6,1.33-1.34,2.2-2.23,1.37.94,1.8,1.26,3.13,2.27.36.29.5.47.5.65,0,.32-.32.58-1.37,1.12,0,3.42,0,4.07.18,8.6,0,.32-.04.47-.11.61-.25.32-1.22.5-2.77.5-1.19,0-1.33-.07-1.37-.61v-1.22h-4.79v6.98h5.08c1.03-1.17,1.96-2.22,2.77-3.13,1.84,1.4,2.38,1.84,4.07,3.31.18.14.25.25.25.36,0,.14-.14.22-.47.22h-11.7v8.06h-.02Zm-9.72-16.56h14.51v-8.17h-14.51v8.17Z"/>
    <path class="cls-4" d="m450.32,373.08c-.22.4-.4.68-.47.9-1.3,2.48-1.44,2.74-2.2,3.71-2.99,3.92-7.31,6.26-11.63,6.26-2.99,0-5.36-1.15-6.66-3.24-1.01-1.58-1.4-3.85-1.4-7.74,0-2.23.04-3.2.47-11.55.04-1.08.07-2.09.07-2.99,0-2.56-.54-3.42-2.88-4.43.47-.29.68-.36,1.15-.36,1.33,0,3.1.5,4.57,1.3,1.58.83,2.3,1.69,2.3,2.63,0,.47-.07.65-.43,1.51-1.08,2.41-2.38,11.12-2.38,16.02,0,3.46,1.55,5,4.93,5,3.06,0,6.48-1.12,9.54-3.1,1.8-1.15,2.63-1.91,4.64-4.18l.36.25h.02Z"/>
    <path class="cls-4" d="m460.69,361.06c1.15,0,2.45-.29,9.68-2.12,1.8-.47,3.06-.76,7.99-1.84,1.44-.32,1.87-.47,2.92-.94.5-.22.97-.32,1.33-.32.65,0,1.84.43,2.7,1.01.94.61,1.4,1.3,1.4,1.98,0,.86-.68,1.4-1.76,1.4-.22,0-.54-.04-.94-.07-.47-.04-.61-.04-1.04-.04-3.28,0-6.37,1.44-8.64,4.03-1.84,2.12-2.81,4.57-2.81,7.09,0,3.06,1.58,5.43,4.32,6.48.9.36,2.05.58,2.88.58.07,0,.22,0,.4-.04h.36c.68,0,1.33.25,1.87.76.86.76,1.4,1.76,1.4,2.56,0,1.15-.83,1.73-2.56,1.73-2.59,0-5.58-1.08-7.63-2.74-2.45-1.94-3.74-4.75-3.74-7.99,0-3.06,1.48-6.37,4.03-9.03,1.4-1.48,2.7-2.41,5.76-4.14-3.13.68-6.62,1.73-9.72,2.88-3.06,1.15-3.85,1.51-5.29,2.45-.65.43-1.22.61-1.8.61-1.94,0-4.68-3.42-4.68-5.8,0-.36.07-.58.29-1.04.79,1.73,1.87,2.56,3.28,2.56h0Z"/>
    <path class="cls-4" d="m506.52,367.33c-1.44,3.74-1.73,4.64-2.16,6.41-.29,1.22-.47,2.41-.47,3.02,0,.65.07.94.5,2.2.07.29.11.47.11.79,0,.97-.72,1.73-1.73,1.73-1.48,0-3.38-1.4-4.75-3.46-1.8-2.74-2.7-6.51-2.7-11.37,0-.17.02-1.31.07-3.42v-.58c0-2.88-.36-3.92-2.12-5.94.83,0,1.33.18,2.45.86,1.73,1.01,2.99,2.27,3.71,3.71.25.5.32.86.32,1.4,0,.32-.07.61-.25,1.33-.5,1.69-.79,3.74-.79,5.33s.25,3.2.72,4.57c.32.97.65,1.44,1.4,2.02,2.34-4.03,3.74-6.37,5.33-8.78l.36.18h0Zm6.84-6.52c3.28.54,5.62,1.87,7.45,4.18,1.69,2.09,2.52,4.5,2.52,7.2,0,2.45-1.22,4.18-2.99,4.18-.58,0-.94-.18-1.44-.76-.86-.97-1.62-1.12-5.51-1.19l-.07-.36c3.17-.94,4.54-1.37,5.11-1.62.65-.29.76-.43.76-1.15,0-1.58-.47-3.67-1.15-5.18-1.08-2.34-2.59-3.89-4.82-4.9l.14-.4h0Z"/>
    <path class="cls-4" d="m530.07,359.37c1.62,1.66,2.7,2.16,4.68,2.16.9,0,2.02-.11,3.38-.4.83-2.41,1.15-3.92,1.15-5.18,0-1.33-.65-2.05-2.48-2.74.5-.32.72-.4,1.3-.4,1.15,0,2.56.36,3.89.97,1.33.61,1.84,1.15,1.84,1.87,0,.47-.07.65-.61,1.37-.43.58-.47.61-1.87,3.38,2.09-.76,2.48-.94,3.31-1.58.68-.54.9-.65,1.44-.65,1.55,0,2.77.72,2.77,1.58,0,.79-.65,1.33-2.27,1.91-1.66.58-3.56,1.08-6.37,1.69-3.02,6.88-4.86,10.98-5.47,12.27-1.22,2.59-1.69,3.13-2.59,3.13-.54,0-.9-.25-1.26-.83-.36-.61-.58-1.55-.58-2.41,0-1.01.14-1.33.9-2.16,1.91-1.98,4.21-5.76,5.94-9.72-.68.07-1.04.11-1.37.11-2.95,0-4.71-1.19-6.08-4.18l.36-.22v.03Zm20.08,2.27h.83c2.23,0,4.75.68,6.44,1.69,1.26.79,2.02,1.91,2.02,3.02,0,1.19-.65,1.98-1.58,1.98-.32,0-.58-.11-1.12-.47-1.12-.83-2.16-1.12-3.85-1.12-2.3,0-3.06.61-3.06,2.45,0,1.22.25,2.92.97,6.3,2.2.61,4.07,1.4,5.22,2.27,1.12.83,1.73,1.94,1.73,3.2s-.58,2.16-1.33,2.16c-.43,0-.68-.18-1.44-.97-1.3-1.44-2.16-2.12-3.85-3.1v.68c0,2.99-2.34,4.75-6.33,4.75-3.6,0-6.05-1.76-6.05-4.36,0-2.99,3.13-5.15,7.49-5.15.5,0,.94.04,1.48.11-.04-1.76-.04-1.87-.04-2.27,0-2.56.29-4,.94-5,.97-1.51,2.23-2.12,6.05-3.02-1.01-1.26-2.09-1.91-4.57-2.74l.07-.43-.02.02Zm-5.44,15.84c-2.99,0-4.86.97-4.86,2.56,0,1.22,1.19,1.94,3.35,1.94,1.87,0,3.24-.47,3.89-1.33.4-.5.58-1.22.58-2.2,0-.43,0-.5-.04-.5-.94-.32-1.94-.47-2.92-.47h0Z"/>
    <path class="cls-4" d="m578.52,367.33c-1.44,3.74-1.73,4.64-2.16,6.41-.29,1.22-.47,2.41-.47,3.02,0,.65.07.94.5,2.2.07.29.11.47.11.79,0,.97-.72,1.73-1.73,1.73-1.48,0-3.38-1.4-4.75-3.46-1.8-2.74-2.7-6.51-2.7-11.37,0-.17.02-1.31.07-3.42v-.58c0-2.88-.36-3.92-2.12-5.94.83,0,1.33.18,2.45.86,1.73,1.01,2.99,2.27,3.71,3.71.25.5.32.86.32,1.4,0,.32-.07.61-.25,1.33-.5,1.69-.79,3.74-.79,5.33s.25,3.2.72,4.57c.32.97.65,1.44,1.4,2.02,2.34-4.03,3.74-6.37,5.33-8.78l.36.18h0Zm6.84-6.52c3.28.54,5.62,1.87,7.45,4.18,1.69,2.09,2.52,4.5,2.52,7.2,0,2.45-1.22,4.18-2.99,4.18-.58,0-.94-.18-1.44-.76-.86-.97-1.62-1.12-5.51-1.19l-.07-.36c3.17-.94,4.54-1.37,5.11-1.62.65-.29.76-.43.76-1.15,0-1.58-.47-3.67-1.15-5.18-1.08-2.34-2.59-3.89-4.82-4.9l.14-.4h0Z"/>
  </g>
  <path class="cls-5" d="m34.99,58.16c.26,6.3,2.61,12.23,6.69,17.03.63.74,1.91.49,2.36-.3,8.21-14.57,18.21-28.06,29.79-40.13,1.34-1.39-.78-3.52-2.12-2.12-11.75,12.24-21.93,25.95-30.26,40.73l2.36-.3c-3.54-4.17-5.59-9.45-5.81-14.91-.08-1.92-3.08-1.93-3,0h0Z"/>
  <path class="cls-5" d="m34.84,162.65c.26,6.3,2.61,12.23,6.69,17.03.63.74,1.91.49,2.36-.3,8.21-14.57,18.21-28.06,29.79-40.13,1.34-1.39-.78-3.52-2.12-2.12-11.75,12.24-21.93,25.95-30.26,40.73l2.36-.3c-3.54-4.17-5.59-9.45-5.81-14.91-.08-1.92-3.08-1.93-3,0h0Z"/>
  <path class="cls-5" d="m34.84,264c.26,6.3,2.61,12.23,6.69,17.03.63.74,1.91.49,2.36-.3,8.21-14.57,18.21-28.06,29.79-40.13,1.34-1.39-.78-3.52-2.12-2.12-11.75,12.24-21.93,25.95-30.26,40.73l2.36-.3c-3.54-4.17-5.59-9.45-5.81-14.91-.08-1.92-3.08-1.93-3,0h0Z"/>
  <path class="cls-5" d="m36.06,362.28c.26,6.3,2.61,12.23,6.69,17.03.63.74,1.91.49,2.36-.3,8.21-14.57,18.21-28.06,29.79-40.13,1.34-1.39-.78-3.52-2.12-2.12-11.75,12.24-21.93,25.95-30.26,40.73l2.36-.3c-3.54-4.17-5.59-9.45-5.81-14.91-.08-1.92-3.08-1.93-3,0h0Z"/>
  <path class="cls-1" d="m25.91,321.28c245.29-.8,490.57-1.59,735.86-2.39"/>
  <path class="cls-1" d="m23.91,117.28c245.29-.8,490.57-1.59,735.86-2.39"/>
  <path class="cls-1" d="m25.14,218.44c245.29-.8,490.57-1.59,735.86-2.39"/>
</svg>