<?xml version="1.0" encoding="UTF-8"?>
<svg id="_レイヤー_1" data-name="レイヤー 1" xmlns="http://www.w3.org/2000/svg" xmlns:xlink="http://www.w3.org/1999/xlink" viewBox="0 0 185.04 70.27">
  <defs>
    <style>
      .cls-1 {
        fill: url(#_名称未設定グラデーション_85);
      }

      .cls-1, .cls-2, .cls-3, .cls-4, .cls-5 {
        stroke-width: 0px;
      }

      .cls-2 {
        fill: url(#_名称未設定グラデーション_106);
      }

      .cls-6 {
        fill: #fff;
        stroke: #333;
        stroke-miterlimit: 10;
        stroke-width: .25px;
      }

      .cls-3 {
        fill: #333;
        opacity: .25;
      }

      .cls-5 {
        fill: #e82147;
      }
    </style>
    <radialGradient id="_名称未設定グラデーション_85" data-name="名称未設定グラデーション 85" cx="163.25" cy="23.48" fx="163.25" fy="23.48" r="15.87" gradientTransform="translate(97.62 -141.76) rotate(45) scale(1 3)" gradientUnits="userSpaceOnUse">
      <stop offset="0" stop-color="#fff"/>
      <stop offset=".08" stop-color="#fffdf3"/>
      <stop offset=".08" stop-color="#fffcf0"/>
      <stop offset=".27" stop-color="#ffeb9c"/>
      <stop offset=".43" stop-color="#ffde59"/>
      <stop offset=".57" stop-color="#ffd528"/>
      <stop offset=".67" stop-color="#ffcf0b"/>
      <stop offset=".73" stop-color="#ffcd00"/>
    </radialGradient>
    <linearGradient id="_名称未設定グラデーション_106" data-name="名称未設定グラデーション 106" x1="13.93" y1="38.38" x2="50.07" y2="38.38" gradientTransform="translate(-2.23 -10.59) scale(1.17 1.3)" gradientUnits="userSpaceOnUse">
      <stop offset="0" stop-color="#fff"/>
      <stop offset=".07" stop-color="#fffdf3"/>
      <stop offset=".22" stop-color="#fff8d7"/>
      <stop offset=".52" stop-color="#fff1a7"/>
      <stop offset=".74" stop-color="#ffed8a"/>
      <stop offset=".87" stop-color="#ffec7f"/>
    </linearGradient>
  </defs>
  <rect class="cls-3" x="8.2" y="27.89" width="169.62" height="38.8"/>
  <rect class="cls-6" x="6.64" y="26.71" width="169.62" height="38.8"/>
  <g>
    <path class="cls-4" d="m15.31,49.89h-.06c-.2,0-.37.01-.53.04l-.04-.21c.18.03.27.04.57.04h3.99c.15-.18.2-.23.35-.41.17.16.35.31.51.45.04.03.05.05.05.07s-.03.04-.05.04h-2.97v1.57c0,.57,0,.91.03,1.41,0,.04-.02.06-.05.07-.04.02-.22.04-.29.04-.05,0-.07-.02-.07-.06h0c.02-.56.02-.72.02-.98q-.79.29-1.68.58c-.04.2-.05.25-.1.25-.06,0-.11-.11-.25-.59.22-.01.28-.02.59-.06v-2.22Zm.62-.48v.02s-.07.07-.26.07c-.12,0-.15-.01-.15-.06h0c.02-.44.02-.64.02-1.18,0-.4,0-.5-.02-.76.19.11.25.14.44.26h2.79c.09-.11.12-.15.22-.26.17.12.22.16.36.29.03.03.04.05.04.07t-.19.17c0,.79,0,1.04.01,1.34h0c0,.06-.01.07-.05.08-.04.02-.14.02-.27.02-.08,0-.1-.01-.1-.06v-.16h-2.85v.16Zm-.25,1.06h1.07v-.58h-1.07v.58Zm0,.73h1.07v-.59h-1.07v.59Zm0,.85c.52-.09.7-.13,1.07-.22v-.5h-1.07v.71Zm3.1-4.15h-2.85v.53h2.85v-.53Zm-2.85.67v.55h2.85v-.55h-2.85Zm3.15,1.86c.11-.11.14-.14.26-.24.16.13.2.17.36.31.04.04.05.06.05.08,0,.04-.02.05-.28.14-.31.58-.46.8-.71,1.09.44.31.77.43,1.4.55v.08c-.13.03-.19.06-.26.13-.09.08-.11.13-.14.25-.56-.25-.85-.43-1.21-.78-.37.35-.67.54-1.24.8l-.05-.07c.44-.26.7-.49,1.1-.94-.35-.41-.52-.7-.71-1.26h-.05c-.1,0-.19.01-.3.03l-.04-.2c.11.02.19.03.34.03h1.48Zm-1.31.14c.16.35.22.44.37.64.13.16.24.28.4.42.27-.37.38-.58.55-1.06h-1.31Z"/>
    <path class="cls-4" d="m23.6,49.36c.18.64.38,1.09.71,1.55.33.47.77.88,1.27,1.18.26.16.41.22.79.34v.08c-.35.04-.43.11-.56.4-.5-.31-.71-.49-1.03-.85-.41-.46-.76-1.02-.97-1.57-.11-.29-.2-.58-.29-1.01-.1.85-.38,1.54-.85,2.12-.31.38-.74.73-1.21,1-.23.13-.39.2-.78.35l-.05-.08c.54-.31.8-.49,1.11-.76.8-.72,1.27-1.65,1.37-2.74h-1.74c-.25,0-.35,0-.56.04l-.04-.23c.25.04.37.05.62.05h1.72c.03-.35.05-.82.05-1.18,0-.16,0-.23-.03-.41.7.07.74.07.74.14,0,.06-.08.11-.26.17-.02.7-.04.93-.07,1.28h1.69c.14-.21.19-.28.35-.47.26.2.35.28.59.5.02.02.04.04.04.05,0,.03-.03.05-.07.05h-2.54Z"/>
    <path class="cls-4" d="m31.63,52.43c0,.9.08.98.93,1v.3h-2.76v-.3c.47-.02.49-.03.65-.1.22-.1.28-.28.28-.9v-1.23h-1.73v-.26h1.73v-.49l-.31-.54h-1.42v-.26h1.26l-1.08-1.84c-.41-.69-.47-.78-.66-.92-.14-.11-.26-.15-.49-.16v-.25h2.49v.25c-.51.02-.68.1-.68.3q0,.13.29.65l1.27,2.3,1.22-2.12c.3-.54.33-.6.33-.77,0-.24-.2-.34-.71-.36v-.25h2.12v.25c-.29.02-.47.1-.68.26-.19.16-.3.31-.67.93l-1.03,1.73h1.36v.26h-1.52l-.19.31v.72h1.71v.26h-1.71v1.23Z"/>
    <path class="cls-4" d="m37.63,49.23c.64,0,1.25.23,1.62.62.36.38.58.98.58,1.61,0,1.44-.98,2.44-2.41,2.44-1.59,0-2.44-1.17-2.44-3.35,0-1.45.32-2.65.88-3.3.44-.51,1.02-.76,1.75-.76,1.03,0,1.94.54,1.94,1.16,0,.26-.21.41-.58.41-.31,0-.41-.09-.44-.37-.07-.65-.36-.95-.92-.95-.7,0-1.19.47-1.46,1.37-.14.51-.23,1.22-.23,1.91.52-.56,1.02-.79,1.71-.79Zm-1.34,3.68c.25.47.66.74,1.15.74.46,0,.9-.26,1.12-.66.21-.4.32-.92.32-1.51,0-1.22-.54-1.98-1.4-1.98-.38,0-.78.16-1.06.44-.36.35-.51.74-.51,1.34s.13,1.16.38,1.63Z"/>
    <path class="cls-4" d="m41.07,47.6c.37-.7,1.09-1.11,1.94-1.11s1.56.41,1.93,1.11c.37.68.57,1.6.57,2.59s-.2,1.9-.57,2.59c-.37.7-1.09,1.11-1.93,1.11s-1.57-.42-1.94-1.11c-.37-.69-.57-1.61-.57-2.59s.2-1.89.57-2.59Zm1.94,6.03c1.07,0,1.54-1.05,1.54-3.44s-.47-3.44-1.54-3.44-1.54,1.06-1.54,3.45.47,3.43,1.54,3.43Z"/>
    <path class="cls-4" d="m46.56,54.88c.53-.31.77-.61.77-.97,0-.12-.04-.16-.19-.2-.43-.1-.59-.27-.59-.6,0-.38.28-.66.67-.66.47,0,.77.36.77.92,0,.4-.16.83-.43,1.17-.2.24-.44.42-.8.59l-.2-.25Z"/>
    <path class="cls-4" d="m49.59,47.6c.37-.7,1.09-1.11,1.94-1.11s1.56.41,1.93,1.11c.37.68.57,1.6.57,2.59s-.2,1.9-.57,2.59c-.37.7-1.09,1.11-1.93,1.11s-1.57-.42-1.94-1.11c-.37-.69-.57-1.61-.57-2.59s.2-1.89.57-2.59Zm1.94,6.03c1.07,0,1.54-1.05,1.54-3.44s-.47-3.44-1.54-3.44-1.54,1.06-1.54,3.45.47,3.43,1.54,3.43Z"/>
    <path class="cls-4" d="m55.22,47.6c.37-.7,1.09-1.11,1.94-1.11s1.56.41,1.93,1.11c.37.68.57,1.6.57,2.59s-.2,1.9-.57,2.59c-.37.7-1.09,1.11-1.93,1.11s-1.57-.42-1.94-1.11c-.37-.69-.57-1.61-.57-2.59s.2-1.89.57-2.59Zm1.94,6.03c1.07,0,1.54-1.05,1.54-3.44s-.47-3.44-1.54-3.44-1.54,1.06-1.54,3.45.47,3.43,1.54,3.43Z"/>
    <path class="cls-4" d="m60.85,47.6c.37-.7,1.09-1.11,1.94-1.11s1.56.41,1.93,1.11c.37.68.57,1.6.57,2.59s-.2,1.9-.57,2.59c-.37.7-1.09,1.11-1.93,1.11s-1.57-.42-1.94-1.11c-.37-.69-.57-1.61-.57-2.59s.2-1.89.57-2.59Zm1.94,6.03c1.07,0,1.54-1.05,1.54-3.44s-.47-3.44-1.54-3.44-1.54,1.06-1.54,3.45.47,3.43,1.54,3.43Z"/>
    <path class="cls-4" d="m17.39,60.42c.65-.19,1.06-.44,1.4-.83.35-.4.53-.89.53-1.44,0-.58-.23-1.04-.68-1.33-.26-.17-.66-.28-1.04-.28-.07,0-.11,0-.21.01.14.21.19.32.19.5,0,.47-.34,1.34-.79,2.08-.38.6-.67.89-.89.89-.1,0-.2-.05-.26-.13-.05-.07-.07-.1-.17-.38-.05-.16-.09-.23-.26-.56-.1-.19-.14-.35-.14-.55,0-.38.2-.82.54-1.19.49-.52,1.28-.84,2.06-.84.61,0,1.16.2,1.55.55.38.35.58.83.58,1.41,0,.75-.44,1.42-1.19,1.82-.35.19-.66.28-1.17.37l-.04-.1Zm-1.97-1.86c0,.29.09.58.24.79.08.11.16.17.23.17.13,0,.42-.32.71-.79.44-.71.76-1.48.76-1.85,0-.09-.02-.15-.08-.3-1.04.19-1.86,1.06-1.86,1.98Z"/>
    <path class="cls-4" d="m22.06,57.06c.1.07.19.1.34.1.12,0,.24,0,.42-.03q1.64-.19,1.77-.25c.05-.02.09-.04.11-.04.06,0,.2.08.35.22.14.13.22.22.22.29,0,.04-.02.07-.06.11-.11.11-.13.2-.43,1.79.02.02.04.04.05.04.16.14.21.2.21.29,0,.06-.05.1-.13.1t-.16-.02c-.16-.03-.34-.04-.53-.04-.7,0-1.59.14-1.93.31-.04.02-.09.03-.12.03-.2,0-.56-.46-.56-.7,0-.03,0-.05.03-.11.19.26.34.37.56.37.06,0,.2-.01.31-.02.2-.02.48-.05.85-.08.52-.05.53-.05,1.03-.08.06-.29.1-.53.16-1.1.03-.25.08-.83.08-.91,0-.08-.04-.11-.17-.11-.1,0-.56.04-.8.07-.43.06-.81.14-1.24.28-.04.01-.07.02-.11.02-.12,0-.25-.11-.4-.32-.09-.14-.15-.28-.15-.37,0-.02,0-.05.03-.1.08.13.15.2.25.28Z"/>
    <path class="cls-4" d="m27.31,57.95c.15.11.26.14.58.14q.07,0,.74-.02c.23,0,2.14-.04,2.34-.04.54,0,.67.01.78.05.06.03.08.07.08.12,0,.07-.05.14-.14.16-.16.05-.31.06-1.44.07-.56,0-1.93.04-2.14.05-.28.02-.34.02-.43.08-.02,0-.07.02-.09.02-.09,0-.19-.07-.29-.2-.13-.16-.23-.41-.23-.55,0-.08,0-.1.05-.14.07.14.1.18.19.24Z"/>
    <path class="cls-4" d="m33.04,60.33c.58-.36,1.17-.85,1.61-1.31.36-.38.79-.94,1.15-1.49.19-.29.29-.49.41-.77-.29.02-.61.08-1.27.26-.29.08-.31.08-.5.16-.03.01-.07.02-.1.02-.13,0-.26-.11-.39-.34-.08-.14-.13-.26-.13-.36,0-.04.01-.07.04-.12.17.31.3.4.56.4.2,0,.8-.08,1.26-.17.35-.07.46-.1.56-.17.07-.04.1-.05.14-.05.13,0,.47.31.47.42,0,.04-.02.08-.08.11q-.13.08-.34.41t-.76,1.04c.85.44,1.32.75,1.55,1.01.16.17.23.35.23.59,0,.19-.06.31-.16.31-.04,0-.09-.03-.14-.1t-.14-.24c-.3-.5-.82-1.04-1.43-1.47-.49.59-.88.95-1.45,1.35-.38.26-.64.41-1.05.59l-.05-.09Z"/>
    <path class="cls-4" d="m40.01,59.66c.46.26.8.41.93.41s.23-.13.39-.5c.21-.49.35-1.15.35-1.61,0-.25-.05-.41-.16-.49-.06-.04-.14-.06-.27-.06-.17,0-.28.02-.62.12q-.08.21-.35.82c-.03.07-.15.35-.35.84-.24.56-.44,1-.53,1.16-.04.08-.09.11-.14.11-.11,0-.17-.16-.17-.41,0-.15.02-.2.14-.34.27-.33.53-.82,1.1-2.09-.4.13-.65.23-.78.31-.09.05-.13.07-.17.07-.07,0-.19-.08-.26-.18-.11-.14-.2-.35-.2-.46,0-.03.01-.07.04-.13.13.25.23.33.46.33.13,0,.58-.09,1.02-.21.14-.34.25-.78.25-.98,0-.19-.12-.29-.46-.4.07-.05.11-.07.17-.07.09,0,.25.03.41.08.27.08.42.19.42.32,0,.04-.01.07-.08.17-.11.2-.21.39-.38.81.26-.05.37-.07.52-.07.52,0,.76.31.76.94,0,.77-.31,1.76-.65,2.15-.15.16-.38.27-.58.27-.1,0-.15-.04-.16-.14-.01-.16-.04-.19-.67-.7l.05-.07Zm2.64-2.42c.47.14.83.38,1.1.72.23.29.34.58.34.85,0,.21-.09.33-.24.33-.05,0-.07,0-.14-.04-.1-.06-.13-.07-.25-.07-.21,0-.24,0-.75.05l-.02-.08c.59-.18.74-.23.92-.31-.07-.58-.48-1.13-1.01-1.37l.05-.08Zm.2-1.2c.22.12.38.23.53.37.22.19.3.33.3.47s-.08.25-.19.25q-.08,0-.26-.39c-.11-.21-.3-.47-.46-.63l.08-.08Zm.62-.35c.22.1.39.2.58.34.23.17.31.29.31.46,0,.14-.06.25-.15.25-.05,0-.09-.03-.14-.11-.21-.38-.33-.53-.66-.86l.07-.08Z"/>
  </g>
  <g>
    <path class="cls-5" d="m102.41,56.5c0,1.89.17,2.06,1.95,2.1v.63h-5.79v-.63c.99-.04,1.03-.06,1.36-.21.46-.21.59-.59.59-1.89v-2.58h-3.63v-.55h3.63v-1.03l-.65-1.13h-2.98v-.55h2.65l-2.27-3.86c-.86-1.45-.99-1.64-1.39-1.93-.29-.23-.55-.31-1.03-.34v-.52h5.23v.52c-1.07.04-1.43.21-1.43.63q0,.27.61,1.36l2.67,4.83,2.56-4.45c.63-1.13.69-1.26.69-1.62,0-.5-.42-.71-1.49-.76v-.52h4.45v.52c-.61.04-.99.21-1.43.55-.4.34-.63.65-1.41,1.95l-2.16,3.63h2.86v.55h-3.19l-.4.65v1.51h3.59v.55h-3.59v2.58Z"/>
    <path class="cls-5" d="m112.38,45.92c-.99,0-1.34.17-1.74.86-.21.4-.4.92-.59,1.78l-.65-.04.59-4.2h9.57v1.24c-1.24,1.76-2.31,3.78-3.19,5.98-.55,1.34-.99,2.73-1.28,3.97-.25,1.09-.31,1.66-.4,3.07-.02.78-.31,1.01-1.3,1.01-.67,0-.99-.23-.99-.71,0-1.89,2.73-7.81,5.96-12.95h-5.98Z"/>
    <path class="cls-5" d="m121.88,61.64c1.11-.65,1.62-1.28,1.62-2.04,0-.25-.08-.34-.4-.42-.9-.21-1.24-.57-1.24-1.26,0-.8.59-1.39,1.41-1.39.99,0,1.62.76,1.62,1.93,0,.84-.34,1.74-.9,2.46-.42.5-.92.88-1.68,1.24l-.42-.52Z"/>
    <path class="cls-5" d="m137.41,55.45c0,2.52-2.04,4.12-5.25,4.12s-5.08-1.51-5.08-3.88c0-1.13.59-2.29,1.57-3.04.48-.36,1.07-.65,2.02-1.03-.94-.46-1.43-.78-1.87-1.11-.78-.65-1.11-1.41-1.11-2.54,0-.92.29-1.83.8-2.44.78-.92,2.27-1.51,3.88-1.51s3.09.63,3.84,1.7c.4.57.59,1.22.59,2.04,0,1.03-.38,1.78-1.22,2.46-.59.46-1.13.73-1.91.94,2.54,1.01,3.74,2.39,3.74,4.3Zm-7.54-2.65c-.8.69-1.22,1.66-1.22,2.73,0,2.08,1.47,3.46,3.65,3.46,2.04,0,3.42-1.26,3.42-3.11,0-1.01-.44-1.72-1.55-2.5-.4-.29-1.05-.63-1.93-1.05-.19-.08-.84-.38-.84-.38-.76.25-1.09.44-1.53.84Zm5.42-5.02c0-2.02-1.15-3.21-3.13-3.21-1.76,0-2.9,1.09-2.9,2.79,0,1.11.46,1.78,1.74,2.52q.27.15,1.49.69c.15.08.36.17.61.31,1.49-.65,2.18-1.64,2.18-3.11Z"/>
    <path class="cls-5" d="m139.94,46.34c.78-1.47,2.29-2.33,4.07-2.33s3.27.86,4.05,2.33c.78,1.43,1.2,3.36,1.2,5.44s-.42,3.99-1.2,5.44c-.78,1.47-2.29,2.33-4.05,2.33s-3.3-.88-4.07-2.33-1.2-3.38-1.2-5.44.42-3.97,1.2-5.44Zm4.07,12.66c2.25,0,3.23-2.2,3.23-7.22s-.99-7.22-3.23-7.22-3.23,2.23-3.23,7.24.99,7.2,3.23,7.2Z"/>
    <path class="cls-5" d="m151.7,46.34c.78-1.47,2.29-2.33,4.07-2.33s3.28.86,4.05,2.33c.78,1.43,1.2,3.36,1.2,5.44s-.42,3.99-1.2,5.44c-.78,1.47-2.29,2.33-4.05,2.33s-3.3-.88-4.07-2.33-1.2-3.38-1.2-5.44.42-3.97,1.2-5.44Zm4.07,12.66c2.25,0,3.23-2.2,3.23-7.22s-.99-7.22-3.23-7.22-3.23,2.23-3.23,7.24.99,7.2,3.23,7.2Z"/>
  </g>
  <g>
    <path class="cls-4" d="m68.89,46.73c-.37-.27-.83-.4-1.39-.4s-1.01.13-1.39.4l-.05-.06c.18-.17.31-.26.49-.35.3-.15.65-.23.95-.23.32,0,.7.1,1.02.27.15.08.27.17.42.31l-.05.06Z"/>
    <path class="cls-4" d="m66.97,48.62h.1c.06-.07.07-.1.13-.18.1.08.13.11.23.2,0,.01.02.02.02.03,0,.01-.01.02-.03.02h-.44v.25c.29.16.38.23.38.34,0,.1-.04.18-.09.18-.02,0-.03-.01-.04-.05-.06-.16-.15-.31-.25-.4v1.52s0,0,0,0c0,.04-.03.05-.13.05-.07,0-.08,0-.08-.04l.03-1.29v-.26c-.15.42-.26.63-.51.92l-.04-.03c.17-.3.21-.38.31-.64.1-.25.13-.36.18-.57h-.24c-.09,0-.12,0-.19.02l-.02-.11c.06.02.11.02.22.02h.27v-.47c-.17.03-.25.05-.45.07v-.04c.23-.06.37-.11.58-.22.17-.09.22-.11.29-.18.28.14.29.14.29.17,0,.02-.02.03-.06.03-.02,0-.06,0-.1,0-.15.07-.21.09-.35.13v.52Zm1.07.61c0,.18-.03.34-.07.48-.07.27-.23.48-.47.64-.12.08-.21.12-.41.19l-.02-.04c.25-.13.38-.23.51-.4.18-.23.25-.49.25-.87h-.15v.09s-.02.05-.13.05c-.07,0-.07,0-.07-.03,0-.16,0-.24,0-.42,0-.34,0-.47-.02-.65.11.06.14.07.24.14h.53c.1-.18.21-.42.25-.62.07.02.12.04.15.06.15.05.18.07.18.09,0,.03-.03.04-.15.05-.17.22-.27.34-.37.42h.29c.05-.06.07-.08.12-.14.07.06.1.07.17.13.02.02.03.03.03.04,0,.02-.02.04-.09.07,0,.42,0,.54.01.79,0,.05-.03.06-.15.06-.05,0-.06,0-.06-.04h0v-.09h-.18v.98q0,.06.18.06h.06c.12,0,.15,0,.17-.07.05-.1.05-.13.17-.62h.04s-.04.56-.04.56v.02q0,.06.08.09s.04.03.04.06c0,.1-.08.12-.49.12-.25,0-.31,0-.35-.03-.04-.02-.06-.05-.06-.14v-1.05h-.22Zm-.44-1.45c.25.16.38.29.38.39s-.06.19-.11.19c-.03,0-.04-.02-.07-.1-.07-.21-.12-.3-.23-.45l.03-.02Zm.08,1.38h.95v-.68h-.95v.68Z"/>
    <path class="cls-4" d="m66.28,52.09s.05,0,.1.01c.06,0,.09.01.13.01h.22c.04-.06.05-.07.1-.14.09.06.11.08.19.14.02.01.03.02.03.03,0,0,0,.02-.01.02,0,0-.02.02-.04.03-.01,0-.03.02-.05.04v.78c.1.16.16.21.31.26.15.04.32.06.58.06.4,0,.99-.02,1.34-.05v.04c-.13.04-.17.08-.2.21-.21,0-.36.01-.59.01-.63,0-.94-.03-1.14-.12-.13-.05-.22-.14-.31-.3t-.07-.13c-.06.1-.1.15-.17.23q-.15.17-.19.21s0,.07,0,.08c0,.04-.01.07-.03.07s-.03-.01-.06-.08c0-.01-.02-.03-.03-.06-.04-.07-.06-.11-.1-.21t.25-.13c.08-.04.13-.07.21-.13v-.83h-.25s-.09,0-.18.02l-.02-.12Zm.09-1.18c.16.09.35.21.47.32.06.06.09.1.09.17,0,.09-.03.16-.09.21-.01,0-.03.02-.04.02-.02,0-.03-.01-.06-.09-.08-.21-.24-.45-.39-.59l.03-.04Zm.89.13c.08.02.18.03.26.03h.47c.04-.06.06-.07.1-.13.07.06.1.07.17.13.02.02.02.03.02.04t-.14.1c0,.41.08.72.28,1.03.17.27.36.45.71.67v.04s-.03,0-.04,0c-.06,0-.13.07-.2.18-.4-.35-.61-.7-.75-1.25-.08.25-.2.47-.39.71-.19.23-.38.39-.65.54l-.03-.03c.22-.18.37-.35.54-.61.21-.32.35-.67.42-1.06.02-.1.02-.14.02-.2,0-.01,0-.04,0-.07h-.54c-.1,0-.12,0-.23.02l-.03-.12Z"/>
    <path class="cls-4" d="m66.11,54.66c.38.27.83.4,1.39.4s1.01-.13,1.39-.4l.05.06c-.18.17-.31.26-.49.35-.31.15-.65.23-.94.23-.32,0-.7-.1-1.02-.27-.15-.08-.27-.17-.42-.31l.05-.06Z"/>
  </g>
  <g>
    <path class="cls-5" d="m166.88,46.25c-.58-.42-1.31-.63-2.19-.63s-1.6.2-2.2.63l-.08-.1c.28-.26.49-.41.78-.55.48-.23,1.03-.37,1.49-.37.5,0,1.11.16,1.61.43.23.13.42.26.66.49l-.08.1Z"/>
    <path class="cls-5" d="m163.86,49.23h.15c.09-.12.12-.16.21-.28.16.13.21.18.36.32.01.02.02.03.02.04,0,.02-.02.03-.05.03h-.69v.39c.46.25.6.37.6.54,0,.15-.06.29-.14.29-.03,0-.05-.02-.07-.08-.09-.25-.23-.48-.39-.64v2.4s.01,0,.01,0c0,.06-.05.07-.21.07-.11,0-.13,0-.13-.06l.04-2.03v-.4c-.23.66-.41.99-.8,1.46l-.06-.04c.27-.47.33-.59.49-1.01.16-.39.21-.56.29-.9h-.38c-.14,0-.19,0-.3.03l-.03-.18c.1.02.18.03.35.03h.42v-.74c-.27.05-.39.07-.71.11v-.07c.36-.1.58-.18.91-.34.27-.14.35-.18.46-.29.44.22.45.23.45.27,0,.03-.03.05-.09.05-.03,0-.1,0-.16,0-.24.11-.33.15-.56.21v.82Zm1.68.97c-.01.29-.05.54-.11.76-.12.43-.36.76-.75,1.02-.18.12-.33.18-.65.29l-.03-.07c.39-.2.6-.36.81-.63.28-.36.4-.77.4-1.37h-.23v.15c0,.07-.03.08-.2.08-.11,0-.11,0-.11-.05,0-.26,0-.38,0-.66,0-.53,0-.75-.02-1.03.18.09.22.12.38.22h.83c.17-.28.33-.67.4-.98.11.04.19.07.24.09.23.08.29.11.29.14,0,.04-.05.06-.23.08-.27.35-.43.53-.59.67h.46c.08-.1.11-.13.18-.22.12.09.16.11.26.2.04.02.05.04.05.06,0,.04-.03.06-.14.12,0,.67,0,.86.02,1.25,0,.07-.05.09-.23.09-.08,0-.1,0-.1-.06h0v-.15h-.28v1.55q0,.1.28.1h.09c.19,0,.23-.01.27-.11.07-.17.08-.2.27-.97h.06s-.06.89-.06.89v.03q0,.1.13.14s.07.05.07.1c0,.16-.13.19-.77.19-.39,0-.48,0-.55-.05-.06-.03-.09-.08-.1-.21v-1.66h-.35Zm-.7-2.28c.4.26.59.46.59.61s-.09.3-.18.3c-.04,0-.07-.03-.11-.15-.11-.33-.19-.47-.36-.72l.05-.04Zm.13,2.17h1.5v-1.07h-1.5v1.07Z"/>
    <path class="cls-5" d="m162.77,54.7q.07,0,.16.02c.1.01.14.02.2.02h.34c.06-.09.08-.12.17-.21.14.09.18.12.29.21.03.02.04.03.04.05,0,0,0,.02-.02.03-.01,0-.03.03-.06.05-.02.01-.04.03-.08.06v1.23c.17.26.26.34.49.41.23.07.51.1.92.1.63,0,1.56-.03,2.12-.07v.06c-.2.06-.27.13-.32.34-.33.01-.57.02-.94.02-.99,0-1.48-.05-1.8-.19-.21-.08-.34-.21-.49-.47q-.03-.05-.11-.2c-.1.16-.16.24-.27.37q-.24.26-.3.33c0,.07,0,.11,0,.12,0,.06-.02.12-.05.12s-.04-.02-.09-.12l-.04-.09c-.06-.12-.09-.18-.16-.33q.08-.04.39-.2c.12-.06.21-.11.33-.2v-1.31h-.39s-.15,0-.29.03l-.04-.19Zm.14-1.87c.26.14.55.34.74.51.1.09.14.16.14.26,0,.14-.05.25-.15.33-.02.01-.04.02-.06.02-.04,0-.05-.02-.1-.14-.13-.33-.38-.71-.61-.93l.04-.06Zm1.4.2c.13.03.29.04.41.04h.74c.06-.09.09-.12.17-.21.12.09.16.12.27.21.02.03.03.04.03.06t-.22.15c0,.65.13,1.13.44,1.62.27.43.56.72,1.11,1.06l-.02.06s-.03,0-.04,0c-.09,0-.2.11-.31.29-.63-.54-.96-1.11-1.18-1.98-.12.4-.31.74-.62,1.12-.3.37-.59.61-1.03.86l-.04-.04c.35-.29.58-.55.86-.96.34-.51.55-1.06.67-1.68.03-.17.03-.22.03-.32,0-.02,0-.06,0-.11h-.85c-.16,0-.18,0-.36.03l-.05-.19Z"/>
    <path class="cls-5" d="m162.5,58.75c.59.42,1.3.63,2.2.63s1.6-.2,2.19-.63l.08.1c-.28.26-.49.41-.78.55-.48.23-1.02.37-1.49.37-.51,0-1.11-.16-1.61-.43-.23-.13-.42-.26-.67-.49l.08-.1Z"/>
  </g>
  <path class="cls-4" d="m87.67,52.55c-2.84,1.3-5.68,2.61-8.52,3.91.03-2.68.07-5.36.1-8.04,2.8,1.38,5.61,2.75,8.41,4.13Z"/>
  <circle class="cls-3" cx="164.67" cy="24.36" r="15.87"/>
  <circle class="cls-1" cx="163.25" cy="23.48" r="15.87"/>
  <g>
    <path class="cls-4" d="m161.33,22.99c0,1.47-1.19,2.4-3.05,2.4s-2.96-.88-2.96-2.26c0-.66.34-1.33.92-1.77.28-.21.62-.38,1.17-.6-.55-.27-.83-.45-1.09-.65-.45-.38-.65-.82-.65-1.48,0-.54.17-1.06.46-1.42.45-.54,1.32-.88,2.26-.88s1.8.37,2.24.99c.23.33.34.71.34,1.19,0,.6-.22,1.04-.71,1.43-.34.27-.66.43-1.11.55,1.48.59,2.17,1.39,2.17,2.51Zm-4.39-1.54c-.46.4-.71.97-.71,1.59,0,1.21.86,2.02,2.13,2.02,1.19,0,1.99-.73,1.99-1.81,0-.59-.26-1-.9-1.45-.23-.17-.61-.37-1.12-.61-.11-.05-.49-.22-.49-.22-.44.15-.64.26-.89.49Zm3.15-2.92c0-1.17-.67-1.87-1.82-1.87-1.03,0-1.69.64-1.69,1.63,0,.65.27,1.04,1.01,1.47q.16.09.87.4c.08.05.21.1.35.18.87-.38,1.27-.95,1.27-1.81Z"/>
    <path class="cls-4" d="m164.29,17.44c-.57,0-.78.1-1.01.5-.12.23-.23.54-.34,1.04l-.38-.02.34-2.44h5.57v.72c-.72,1.03-1.34,2.2-1.86,3.48-.32.78-.57,1.59-.75,2.31-.15.64-.18.97-.23,1.78-.01.45-.18.59-.76.59-.39,0-.57-.13-.57-.42,0-1.1,1.59-4.55,3.47-7.54h-3.48Z"/>
    <path class="cls-4" d="m170.74,19.65c.79,0,1.3.61,1.3,1.56s-.53,1.59-1.3,1.59c-.41,0-.78-.19-.98-.5-.18-.28-.29-.68-.29-1.08,0-.94.52-1.57,1.27-1.57Zm3.84.16l-4.27,5.73-.22-.17,4.27-5.74.22.18Zm-3.83,2.81c.46,0,.65-.42.65-1.39s-.2-1.39-.66-1.39c-.2,0-.38.1-.46.27-.13.24-.19.61-.19,1.12,0,.95.21,1.39.66,1.39Zm3.18-.24c.79,0,1.3.61,1.3,1.56s-.53,1.58-1.3,1.58-1.27-.62-1.27-1.58.52-1.56,1.27-1.56Zm.02,2.95c.46,0,.65-.42.65-1.39s-.19-1.38-.66-1.38-.65.42-.65,1.38.2,1.39.66,1.39Z"/>
    <path class="cls-4" d="m158.06,27.73c.42-.52,1.03-.8,1.78-.8s1.36.27,1.78.8c.38.49.58,1.1.58,1.83s-.2,1.35-.58,1.82c-.43.54-1.02.8-1.78.8s-1.37-.28-1.78-.8c-.38-.49-.58-1.1-.58-1.82s.19-1.33.58-1.83Zm.5,3.51c.28.5.72.76,1.28.76s1-.27,1.28-.76c.25-.45.38-1,.38-1.68s-.12-1.22-.38-1.68c-.28-.5-.72-.76-1.28-.76s-1,.27-1.28.76c-.25.46-.38,1.01-.38,1.68s.13,1.21.38,1.68Z"/>
    <path class="cls-4" d="m164.05,31.21c0,.64.04.7.59.71v.17h-1.75v-.17c.49-.01.53-.07.53-.71v-3.29c-.01-.45-.01-.45-.04-.52-.05-.15-.17-.2-.5-.2v-.17h3.55l.08,1.24h-.22c-.16-.84-.41-1.03-1.35-1.03h-.91v2.15h.75c.77,0,.9-.1.98-.71h.2v1.64h-.2c-.1-.63-.22-.72-.98-.72h-.75v1.61Z"/>
    <path class="cls-4" d="m168.19,31.21c0,.64.04.7.59.71v.17h-1.75v-.17c.49-.01.53-.07.53-.71v-3.29c-.01-.45-.01-.45-.04-.52-.05-.15-.17-.2-.5-.2v-.17h3.55l.08,1.24h-.22c-.16-.84-.41-1.03-1.35-1.03h-.91v2.15h.75c.77,0,.9-.1.98-.71h.2v1.64h-.2c-.1-.63-.22-.72-.98-.72h-.75v1.61Z"/>
  </g>
  <path class="cls-2" d="m15.5,35.85h39.66c.53,0,.96.43.96.96v5.15c0,.53-.43.96-.96.96H14.96c-.53,0-.96-.43-.96-.96v-4.61c0-.83.67-1.5,1.5-1.5Z"/>
  <g>
    <path class="cls-4" d="m24.41,36.19q.19.06.36.11c.34-.47.52-.77.69-1.15.24.08.5.18.59.22.05.02.07.04.07.08,0,.01-.01.04-.03.05-.03.02-.13.04-.3.08-.25.24-.62.55-.89.77.32.11.48.19.65.31.13.09.18.18.18.34,0,.18-.08.34-.15.34-.03,0-.09-.04-.14-.11t-.26-.29c-.19-.2-.48-.43-.76-.59v.99c0,.26.01,1.13.04,1.81,0,.04-.01.06-.05.07-.04.02-.24.04-.36.04-.08,0-.1-.02-.11-.08.03-.45.05-1.3.05-1.84v-1.2c-.52.54-.78.76-1.32,1.13l-.09-.08c.5-.46.85-.84,1.25-1.35.33-.42.55-.77.96-1.51h-1.4c-.12,0-.39.03-.53.05l-.05-.27c.21.04.4.06.58.06h.6v-.68c-.02-.36-.04-.58-.05-.67.66.08.76.1.76.17,0,.05-.08.1-.27.18v1h.37c.14-.14.18-.18.33-.32.21.15.27.2.45.36.03.04.05.05.05.08,0,.01-.01.04-.04.05-.02.02-.12.06-.29.12-.39.57-.58.85-.87,1.2v.55Zm2.93-2.23c-.04.98-.21,1.96-.49,2.7-.28.76-.72,1.41-1.28,1.93-.25.24-.42.36-.81.58l-.06-.09c.56-.48.88-.84,1.18-1.34.59-.95.92-2.3.97-3.78h-.51c-.26,0-.38,0-.59.04l-.05-.26c.22.04.38.06.64.06h2.07c.1-.14.14-.18.26-.29.2.13.27.18.46.32.05.05.07.08.07.09,0,.04-.06.08-.28.23-.04,1.91-.09,2.64-.28,3.73-.09.54-.23.87-.43.99-.17.11-.45.19-.76.21-.05-.23-.13-.32-.33-.37-.17-.05-.41-.1-.69-.13v-.11c.8.06,1.02.08,1.24.08s.29-.03.34-.17c.09-.2.2-.82.28-1.58.08-.76.13-1.56.13-2.3,0-.21,0-.25,0-.52h-1.07Z"/>
    <path class="cls-4" d="m30.64,39.11c-.03.1-.08.11-.38.11-.12,0-.14-.01-.14-.08.04-.64.04-1.58.04-3.9,0-.63-.02-1.66-.04-2.25.26.15.34.19.6.35h4.43c.15-.17.2-.21.35-.35.2.15.26.2.45.35.03.05.05.07.05.1,0,.06-.09.13-.27.22v.6c0,3.56,0,3.8.03,4.79,0,.1-.08.13-.33.13h-.07c-.07,0-.11-.03-.12-.09v-.36h-4.59v.38Zm0-.54h4.59v-5.07h-4.59v5.07Zm1.41-1.13c0,.08-.06.11-.25.11-.04,0-.08,0-.1,0h-.02c-.06,0-.1-.03-.1-.09.01-.58.02-.88.02-1.55,0-.73,0-1.04-.01-1.46.24.11.31.15.53.32h1.58l.27-.28.36.29s.07.07.07.09c0,.04-.05.08-.18.15v.29c0,.53,0,1.77.01,2,0,.1-.08.13-.3.13h-.06c-.07,0-.1-.02-.1-.08v-.39h-1.7v.47Zm0-.63h1.7v-1.87h-1.7v1.87Z"/>
    <path class="cls-4" d="m37.16,33.5c0-.24,0-.33-.02-.58.25.13.31.17.52.34h.92c.1-.13.13-.16.24-.28l.44.36c.06.05.08.07.08.1,0,.06-.07.1-.25.11q-.11.18-.44.79c-.1.17-.18.3-.5.79.39.3.53.48.67.78.13.28.2.56.2.83,0,.36-.1.62-.29.79-.17.15-.31.2-.57.23-.07-.29-.1-.33-.54-.43v.52s0,.18,0,.4c0,.03,0,.22,0,.48,0,.08,0,.22,0,.39-.01.06-.04.08-.1.09-.07.01-.18.02-.25.02-.1,0-.15-.03-.15-.09v-.02c.03-1.28.03-1.71.03-2.77v-2.46s0-.39,0-.39Zm.45,3.7c.26.04.59.07.71.07.07,0,.11-.03.15-.09.08-.14.13-.36.13-.57,0-.32-.08-.64-.21-.92-.11-.22-.21-.34-.43-.5q.12-.27.23-.6c.1-.27.19-.54.29-.82.05-.14.06-.14.1-.34h-.97v3.78Zm3.28-1.3c.1.55.24.88.51,1.27.22-.19.34-.29.54-.49.33-.34.46-.5.61-.75.44.28.58.39.58.45,0,.04-.04.08-.08.08-.03,0-.08,0-.2-.04-.51.35-.61.41-1.37.85.19.25.37.43.62.63.24.19.57.39.79.49.12.06.2.08.42.13v.1c-.16.01-.22.03-.33.1-.12.08-.16.14-.22.3-.85-.6-1.3-1.09-1.62-1.8-.19-.42-.32-.85-.39-1.34h-.8v2.4c.31-.05.46-.09,1.34-.34l.03.08c-.83.41-1.45.65-2.32.9,0,.25-.02.32-.09.32-.08,0-.1-.06-.29-.75.19,0,.27-.02.86-.13v-4.47c0-.4,0-.53-.04-.88.27.14.35.2.58.37h1.9c.11-.14.15-.18.27-.3.18.13.24.17.41.31.04.05.06.07.06.1,0,.02-.01.05-.04.06,0,0-.07.05-.2.13v1.34c0,.08,0,.15.01.91,0,.1-.06.13-.22.14-.08,0-.13,0-.14,0h0c-.06,0-.09-.03-.1-.08v-.12h-1.09Zm1.09-2.34h-2.02v.97h2.02v-.97Zm-2.02,1.12v1.06h2.02v-1.06h-2.02Z"/>
    <path class="cls-4" d="m46.67,33.82v-.41c0-.33,0-.39-.04-.58.65.06.81.1.81.18,0,.06-.08.1-.27.16v.65h2.01l.29-.37c.3.2.39.27.67.47.03.03.04.04.04.06,0,.01-.01.03-.04.04-.01.01-.08.03-.16.06-.13.03-.15.04-.27.08-.18.22-.26.3-.48.54l-.11-.02c.01-.11.03-.19.04-.24.03-.23.04-.29.06-.46h-4.61c-.04.36-.11.59-.27.83-.12.18-.25.31-.33.31-.12,0-.25-.24-.25-.45,0-.06.02-.11.06-.14t.14-.1c.14-.09.32-.35.43-.6.05-.13.08-.22.14-.49h.1v.29s0,.08,0,.18h2.04Zm-1.7,1.48c-.15,0-.27,0-.56.03l-.06-.26c.35.05.53.06.62.06h3.66c.17-.2.22-.26.39-.47.25.22.34.29.61.53.01.01.02.04.02.04,0,.03-.04.06-.06.06h-2.34v1.41h1.18c.16-.2.21-.26.39-.46.28.22.36.29.64.55,0,.01.01.02.01.03,0,.01-.04.05-.05.05h-2.17v1.65c.19.03.43.03.74.03.74,0,1.71-.06,2.18-.13v.08c-.32.16-.39.23-.43.51-.44.01-.71.02-.9.02-1.56,0-2.17-.11-2.68-.49-.36-.27-.54-.5-.82-1.08-.15.31-.29.53-.47.78-.28.39-.49.59-.97.92l-.07-.08c.39-.41.54-.62.78-1.07.39-.74.61-1.48.63-2.09.17.04.3.06.39.08.36.08.44.1.44.17,0,.08-.12.13-.35.16-.1.43-.17.63-.29.95.2.39.29.51.51.7.27.22.53.36.85.45v-3.14h-1.79Z"/>
  </g>
</svg>