<?xml version="1.0" encoding="UTF-8"?>
<svg id="_レイヤー_1" data-name="レイヤー 1" xmlns="http://www.w3.org/2000/svg" viewBox="0 0 50 50">
  <defs>
    <style>
      .cls-1 {
        stroke: #fff;
        stroke-miterlimit: 10;
        stroke-width: 2px;
      }

      .cls-1, .cls-2 {
        fill: #015b9f;
      }

      .cls-2, .cls-3 {
        stroke-width: 0px;
      }

      .cls-3 {
        fill: #fff;
      }
    </style>
  </defs>
  <path class="cls-2" d="m35.72,2.93c-6.35,6.44-12.7,12.87-19.05,19.31,2.54,3.54,5.09,7.09,7.63,10.63,8.03-3.99,16.07-7.99,24.1-11.98-4.23-5.99-8.46-11.97-12.69-17.96Z"/>
  <rect class="cls-3" x="32.17" y="8.84" width="2.02" height="27.02" transform="translate(33.02 62.35) rotate(-123.73)"/>
  <rect class="cls-3" x="28.35" y="3.62" width="2.02" height="27.02" transform="translate(33.9 50.82) rotate(-127.93)"/>
  <path class="cls-1" d="m30.71,39.39l-9.87-.28-5.83,7.97c-.17.23-.53.17-.62-.11l-2.78-9.47-9.38-3.08c-.27-.09-.33-.46-.09-.62l8.15-5.57.03-9.87c0-.29.33-.45.56-.27,2.61,2.01,5.21,4.02,7.82,6.03l9.4-3.02c.27-.09.53.18.43.45l-3.32,9.3,5.78,8c.17.23,0,.56-.29.55Z"/>
</svg>