<?xml version="1.0" encoding="UTF-8"?>
<svg id="_レイヤー_1" data-name="レイヤー 1" xmlns="http://www.w3.org/2000/svg" viewBox="0 0 50 50">
  <defs>
    <style>
      .cls-1 {
        fill: #035ca0;
        stroke-width: 0px;
      }
    </style>
  </defs>
  <path class="cls-1" d="m34.78,35.38c-.22,0-.44-.04-.65,0-3.09.67-4.83-.51-5.64-3.62-1.15-4.42-3.07-8.68-2.44-13.42.33-2.45,1.48-4.46,3.72-5.53,2.06-.99,3.84.4,5.38,1.44,2.5,1.7,4.06,4.11,5.05,7.09,1.07,3.21,1.1,6.19.08,9.34-.33,1-.29,2.14-.3,3.22-.02,1.02-.4,1.5-1.45,1.46-1.25-.04-2.49,0-3.74,0Z"/>
  <path class="cls-1" d="m13.28,23.73c-1.19,0-2.4.1-3.57-.05-.5-.06-1.3-.57-1.36-.97-.49-3.24-1.37-6.55-1.12-9.75.41-5.22,3.22-9.7,8.74-11.82.84-.32,2.19-.04,3.01.45,2.07,1.24,2.99,3.25,3.16,5.69.27,3.71-.58,7.16-1.95,10.55-.58,1.44-1.04,2.93-1.4,4.44-.24,1.04-.75,1.48-1.78,1.46-1.25-.02-2.49,0-3.74,0Z"/>
  <path class="cls-1" d="m35.07,40.41c1.19,0,2.4-.1,3.58.05.44.06,1.14.71,1.14,1.1.05,3.95-3.38,7.33-7.24,7.25-1.95-.04-3.02-1.07-3.07-2.98-.02-.6-.01-1.2,0-1.79.09-2.92.86-3.66,3.79-3.66.6,0,1.19,0,1.79,0,0,.01,0,.02,0,.03Z"/>
  <path class="cls-1" d="m13.18,28.88c.7,0,1.41,0,2.11,0,2.28,0,3.21.76,3.38,3.06.13,1.76.71,3.78-1.61,4.76-.2.08-.37.23-.57.3-2.21.77-6.67-1.68-7.24-3.95-.21-.84-.51-1.65-.73-2.49-.27-1.05.04-1.69,1.25-1.67,1.14.02,2.27,0,3.41,0,0,0,0,0,0,0Z"/>
</svg>