<?xml version="1.0" encoding="UTF-8"?>
<svg id="_レイヤー_1" data-name="レイヤー 1" xmlns="http://www.w3.org/2000/svg" viewBox="0 0 50 50">
  <defs>
    <style>
      .cls-1 {
        font-family: HiraginoSans-W6-83pv-RKSJ-H, 'Hiragino Sans';
        font-size: 6.11px;
        letter-spacing: .1em;
      }

      .cls-1, .cls-2 {
        fill: #fff;
      }

      .cls-3 {
        stroke-width: .75px;
      }

      .cls-3, .cls-4 {
        fill: none;
        stroke: #fff;
        stroke-miterlimit: 10;
      }

      .cls-5 {
        fill: #245c9b;
      }

      .cls-5, .cls-2 {
        stroke-width: 0px;
      }

      .cls-4 {
        stroke-width: .5px;
      }
    </style>
  </defs>
  <rect class="cls-5" x="6.93" y="18.99" width="38.15" height="20.48"/>
  <g>
    <path class="cls-3" d="m5.56,18.81c-.12,1.95,1.23,3.26,2.22,3.26.94,0,2.18-1.2,2.26-2.97"/>
    <path class="cls-3" d="m37.57,18.8c-.12,1.95,1.23,3.26,2.22,3.26.94,0,2.18-1.2,2.26-2.97"/>
    <path class="cls-3" d="m32.78,18.9c-.12,1.95,1.23,3.26,2.22,3.26.94,0,2.18-1.2,2.26-2.97"/>
    <path class="cls-3" d="m28.11,18.9c-.12,1.95,1.23,3.26,2.22,3.26.94,0,2.18-1.2,2.26-2.97"/>
    <path class="cls-3" d="m23.74,18.98c-.12,1.95,1.23,3.26,2.22,3.26.94,0,2.18-1.2,2.26-2.97"/>
    <path class="cls-3" d="m19.25,18.94c-.12,1.95,1.23,3.26,2.22,3.26.94,0,2.18-1.2,2.26-2.97"/>
    <path class="cls-3" d="m14.61,18.9c-.12,1.95,1.23,3.26,2.22,3.26.94,0,2.18-1.2,2.26-2.97"/>
    <path class="cls-3" d="m10.04,18.9c-.12,1.95,1.23,3.26,2.22,3.26.94,0,2.18-1.2,2.26-2.97"/>
    <path class="cls-3" d="m42.18,18.87c-.12,1.95,1.23,3.26,2.22,3.26.94,0,2.18-1.2,2.26-2.97"/>
  </g>
  <path class="cls-5" d="m47.26,19.26H4.84c1.55-3.45,3.1-6.9,4.64-10.34h33.14c1.55,3.45,3.1,6.9,4.64,10.34Z"/>
  <path class="cls-2" d="m13.21,25.21h.68c1.52,0,2.75,1.23,2.75,2.75v5.23h-6.2v-5.21c0-1.53,1.24-2.77,2.77-2.77Z"/>
  <path class="cls-2" d="m37.68,25.27h.68c1.52,0,2.75,1.23,2.75,2.75v5.23h-6.2v-5.21c0-1.53,1.24-2.77,2.77-2.77Z"/>
  <rect class="cls-2" x="19.05" y="24.99" width="13.65" height="14.51"/>
  <line class="cls-4" x1="4.83" y1="19.06" x2="47.35" y2="19.07"/>
  <rect class="cls-5" x="25.29" y="23.61" width=".7" height="15.81"/>
  <rect class="cls-5" x="24.39" y="32.38" width="2.58" height=".81"/>
  <text class="cls-1" transform="translate(14.46 16.46) scale(1.1 1)"><tspan x="0" y="0">SHOP</tspan></text>
</svg>