<?xml version="1.0" encoding="UTF-8"?>
<svg id="_レイヤー_1" data-name="レイヤー 1" xmlns="http://www.w3.org/2000/svg" viewBox="0 0 50 50">
  <defs>
    <style>
      .cls-1 {
        fill: #035ca0;
        stroke-width: 0px;
      }
    </style>
  </defs>
  <path class="cls-1" d="m28.62,26.49c4.56,0,9.12-.04,13.67.01,2.92.03,3.22.34,3.75,3.23.63,3.47.47,6.62-2.24,9.46-1.72,1.8-2.67,4.3-4.21,6.3-.47.61-1.77.8-2.69.79-.65,0-1.65-.51-1.88-1.05-1.44-3.36-1.39-3.38-5.02-3.38-7.45,0-14.9.04-22.34-.03-2-.02-3.22.63-3.41,2.73-.16,1.8-1.45,1.9-2.81,1.8-1.64-.12-.97-1.4-.99-2.22-.06-3.08.12-6.17-.06-9.24-.13-2.17.99-3.11,2.77-3.42,3.16-.55,5.94-1.73,8.45-3.77.86-.7,2.19-1.09,3.33-1.12,4.56-.12,9.12-.05,13.67-.05,0-.02,0-.03,0-.05Zm.11.86v-.04c-4.37,0-8.73,0-13.1,0-.58,0-1.27-.15-1.7.11-.65.38-1.11,1.07-1.65,1.63.61.3,1.21.84,1.83.86,5.76.17,11.53.16,17.29.41,2.01.09,4.03.66,5.99,1.23,1.37.4,2.26,1.37,2.19,3-.07,1.66-.06,3.33.03,4.99.03.5.36,1.05.72,1.42.13.13.92-.09,1.11-.35,1.8-2.57,4.4-4.8,3.59-8.5-.13-.61,0-1.28,0-1.92-.03-2.4-.41-2.83-2.8-2.84-4.5-.03-8.99,0-13.49,0Z"/>
  <path class="cls-1" d="m47.62,30.99c0-1.7.14-3.42-.06-5.1-.1-.82-.66-1.91-1.33-2.26-1.13-.58-1.57-1.25-1.74-2.46-.5-3.49-1.41-4.2-4.9-4.21-.83,0-1.67,0-2.5.01-4.13.03-4.76.55-5.55,4.87-.19-.92-.26-1.52-.43-2.08-.49-1.66-1.35-2.87-3.35-2.8-1.8.06-3.61.14-5.39-.03-2.91-.28-2.89,2.15-3.76,3.78-.39.72-.76,1.45-1.13,2.17-.28-.89-.75-1.76-.8-2.66-.11-2.24,0-4.49-.03-6.73-.02-1.41.58-2.28,1.95-2.7,7.03-2.2,14.15-2.86,21.41-1.38,2.12.43,4.29.75,6.3,1.47.87.31,2,1.51,2.02,2.33.17,5.77.08,11.55.06,17.32,0,.17-.13.34-.2.5-.19-.01-.39-.02-.58-.03Z"/>
</svg>