<?xml version="1.0" encoding="UTF-8"?>
<svg id="_レイヤー_1" data-name="レイヤー 1" xmlns="http://www.w3.org/2000/svg" viewBox="0 0 300 159.41">
  <defs>
    <style>
      .cls-1, .cls-2 {
        stroke-width: 0px;
      }

      .cls-2 {
        fill: #fff;
      }
    </style>
  </defs>
  <path class="cls-2" d="m170.22,20.85c-1.19-.21-2.14-.27-3.02-.55-1.42-.44-2.21-.01-2.36,1.73-1.97-.36-3.98-.51-5.85-1.12-2.83-.92-4.61.83-6.61,2.13-.6.39-1.12.89-1.69,1.34.91,1.41,2.08.87,3.38.61.88-.17,1.9.39,2.86.62.08-.2.17-.41.25-.61.77,1.2,1.54,2.39,2.41,3.75-1.73.45-1.48,1.38-.24,2.45-.58.18-.99.3-1.32.4-.42-1.71-.82-3.29-1.21-4.88-.16.03-.33.05-.49.08-.39,1.24-.53,2.66-1.22,3.7-1.05,1.57-2.38,3-3.81,4.24-.75.65-1.97.77-2.97,1.15-.77.29-1.69.44-2.27.96-1.02.92-1.83,2.08-2.43,2.79.7,1.41,1.86,2.75,1.8,4.03-.04.78-1.95,1.48-3.42,2.5v-4.14c-.56-.12-1-.22-1.57-.34.06-.52.11-1.05.23-2.14-1.61.63-2.95,1.15-4.52,1.77.25-.74.47-1.4.81-2.41-1.75,1.04-3.24,1.93-4.73,2.82-.03.16-.07.32-.1.47,1.7.18,3.41.37,5.38.58-1.37.88-2.56,1.64-3.63,2.33,1.09,1.81,2,3.34,3.07,5.12-6.15,1.13-11.78,2.16-17.41,3.19-4.66.86-9.34,1.65-13.98,2.63-1.5.32-2.1-.26-2.69-1.43-.63-1.24-1.44-2.38-2.19-3.58-1.03.44-2.38.71-3.29,1.49-1.08.92-2.04,2.17-2.6,3.47-.95,2.2-2.62,2.91-4.77,3.18-1.22.15-2.42.48-3.92.79-.14-1.37-.26-2.51-.44-4.27-1,.88-1.77,1.56-2.34,2.06,5.68-20.31,25.49-42.63,55.52-47.68,29.68-4.99,56.45,9.22,69.37,28.95-.51-.49-1.04-.96-1.52-1.47-6.84-7.38-14.72-13.38-23.95-17.43-1.61-.71-3.69-.33-6.1-.5.85.71,1.18.99,1.53,1.28-1.58,1.05-3.02,2.02-4.94.78-.37-.24-1.27.33-1.93.53.27.45.44,1,.81,1.33.88.8.82,1.47.1,2.36-.67.83-1.16,1.81-1.83,2.89-.49-.47-.86-.8-1.21-1.15q-2.59-2.67-.1-5.35c.46-.49.85-1.05,1.14-1.42Zm-26.03-6.98c1.53,1.61,3.73,2.63,5.49,2.14,4.45-1.22,8.65.16,12.83.76,2.77.4,5.38-.03,8.06,0,.47,0,.95-.35,1.85-.7-9.6-2.65-18.79-3.62-28.23-2.21Z"/>
  <path class="cls-2" d="m160.91,135.97c.09-.49.17-.99.29-1.7-.55.41-.98.72-1.4,1.03-2.76-2.92-6.76-3.09-9.86-.57-.56.45-1.36.61-2.06.89-.69.28-1.48.41-2.08.82-1.74,1.19-3.06.68-3.71-1.33-.37-1.16-1.04-2.23-1.63-3.3-.8-1.46-1.71-2.85-2.47-4.33-.81-1.6.11-3.34,2.17-4.24.9-.4,1.86-.67,2.74-1.11.51-.25,1.23-.67,1.3-1.11.35-2.05,2.3-2.92,3.2-4.58.59-1.08,1.63-2.75,3.37-.92.19.2,1.36-.06,1.4-.23.31-1.73,1.2-2.84,2.94-3.27.17-.04.23-.53.32-.75,1.6.26,3.08.5,4.58.75.04.09.15.24.12.32q-1.37,2.83,1.5,4.18c.12.06.24.12.35.18,2.75,1.32,3.45.87,3.65-2.31.05-.78.02-1.58.17-2.35.13-.69.45-1.34.89-2.6.44,1.2.62,1.92.96,2.56.34.64.94,1.14,1.24,1.79.58,1.27,1.03,2.6,1.53,3.9.18.47.3,1.26.6,1.34,2.06.57,2.32,2.65,3.41,3.98,2.19,2.69,2.12,5.69.14,8.52-1.13,1.62-2.26,3.23-3.39,4.84-1.11,1.57-5.55,2.71-7.3,1.84-.33-.16-.56-.53-.83-.81-.57-.58-1.15-1.16-1.72-1.75-.15.11-.3.22-.45.33Z"/>
  <path class="cls-2" d="m96.33,124.7c18.45,16.46,39.74,24.05,64.43,20.16,24.6-3.87,42.7-17.26,55.02-38.68-10,23.02-26.77,38.14-51.72,43.13-29.16,5.83-53.6-5.97-67.74-24.6Z"/>
  <path class="cls-2" d="m26.53,77.31q5.39-1.87,7.93,2.74c1.46,2.65,2.9,5.31,4.36,7.96.05.1.2.15.65.48-.37-2.63-.69-4.96-1.02-7.29-.24-1.69-.43-3.4-.77-5.07-.21-1.05,0-1.62,1.13-1.8,1.47-.24,2.93-.58,4.62-.93.62,4.08,1.23,7.95,1.81,11.83.91,6.11,1.77,12.24,2.74,18.34.23,1.47-.08,2.14-1.61,2.42-4.35.77-3.14,1.34-5.22-2.34-1.93-3.42-3.76-6.9-6.03-10.24.55,3.77,1.1,7.53,1.66,11.3.04.26.07.52.15.78.57,1.94-.1,2.94-2.16,3.11-1.09.09-2.16.44-3.47.72-1.6-10.78-3.17-21.35-4.76-32Z"/>
  <path class="cls-2" d="m117.27,91.87c-1.81.34-3.53.77-5.28.93-.5.05-1.29-.53-1.58-1.03-1.35-2.41-2.57-4.89-3.85-7.35-.28-.54-.6-1.07-.9-1.61-.19.06-.38.12-.56.17.29,2.15.55,4.31.88,6.45.68,4.4.7,4.4-3.69,5.16-.51.09-1.02.12-1.78.2-.45-2.86-.9-5.63-1.31-8.41-1.07-7.16-2.07-14.33-3.22-21.48-.29-1.79.17-2.49,1.98-2.65,2.09-.18,4.16-.8,6.25-.89,4.59-.19,7.83,2.27,9.02,6.7,1,3.75,1.08,7.4-1.29,10.8-.35.51-.24,1.62.07,2.25,1.67,3.43,3.46,6.8,5.21,10.19.03.05.01.13.05.53Zm-14.54-24.52c.5,3.38.98,6.61,1.46,9.83,3.24-.41,3.91-3.45,3.28-6.29-.61-2.8-1.77-3.79-4.74-3.55Z"/>
  <path class="cls-2" d="m223.61,43.19c2.85-.16,5.41-.5,7.95-.41,4.19.15,7.22,2.43,9.06,6.06,2.87,5.67,3.82,11.73,2.75,18-.76,4.47-3.67,7.18-8.13,8.01-.9.17-1.83.23-2.74.31-4.24.36-4.22.35-4.82-3.78-1.27-8.71-2.57-17.42-3.85-26.13-.08-.57-.12-1.15-.21-2.06Zm10.09,26.06c1.97-.06,2.9-1.17,3.18-2.52,1.22-5.86.34-11.46-2.63-16.67-.69-1.21-1.9-1.89-3.65-1.67,1.04,7.02,2.06,13.86,3.09,20.86Z"/>
  <path class="cls-2" d="m201.89,45.76q6.04-1.44,6.87,4.17c.86,5.79,1.72,11.59,2.6,17.38.13.84.13,1.84.59,2.46.59.79,1.55,1.72,2.42,1.79,1.37.12,1.8-1.23,1.7-2.4-.23-2.55-.6-5.09-.97-7.63-.81-5.59-1.65-11.18-2.52-17.09,2.04-.21,3.96-.41,6.14-.64.36,2.39.71,4.64,1.05,6.89.82,5.53,1.7,11.06,2.45,16.6.82,6.08-2.45,10.07-8.13,10.11-3.86.03-7.03-2.18-8.12-6.25-.9-3.35-1.29-6.84-1.83-10.29-.78-5-1.49-10.01-2.25-15.11Z"/>
  <path class="cls-2" d="m11.68,80.8c.82,5.46,1.61,10.72,2.41,15.98.39,2.6.74,5.21,1.2,7.8.23,1.31.61,2.79,2.35,2.63,1.77-.16,2.18-1.64,2-3.1-.67-5.22-1.45-10.42-2.19-15.63-.35-2.47-.69-4.95-1.1-7.42-.16-.97.08-1.48,1.09-1.67,1.48-.29,2.93-.67,4.72-1.09.34,2.13.67,4.1.96,6.08.79,5.27,1.63,10.53,2.33,15.81.23,1.75.26,3.55.11,5.31-.2,2.32-1.31,4.25-3.2,5.68-5.3,4.01-11.56,1.86-12.96-4.61-.84-3.92-1.3-7.92-1.91-11.88-.55-3.58-1.03-7.16-1.62-10.73-.21-1.28.05-1.97,1.45-2.17,1.41-.2,2.79-.62,4.37-.99Z"/>
  <path class="cls-2" d="m275.75,60.59c-.42,2.38-.56,4.85-1.32,7.11-1.72,5.08-7.36,6.62-11.5,3.17-1.37-1.14-2.61-2.69-3.33-4.31-2.85-6.36-3.97-13.07-2.96-20.01.48-3.31,2-6.08,5.58-6.9,3.71-.84,6.57.71,8.66,3.73,2.96,4.26,3.64,9.23,4.31,14.2.13.98.16,1.97.24,2.95.11.02.21.04.32.06Zm-13.33-10.58c-.12.03-.23.06-.35.09.94,4.69,1.81,9.39,2.85,14.06.29,1.3.88,3,2.57,2.78,1.87-.24,1.82-2.14,1.71-3.5-.33-3.92-.76-7.84-1.4-11.72-.32-1.91-1.1-3.77-1.9-5.56-.24-.53-1.27-1.03-1.88-.97-.48.04-1.12.9-1.27,1.5-.27,1.06-.23,2.21-.32,3.32Z"/>
  <path class="cls-2" d="m57.12,70.74c.26-.27.29-.35.34-.36q5.59-1.84,7.28,3.74c1.25,4.12,2.53,8.23,4.25,12.28,0-3.17,0-6.35,0-9.52,0-2.37.1-4.74-.03-7.1-.08-1.52.47-2.13,1.93-2.28,1.29-.13,2.56-.46,4.07-.74,0,.86.02,1.5,0,2.15-.32,9.73-.68,19.46-.93,29.19-.04,1.64-.58,2.26-2.19,2.55-4.2.76-4.18.84-5.53-3.09-2.84-8.27-5.69-16.54-8.53-24.81-.23-.68-.45-1.36-.66-2.01Z"/>
  <path class="cls-2" d="m90.94,63.65c.22.32.27.37.29.43q1.46,5.16-3.7,6.15c-.69.13-1.38.29-2.22.47.38,2.49.72,4.81,1.1,7.31,2.06-.33,3.91-.63,5.98-.97.25,1.68.56,3.21.64,4.76.02.37-.71.99-1.2,1.13-1.44.4-2.93.62-4.55.94.37,2.52.71,4.84,1.08,7.38,1.93-.29,3.74-.48,5.51-.85,1.16-.25,1.53.15,1.67,1.23.67,5.14,1.19,3.93-3.41,4.92-2.77.59-5.57,1.06-8.35,1.57-.17.03-.37-.08-.75-.16-1.55-10.48-3.11-21.01-4.72-31.84,4.3-.84,8.46-1.65,12.63-2.46Z"/>
  <path class="cls-2" d="m181.69,55.06c-1.4-.33-2.51-.88-3.54-.75-1.18.15-2.85.62-3.25,1.46-.41.84.14,2.61.88,3.44,1.7,1.9,3.77,3.46,5.67,5.19,2.31,2.11,3.88,4.6,4.2,7.8.51,5.07-2.56,9.07-7.67,9.27-6.56.26-5.99.04-6.37-6.59,1.29.31,2.56.9,3.8.84,1.26-.06,2.89-.41,3.64-1.26,1.06-1.2.31-2.82-.76-3.9-1.72-1.72-3.57-3.3-5.39-4.91-2.38-2.1-4.24-4.5-4.58-7.8-.76-7.37,5.32-10.52,11.69-9.09.35.08.81.55.88.91.33,1.71.54,3.45.83,5.38Z"/>
  <path class="cls-2" d="m290.2,45.28c-1.51-.38-2.77-.95-4.03-.94-.98,0-2.49.51-2.78,1.2-.36.86-.06,2.44.57,3.2,1.45,1.76,3.3,3.2,4.95,4.81,2.22,2.17,4.43,4.34,5.05,7.6.63,3.32.35,6.39-2.55,8.56-3.11,2.33-6.58,1.88-10.01.79-.35-.11-.75-.6-.82-.98-.3-1.67-.49-3.35-.77-5.33,1.37.44,2.45.84,3.56,1.12,1.5.38,3.17.71,4.17-.78,1.04-1.56.17-3.07-.93-4.28-1.05-1.17-2.29-2.17-3.4-3.3-1.61-1.64-3.32-3.21-4.72-5.02-1.74-2.24-2.09-4.96-1.61-7.71.74-4.2,4.9-6.48,10.04-5.69,1.72.26,2.75.95,2.8,2.84.03,1.23.3,2.46.5,3.92Z"/>
  <path class="cls-2" d="m129.6,64.08c-1.42-.27-2.56-.78-3.58-.6-1.17.21-2.79.77-3.18,1.65-.39.87.15,2.64.89,3.43,2.02,2.14,4.41,3.94,6.58,5.95,2.01,1.87,3.07,4.23,3.25,6.98.34,5.25-2.7,8.84-7.94,9.38-4.8.5-5.33.1-6.03-4.56-.08-.56-.13-1.13-.22-1.94,1.02.25,1.82.47,2.63.64,2.59.55,4.58.1,5.13-1.32.81-2.08-.41-3.53-1.82-4.8-1.86-1.67-3.83-3.22-5.67-4.91-2.85-2.61-3.86-5.91-3.2-9.67.84-4.84,6.99-8.28,11.51-6.48.32.13.74.45.8.74.33,1.77.57,3.57.86,5.5Z"/>
  <path class="cls-2" d="m198.88,51.67c-1.46.21-2.62.38-4.02.59,1.29,8.81,2.57,17.49,3.89,26.43-2.02.26-3.87.49-6.06.77-1.32-8.8-2.61-17.48-3.95-26.39-1.33.06-2.6.12-4.09.19-.26-1.81-.5-3.54-.79-5.57,4.76-.56,9.35-1.1,14.16-1.66.3,1.95.56,3.68.86,5.64Z"/>
  <path class="cls-2" d="m52.79,104.49c-1.61-10.84-3.18-21.42-4.78-32.17,2.09-.45,3.99-.86,6.11-1.31.64,4.27,1.24,8.28,1.84,12.3.9,5.99,1.74,11.98,2.71,17.95.24,1.5-.12,2.2-1.66,2.38-1.3.16-2.57.51-4.23.85Z"/>
  <path class="cls-2" d="m244.71,41.46c2.17-.17,4.05-.33,6.19-.5,1.59,10.76,3.16,21.37,4.77,32.2-1.91.17-3.59.41-5.28.39-.39,0-1.04-.85-1.12-1.38-.95-6.03-1.82-12.08-2.7-18.13-.6-4.08-1.2-8.17-1.85-12.59Z"/>
  <path class="cls-2" d="m182.45,88.21c2.25-.67,4.03-.83,5.7,1.07,1.84,2.1,4.04,3.9,6.5,5.69-.36-2.66-.72-5.32-1.1-8.05.53-.13.89-.26,1.27-.3,2.62-.33,2.61-.32,2.97,2.21.57,4.02,1.16,8.03,1.74,12.09-2.3.76-4.09.93-5.67-1.07-1.74-2.2-3.74-4.2-5.63-6.29-.3.18-.6.35-.9.53.24,1.68.46,3.36.72,5.04q.56,3.56-3.45,3.52c-.71-4.76-1.43-9.58-2.16-14.44Z"/>
  <path class="cls-2" d="m177.48,103.67c-2.1.09-4.01,1.53-5.2-1.15-.15-.35-1.01-.61-1.49-.54-1.93.28-4.27-.29-4.94,2.72-.13.59-2.26.74-3.7,1.16,0-.79-.08-1.23.01-1.63.94-4.23,1.87-8.47,2.92-12.68.15-.59.9-1.36,1.45-1.43,1.13-.15,3.01-.32,3.38.27,2.63,4.22,4.96,8.62,7.57,13.29Zm-8.93-8.48c-.18.03-.37.06-.55.09-.2,1.25-.4,2.49-.64,4.01,1.13-.16,1.93-.27,3-.42-.68-1.39-1.25-2.53-1.81-3.67Z"/>
  <path class="cls-2" d="m123.14,111.5c1.1-4.98,2.16-9.78,3.21-14.59.37-1.67,1.85-1.25,2.9-1.4.67-.1,1.79.24,2.09.74,2.44,4.12,4.73,8.33,7.07,12.51-2.34,1.37-3.29,1.21-4.93-.61-.29-.32-.9-.54-1.33-.5-1.11.09-2.22.28-3.3.56-.43.11-.94.5-1.12.89-1.13,2.38-1.15,2.42-4.57,2.39Zm6.59-10.61c-.16,0-.33.01-.49.02-.22,1.3-.44,2.6-.71,4.19,1.12-.2,1.95-.34,3.02-.53-.69-1.41-1.25-2.54-1.81-3.68Z"/>
  <path class="cls-2" d="m149.32,107.37c-.37.11-.61.21-.86.26q-2.85.58-3.27-2.36c-.57-3.96-1.15-7.91-1.77-12.19,2.78-.32,5.31-.8,7.84-.83,2.47-.03,3.93,1.66,4.26,4.33.34,2.73-.65,4.5-3.02,5.29-1.15.39-2.87.37-3.35,1.15-.52.84.11,2.38.22,3.62.02.19-.03.39-.05.75Zm-1.16-11.9c-.14.19-.28.38-.42.56l.97,3.17c.82-.28,1.85-.36,2.4-.91.35-.35.27-1.82-.08-2.04-.8-.5-1.89-.55-2.87-.77Z"/>
  <path class="cls-2" d="m107.14,112.77c.54-.82,1.06-1.63,1.57-2.4,2.65.89,3.08.51,2.68-2.18-.45-3.04-.9-6.08-1.38-9.3,1.3-.26,2.43-.48,3.95-.79.5,4.12,1.15,8.06,1.38,12.02.12,1.98-1.3,3.38-3.28,3.97-1.83.55-3.5.37-4.92-1.32Z"/>
  <path class="cls-2" d="m149.76,46.71c-.36-.68-.55-1.04-.73-1.39-.1.39-.15.79-.3,1.16-.32.83-.69,1.65-1.04,2.47-.19-.04-.37-.07-.56-.11-.37-.78-.74-1.55-1.15-2.42,1.92-1.5,3.71-2.99,6.39-3.43,1.58-.26,2.94-1.92,4.36-3,.22-.17.4-.59.37-.87-.27-2.29-.36-4.54,1.35-6.42,1.19.42,2.56.91,3.94,1.4,0,.17-.02.35-.03.52-1.38.44-2.77.88-4.25,1.35.03-.15-.01-.04,0-.02,2.36,1.96.62,4.41.63,6.61,0,.5-1.77,1.03-2.76,1.49-.92.43-1.88.78-3.09,1.28-.1-.11-.43-.5-.52-.61-.86.66-1.68,1.28-2.64,2Z"/>
  <path class="cls-1" d="m138.45,68.27c.73,2.28,1.46,4.57,2.28,7.11-.93.19-1.72.36-2.72.56v-7.67c.15,0,.29,0,.44,0Z"/>
  <path class="cls-2" d="m147.4,53.89c.22.32.27.37.29.43q1.46,5.16-3.7,6.15c-.69.13-1.38.29-2.22.47.38,2.49.72,4.81,1.1,7.31,2.06-.33,3.91-.63,5.98-.97.25,1.68.56,3.21.64,4.76.02.37-.71.99-1.2,1.13-1.44.4-2.93.62-4.55.94.37,2.52.71,4.84,1.08,7.38,1.93-.29,3.74-.48,5.51-.85,1.16-.25,1.53.15,1.67,1.23.67,5.14,1.19,3.93-3.41,4.92-2.77.59-5.57,1.06-8.35,1.57-.17.03-.37-.08-.75-.16-1.55-10.48-3.11-21.01-4.72-31.84,4.3-.84,8.46-1.65,12.63-2.46Z"/>
</svg>