<?xml version="1.0" encoding="UTF-8"?>
<svg id="_レイヤー_1" data-name="レイヤー 1" xmlns="http://www.w3.org/2000/svg" viewBox="0 0 100 100">
  <defs>
    <style>
      .cls-1 {
        fill: none;
      }

      .cls-1, .cls-2, .cls-3, .cls-4 {
        stroke-width: 0px;
      }

      .cls-2 {
        fill: #2869d2;
      }

      .cls-3 {
        fill: #9ab2dc;
      }

      .cls-4 {
        fill: #fff;
      }
    </style>
  </defs>
  <polyline class="cls-4" points="100.03 -.01 100.03 99.99 .03 99.99"/>
  <polyline class="cls-3" points=".25 99.96 .25 -.04 100.25 -.04"/>
  <line class="cls-1" x1="55.11" y1="78.79" x2="72.53" y2="63.74"/>
  <line class="cls-1" x1="55.11" y1="78.79" x2="70.81" y2="91.91"/>
  <line class="cls-1" x1="55.11" y1="78.79" x2="74.03" y2="65.03"/>
  <line class="cls-1" x1="74.03" y1="65.03" x2="92.96" y2="51.27"/>
  <path class="cls-2" d="m80.31,58.92l-16.76,13.57c-.72.58-.61,1.92.24,2.99h0c.85,1.07,2.12,1.47,2.84.89l16.76-13.57c.72-.58.61-1.92-.24-2.99h0c-.85-1.07-2.12-1.47-2.84-.89Z"/>
  <path class="cls-2" d="m63.58,75.2l14.77,15.71c.63.67,1.96.47,2.97-.46h0c1.01-.93,1.31-2.23.67-2.9l-14.77-15.71c-.63-.67-1.96-.47-2.97.46h0c-1.01.93-1.31,2.23-.67,2.9Z"/>
</svg>