<?xml version="1.0" encoding="UTF-8"?>
<svg id="_レイヤー_1" data-name="レイヤー 1" xmlns="http://www.w3.org/2000/svg" viewBox="0 0 90 90">
  <defs>
    <style>
      .cls-1 {
        fill: #233a82;
      }

      .cls-1, .cls-2 {
        stroke-width: 0px;
      }

      .cls-2 {
        fill: #fff;
      }
    </style>
  </defs>
  <circle class="cls-2" cx="45.33" cy="44.92" r="43.5"/>
  <g>
    <path class="cls-1" d="m29,41.99c.02-8.2,6.85-15.56,14.85-16.01,9.01-.51,16.27,5.36,17.45,13.95.68,4.94-.6,9.24-3.91,12.89-3.35,3.7-6.84,7.28-10.22,10.95-1.29,1.4-2.46,1.47-3.78.06-3.57-3.84-7.22-7.6-10.75-11.48-2.64-2.91-3.52-6.53-3.65-10.36Zm16.26-14.14c-7.88-.02-14.38,6.31-14.48,14.09-.1,7.94,6.35,14.51,14.28,14.55,8.04.04,14.66-6.42,14.59-14.23-.08-8.11-6.36-14.4-14.39-14.42Z"/>
    <path class="cls-2" d="m45.27,27.84c8.03.02,14.31,6.3,14.39,14.42.08,7.8-6.55,14.27-14.59,14.23-7.93-.04-14.38-6.61-14.28-14.55.1-7.78,6.6-14.11,14.48-14.09Zm8.34,5.52c-.96.4-1.39.48-1.69.73-2.67,2.23-5.47,2.41-8.44.65-.14-.08-.31-.13-.47-.17-2.8-.7-6.06,1.75-6.06,4.57,0,3.15.02,6.31,0,9.46-.01,1.44.54,2.23,1.92,1.35,2.51-1.61,4.85-.91,7.3.08.83.33,1.98.47,2.77.16,3.19-1.26,5.61-3.1,4.72-7.19-.3-1.35-.05-2.81-.05-4.22v-5.42Z"/>
    <path class="cls-1" d="m53.61,33.37v5.42c0,1.41-.25,2.88.05,4.22.9,4.09-1.53,5.93-4.72,7.19-.79.31-1.94.17-2.77-.16-2.46-.99-4.79-1.69-7.3-.08-1.38.88-1.93.09-1.92-1.35.02-3.15,0-6.31,0-9.46,0-2.82,3.26-5.27,6.06-4.57.16.04.33.09.47.17,2.97,1.76,5.77,1.59,8.44-.65.29-.25.73-.32,1.69-.73Zm-11.79,2.19c0,3.81-.04,7.09.04,10.37.01.43.51,1.05.93,1.23,1.55.69,3.16,1.24,5.07,1.95,0-3.72.04-7.02-.05-10.31-.01-.5-.56-1.2-1.04-1.42-1.4-.64-2.9-1.09-4.95-1.83Z"/>
    <path class="cls-2" d="m41.81,35.55c2.05.74,3.54,1.18,4.95,1.83.48.22,1.03.93,1.04,1.42.09,3.29.05,6.59.05,10.31-1.9-.72-3.52-1.26-5.07-1.95-.42-.19-.92-.8-.93-1.23-.08-3.28-.04-6.56-.04-10.37Z"/>
  </g>
</svg>