<?xml version="1.0" encoding="utf-8"?>
<!-- Generator: Adobe Illustrator 28.0.0, SVG Export Plug-In . SVG Version: 6.00 Build 0)  -->
<svg version="1.1" id="_レイヤー_1" xmlns="http://www.w3.org/2000/svg" xmlns:xlink="http://www.w3.org/1999/xlink" x="0px"
	 y="0px" viewBox="0 0 50 50" style="enable-background:new 0 0 50 50;" xml:space="preserve">
<style type="text/css">
	.st0{fill:#FFFFFF;}
</style>
<g>
	<path class="st0" d="M43.6,47.7L24.1,28.6c-1-1-1-2.6,0-3.5l0,0c1-1,2.6-1,3.5,0L47,44.2c1,1,1,2.6,0,3.5l0,0
		C46.1,48.6,44.6,48.6,43.6,47.7z"/>
	<path class="st0" d="M4.4,44.4l19.4-19.1c1-1,2.6-1,3.5,0l0,0c1,1,1,2.6,0,3.5L7.9,48c-1,1-2.6,1-3.5,0l0,0
		C3.4,47,3.4,45.4,4.4,44.4z"/>
</g>
<g>
	<path class="st0" d="M43.1,25.3L23.7,6.2c-1-1-1-2.6,0-3.5l0,0c1-1,2.6-1,3.5,0l19.4,19.1c1,1,1,2.6,0,3.5l0,0
		C45.7,26.3,44.1,26.3,43.1,25.3z"/>
	<path class="st0" d="M4,22.1L23.3,2.9c1-1,2.6-1,3.5,0l0,0c1,1,1,2.6,0,3.5L7.5,25.6c-1,1-2.6,1-3.5,0l0,0C3,24.6,3,23.1,4,22.1z"
		/>
</g>
</svg>
