<?xml version="1.0" encoding="utf-8"?>
<!-- Generator: Adobe Illustrator 27.1.1, SVG Export Plug-In . SVG Version: 6.00 Build 0)  -->
<svg version="1.1" id="レイヤー_1" xmlns="http://www.w3.org/2000/svg" xmlns:xlink="http://www.w3.org/1999/xlink" x="0px"
	 y="0px" viewBox="0 0 1366 768" style="enable-background:new 0 0 1366 768;" xml:space="preserve">
<style type="text/css">
	.st0{fill:#42210B;}
	.st1{fill:#754C24;}
	.st2{fill:#FFFFFF;}
	.st3{fill:#603813;stroke:#754C24;stroke-width:3;stroke-miterlimit:10;}
	.st4{fill:none;stroke:#754C24;stroke-width:2;stroke-miterlimit:10;}
	.st5{fill:none;stroke:#754C24;stroke-width:3;stroke-miterlimit:10;}
</style>
<g>
	<path class="st0" d="M568.8,651.5c-70,0-135.7-27.2-185.2-76.7s-76.7-115.2-76.7-185.2s27.2-135.7,76.7-185.2
		s115.2-76.7,185.2-76.7s135.7,27.2,185.2,76.7s76.7,115.2,76.7,185.2S803.5,525.3,754,574.8S638.8,651.5,568.8,651.5z"/>
	<path class="st1" d="M568.8,130.2c35,0,69,6.9,101,20.4c30.9,13.1,58.6,31.8,82.5,55.6s42.5,51.6,55.6,82.5
		c13.5,32,20.4,66,20.4,101s-6.9,69-20.4,101c-13.1,30.9-31.8,58.6-55.6,82.5c-23.8,23.8-51.6,42.5-82.5,55.6
		c-32,13.5-66,20.4-101,20.4s-69-6.9-101-20.4c-30.9-13.1-58.6-31.8-82.5-55.6c-23.8-23.8-42.5-51.6-55.6-82.5
		c-13.5-32-20.4-66-20.4-101s6.9-69,20.4-101c13.1-30.9,31.8-58.6,55.6-82.5c23.8-23.8,51.6-42.5,82.5-55.6
		C499.9,137,533.8,130.2,568.8,130.2 M568.8,125.2c-146,0-264.4,118.4-264.4,264.4S422.8,654,568.8,654s264.4-118.4,264.4-264.4
		S714.9,125.2,568.8,125.2L568.8,125.2z"/>
</g>
<g>
	<path class="st2" d="M568,630.7c-64.4,0-124.9-25.1-170.4-70.6c-45.5-45.5-70.6-106-70.6-170.4c0-64.4,25.1-124.9,70.6-170.4
		c45.5-45.5,106-70.6,170.4-70.6s124.9,25.1,170.4,70.6c45.5,45.5,70.6,106,70.6,170.4c0,64.4-25.1,124.9-70.6,170.4
		C692.9,605.6,632.4,630.7,568,630.7z"/>
	<path class="st1" d="M568,151.2c32.2,0,63.4,6.3,92.8,18.7c28.4,12,53.9,29.2,75.8,51.1c21.9,21.9,39.1,47.4,51.1,75.8
		c12.4,29.4,18.7,60.6,18.7,92.8s-6.3,63.4-18.7,92.8c-12,28.4-29.2,53.9-51.1,75.8c-21.9,21.9-47.4,39.1-75.8,51.1
		c-29.4,12.4-60.6,18.7-92.8,18.7s-63.4-6.3-92.8-18.7c-28.4-12-53.9-29.2-75.8-51.1c-21.9-21.9-39.1-47.4-51.1-75.8
		c-12.4-29.4-18.7-60.6-18.7-92.8s6.3-63.4,18.7-92.8c12-28.4,29.2-53.9,51.1-75.8c21.9-21.9,47.4-39.1,75.8-51.1
		C504.6,157.5,535.8,151.2,568,151.2 M568,146.2c-134.5,0-243.5,109-243.5,243.5s109,243.5,243.5,243.5s243.5-109,243.5-243.5
		S702.5,146.2,568,146.2L568,146.2z"/>
</g>
<g>
	<g>
		<path class="st0" d="M415.4,246.3c0.4,0.4,0.4,0.8-0.2,1.4c-0.6,0.6-1.4,0.6-2.6,0.1c-0.7-0.4-1.4-0.8-2.2-1.2
			c-1.6-0.6-3.2-0.9-4.9-0.7c-2.2,0.2-4.7,1.4-7.4,3.7c-1.7,1.5-3.1,2.8-3.9,3.8c-2.2,2.5-3.5,4.1-4,4.7
			c11.4,6.6,22.2,14.3,32.2,22.9c1.2,1,2.3,1.3,3.4,0.7c0.6-0.3,1.8-1.3,3.7-3.2c0.5-0.5,0.9-0.6,1.1-0.3c0.3,0.3,0.1,0.7-0.6,1.4
			c-0.3,0.3-0.6,0.6-0.9,0.8c-2.5,2.4-4.1,4.1-5.1,5.2c-1.3,1.4-2.4,2.7-3.5,4c-1,1.3-2.4,2.9-4,4.8c-0.8,1-1.4,1.4-1.7,1.2
			c-0.3-0.2,0.3-1.3,1.8-3.2c1.1-1.3,1.7-2.4,1.6-3.1c-0.1-0.4-0.7-1.1-1.8-2c-10.3-7.9-21.3-15-33-20.9c-4.4,5.5-6.8,9.2-7.5,10.7
			c-1.7,4-0.7,7.1,2.9,9.4c1.1,0.7,1.4,1.3,1,1.9c-0.5,0.7-1.1,0.8-2,0.5c-0.4-0.2-0.9-0.4-1.3-0.6c-0.4-0.2-0.9-0.5-1.3-0.7
			c-1.7-0.9-4-2.1-6.9-3.6c0.9-1.3,1.8-2.6,2.8-3.9c4.3-5.9,8.8-11.7,13.6-17.4c1.7-2,4.3-5.1,7.9-9.2c4-4.5,8.1-8.9,12.3-13.2
			c2.1,1.4,5.3,3.3,9.6,5.9c0.1,0.1,0.3,0.2,0.5,0.2C415.3,246.3,415.4,246.3,415.4,246.3z"/>
		<path class="st0" d="M479.3,229.3c0.1,0.2,0.6,1.2,1.4,3.1c0.8,1.9,1.7,3.7,2.5,5.4c0.3,0.7,0.7,1.4,1,2.1
			c-5,2.4-14.9,7.4-28.2,17.3c-1.6,1.2-3.2,2.4-4.7,3.6c-1.5,1.2-2.5,2-3.1,2.5c-0.2,0.2-0.4,0.4-0.7,0.5c-0.8,0.7-1.4,0.9-1.6,0.6
			c-0.2-0.2-0.1-0.4,0.1-0.7c0.1-0.1,0.9-0.9,2.4-2.2c1.1-1,1.7-1.8,1.7-2.3c0-0.5-0.5-1.4-1.6-2.8c-7.9-9.9-16.3-19.2-25.4-28
			c-0.9-0.9-1.7-1.2-2.4-1c-0.6,0.2-2.2,1.4-4.7,3.7c-0.9,0.8-1.4,1-1.7,0.8c-0.3-0.2,0.2-0.9,1.4-2c4.6-4.2,9.4-8.2,14.3-12
			c0.5-0.4,3.7-3,9.9-7.4c6.2-4.4,10.5-7.1,12.7-8.5c1.8-1.2,3.5-2.3,5-3.3c1.2,1.6,3,3.7,5.2,6.4c0.6,0.8,1.3,1.5,1.9,2.3
			c0.2,0.2,0.4,0.4,0.6,0.7c0.2,0.4,0.1,0.7-0.4,1c-0.7,0.4-1.4,0.2-2.3-0.7c-3.3-2.9-6.7-3.9-9.9-3.2c-2.4,0.6-7.8,3.4-15.7,9.2
			c-2.4,1.8-4.7,3.5-7.1,5.4c4.5,4.8,8.9,9.8,13.1,14.9c0.6-0.5,1.3-0.9,1.9-1.4c5.9-4.3,9.4-7.1,10.3-8.6c0.9-1.5,0.6-4-1.1-7.4
			c-0.4-0.9-0.4-1.5,0.1-1.8c0.6-0.4,1.2-0.3,1.6,0.4c0.5,0.7,1.1,1.7,1.9,3.1c0.8,1.4,1.4,2.4,1.8,3.1c2.7,4.1,4.6,6.9,5.7,8.3
			c0.3,0.4,0.5,0.7,0.7,1c0.3,0.5,0.2,0.9-0.4,1.3c-0.4,0.2-0.7,0.2-1.1,0c-0.3-0.2-1.2-1.2-2.7-2.8c-1.9-2-4.1-2.5-6.7-1.6
			c-1.1,0.4-3.7,2-7.7,4.9c-1.2,0.9-2.3,1.7-3.5,2.6c4.8,5.8,9.3,11.8,13.7,18c10.3-7.4,16.7-11.1,18.4-12.6c3-2.5,3.5-6.1,1.6-10.9
			c-0.4-1.1-0.4-1.8,0.2-2.1C478.3,228.1,478.8,228.4,479.3,229.3z"/>
		<path class="st0" d="M540.7,194.9c1.4,8.4-1.4,15.4-7.5,21.5c-4.4,4.5-10.6,7.7-18.7,10.3c-0.2,0.1-1.2,0.4-2.9,0.9
			c-1.7,0.6-4.1,1.4-7.3,2.6c-1.3,0.5-2.6,1-3.9,1.6c-2.1,0.9-4.1,1.7-6.2,2.7c-0.4,0.2-0.8,0.3-1.2,0.5c-1,0.5-1.6,0.5-1.7,0
			c-0.2-0.4,0.6-1,2.2-1.7c2.1-1,3.3-1.9,3.6-2.7c0.1-0.4-0.1-1.3-0.7-2.6c-4.8-11.7-9.9-23.3-15.4-34.6c-1-2.1-1.8-3.1-2.5-3.2
			c-0.6-0.1-2.4,0.5-5.2,1.9c-1.5,0.7-2.3,0.9-2.6,0.4c-0.2-0.3,0.3-0.8,1.4-1.3c-0.1,0,0.6-0.3,2.1-1.1c1.5-0.7,3-1.4,4.4-2.1
			c3.5-1.6,7-3.2,10.6-4.6c12-4.9,21-6.8,26.4-7c6.6-0.3,12.4,1.4,17,4.9C537.2,184.8,539.8,189.4,540.7,194.9z M530.2,196.5
			c-1.7-7.8-5.1-13.1-10.4-15.6c-5.3-2.5-12.9-2.4-22.1,1c-4.5,1.6-7,3-7.7,4c-0.3,0.5,0,1.6,0.8,3.4c4.9,11.5,9.5,23.3,13.7,35.1
			c0.4,1.3,0.8,2,0.9,2.2c0.2,0.2,0.5,0.4,0.9,0.4c1.5,0.1,4.3-0.7,8.4-2c5.9-1.9,10.2-4.8,13.1-9.3
			C531,211,531.9,204.6,530.2,196.5z"/>
		<path class="st0" d="M614,197.9c-1.5,8.3-6.4,13.8-14.1,17.3c-5.6,2.6-12.5,3.4-21.1,2.9c-0.2,0-1.2-0.1-3-0.1
			c-1.8-0.1-4.4-0.1-7.8-0.1c-1.4,0-2.8,0-4.2,0.1c-2.2,0.1-4.5,0.2-6.7,0.3c-0.4,0-0.8,0.1-1.3,0.1c-1.1,0.1-1.6-0.1-1.7-0.6
			c0-0.4,0.8-0.7,2.7-0.9c2.3-0.2,3.7-0.6,4.3-1.3c0.2-0.3,0.3-1.3,0.2-2.8c-0.8-13-1.7-26-2.8-39c-0.2-2.4-0.6-3.7-1.1-4.1
			c-0.6-0.4-2.4-0.4-5.5-0.2c-1.6,0.1-2.5,0-2.5-0.6c0-0.4,0.5-0.6,1.7-0.7c-0.1,0,0.7-0.1,2.3-0.2c1.6-0.1,3.2-0.2,4.8-0.3
			c3.8-0.2,7.6-0.3,11.4-0.3c12.8,0,21.9,1.8,27.1,3.7c6.3,2.3,11.1,6.1,14.2,11.1C614.1,187.3,615,192.5,614,197.9z M603.5,195.5
			c1-7.9-0.3-14.2-4.5-18.6c-4.1-4.4-11.2-7.2-21-7.6c-4.8-0.2-7.6,0.2-8.6,0.8c-0.4,0.3-0.6,1.5-0.5,3.5
			c0.5,12.9,0.8,25.8,1.1,38.7c0,1.4,0.1,2.2,0.2,2.5c0.1,0.3,0.3,0.5,0.7,0.7c1.4,0.6,4.3,0.9,8.6,1.1c6.1,0.3,11.2-0.9,15.4-4
			C599.5,209.4,602.4,203.7,603.5,195.5z"/>
		<path class="st0" d="M690.7,205.4c-0.2,0.3-0.8,0.1-1.9-0.6c-3.5-2.2-5.9-3.1-7.2-2.9c-1,0-5.7,1.7-13.5,5.9
			c-3.4,1.9-6.5,3.5-9.2,5c-1.9,1-3,1.8-3.4,2.2c-0.4,0.5-1,1.7-1.8,3.6c-1.7,4.1-3.3,8.2-4.9,12.3c-0.6,1.4-0.7,2.4-0.3,2.9
			c0.4,0.5,1.9,1.4,4.5,2.9c1.4,0.8,2,1.4,1.9,1.7c-0.1,0.3-0.6,0.3-1.3-0.1c-0.3-0.2-0.6-0.3-0.9-0.5c-3.7-1.9-7.4-3.7-11.1-5.3
			c-3.2-1.3-5.8-2.3-7.9-3c-0.3-0.1-0.7-0.2-1.2-0.4c-0.8-0.3-1.1-0.6-1-1.1c0.1-0.4,0.8-0.4,2.1,0c3,1,4.9,1.5,5.6,1.4
			c0.7-0.1,1.3-1.1,1.9-2.8c1.6-4.7,3.2-9.3,4.9-13.9c-0.3-1.2-1-4.5-2.6-9.9c-1.6-5.6-3.5-11.3-5.6-16.9c-0.6-1.7-1.4-3.6-2.4-5.7
			c-0.6-0.7-2.2-1.5-4.7-2.2c-2.5-0.8-3.7-1.4-3.6-1.9c0.1-0.4,0.7-0.4,1.8-0.1c1.5,0.4,4.4,1.3,8.7,2.9c2.5,0.9,4.3,1.6,5.4,2
			c4,1.4,8,3,11.9,4.7c0.5,0.1,1.1,0.3,1.7,0.6c1.2,0.5,1.7,1,1.6,1.5c-0.2,0.4-1.4,0.1-3.7-0.9c-4.2-1.8-6.5-2.1-6.8-1.1
			c-0.3,0.8,0.9,4.7,3,11.7c1.5,5,2.9,10.1,4.2,15c2.3-1.2,5-2.8,8.2-4.6c2.9-1.6,5.9-3.1,9-4.5c3.4-1.5,5.3-2.6,5.8-3.4
			c0.3-0.5-0.1-1.1-1.2-1.8c-2.2-1.5-3.7-2.4-4.5-2.8c-1.5-0.7-2.1-1.3-1.9-1.8c0.2-0.3,0.9-0.2,2.1,0.5c1.9,1,3.8,2.1,5.7,3.1
			c1.1,0.6,2.2,1.2,3.2,1.9C687.9,202.6,691,204.9,690.7,205.4z"/>
		<path class="st0" d="M710.5,225.9c-2.1,2.5-5.2,3-9.4,1.6c-2.9-0.9-5.1-1.9-6.7-3c-0.6-0.4-0.9-0.8-0.7-1.1
			c0.2-0.3,0.7-0.2,1.4,0.2c3,1.4,5.3,2.2,6.8,2.4c1.5,0.1,2.7-0.4,3.7-1.6c0.7-0.9,1-2,0.7-3.3c-0.9,1.2-2.6,0.8-5.2-1.1
			c-1.3-1-2.2-2-2.7-3.1c-0.5-1.1-0.5-2.1,0-2.9c0.6-0.9,1.8-1.3,3.3-1.1c1.6,0.2,3.2,0.9,4.9,2.1c2.3,1.7,3.8,3.6,4.4,5.6
			C711.9,222.9,711.7,224.5,710.5,225.9z"/>
		<path class="st0" d="M737.1,289.7c-3,2.1-6.9,2.3-11.6,0.9c-4.7-1.4-8.9-4-12.8-7.9c-2.3-2.3-4.6-5.5-6.9-9.7
			c-0.6-1.1-1.2-1.9-1.6-2.3c-0.5-0.5-1.3-0.3-2.2,0.4c-0.5,0.4-1,0.4-1.5-0.1c-0.5-0.4-0.5-0.8-0.2-1.2c0.2-0.3,0.4-0.4,0.6-0.5
			c2.1-1.7,4-3.4,5.5-5.1c0.3-0.3,1.1-1.3,2.3-2.8c0.1-0.2,0.3-0.5,0.6-0.8c0.4-0.5,1-0.5,1.5,0.1c0.5,0.4,0.5,1.1-0.1,2.1
			c-4.1,6.9-2.9,13.2,3.2,19.3c2.6,2.6,5.1,4.2,7.7,4.8c2.5,0.6,4.9,0,7-1.6c1.9-1.5,2.8-3.5,2.7-6.1c-0.1-2.6-1.3-6.4-3.7-11.4
			c-2.9-5.9-4.8-10.4-5.3-13.5c-0.5-3.1,0.2-5.7,2.3-7.6c2.6-2.5,6.2-3.2,10.9-1.8c4.7,1.3,9.3,4.4,13.6,9.2c1.8,2,3.8,5,6,9
			c0.8,1.4,1.4,2.4,1.9,3c0.5,0.6,1,1,1.3,1.2c0.3,0.1,0.9,0.1,1.6-0.1c0.5-0.1,0.9,0.1,1.4,0.7c0.5,0.6,0.5,1,0.1,1.3
			c-0.3,0.2-0.5,0.3-0.7,0.3c-1,0.3-2.2,0.8-3.4,1.6c-1.8,1-3,2-3.8,2.9c-0.3,0.2-0.5,0.4-0.8,0.6c-0.4,0.3-0.8,0.2-1.2-0.4
			c-0.5-0.6-0.4-1.3,0.2-2c1.6-2,2.2-4.5,1.6-7.8c-0.6-3.3-2.2-6.4-4.9-9.3c-2.6-2.9-5.3-4.7-7.9-5.4c-2.6-0.8-4.9-0.3-6.7,1.2
			c-2.1,1.8-2.6,4.4-1.8,7.6c0.5,1.8,2,5.3,4.5,10.5c2.8,6.1,4.1,10.8,4.2,14C740.4,285.8,739.3,288.2,737.1,289.7z"/>
	</g>
</g>
<g>
	<g>
		<path class="st0" d="M508.5,586.1c0,0-0.2,0.6-0.8,1.8c-1.1,2.5-2,5.1-2.8,7.7c-0.1,0.3-0.2,0.9-0.4,1.8c-0.2,0.9-0.4,2-0.8,3.2
			c-0.1,0.2-0.1,0.4-0.2,0.6c-0.2,0.6-0.5,0.8-1,0.7c-0.5-0.2-0.8-0.7-1-1.5c-0.3-1.9-0.9-3.2-1.6-3.9c-5.4,1.4-11.3,0.9-17.5-1.7
			c-9-3.8-15.2-9.8-18.2-17.3c-3-7.5-2.2-14.5,1.8-21c4-6.6,9.5-10.5,16-12.5c6.5-1.9,12.8-1.4,19.3,1.4c2.4,1,4.2,2,5.5,3
			c1.3,1,2.8,2.4,4.5,4.4c0.9,1,1.6,1.6,2.1,1.7c0.4,0.2,1-0.1,1.6-0.7c1.1-1.1,1.8-1.6,2.2-1.5c0.4,0.1,0.5,0.4,0.4,0.7
			c-0.1,0.2-0.2,0.5-0.4,0.9c-1.3,2.1-2.9,6.2-4.9,12.3c-0.3,0.9-0.5,1.4-0.7,1.5c-0.2,0.1-0.4,0.1-0.7,0c-0.5-0.2-0.7-0.7-0.6-1.7
			c0.6-3.9,0.6-7,0-9.3c-1.1-4.6-4.1-7.7-9-9.9c-3.8-1.7-7.3-1.9-10.7-0.6c-6.1,2.2-11.6,7.2-16,15.2c-3.9,7.2-5.1,13.8-3.1,19.9
			c1.7,5.3,5.7,9.4,11.9,12c3.1,1.3,6.3,1.9,9.4,1.7c3.1-0.2,5.7-1.2,7.8-2.8c2.1-1.6,4.1-3.8,5.8-6.6c0.7-1,1.2-1.5,1.7-1.3
			C508.6,584.9,508.7,585.4,508.5,586.1z"/>
		<path class="st0" d="M577.5,611.7c0,0.4-0.5,0.6-1.4,0.7c-0.6,0-1.2,0-1.7,0c-4.1-0.1-8.2-0.2-12.3-0.5c-4.1-0.1-8.2-0.3-12.3-0.6
			c-0.5,0-0.9,0-1.5-0.1c-1.3-0.1-1.9-0.5-1.8-1c0.1-0.6,1-0.7,2.7-0.6c5.6,0.5,8.5,0.2,8.5-0.6c0,0-0.1-0.2-0.2-0.6
			c-0.2-0.7-0.4-1.3-0.6-2c-0.1-0.4-0.3-0.7-0.4-1.1c-0.5-1.6-1.6-5-3.2-10.4c-6.4-0.6-12.8-1.4-19.1-2.6c-5,7.1-7.9,11.1-8.1,12.2
			c-0.1,0.7,0.2,1.2,0.9,1.5c0.2,0.1,1.7,0.5,4.7,1.2c1.8,0.4,2.7,0.8,2.6,1.2c-0.1,0.5-1,0.6-2.6,0.3c-2.9-0.5-6.3-1.3-10.2-2.4
			c-0.9-0.3-1.9-0.5-2.9-0.8c-1-0.2-2-0.4-3-0.5c-0.5,0-0.9-0.1-1.3-0.2c-0.9-0.2-1.3-0.6-1.2-1c0.1-0.4,1.2-0.4,3.2,0.1
			c2,0.5,3.5,0.6,4.5,0.4c1-0.2,1.8-0.8,2.6-1.9c11.9-15.9,19.8-29.5,25.3-39.8c0.2-0.6,0.5-1.2,1-1.8c0.2-0.4,0.3-0.9,0.5-1.3
			c0.2-0.5,0.4-0.8,0.7-0.7c0.1,0,0.3,0.2,0.3,0.5c0.4,2,1.4,6.1,3.3,12.4c1.5,4.9,5,17.3,13.7,36.6c0.5,1.1,1.1,1.8,1.9,2.1
			c0.8,0.3,2.5,0.5,5,0.5C576.7,611.1,577.5,611.3,577.5,611.7z M552.8,593.3c-0.8-2.3-2-6.1-3.5-11.4c-1-3.5-1.9-7.1-2.7-10.6
			c-2.9,5.1-6.7,11.6-11.7,19.6C540.8,591.9,546.8,592.7,552.8,593.3z"/>
		<path class="st0" d="M622.6,566.5c0.2,0.7,0,1.1-0.5,1.2c-0.5,0.1-1.1-0.4-1.6-1.5c-1.5-3.3-3.5-5.5-5.7-6.6
			c-1.5-0.7-3.4-0.9-6-0.6c-0.9,0.1-2.9,0.5-6,1c-2.3,0.4-5,0.9-8.2,1.5c0.9,7.2,1.8,14.3,2.7,21.5c7.2-0.9,11.6-2.2,13.1-3.4
			c1.5-1.2,2-3.8,1.5-7.7c-0.1-1.1,0.1-1.7,0.6-1.9c0.5-0.1,0.9,0.2,1,0.9c0.1,0.4,0.1,0.8,0.2,1.1c0.6,3.3,1.2,6.4,1.8,9.3
			c0.8,3.6,1.5,6.5,2.2,8.6c0.1,0.2,0.2,0.5,0.3,0.8c0.1,0.6-0.1,0.9-0.7,1.1c-0.5,0.1-0.8,0-1-0.2c-0.2-0.3-0.6-1.3-1.3-3.2
			c-1.1-2.8-2.4-4.5-3.8-4.9c-1.5-0.5-4.2-0.3-8.1,0.3c-2.1,0.3-3.9,0.6-5.5,0.9c0.3,2.5,0.6,5,1,7.4c0.6,4.8,1.2,9.5,1.8,14.3
			c0.2,1.4,1,2.2,2.5,2.4c0.7,0.1,2.3,0,4.7-0.5c1-0.2,1.5-0.1,1.6,0.3c0.1,0.4-0.5,0.8-1.8,1c-0.3,0.1-0.6,0.1-1,0.1
			c-0.9,0.1-2.1,0.3-3.7,0.5c-1.5,0.2-2.5,0.3-3,0.4c-4.8,0.6-9.6,1-14.4,1.3c-1.2,0.1-1.9-0.1-1.9-0.5c0-0.4,1.1-0.7,3.3-0.9
			c2.2-0.2,3.5-0.6,3.8-1c0.4-0.4,0.4-1.6,0.3-3.5c-1.2-14.1-2.4-28.1-3.6-42.2c-0.1-0.9-0.4-1.4-0.9-1.6c-0.5-0.2-1.8-0.2-4-0.1
			c-0.8,0-1.2-0.2-1.3-0.7c0-0.4,0.4-0.7,1.3-0.7c0.4,0,0.8,0,1.2-0.1c-0.1,0,2.3-0.1,7.2-0.6c4.9-0.5,8.9-1.2,12.1-1.7
			c8.4-1.5,13.4-3.1,15.2-3.8c0.2,0.6,0.8,2.3,1.9,5.2c0.7,1.9,1.4,3.7,2.1,5.2C622.3,565.5,622.5,566,622.6,566.5z"/>
		<path class="st0" d="M685,568.5c0.1,0.2,0.7,1.2,1.7,3.2c1,2,2.1,3.8,3.1,5.5c0.4,0.7,0.8,1.4,1.3,2.1c-5.8,3.1-17,9.8-34.8,16.9
			c-2.1,0.9-4.3,1.7-6.4,2.4c-2.1,0.8-3.5,1.2-4.3,1.5c-0.3,0.1-0.6,0.2-0.9,0.3c-1.2,0.4-1.8,0.4-2,0c-0.1-0.3,0.1-0.5,0.4-0.6
			c0.2-0.1,1.3-0.5,3.5-1.4c1.6-0.7,2.4-1.3,2.6-1.8c0.2-0.5,0-1.7-0.7-3.4c-4.8-13-9.5-26-14.3-39c-0.5-1.3-1-2.1-1.5-2.2
			c-0.5-0.1-1.9,0.2-4.1,1c-0.8,0.3-1.2,0.2-1.4-0.2c-0.1-0.4,0.3-0.8,1.4-1.1c4.1-1.4,8.2-2.9,12.2-4.7c0.4-0.2,3.1-1.3,7.9-3.6
			c4.8-2.3,8-4.1,9.6-5c1.4-0.8,2.5-1.6,3.6-2.4c1.2,1.8,2.9,4.2,5.1,7.2c0.6,0.8,1.3,1.7,1.9,2.5c0.2,0.2,0.4,0.4,0.6,0.8
			c0.3,0.4,0.2,0.8-0.3,1c-0.5,0.3-1.2,0-2.1-0.9c-3.2-3.3-6-4.9-8.5-4.9c-1.9,0-6,1.8-12.3,4.7c-1.9,0.9-3.9,1.7-5.8,2.5
			c2.8,6.7,5.5,13.3,8.3,20c0.6-0.3,1.3-0.5,1.9-0.8c6-2.6,9.3-4.8,10.2-6.1c0.9-1.4,0.6-4-0.8-7.8c-0.4-1-0.3-1.6,0.1-1.8
			c0.5-0.3,1,0,1.4,0.7c0.4,0.8,1,2,1.7,3.5c0.7,1.6,1.3,2.7,1.7,3.5c2.5,4.6,4.2,7.8,5.3,9.4c0.3,0.4,0.5,0.8,0.7,1.1
			c0.3,0.6,0.1,1-0.5,1.3c-0.4,0.2-0.7,0.2-1.1-0.1c-0.3-0.3-1.2-1.4-2.6-3.3c-1.8-2.4-3.9-3.3-6.3-2.8c-1.1,0.2-3.6,1.3-7.6,3.1
			c-1.2,0.5-2.4,1-3.6,1.5c3.2,7.6,6.3,15.2,9.5,22.8c13.3-5.6,20.6-10.1,22.6-11.7c3.5-2.8,4-6.7,1.7-11.7
			c-0.5-1.1-0.5-1.8,0.1-2.2C683.9,567.4,684.4,567.6,685,568.5z"/>
	</g>
</g>
<g>
	<path class="st2" d="M563.5,516.7c-13.8,0-27.6-1.3-41.2-3.8c-13-2.4-25.1-8.7-35.1-18.3c-8.7-8.4-14.9-19.3-17.9-31.6l-17.7-73.3
		h223.6l-18.7,74.4c-2.9,11.6-8.8,22-16.9,30.1c-9.9,9.8-22,16.3-35.1,18.7C591.1,515.4,577.3,516.7,563.5,516.7
		C563.5,516.7,563.5,516.7,563.5,516.7z"/>
	<path class="st1" d="M673.4,391.2l-18.2,72.5c-2.8,11.3-8.6,21.5-16.5,29.4c-9.6,9.6-21.5,15.9-34.3,18.3
		c-13.5,2.5-27.2,3.8-40.8,3.8c-13.7,0-27.4-1.3-40.9-3.8c-12.7-2.4-24.6-8.6-34.3-17.9c-8.5-8.2-14.6-18.9-17.4-30.8l-17.2-71.5
		H673.4 M677.2,388.2H449.8l18.1,75.2c3,12.5,9.4,23.7,18.3,32.3l0,0c10.1,9.7,22.5,16.2,35.9,18.7c13.7,2.6,27.6,3.8,41.5,3.8
		c13.8,0,27.7-1.3,41.4-3.8c13.4-2.5,25.8-9.1,35.9-19.1v0c8.3-8.3,14.3-19,17.3-30.8L677.2,388.2L677.2,388.2z"/>
</g>
<g>
	<path class="st2" d="M563.5,406.7c-30.4,0-58.9-2-80.4-5.7c-30.6-5.2-32.1-11.2-32.1-12.3s1.5-7.1,32.1-12.3
		c21.5-3.7,50-5.7,80.4-5.7s58.9,2,80.4,5.7c30.6,5.2,32.1,11.2,32.1,12.3s-1.5,7.1-32.1,12.3C622.4,404.7,593.9,406.7,563.5,406.7z
		"/>
	<path class="st1" d="M563.5,372.2c30.3,0,58.7,2,80.1,5.7c25.2,4.3,30.9,9.4,30.9,10.8s-5.7,6.5-30.9,10.8
		c-21.4,3.7-49.8,5.7-80.1,5.7s-58.7-2-80.1-5.7c-25.2-4.3-30.9-9.4-30.9-10.8s5.7-6.5,30.9-10.8
		C504.8,374.2,533.2,372.2,563.5,372.2 M563.5,369.2c-63,0-114,8.7-114,19.5c0,10.8,51,19.5,114,19.5s114-8.7,114-19.5
		C677.5,377.9,626.5,369.2,563.5,369.2L563.5,369.2z"/>
</g>
<ellipse class="st3" cx="563" cy="393.7" rx="98" ry="15"/>
<path class="st4" d="M301.5,135.2"/>
<path class="st5" d="M669.5,414.2c75-6-10,45-13,52"/>
<path class="st5" d="M673.8,401.4c108.9-2-26.2,84.8-26.2,84.8"/>
<image style="overflow:visible;" width="142" height="223" id="レイヤー_1_xA0_画像" xlink:href="21815238093A0695.png"  transform="matrix(0.662 0 0 0.5067 527.5222 250.1893)">
</image>
<image style="overflow:visible;" width="71" height="98" id="レイヤー_1_xA0_画像_00000017503951175597019000000008056881415514286001_" xlink:href="21815238093A0697.png"  transform="matrix(-0.7653 0 0 -0.7653 397.8589 431.1893)">
</image>
<image style="overflow:visible;" width="71" height="98" id="レイヤー_1_xA0_画像_00000092438299905767571730000000718384617806470546_" xlink:href="21815238093A0692.png"  transform="matrix(0.7653 0 0 0.7653 739.5222 354.1893)">
</image>
</svg>
