<?xml version="1.0" encoding="utf-8"?>
<!-- Generator: Adobe Illustrator 27.1.1, SVG Export Plug-In . SVG Version: 6.00 Build 0)  -->
<svg version="1.1" id="レイヤー_1" xmlns="http://www.w3.org/2000/svg" xmlns:xlink="http://www.w3.org/1999/xlink" x="0px"
	 y="0px" viewBox="0 0 1100 300" style="enable-background:new 0 0 1100 300;" xml:space="preserve">
<style type="text/css">
	.st0{fill:#42210B;}
	.st1{fill:#754C24;}
	.st2{fill:#FFFFFF;}
	.st3{fill:#603813;stroke:#754C24;stroke-miterlimit:10;}
	.st4{fill:none;stroke:#754C24;stroke-width:2;stroke-miterlimit:10;}
	.st5{fill:none;stroke:#754C24;stroke-miterlimit:10;}
</style>
<g>
	<circle class="st0" cx="113.5" cy="140.7" r="97.1"/>
	<path class="st1" d="M113.5,44.6c53,0,96.1,43.1,96.1,96.1s-43.1,96.1-96.1,96.1s-96.1-43.1-96.1-96.1S60.5,44.6,113.5,44.6
		 M113.5,42.6c-54.2,0-98.1,43.9-98.1,98.1s43.9,98.1,98.1,98.1s98.1-43.9,98.1-98.1S167.7,42.6,113.5,42.6L113.5,42.6z"/>
</g>
<g>
	
		<ellipse transform="matrix(0.7071 -0.7071 0.7071 0.7071 -66.3525 121.2769)" class="st2" cx="113.2" cy="140.7" rx="89.4" ry="89.4"/>
	<path class="st1" d="M113.2,52.4c48.7,0,88.4,39.6,88.4,88.4s-39.6,88.4-88.4,88.4s-88.4-39.6-88.4-88.4S64.5,52.4,113.2,52.4
		 M113.2,50.4c-49.9,0-90.4,40.5-90.4,90.4s40.5,90.4,90.4,90.4s90.4-40.5,90.4-90.4S163.1,50.4,113.2,50.4L113.2,50.4z"/>
</g>
<g>
	<g>
		<path class="st0" d="M56.6,87.5c0.2,0.1,0.1,0.3-0.1,0.5c-0.2,0.2-0.5,0.2-1,0c-0.3-0.1-0.5-0.3-0.8-0.4c-0.6-0.2-1.2-0.3-1.8-0.3
			c-0.8,0.1-1.7,0.5-2.7,1.4c-0.6,0.6-1.1,1-1.5,1.4c-0.8,0.9-1.3,1.5-1.5,1.7c4.2,2.5,8.2,5.3,12,8.5c0.4,0.4,0.9,0.5,1.2,0.3
			c0.2-0.1,0.7-0.5,1.4-1.2c0.2-0.2,0.3-0.2,0.4-0.1c0.1,0.1,0,0.3-0.2,0.5c-0.1,0.1-0.2,0.2-0.3,0.3c-0.9,0.9-1.5,1.5-1.9,1.9
			c-0.5,0.5-0.9,1-1.3,1.5c-0.4,0.5-0.9,1.1-1.5,1.8c-0.3,0.4-0.5,0.5-0.6,0.4c-0.1-0.1,0.1-0.5,0.7-1.2c0.4-0.5,0.6-0.9,0.6-1.2
			c0-0.2-0.3-0.4-0.7-0.7c-3.8-2.9-7.9-5.6-12.3-7.8c-1.6,2.1-2.5,3.4-2.8,4c-0.6,1.5-0.3,2.6,1.1,3.5c0.4,0.3,0.5,0.5,0.4,0.7
			c-0.2,0.2-0.4,0.3-0.7,0.2c-0.2-0.1-0.3-0.1-0.5-0.2c-0.2-0.1-0.3-0.2-0.5-0.3c-0.6-0.3-1.5-0.8-2.6-1.3c0.3-0.5,0.7-1,1-1.5
			c1.6-2.2,3.3-4.4,5-6.5c0.6-0.7,1.6-1.9,2.9-3.4c1.5-1.7,3-3.3,4.6-4.9c0.8,0.5,2,1.2,3.6,2.2c0,0,0.1,0.1,0.2,0.1
			C56.5,87.5,56.6,87.5,56.6,87.5z"/>
		<path class="st0" d="M80.3,81.2c0,0.1,0.2,0.4,0.5,1.2c0.3,0.7,0.6,1.4,0.9,2c0.1,0.3,0.3,0.5,0.4,0.8c-1.9,0.9-5.5,2.8-10.5,6.4
			c-0.6,0.4-1.2,0.9-1.7,1.3c-0.6,0.4-0.9,0.8-1.1,0.9c-0.1,0.1-0.2,0.1-0.2,0.2c-0.3,0.3-0.5,0.3-0.6,0.2c-0.1-0.1,0-0.1,0-0.2
			c0,0,0.3-0.3,0.9-0.8c0.4-0.4,0.6-0.7,0.6-0.8c0-0.2-0.2-0.5-0.6-1c-2.9-3.7-6.1-7.1-9.4-10.4c-0.3-0.3-0.6-0.5-0.9-0.4
			c-0.2,0.1-0.8,0.5-1.8,1.4c-0.3,0.3-0.5,0.4-0.6,0.3c-0.1-0.1,0.1-0.3,0.5-0.7c1.7-1.5,3.5-3,5.3-4.5c0.2-0.1,1.4-1.1,3.7-2.7
			c2.3-1.6,3.9-2.6,4.7-3.1c0.7-0.4,1.3-0.8,1.8-1.2c0.4,0.6,1.1,1.4,1.9,2.4c0.2,0.3,0.5,0.6,0.7,0.9c0.1,0.1,0.1,0.1,0.2,0.3
			c0.1,0.1,0,0.3-0.2,0.4c-0.2,0.1-0.5,0.1-0.9-0.2c-1.2-1.1-2.5-1.5-3.7-1.2c-0.9,0.2-2.9,1.3-5.8,3.4c-0.9,0.7-1.8,1.3-2.6,2
			c1.7,1.8,3.3,3.6,4.9,5.5c0.2-0.2,0.5-0.3,0.7-0.5c2.2-1.6,3.5-2.6,3.8-3.2c0.3-0.6,0.2-1.5-0.4-2.7c-0.2-0.3-0.1-0.5,0-0.7
			c0.2-0.2,0.4-0.1,0.6,0.2c0.2,0.3,0.4,0.6,0.7,1.2c0.3,0.5,0.5,0.9,0.7,1.2c1,1.5,1.7,2.6,2.1,3.1c0.1,0.1,0.2,0.3,0.3,0.4
			c0.1,0.2,0.1,0.3-0.1,0.5c-0.1,0.1-0.3,0.1-0.4,0c-0.1-0.1-0.5-0.4-1-1c-0.7-0.7-1.5-0.9-2.5-0.6c-0.4,0.2-1.4,0.7-2.9,1.8
			c-0.4,0.3-0.9,0.6-1.3,1c1.8,2.2,3.5,4.4,5.1,6.7c3.8-2.7,6.2-4.1,6.8-4.7c1.1-0.9,1.3-2.3,0.6-4.1c-0.2-0.4-0.1-0.7,0.1-0.8
			C79.9,80.8,80.1,80.9,80.3,81.2z"/>
		<path class="st0" d="M103.1,68.4c0.5,3.1-0.5,5.7-2.8,8c-1.6,1.7-3.9,2.8-7,3.8c-0.1,0-0.4,0.1-1.1,0.4c-0.6,0.2-1.5,0.5-2.7,1
			c-0.5,0.2-1,0.4-1.5,0.6c-0.8,0.3-1.5,0.6-2.3,1c-0.1,0.1-0.3,0.1-0.4,0.2c-0.4,0.2-0.6,0.2-0.6,0c-0.1-0.1,0.2-0.4,0.8-0.6
			c0.8-0.4,1.2-0.7,1.3-1c0-0.1,0-0.5-0.3-1c-1.8-4.4-3.7-8.6-5.7-12.8c-0.4-0.8-0.7-1.2-0.9-1.2c-0.2,0-0.9,0.2-1.9,0.7
			c-0.5,0.3-0.9,0.3-1,0.2c-0.1-0.1,0.1-0.3,0.5-0.5c0,0,0.2-0.1,0.8-0.4c0.6-0.3,1.1-0.5,1.6-0.8c1.3-0.6,2.6-1.2,3.9-1.7
			c4.4-1.8,7.8-2.5,9.8-2.6c2.5-0.1,4.6,0.5,6.3,1.8C101.8,64.7,102.8,66.4,103.1,68.4z M99.2,69c-0.6-2.9-1.9-4.9-3.9-5.8
			c-2-0.9-4.8-0.9-8.2,0.4c-1.7,0.6-2.6,1.1-2.9,1.5c-0.1,0.2,0,0.6,0.3,1.2c1.8,4.3,3.5,8.6,5.1,13c0.2,0.5,0.3,0.7,0.3,0.8
			c0.1,0.1,0.2,0.1,0.3,0.2c0.5,0,1.6-0.2,3.1-0.7c2.2-0.7,3.8-1.8,4.9-3.4C99.5,74.4,99.8,72.1,99.2,69z"/>
		<path class="st0" d="M130.3,69.6c-0.6,3.1-2.4,5.1-5.2,6.4c-2.1,1-4.6,1.3-7.8,1.1c-0.1,0-0.5,0-1.1,0c-0.7,0-1.6,0-2.9,0
			c-0.5,0-1,0-1.6,0c-0.8,0-1.7,0.1-2.5,0.1c-0.1,0-0.3,0-0.5,0c-0.4,0-0.6,0-0.6-0.2c0-0.2,0.3-0.3,1-0.3c0.9-0.1,1.4-0.2,1.6-0.5
			c0.1-0.1,0.1-0.5,0.1-1c-0.3-4.8-0.6-9.7-1-14.5c-0.1-0.9-0.2-1.4-0.4-1.5c-0.2-0.1-0.9-0.2-2-0.1c-0.6,0.1-0.9,0-0.9-0.2
			c0-0.1,0.2-0.2,0.6-0.3c0,0,0.3,0,0.9-0.1c0.6,0,1.2-0.1,1.8-0.1c1.4-0.1,2.8-0.1,4.2-0.1c4.8,0,8.1,0.7,10.1,1.4
			c2.3,0.9,4.1,2.3,5.3,4.1C130.3,65.6,130.7,67.6,130.3,69.6z M126.4,68.6c0.4-2.9-0.1-5.3-1.7-6.9c-1.5-1.6-4.2-2.7-7.8-2.8
			c-1.8-0.1-2.8,0.1-3.2,0.3c-0.2,0.1-0.2,0.6-0.2,1.3c0.2,4.8,0.3,9.6,0.4,14.4c0,0.5,0,0.8,0.1,0.9c0,0.1,0.1,0.2,0.3,0.3
			c0.5,0.2,1.6,0.3,3.2,0.4c2.3,0.1,4.1-0.3,5.7-1.5C124.9,73.8,126,71.7,126.4,68.6z"/>
		<path class="st0" d="M158.7,72.3c-0.1,0.1-0.3,0-0.7-0.2c-1.3-0.8-2.2-1.1-2.7-1.1c-0.4,0-2.1,0.6-5,2.2c-1.3,0.7-2.4,1.3-3.4,1.8
			c-0.7,0.4-1.1,0.7-1.3,0.8c-0.2,0.2-0.4,0.6-0.7,1.4c-0.6,1.5-1.2,3-1.8,4.5c-0.2,0.5-0.2,0.9-0.1,1.1c0.1,0.2,0.7,0.5,1.7,1.1
			c0.5,0.3,0.7,0.5,0.7,0.6c-0.1,0.1-0.2,0.1-0.5,0c-0.1-0.1-0.2-0.1-0.4-0.2c-1.4-0.7-2.7-1.4-4.1-2c-1.2-0.5-2.2-0.9-2.9-1.1
			c-0.1,0-0.3-0.1-0.4-0.1c-0.3-0.1-0.4-0.2-0.4-0.4c0-0.2,0.3-0.2,0.8,0c1.1,0.4,1.8,0.6,2.1,0.5c0.2-0.1,0.5-0.4,0.7-1.1
			c0.6-1.7,1.2-3.4,1.8-5.2c-0.1-0.5-0.4-1.7-1-3.7c-0.6-2.1-1.3-4.2-2.1-6.3c-0.2-0.6-0.5-1.3-0.9-2.1c-0.2-0.3-0.8-0.5-1.8-0.8
			c-0.9-0.3-1.4-0.5-1.3-0.7c0-0.1,0.3-0.1,0.7,0c0.5,0.2,1.6,0.5,3.2,1.1c0.9,0.3,1.6,0.6,2,0.7c1.5,0.5,3,1.1,4.4,1.7
			c0.2,0.1,0.4,0.1,0.6,0.2c0.5,0.2,0.6,0.4,0.6,0.5c-0.1,0.1-0.5,0-1.4-0.3c-1.6-0.7-2.4-0.8-2.5-0.4c-0.1,0.3,0.3,1.7,1.1,4.3
			c0.6,1.9,1.1,3.7,1.5,5.6c0.8-0.5,1.9-1,3-1.7c1.1-0.6,2.2-1.2,3.3-1.7c1.3-0.6,2-1,2.1-1.3c0.1-0.2,0-0.4-0.4-0.7
			c-0.8-0.5-1.4-0.9-1.7-1c-0.5-0.3-0.8-0.5-0.7-0.7c0.1-0.1,0.3-0.1,0.8,0.2c0.7,0.4,1.4,0.8,2.1,1.2c0.4,0.2,0.8,0.5,1.2,0.7
			C157.7,71.3,158.8,72.2,158.7,72.3z"/>
		<path class="st0" d="M166.1,80c-0.8,0.9-1.9,1.1-3.5,0.6c-1.1-0.3-1.9-0.7-2.5-1.1c-0.2-0.2-0.3-0.3-0.2-0.4
			c0.1-0.1,0.2-0.1,0.5,0.1c1.1,0.5,2,0.8,2.5,0.9c0.6,0.1,1-0.1,1.4-0.6c0.3-0.3,0.4-0.8,0.3-1.2c-0.3,0.4-1,0.3-1.9-0.4
			c-0.5-0.4-0.8-0.7-1-1.2c-0.2-0.4-0.2-0.8,0-1.1c0.2-0.3,0.6-0.5,1.2-0.4c0.6,0.1,1.2,0.3,1.8,0.8c0.8,0.6,1.4,1.3,1.7,2.1
			C166.6,78.8,166.5,79.4,166.1,80z"/>
		<path class="st0" d="M176,103.6c-1.1,0.8-2.6,0.8-4.3,0.3c-1.7-0.5-3.3-1.5-4.8-2.9c-0.9-0.9-1.7-2-2.6-3.6
			c-0.2-0.4-0.4-0.7-0.6-0.8c-0.2-0.2-0.5-0.1-0.8,0.2c-0.2,0.2-0.4,0.2-0.6,0c-0.2-0.1-0.2-0.3-0.1-0.4c0.1-0.1,0.2-0.2,0.2-0.2
			c0.8-0.6,1.5-1.3,2-1.9c0.1-0.1,0.4-0.5,0.9-1.1c0-0.1,0.1-0.2,0.2-0.3c0.2-0.2,0.4-0.2,0.6,0c0.2,0.2,0.2,0.4,0,0.8
			c-1.5,2.6-1.1,4.9,1.2,7.2c1,1,1.9,1.6,2.8,1.8c0.9,0.2,1.8,0,2.6-0.6c0.7-0.5,1.1-1.3,1-2.3c0-1-0.5-2.4-1.4-4.2
			c-1.1-2.2-1.8-3.9-2-5c-0.2-1.1,0.1-2.1,0.8-2.8c1-0.9,2.3-1.2,4-0.7c1.7,0.5,3.4,1.6,5,3.4c0.7,0.7,1.4,1.8,2.2,3.3
			c0.3,0.5,0.5,0.9,0.7,1.1c0.2,0.2,0.4,0.4,0.5,0.4c0.1,0,0.3,0,0.6,0c0.2,0,0.3,0,0.5,0.3c0.2,0.2,0.2,0.4,0,0.5
			c-0.1,0.1-0.2,0.1-0.3,0.1c-0.4,0.1-0.8,0.3-1.3,0.6c-0.7,0.4-1.1,0.7-1.4,1.1c-0.1,0.1-0.2,0.2-0.3,0.2c-0.1,0.1-0.3,0.1-0.5-0.1
			c-0.2-0.2-0.2-0.5,0.1-0.8c0.6-0.7,0.8-1.7,0.6-2.9c-0.2-1.2-0.8-2.4-1.8-3.5c-1-1.1-2-1.7-2.9-2c-1-0.3-1.8-0.1-2.5,0.4
			c-0.8,0.7-1,1.6-0.7,2.8c0.2,0.7,0.8,2,1.7,3.9c1.1,2.3,1.5,4,1.6,5.2C177.2,102.2,176.8,103.1,176,103.6z"/>
	</g>
</g>
<g>
	<g>
		<path class="st0" d="M91.1,213.6c0,0-0.1,0.2-0.3,0.7c-0.4,0.9-0.7,1.9-1.1,2.9c0,0.1-0.1,0.4-0.1,0.7c-0.1,0.3-0.2,0.7-0.3,1.2
			c0,0.1,0,0.2-0.1,0.2c-0.1,0.2-0.2,0.3-0.4,0.3c-0.2-0.1-0.3-0.2-0.4-0.5c-0.1-0.7-0.3-1.2-0.6-1.4c-2,0.5-4.2,0.3-6.5-0.6
			c-3.3-1.4-5.6-3.7-6.7-6.4c-1.1-2.8-0.8-5.4,0.7-7.8c1.5-2.4,3.5-3.9,6-4.6c2.4-0.7,4.7-0.5,7.2,0.5c0.9,0.4,1.6,0.7,2,1.1
			c0.5,0.4,1,0.9,1.7,1.6c0.3,0.4,0.6,0.6,0.8,0.6c0.2,0.1,0.4,0,0.6-0.3c0.4-0.4,0.7-0.6,0.8-0.5c0.1,0,0.2,0.1,0.1,0.3
			c0,0.1-0.1,0.2-0.2,0.3c-0.5,0.8-1.1,2.3-1.8,4.6c-0.1,0.3-0.2,0.5-0.3,0.5c-0.1,0-0.2,0-0.3,0c-0.2-0.1-0.3-0.3-0.2-0.6
			c0.2-1.5,0.2-2.6,0-3.4c-0.4-1.7-1.5-2.9-3.4-3.7c-1.4-0.6-2.7-0.7-4-0.2c-2.3,0.8-4.3,2.7-5.9,5.6c-1.5,2.7-1.9,5.1-1.2,7.4
			c0.6,2,2.1,3.5,4.4,4.5c1.2,0.5,2.3,0.7,3.5,0.6c1.1-0.1,2.1-0.4,2.9-1c0.8-0.6,1.5-1.4,2.1-2.4c0.2-0.4,0.4-0.5,0.6-0.5
			C91.1,213.2,91.2,213.4,91.1,213.6z"/>
		<path class="st0" d="M116.8,223.1c0,0.2-0.2,0.2-0.5,0.2c-0.2,0-0.5,0-0.6,0c-1.5,0-3-0.1-4.6-0.2c-1.5,0-3-0.1-4.6-0.2
			c-0.2,0-0.4,0-0.5,0c-0.5-0.1-0.7-0.2-0.7-0.4c0-0.2,0.4-0.3,1-0.2c2.1,0.2,3.2,0.1,3.2-0.2c0,0,0-0.1-0.1-0.2
			c-0.1-0.2-0.2-0.5-0.2-0.7c-0.1-0.1-0.1-0.3-0.2-0.4c-0.2-0.6-0.6-1.9-1.2-3.9c-2.4-0.2-4.7-0.5-7.1-1c-1.8,2.6-2.9,4.1-3,4.5
			c-0.1,0.2,0.1,0.4,0.3,0.5c0.1,0,0.6,0.2,1.7,0.4c0.7,0.1,1,0.3,1,0.4c0,0.2-0.4,0.2-1,0.1c-1.1-0.2-2.4-0.5-3.8-0.9
			c-0.3-0.1-0.7-0.2-1.1-0.3c-0.4-0.1-0.7-0.2-1.1-0.2c-0.2,0-0.4,0-0.5-0.1c-0.3-0.1-0.5-0.2-0.4-0.4c0-0.2,0.4-0.1,1.2,0
			c0.7,0.2,1.3,0.2,1.7,0.1c0.4-0.1,0.7-0.3,1-0.7c4.4-5.9,7.3-10.9,9.4-14.8c0.1-0.2,0.2-0.4,0.4-0.7c0.1-0.2,0.1-0.3,0.2-0.5
			c0.1-0.2,0.2-0.3,0.3-0.3c0.1,0,0.1,0.1,0.1,0.2c0.2,0.7,0.5,2.3,1.2,4.6c0.6,1.8,1.9,6.4,5.1,13.6c0.2,0.4,0.4,0.7,0.7,0.8
			c0.3,0.1,0.9,0.2,1.8,0.2C116.4,222.9,116.7,223,116.8,223.1z M107.6,216.3c-0.3-0.8-0.7-2.3-1.3-4.2c-0.4-1.3-0.7-2.6-1-3.9
			c-1.1,1.9-2.5,4.3-4.3,7.3C103.1,215.8,105.4,216.1,107.6,216.3z"/>
		<path class="st0" d="M133.5,206.3c0.1,0.2,0,0.4-0.2,0.4c-0.2,0.1-0.4-0.1-0.6-0.6c-0.6-1.2-1.3-2-2.1-2.5
			c-0.5-0.3-1.3-0.3-2.2-0.2c-0.3,0-1.1,0.2-2.2,0.4c-0.9,0.2-1.9,0.3-3.1,0.5c0.3,2.7,0.7,5.3,1,8c2.7-0.3,4.3-0.8,4.9-1.2
			c0.6-0.4,0.7-1.4,0.6-2.9c0-0.4,0-0.6,0.2-0.7c0.2,0,0.3,0.1,0.4,0.3c0,0.2,0.1,0.3,0.1,0.4c0.2,1.2,0.4,2.4,0.7,3.4
			c0.3,1.4,0.6,2.4,0.8,3.2c0,0.1,0.1,0.2,0.1,0.3c0,0.2,0,0.3-0.3,0.4c-0.2,0-0.3,0-0.4-0.1c-0.1-0.1-0.2-0.5-0.5-1.2
			c-0.4-1.1-0.9-1.7-1.4-1.8c-0.5-0.2-1.5-0.1-3,0.1c-0.8,0.1-1.5,0.2-2,0.3c0.1,0.9,0.2,1.8,0.4,2.8c0.2,1.8,0.5,3.5,0.7,5.3
			c0.1,0.5,0.4,0.8,0.9,0.9c0.3,0,0.8,0,1.7-0.2c0.4-0.1,0.6,0,0.6,0.1c0,0.2-0.2,0.3-0.7,0.4c-0.1,0-0.2,0-0.4,0.1
			c-0.3,0.1-0.8,0.1-1.4,0.2c-0.5,0.1-0.9,0.1-1.1,0.1c-1.8,0.2-3.6,0.4-5.3,0.5c-0.5,0-0.7,0-0.7-0.2c0-0.1,0.4-0.3,1.2-0.3
			c0.8-0.1,1.3-0.2,1.4-0.4c0.1-0.1,0.2-0.6,0.1-1.3c-0.4-5.2-0.9-10.4-1.3-15.7c0-0.3-0.2-0.5-0.4-0.6c-0.2-0.1-0.7-0.1-1.5,0
			c-0.3,0-0.5-0.1-0.5-0.2c0-0.2,0.2-0.3,0.5-0.3c0.1,0,0.3,0,0.4,0c0,0,0.9,0,2.7-0.2c1.8-0.2,3.3-0.4,4.5-0.6
			c3.1-0.6,5-1.1,5.6-1.4c0.1,0.2,0.3,0.9,0.7,1.9c0.3,0.7,0.5,1.4,0.8,1.9C133.4,206,133.4,206.2,133.5,206.3z"/>
		<path class="st0" d="M156.6,207.1c0,0.1,0.3,0.5,0.6,1.2c0.4,0.7,0.8,1.4,1.2,2c0.2,0.3,0.3,0.5,0.5,0.8
			c-2.2,1.2-6.3,3.6-12.9,6.3c-0.8,0.3-1.6,0.6-2.4,0.9c-0.8,0.3-1.3,0.5-1.6,0.6c-0.1,0-0.2,0.1-0.3,0.1c-0.4,0.1-0.7,0.1-0.7,0
			c0-0.1,0-0.2,0.2-0.2c0.1,0,0.5-0.2,1.3-0.5c0.6-0.2,0.9-0.5,1-0.7c0.1-0.2,0-0.6-0.3-1.3c-1.8-4.8-3.5-9.6-5.3-14.5
			c-0.2-0.5-0.4-0.8-0.6-0.8c-0.2,0-0.7,0.1-1.5,0.4c-0.3,0.1-0.5,0.1-0.5-0.1c0-0.1,0.1-0.3,0.5-0.4c1.5-0.5,3-1.1,4.5-1.7
			c0.2-0.1,1.1-0.5,2.9-1.3c1.8-0.9,3-1.5,3.6-1.9c0.5-0.3,0.9-0.6,1.3-0.9c0.4,0.7,1.1,1.5,1.9,2.7c0.2,0.3,0.5,0.6,0.7,0.9
			c0.1,0.1,0.1,0.2,0.2,0.3c0.1,0.2,0.1,0.3-0.1,0.4c-0.2,0.1-0.5,0-0.8-0.3c-1.2-1.2-2.2-1.8-3.2-1.8c-0.7,0-2.2,0.7-4.6,1.8
			c-0.7,0.3-1.4,0.6-2.2,0.9c1,2.5,2.1,4.9,3.1,7.4c0.2-0.1,0.5-0.2,0.7-0.3c2.2-1,3.5-1.8,3.8-2.3c0.3-0.5,0.2-1.5-0.3-2.9
			c-0.1-0.4-0.1-0.6,0-0.7c0.2-0.1,0.4,0,0.5,0.3c0.2,0.3,0.4,0.7,0.6,1.3c0.3,0.6,0.5,1,0.6,1.3c0.9,1.7,1.6,2.9,2,3.5
			c0.1,0.2,0.2,0.3,0.2,0.4c0.1,0.2,0.1,0.4-0.2,0.5c-0.1,0.1-0.3,0.1-0.4-0.1c-0.1-0.1-0.4-0.5-1-1.2c-0.7-0.9-1.4-1.2-2.3-1.1
			c-0.4,0.1-1.3,0.5-2.8,1.1c-0.4,0.2-0.9,0.4-1.3,0.6c1.2,2.8,2.3,5.6,3.5,8.4c4.9-2.1,7.6-3.8,8.4-4.3c1.3-1,1.5-2.5,0.6-4.3
			c-0.2-0.4-0.2-0.7,0-0.8C156.2,206.7,156.4,206.8,156.6,207.1z"/>
	</g>
</g>
<g>
	<path class="st2" d="M111.5,187.9c-5.1,0-10.3-0.5-15.3-1.4c-4.8-0.9-9.4-3.3-13.1-6.8c-3.3-3.1-5.5-7.2-6.6-11.7L70,140.7h83.1
		l-7,27.7c-1.1,4.3-3.3,8.2-6.3,11.2c-3.7,3.7-8.2,6.1-13,7C121.8,187.5,116.6,187.9,111.5,187.9
		C111.5,187.9,111.5,187.9,111.5,187.9z"/>
	<path class="st1" d="M152.5,141.2l-6.8,27.1c-1.1,4.2-3.2,8-6.2,11c-3.6,3.6-8,5.9-12.8,6.8c-5,0.9-10.1,1.4-15.2,1.4
		c-5.1,0-10.2-0.5-15.2-1.4c-4.7-0.9-9.2-3.2-12.8-6.7c-3.2-3.1-5.4-7-6.5-11.5l-6.4-26.7H152.5 M153.8,140.2H69.3l6.7,27.9
		c1.1,4.6,3.5,8.8,6.8,12h0c3.8,3.6,8.4,6,13.3,6.9c5.1,0.9,10.2,1.4,15.4,1.4c5.1,0,10.3-0.5,15.4-1.4c5-0.9,9.6-3.4,13.3-7.1
		c3.1-3.1,5.3-7,6.4-11.4L153.8,140.2L153.8,140.2z"/>
</g>
<g>
	<ellipse class="st2" cx="111.5" cy="140.4" rx="41.8" ry="6.7"/>
	<path class="st1" d="M111.5,134.1c11.2,0,21.8,0.7,29.7,2.1c9.5,1.6,11.6,3.5,11.6,4.1s-2.1,2.5-11.6,4.1
		c-7.9,1.4-18.5,2.1-29.7,2.1s-21.8-0.7-29.7-2.1c-9.5-1.6-11.6-3.5-11.6-4.1s2.1-2.5,11.6-4.1C89.7,134.9,100.3,134.1,111.5,134.1
		 M111.5,133.1c-23.4,0-42.3,3.2-42.3,7.2s18.9,7.2,42.3,7.2c23.4,0,42.3-3.2,42.3-7.2S134.9,133.1,111.5,133.1L111.5,133.1z"/>
</g>
<ellipse class="st3" cx="111.4" cy="142.2" rx="36.4" ry="5.6"/>
<path class="st4" d="M14.3,46.3"/>
<line class="st4" x1="170" y1="100" x2="170" y2="100"/>
<path class="st5" d="M150.9,149.8c27.8-2.2-3.7,16.7-4.8,19.3"/>
<path class="st5" d="M152.5,145.1c40.4-0.7-9.7,31.5-9.7,31.5"/>
<image style="overflow:visible;" width="71" height="98" id="レイヤー_1_xA0_画像_00000017503951175597019000000008056881415514286001_" xlink:href="2189BD44C3485ADE.png"  transform="matrix(-0.284 0 0 -0.284 50.064 156.1353)">
</image>
<image style="overflow:visible;" width="71" height="98" id="レイヤー_1_xA0_画像_00000092438299905767571730000000718384617806470546_" xlink:href="2189BD44C3485AD8.png"  transform="matrix(0.284 0 0 0.284 176.8682 127.5577)">
</image>
<g>
	<g>
		<path class="st0" d="M279,125.4c-1-3.8-2.6-7.9-3.8-10.2c-2-3.2-3.2-4.1-10-4.1h-12.1v59.3c0,9.5,1,10.8,12.6,11.5v3.5h-35.5V182
			c11.4-0.8,12.4-2,12.4-11.5v-59.3h-11.2c-6.7,0-8.8,0.8-10.8,4.4c-1.4,2.4-2.4,5.3-4.1,10h-3.6c0.8-7.6,1.4-15,1.8-22h2.9
			c1.8,2.9,3.2,2.9,6.5,2.9h48.4c3.5,0,4.4-0.4,6.2-2.9h2.9c0,5.6,0.4,14.4,1,21.5L279,125.4z"/>
		<path class="st0" d="M355.2,166.2c-0.8,3.2-4.1,15.6-5.3,19.3h-59.3v-3.5c11.4-0.8,12.1-2,12.1-12v-48.1
			c0-10.8-1.4-11.4-10.6-12.4v-3.5h37.3c11.4,0,16.2-0.2,17.6-0.2c0.2,3,0.6,12.1,1,18.7l-3.6,0.6c-1-4.1-2.3-6.7-3.6-9.4
			c-2-4.1-4.7-4.9-12-4.9h-11.5c-3.8,0-4.1,0.4-4.1,3.8v27h13.6c9.1,0,9.7-1.8,11.2-10.2h3.8v25.2h-3.8c-1.7-8.8-2.6-10-11.4-10
			h-13.4v24.1c0,8.5,2.6,9.4,8.8,9.4h11.4c7.6,0,8.8-1,11.4-4.3c2.3-2.6,4.9-7.6,6.5-11.2L355.2,166.2z"/>
		<path class="st0" d="M397.6,106.3c17.3,0,28,3.5,35.5,10.6c5.9,5.9,10.3,14.4,10.3,25.9c0,14.2-5.9,25.8-15.2,32.9
			c-9.4,7-21.1,9.5-36.1,9.5h-28.4v-3.5c10.6-1,10.9-1.8,10.9-11.8v-48.3c0-10.6-1.4-10.9-10.9-12v-3.5h34V106.3z M385.2,169.2
			c0,9.1,3.8,11.8,13,11.8c22,0,33.1-15,33.1-36.4c0-13.2-4.4-23.3-14.2-29.3c-5.6-3.5-12.6-4.9-20.9-4.9c-5.5,0-8.3,0.8-9.5,1.7
			c-1,0.8-1.7,2-1.7,7v50.2C385.1,169.2,385.2,169.2,385.2,169.2z"/>
		<path class="st0" d="M488.6,106.3c17.3,0,28,3.5,35.5,10.6c5.9,5.9,10.3,14.4,10.3,25.9c0,14.2-5.9,25.8-15.2,32.9
			c-9.4,7-21.1,9.5-36.1,9.5h-28.4v-3.5c10.6-1,10.9-1.8,10.9-11.8v-48.3c0-10.6-1.4-10.9-10.9-12v-3.5
			C454.6,106.3,488.6,106.3,488.6,106.3z M476.2,169.2c0,9.1,3.8,11.8,13,11.8c22,0,33.1-15,33.1-36.4c0-13.2-4.4-23.3-14.2-29.3
			c-5.6-3.5-12.6-4.9-20.9-4.9c-5.5,0-8.3,0.8-9.5,1.7c-1,0.8-1.7,2-1.7,7L476.2,169.2L476.2,169.2z"/>
		<path class="st0" d="M611.4,109.7c-8.5,1-10,2.3-14.8,10.2c-5.5,8.9-10,17.3-16.1,28.2c-1.4,2.9-1.8,4.3-1.8,7.1v15
			c0,10.2,1,10.8,12.4,12v3.5h-34.9v-3.5c11.2-1.4,12-1.7,12-12v-15.6c0-2.4-0.4-3.5-2.4-7.1c-4.3-7.9-8.3-15.6-15-27
			c-4.7-8.3-5.9-9.7-14.2-10.6v-3.5h30v3.5c-8.8,1.2-8.3,2.9-6.1,7c5,9.4,10.8,20.3,16.1,29.4c4.4-8.2,11.4-21.5,14.8-28.2
			c2.9-6.1,2.4-7.3-7.1-8.3v-3.5h27.6v3.5h-0.5V109.7z"/>
		<path class="st0" d="M619.7,123.4c5.6-2.4,9.5-6.1,9.5-10.2c0-4.3-4.1-5.6-8.2-6.5c-0.8-0.2-1.7-1.8-1.7-3.5
			c0-3.2,2.6-5.5,6.2-5.5c5.3,0,10.8,4.4,10.8,12.4c0,8.8-7.6,14.4-15.2,16.7L619.7,123.4z"/>
		<path class="st0" d="M707.7,124.8c-2-8.2-5.5-16.1-16.8-16.1c-9.5,0-12.8,7-12.8,13.2c0,8.3,5.3,12.6,15.5,17.9
			c14.6,7.6,20.9,13.2,20.9,24.7c0,12.8-11.2,22.6-26.8,22.6c-7.3,0-13.6-2-18.7-4.1c-1-3.5-2.4-11.8-3.2-18.2l3.8-1
			c2.4,8.2,7.7,18.7,20.5,18.7c8.8,0,14.2-6.1,14.2-14c0-9.4-5-13.2-15.6-19.1c-12.8-7-19.9-12.8-19.9-24.1
			c0-10.8,8.9-21.1,25.2-21.1c7,0,13.6,1.8,16.1,2.3c0.4,4.4,1,9.4,2,17.3L707.7,124.8z"/>
		<path class="st0" d="M859,166c-1.7,5.9-4.9,14.6-6.7,18.5c-3.5,0.8-13,2.9-22.3,2.9c-29,0-44.1-19.3-44.1-40.6
			c0-24.7,18.8-42,46.1-42c10.6,0,19.1,2.3,22.9,2.9c0.4,5.5,1.4,12.8,2.3,18.8l-3.8,0.8c-2.4-8.2-5.3-13.2-11.5-15.6
			c-3.2-1.4-8.2-2.3-12.8-2.3c-20,0-30.6,14.8-30.6,34.9c0,23.5,12.1,38.5,31.9,38.5c12.4,0,18.5-5.6,24.7-17.9L859,166z"/>
		<path class="st0" d="M910.8,185.4V182c7.9-1,8.9-2.3,7.1-7c-1.7-4.7-4.1-10.8-6.5-18.5h-26.4c-2,5.5-3.8,10.2-5.5,15.2
			c-2.6,7.9-1,8.9,8.9,10.2v3.5h-28V182c7.7-1,9.5-1.8,13.8-12.8l25.2-64l3.8-0.8c7.7,20.9,16.1,43.8,23.8,64.9
			c3.8,10.6,5,11.5,13.6,12.6v3.5h-29.8V185.4z M898.6,120.5c-3.8,10.6-8.2,21.5-11.8,31.2h22.7L898.6,120.5z"/>
		<path class="st0" d="M997.3,125.4c-1-3.5-2-6.2-3.8-8.9c-2.3-4.1-4.1-5-10.9-5h-13.1c-3.5,0-3.8,0.4-3.8,3.8v28h15
			c8.8,0,9.4-1.4,11.2-10h3.6v25.3h-3.8c-1.7-8.5-2.4-10.6-11.2-10.6h-15v21.7c0,10.6,1.2,11.2,12.4,12v3.5h-33.8v-3.5
			c10-0.8,10.9-1.7,10.9-12v-48.1c0-10.6-1.2-11.2-10.9-12v-3.5h38.5c10.9,0,15-0.2,17.3-0.2c0.2,4.4,0.6,13,1.2,18.7L997.3,125.4z"
			/>
		<path class="st0" d="M1074,166.2c-0.8,3.2-4.1,15.6-5.3,19.3h-59.3v-3.5c11.4-0.8,12.1-2,12.1-12v-48.1c0-10.8-1.4-11.4-10.6-12.4
			v-3.5h37.3c11.4,0,16.2-0.2,17.6-0.2c0.2,3,0.6,12.1,1,18.7l-3.6,0.6c-1-4.1-2.3-6.7-3.6-9.4c-2-4.1-4.7-4.9-12-4.9h-11.5
			c-3.8,0-4.1,0.4-4.1,3.8v27h13.6c9.1,0,9.7-1.8,11.2-10.2h3.8v25.2h-3.8c-1.7-8.8-2.6-10-11.4-10H1032v24.1c0,8.5,2.6,9.4,8.8,9.4
			h11.4c7.6,0,8.8-1,11.4-4.3c2.3-2.6,4.9-7.6,6.5-11.2L1074,166.2z"/>
	</g>
</g>
<image style="overflow:visible;" width="143" height="171" xlink:href="2189BD44C3485ADC.png"  transform="matrix(0.2457 0 0 0.2457 98 87)">
</image>
<g id="rDngWI.tif">
	
		<image style="overflow:visible;" width="70" height="94" id="Layer_0" xlink:href="2189BD44C3485AE4.png"  transform="matrix(0.3739 0 0 0.3739 163 155)">
	</image>
</g>
</svg>
