<?xml version="1.0" encoding="UTF-8"?>
<svg id="_レイヤー_1" data-name=" レイヤー 1" xmlns="http://www.w3.org/2000/svg" viewBox="0 0 300 210">
  <defs>
    <style>
      .cls-1 {
        fill: none;
        stroke: #42210b;
        stroke-miterlimit: 10;
        stroke-width: 2px;
      }

      .cls-2 {
        fill: #42210b;
        stroke-width: 0px;
      }
    </style>
  </defs>
  <rect class="cls-1" x="1.07" y=".92" width="298.23" height="207.99"/>
  <g>
    <g>
      <path class="cls-2" d="m23.82,145.7c0,.55.01.94.05,1.28-.38-.04-.7-.05-1.32-.05h-1.75v3.23c0,.44.13.5,1.02.5.65,0,1.02-.05,1.24-.14.25-.12.32-.47.32-1.74.32.19.58.3.91.4-.06,1.06-.18,1.62-.4,1.88-.28.32-.89.47-2.07.47-1.62,0-1.92-.18-1.92-1.14v-3.01c0-.66-.01-.96-.06-1.31.38.04.7.05,1.24.05h1.87v-2.55h-1.93c-.52,0-.86,0-1.24.06v-.97c.32.05.7.07,1.24.07h1.62c.53,0,.85,0,1.24-.06-.04.37-.05.73-.05,1.21v1.82h-.01Zm5.4-.86c-.08,1.04-.17,1.56-.38,2.32-.28.97-.65,1.79-1.21,2.61.38.46.79.85,1.39,1.29.52.41.82.58,1.55.92-.26.32-.41.55-.56.94-1.18-.66-2.18-1.48-2.96-2.41-.41.46-.83.84-1.39,1.26-.66.49-1.14.78-2,1.17-.17-.37-.31-.6-.56-.88,1.37-.49,2.55-1.27,3.43-2.29-.71-1.08-1.07-1.94-1.32-3.18-.31.56-.52.89-.85,1.34-.24-.25-.43-.38-.76-.55.95-1.09,1.67-2.6,2.04-4.33.12-.53.18-.88.19-1.21l1.01.19c-.05.12-.08.23-.2.76-.11.47-.18.77-.32,1.21h3c.53,0,.86-.02,1.15-.07v.96c-.34-.05-.53-.06-1.1-.06h-.15Zm-3.2,0c-.12.3-.13.35-.26.65.22,1.42.58,2.36,1.32,3.53.42-.66.71-1.33.94-2.13.18-.67.24-1.09.3-2.04h-2.3Z"/>
      <path class="cls-2" d="m36.67,148.8c-.42.37-.72.6-1.2.92v1.92c1.03-.2,1.83-.4,2.61-.64v.83c-1.45.41-2.4.61-4.92,1.04l-.2-.94h.14c.36,0,.74-.04,1.49-.16v-1.54c-.85.47-1.64.8-2.67,1.14-.13-.31-.24-.47-.49-.79,1.69-.43,3.11-1.06,4.11-1.8h-2.66c-.55,0-.91.02-1.29.06v-.92c.36.04.74.06,1.32.06h3.49v-.24c0-.29,0-.47-.06-.72h1.02c-.04.23-.06.42-.06.73v.23h3.66c.55,0,1-.02,1.28-.06v.92c-.38-.04-.74-.06-1.3-.06h-3.19c.3.56.58.9,1.16,1.4.7-.44,1.14-.79,1.54-1.24l.77.48c-.83.67-1,.8-1.68,1.24.85.58,1.86,1,3.06,1.28-.23.25-.35.46-.54.9-1.69-.58-2.83-1.2-3.79-2.09-.66-.61-1.03-1.14-1.39-1.98h-.2v.03Zm-2.47-3.05c-.58.29-.95.44-1.8.77-.3.11-.37.14-.6.24l-.35-.9c.77-.12,1.67-.42,2.75-.92v-1.94c0-.43-.02-.72-.07-.98h1.01c-.05.28-.06.48-.06,1v3.27c0,.6,0,.76.06,1.04h-1.01c.05-.28.07-.56.07-1.04v-.53h0Zm-1.82-3.29c.64.61.91.91,1.4,1.62l-.66.55c-.44-.71-.72-1.03-1.4-1.67,0,0,.66-.5.66-.5Zm4.39,1.78c-.53,0-.9.02-1.19.06v-.91c.32.05.64.06,1.19.06h1.42v-.47c0-.47,0-.68-.07-.96h1.02c-.06.29-.07.47-.07.95v.48h1.94c.55,0,.86,0,1.19-.06v.91c-.32-.05-.64-.06-1.19-.06h-1.94v1.63h1.51c.58,0,.85,0,1.16-.06v.9c-.29-.05-.59-.06-1.14-.06h-3.61c-.49,0-.88.02-1.16.06v-.89c.29.04.59.05,1.13.05h1.24v-1.63h-1.43Z"/>
      <path class="cls-2" d="m44.65,143.21c0-.46-.02-.78-.06-1.1h.96c-.05.3-.06.65-.06,1.12v.22h2.07v-.23c0-.52,0-.82-.06-1.1h.97c-.05.31-.07.63-.07,1.12v.22c.42,0,.73-.02.95-.07v.9c-.23-.04-.52-.05-.95-.05v4.98c.38,0,.67-.02.89-.06v.88c-.28-.02-.6-.04-1.07-.04h-3.84c-.47,0-.71,0-.96.06v-.9c.24.05.48.06.95.06h.28v-4.98c-.58,0-.83,0-1.04.05v-.9c.22.05.5.07.98.07h.06v-.25Zm1.38,7.53c-.61.98-.96,1.38-1.87,2.11-.19-.3-.34-.44-.66-.68.9-.61,1.33-1.05,1.79-1.87l.74.44h0Zm1.54-5.41v-1.12h-2.07v1.12h2.07Zm0,1.87v-1.13h-2.07v1.13h2.07Zm0,1.99v-1.25h-2.07v1.25h2.07Zm-.05,1.12c.4.58.59.79,1.16,1.24-.29.23-.41.34-.65.62-.52-.47-.78-.79-1.18-1.42l.66-.44h.01Zm3.09-1.27c-.13,1.7-.5,2.75-1.38,3.86-.28-.35-.38-.44-.72-.67.68-.77.98-1.43,1.15-2.55.14-.95.22-2.95.22-5.68,0-.8,0-1.09-.05-1.44.35.04.64.05,1.2.05h1.68c.59,0,.82,0,1.18-.05-.04.29-.05.65-.05,1.21v8.04c0,.8-.29,1.02-1.35,1.02-.22,0-.32,0-.94-.05-.05-.42-.08-.56-.23-.98.52.11.89.14,1.27.14.28,0,.37-.07.37-.26v-2.63h-2.35Zm.12-2.85c0,.66-.04,1.44-.06,2.04h2.29v-2.04h-2.23Zm2.23-2.76h-2.22v1.94h2.22v-1.94Z"/>
      <path class="cls-2" d="m56.92,151.48c0,.68.02,1.07.07,1.38h-1.03c.05-.34.07-.71.07-1.39v-7.76c0-.6,0-.95-.05-1.33.34.04.65.05,1.25.05h1.83c.6,0,.89,0,1.22-.05-.02.36-.04.67-.04,1.14v1.6c0,.49,0,.78.04,1.09-.34-.02-.71-.04-1.19-.04h-2.18v5.31h0Zm0-7.52h2.51v-.84h-2.51v.84Zm0,1.54h2.51v-.85h-2.51v.85Zm6.26,4.73c0,.46,0,.77.04,1.08-.37-.02-.7-.04-1.2-.04h-2.59v.79h-.9c.05-.34.06-.66.06-1.15v-2.75c0-.42,0-.75-.04-1.1.35.04.65.05,1.18.05h2.33c.53,0,.82,0,1.16-.05-.02.32-.04.65-.04,1.1v2.06h0Zm-3.75-1.44h2.93v-.96h-2.93v.96Zm0,1.76h2.93v-1.04h-2.93v1.04Zm6.38,1.07c0,.86-.28,1.09-1.35,1.09-.25,0-.92-.02-1.16-.04-.06-.4-.12-.61-.25-.92.58.07,1.07.12,1.32.12.48,0,.58-.06.58-.34v-5.36h-2.43c-.47,0-.88,0-1.19.04.02-.33.04-.63.04-1.09v-1.6c0-.42,0-.78-.04-1.14.34.04.62.05,1.22.05h2.07c.62,0,.91,0,1.26-.05-.05.48-.06.78-.06,1.32v7.92h-.01Zm-3.63-7.65h2.76v-.84h-2.76v.84Zm0,1.54h2.76v-.85h-2.76v.85Z"/>
    </g>
    <path class="cls-2" d="m71.59,145.48h-1.35v-1.36h1.35v1.36Zm-1.35,5.24v-1.35h1.35v1.35h-1.35Z"/>
    <g>
      <path class="cls-2" d="m82.97,151.98c-.8,0-1,0-1.39.05.12-.91.16-1.1.34-1.56.31-.79.82-1.48,1.58-2.15.4-.35.68-.55,1.87-1.36,1.14-.77,1.54-1.28,1.54-2,0-.88-.73-1.43-1.87-1.43-.78,0-1.34.25-1.69.76-.22.31-.31.6-.41,1.19l-1.21-.18c.17-.86.37-1.32.78-1.79.56-.63,1.42-.96,2.52-.96,1.87,0,3.08.95,3.08,2.41,0,.56-.2,1.13-.56,1.56-.38.48-.68.72-2.05,1.63-1.58,1.06-2.19,1.74-2.51,2.81h3.71c.64,0,1.13-.02,1.55-.08v1.16c-.52-.05-.92-.06-1.57-.06h-3.71Z"/>
      <path class="cls-2" d="m90.6,151.26c-.34-.34-.59-.72-.73-1.13-.31-.84-.47-1.79-.47-2.76,0-1.28.28-2.58.71-3.27.6-1.01,1.56-1.54,2.79-1.54.92,0,1.73.31,2.29.89.34.34.59.73.73,1.13.31.84.47,1.78.47,2.78,0,1.44-.32,2.75-.85,3.49-.62.86-1.51,1.29-2.66,1.29-.92,0-1.69-.3-2.28-.89h0Zm.83-7.1c-.25.28-.43.58-.53.89-.23.7-.35,1.49-.35,2.34,0,1.08.23,2.23.55,2.77.41.67,1.01,1.01,1.79,1.01.58,0,1.08-.19,1.43-.55.25-.26.46-.59.56-.95.24-.72.35-1.48.35-2.32,0-1.02-.22-2.17-.52-2.72-.38-.72-1-1.08-1.83-1.08-.61,0-1.08.19-1.45.61h0Z"/>
      <path class="cls-2" d="m98.89,151.98c-.8,0-1,0-1.39.05.12-.91.16-1.1.34-1.56.31-.79.82-1.48,1.58-2.15.4-.35.68-.55,1.87-1.36,1.14-.77,1.54-1.28,1.54-2,0-.88-.73-1.43-1.87-1.43-.78,0-1.34.25-1.69.76-.22.31-.31.6-.41,1.19l-1.21-.18c.17-.86.37-1.32.78-1.79.56-.63,1.42-.96,2.52-.96,1.87,0,3.08.95,3.08,2.41,0,.56-.2,1.13-.56,1.56-.38.48-.68.72-2.05,1.63-1.58,1.06-2.19,1.74-2.51,2.81h3.71c.64,0,1.13-.02,1.55-.08v1.16c-.52-.05-.92-.06-1.57-.06h-3.71Z"/>
      <path class="cls-2" d="m106.84,151.98c-.8,0-1,0-1.39.05.12-.91.16-1.1.34-1.56.31-.79.82-1.48,1.58-2.15.4-.35.68-.55,1.87-1.36,1.14-.77,1.54-1.28,1.54-2,0-.88-.73-1.43-1.87-1.43-.78,0-1.34.25-1.69.76-.22.31-.31.6-.41,1.19l-1.21-.18c.17-.86.37-1.32.78-1.79.56-.63,1.42-.96,2.52-.96,1.87,0,3.08.95,3.08,2.41,0,.56-.2,1.13-.56,1.56-.38.48-.68.72-2.05,1.63-1.58,1.06-2.19,1.74-2.51,2.81h3.71c.64,0,1.13-.02,1.55-.08v1.16c-.52-.05-.92-.06-1.57-.06h-3.71Z"/>
    </g>
    <path class="cls-2" d="m115.22,147.24c0-.24-.01-.44-.03-.65.23.02.47.03.78.03h2.39v-1.69h-2.51c-.58.96-1.08,1.57-1.83,2.23-.21-.33-.33-.46-.6-.66,1.1-.94,1.68-1.72,2.19-2.9.14-.33.22-.57.27-.8l.92.23c-.06.12-.08.17-.14.31-.05.09-.13.26-.24.52-.06.13-.11.24-.14.32h5.36c.48,0,.74,0,1.02-.05v.87c-.31-.04-.55-.05-1.02-.05h-2.42v1.69h1.93c.47,0,.73,0,1.02-.06v.86c-.29-.03-.56-.04-1-.04h-1.95v2.05h2.71c.5,0,.81-.02,1.14-.07v.92c-.34-.04-.68-.07-1.14-.07h-2.71v1.69c0,.5.02.77.08,1.07h-1c.06-.3.07-.55.07-1.08v-1.68h-3.89c-.47,0-.79.02-1.14.07v-.92c.33.04.66.07,1.14.07h.76v-2.19l-.02-.02Zm3.14,2.19v-2.05h-2.29v2.05h2.29Z"/>
    <g>
      <path class="cls-2" d="m125.64,142.67c.34.05.58.06,1.06.06h.85c.46,0,.66,0,1.07-.06-.07.72-.11,1.33-.11,1.99v5.9c0,.58.02.95.1,1.42h-1.33c.07-.44.1-.85.1-1.42v-6.85h-.62c-.41,0-.72.02-1.1.07v-1.12h-.02Z"/>
      <path class="cls-2" d="m133.59,142.67c.34.05.58.06,1.06.06h.85c.46,0,.66,0,1.07-.06-.07.72-.11,1.33-.11,1.99v5.9c0,.58.02.95.1,1.42h-1.33c.07-.44.1-.85.1-1.42v-6.85h-.62c-.41,0-.72.02-1.1.07v-1.12h-.02Z"/>
    </g>
    <path class="cls-2" d="m142,149.33c-.1.59-.23,1.1-.42,1.58-.29.76-.62,1.29-1.23,1.98-.21-.29-.4-.47-.72-.7.67-.66,1.01-1.21,1.28-2.09.31-1.05.43-2.37.43-4.92,0-.95,0-1.43-.05-1.83.41.04.7.05,1.19.05h4.27c.52,0,.8,0,1.18-.05-.03.32-.04.56-.04,1.17v7.17c0,.47-.1.73-.33.88-.21.12-.46.17-1.09.17-.32,0-.66,0-1.21-.04-.04-.35-.1-.55-.22-.89.56.09,1.07.12,1.54.12.37,0,.45-.06.45-.32v-2.28h-5.03Zm5.02-.8v-1.82h-4.82c0,.45-.03.96-.1,1.82h4.92Zm0-2.62v-1.69h-4.81v1.69h4.81Z"/>
    <g>
      <path class="cls-2" d="m151.45,151.26c-.34-.34-.59-.72-.73-1.13-.31-.84-.47-1.79-.47-2.76,0-1.28.28-2.58.71-3.27.6-1.01,1.56-1.54,2.79-1.54.92,0,1.73.31,2.29.89.34.34.59.73.73,1.13.31.84.47,1.78.47,2.78,0,1.44-.32,2.75-.85,3.49-.62.86-1.51,1.29-2.66,1.29-.92,0-1.69-.3-2.28-.89h0Zm.83-7.1c-.25.28-.43.58-.53.89-.23.7-.35,1.49-.35,2.34,0,1.08.23,2.23.55,2.77.41.67,1.01,1.01,1.79,1.01.58,0,1.08-.19,1.43-.55.25-.26.46-.59.56-.95.24-.72.35-1.48.35-2.32,0-1.02-.22-2.17-.52-2.72-.38-.72-1-1.08-1.83-1.08-.61,0-1.08.19-1.45.61h0Z"/>
      <path class="cls-2" d="m159.57,142.67c.34.05.58.06,1.06.06h.85c.46,0,.66,0,1.07-.06-.07.72-.11,1.33-.11,1.99v5.9c0,.58.02.95.1,1.42h-1.33c.07-.44.1-.85.1-1.42v-6.85h-.62c-.41,0-.72.02-1.1.07v-1.12h-.02Z"/>
    </g>
    <path class="cls-2" d="m166.56,144.59c0-.43-.02-.78-.06-1.11.35.04.69.05,1.2.05h5.04c.52,0,.84,0,1.16-.05-.04.33-.06.63-.06,1.04v7.05c0,.55.02.87.07,1.23h-.96v-.7h-5.5v.7h-.96c.04-.34.07-.73.07-1.22v-7h0Zm.89,2.68h5.5v-2.93h-5.5v2.93Zm0,4.02h5.5v-3.2h-5.5v3.2Z"/>
    <g>
      <path class="cls-2" d="m178.06,153.01c-.65-.77-.95-1.22-1.28-1.92-.47-1.01-.7-2.05-.7-3.17s.23-2.16.7-3.17c.33-.7.63-1.16,1.28-1.93h1.12c-.83.87-1.17,1.35-1.53,2.11-.44.92-.65,1.9-.65,2.98s.21,2.06.65,2.98c.36.76.7,1.24,1.53,2.11h-1.12Z"/>
      <path class="cls-2" d="m185.59,143.04c-.06.29-.07.59-.07,1.63,0,1.55.14,2.49.53,3.48.74,1.86,2.04,3.1,4.03,3.86-.29.29-.43.48-.62.85-1.11-.51-1.89-1.06-2.65-1.87-.88-.95-1.36-1.91-1.71-3.41-.15.86-.34,1.4-.74,2.12-.73,1.36-1.83,2.31-3.63,3.15-.18-.35-.32-.54-.62-.83,1.46-.53,2.46-1.24,3.21-2.29.54-.76.91-1.68,1.09-2.7.13-.74.19-1.57.19-2.76,0-.65,0-.95-.05-1.23h1.04Zm-4.98,4.96c.44-.58.62-.88.87-1.45.24-.57.36-.95.52-1.74l.86.29c-.21.8-.34,1.2-.59,1.83-.26.62-.43.92-.86,1.54l-.79-.46h-.01Zm6.22-.32c.81-.99,1.25-1.74,1.73-2.96l.88.42c-.07.13-.17.32-.3.58-.44.86-.9,1.58-1.56,2.43l-.75-.47h0Z"/>
    </g>
    <path class="cls-2" d="m190.48,153.01c.83-.87,1.17-1.35,1.53-2.11.44-.92.65-1.88.65-2.98s-.21-2.06-.65-2.98c-.36-.76-.7-1.24-1.53-2.11h1.13c.64.77.93,1.22,1.26,1.93.47,1.01.7,2.04.7,3.17s-.23,2.16-.7,3.17c-.33.7-.63,1.15-1.26,1.92h-1.13Z"/>
    <path class="cls-2" d="m198.11,147.91c.44-.47.67-.66,1.1-.91.55-.33,1.03-.46,1.62-.46.5,0,.95.1,1.39.32.3.14.35.18,1.02.65.89.63,1.47.87,2.08.87.3,0,.56-.05.86-.19.47-.22.78-.48,1.22-1.06l.65.61c-.53.64-.84.91-1.29,1.18-.42.24-.97.38-1.5.38-.33,0-.68-.05-1.02-.18-.44-.14-.77-.33-1.52-.87-.89-.64-1.3-.8-1.96-.8-.75,0-1.28.27-2.01,1.04l-.64-.58h0Z"/>
    <g>
      <path class="cls-2" d="m210.82,142.67c.34.05.58.06,1.06.06h.85c.46,0,.66,0,1.07-.06-.07.72-.11,1.33-.11,1.99v5.9c0,.58.02.95.1,1.42h-1.33c.07-.44.1-.85.1-1.42v-6.85h-.62c-.41,0-.72.02-1.1.07v-1.12h-.02Z"/>
      <path class="cls-2" d="m218.94,151.98c-.8,0-1,0-1.39.05.12-.91.16-1.1.34-1.56.31-.79.82-1.48,1.58-2.15.4-.35.68-.55,1.87-1.36,1.14-.77,1.54-1.28,1.54-2,0-.88-.73-1.43-1.87-1.43-.78,0-1.34.25-1.69.76-.22.31-.31.6-.41,1.19l-1.21-.18c.17-.86.37-1.32.78-1.79.56-.63,1.42-.96,2.52-.96,1.87,0,3.08.95,3.08,2.41,0,.56-.2,1.13-.56,1.56-.38.48-.68.72-2.05,1.63-1.58,1.06-2.19,1.74-2.51,2.81h3.71c.64,0,1.13-.02,1.55-.08v1.16c-.52-.05-.92-.06-1.57-.06h-3.71Z"/>
    </g>
    <path class="cls-2" d="m227.19,149.33c-.1.59-.23,1.1-.42,1.58-.29.76-.62,1.29-1.23,1.98-.21-.29-.4-.47-.71-.7.67-.66,1.01-1.21,1.28-2.09.31-1.05.43-2.37.43-4.92,0-.95,0-1.43-.05-1.83.41.04.7.05,1.19.05h4.27c.52,0,.8,0,1.18-.05-.03.32-.04.56-.04,1.17v7.17c0,.47-.1.73-.33.88-.21.12-.46.17-1.09.17-.32,0-.66,0-1.21-.04-.04-.35-.1-.55-.22-.89.56.09,1.07.12,1.54.12.37,0,.45-.06.45-.32v-2.28h-5.04Zm5.02-.8v-1.82h-4.82c0,.45-.03.96-.1,1.82h4.92Zm0-2.62v-1.69h-4.81v1.69h4.81Z"/>
    <g>
      <path class="cls-2" d="m236.64,149.64c.18.6.33.84.68,1.09.41.3.91.44,1.52.44,1.33,0,2.17-.68,2.17-1.77,0-1.15-.82-1.75-2.36-1.75-.36,0-.66.02-1.02.07v-1.1c.29.04.6.06.95.06.77,0,1.32-.17,1.69-.53.29-.29.46-.7.46-1.15,0-.94-.68-1.5-1.85-1.5-.72,0-1.21.2-1.54.62-.17.2-.25.4-.37.82l-1.2-.25c.22-.65.37-.94.71-1.28.56-.58,1.4-.88,2.46-.88,1.8,0,2.96.95,2.96,2.41,0,.73-.3,1.38-.84,1.76-.3.22-.55.31-1.13.43.83.11,1.29.31,1.7.76.38.42.58.95.58,1.64s-.25,1.29-.7,1.73c-.6.59-1.52.9-2.66.9-1.27,0-2.21-.35-2.79-1.02-.28-.32-.42-.6-.64-1.22l1.21-.28h0Z"/>
      <path class="cls-2" d="m244.76,142.67c.34.05.58.06,1.06.06h.85c.46,0,.66,0,1.07-.06-.07.72-.11,1.33-.11,1.99v5.9c0,.58.02.95.1,1.42h-1.33c.07-.44.1-.85.1-1.42v-6.85h-.62c-.41,0-.72.02-1.1.07v-1.12h-.02Z"/>
    </g>
    <path class="cls-2" d="m251.75,144.59c0-.43-.02-.78-.05-1.11.35.04.69.05,1.2.05h5.04c.52,0,.84,0,1.16-.05-.04.33-.05.63-.05,1.04v7.05c0,.55.02.87.07,1.23h-.96v-.7h-5.5v.7h-.96c.04-.34.07-.73.07-1.22v-7h-.02Zm.89,2.68h5.5v-2.93h-5.5v2.93h0Zm0,4.02h5.5v-3.2h-5.5v3.2h0Z"/>
    <g>
      <path class="cls-2" d="m263.82,153.81c-.63-.95-.89-1.45-1.17-2.24-.34-.95-.51-1.95-.51-2.98s.17-2.02.51-2.98c.27-.79.54-1.29,1.17-2.24l.83.55c-.63.95-.88,1.44-1.12,2.21s-.36,1.6-.36,2.46.12,1.71.36,2.48c.24.77.5,1.26,1.12,2.21l-.83.54h0Z"/>
      <path class="cls-2" d="m269.91,144.09c0-.44-.02-.8-.08-1.19h1.03c-.05.38-.08.75-.08,1.19v2.27h2.46c.58,0,.91-.02,1.25-.07v.93c-.37-.04-.71-.05-1.25-.05h-2.46v4.28h3.25c.56,0,.98-.02,1.33-.07v.97c-.43-.05-.8-.08-1.33-.08h-7.11c-.54,0-.96.02-1.39.08v-.97c.35.04.79.07,1.39.07h2.98v-4.28h-2.24c-.54,0-.91.02-1.25.05v-.93c.32.04.71.07,1.25.07h2.24v-2.27h0Z"/>
      <path class="cls-2" d="m276.24,153.27c.63-.95.88-1.44,1.12-2.21s.36-1.6.36-2.48-.12-1.69-.36-2.46-.5-1.26-1.12-2.21l.83-.55c.63.96.89,1.45,1.17,2.24.34.96.51,1.95.51,2.98s-.17,2.04-.51,2.98c-.28.79-.54,1.3-1.17,2.24l-.83-.54h0Z"/>
    </g>
    <path class="cls-2" d="m20.75,159.51c-.04.26-.05.64-.05,1.13v2.94c0,.61.01.9.05,1.21h-1.19c.05-.35.06-.66.06-1.21v-2.93c0-.56-.01-.83-.06-1.14h1.19Zm5.35,0c-.05.31-.06.53-.06,1.18v1.36c0,1.89-.1,2.95-.31,3.66-.34,1.14-1.1,2.04-2.29,2.71-.59.32-1.18.55-2.23.86-.16-.42-.24-.56-.6-1,1.25-.26,1.88-.5,2.57-.97,1.16-.78,1.6-1.56,1.74-3.19.04-.52.05-.78.05-2.13v-1.28c0-.73-.01-.9-.05-1.19h1.19-.01Z"/>
    <path class="cls-2" d="m29.07,166.51c.44.06.77.08,1.55.08h6.57c.8,0,1.14,0,1.57-.08v1.19c-.41-.05-.84-.06-1.56-.06h-6.6c-.72,0-1.1,0-1.54.06v-1.19h.01Zm1.21-5.73c.43.07.73.08,1.46.08h4.37c.74,0,1.02,0,1.44-.08v1.17c-.42-.05-.72-.06-1.43-.06h-4.39c-.76,0-1.02,0-1.45.06,0,0,0-1.17,0-1.17Z"/>
    <path class="cls-2" d="m47.14,167.96c.61,0,.83,0,1.16-.07v1.02c-.31-.05-.61-.06-1.16-.06h-5.83c-.59,0-.84,0-1.18.06v-1.02c.34.06.56.07,1.18.07h3.53c.25-1.19.53-2.95.64-4.04h-3.06c-.65,0-.8,0-1.14.05v-1c.34.05.64.07,1.16.07h3.08c.32,0,.46,0,.66-.08l.47.41c-.08.17-.16.49-.23.98-.26,1.86-.36,2.42-.59,3.61h1.31Z"/>
    <path class="cls-2" d="m51.18,163.63c.38.05.83.07,1.65.07h6.74c.96,0,1.2,0,1.62-.07v1.19c-.46-.05-.8-.06-1.63-.06h-6.72c-.95,0-1.25,0-1.67.06v-1.19h.01Z"/>
    <path class="cls-2" d="m65.96,162.04c-.03.15-.04.44-.05.88-.05,2.03-.37,3.19-1.19,4.23-.73.91-1.62,1.52-3.08,2.1-.22-.47-.32-.61-.66-.97.97-.29,1.55-.58,2.16-1.07,1.26-1.02,1.7-2.18,1.7-4.51,0-.34,0-.42-.05-.66h1.17Zm4.77-1.51c-.12.17-.16.22-.3.5-.83,1.64-1.92,2.73-3.48,3.5-.24-.36-.35-.48-.73-.8.84-.34,1.3-.61,1.86-1.13.54-.5.95-1.04,1.28-1.7h-6.67c-.72,0-1.03,0-1.48.06v-1.09c.42.06.77.08,1.5.08h6.38c.74,0,.82,0,1.06-.08,0,0,.58.66.58.66Z"/>
    <g>
      <path class="cls-2" d="m74.8,159.67c-.05.3-.05.31-.07,1.05-.1,3.32-.19,4.2-.64,5.41-.41,1.14-1,1.99-2.06,3.02-.31-.4-.44-.53-.86-.8.97-.77,1.58-1.62,1.98-2.75.37-1.06.53-2.59.53-5.05,0-.59,0-.66-.04-.95l1.16.06h0Zm3.05-.14c-.06.35-.07.54-.08,1.25l-.06,6.97c.95-.38,1.52-.76,2.11-1.39.64-.67,1.07-1.43,1.35-2.34.29.38.41.5.79.83-.61,1.42-1.4,2.42-2.47,3.14-.52.35-1,.59-1.69.86-.14.05-.26.1-.38.14-.14.06-.18.07-.29.13l-.56-.62c.07-.23.08-.38.08-.95l.07-6.79v-.26c0-.47-.01-.74-.06-.98h1.19,0Z"/>
      <path class="cls-2" d="m88.47,164.18c0-.35.01-.8.06-1.31-.24.48-.5.88-1.02,1.52-.64.79-1.66,1.73-2.7,2.48-.53.38-.98.66-1.92,1.2-.23-.41-.35-.55-.72-.86,1.45-.66,2.73-1.56,3.98-2.79.62-.62,1.32-1.5,1.69-2.12h-3.69c-.71,0-.98.02-1.42.07v-1.08c.43.08.66.1,1.44.1l4.25-.02v-1.05c-.01-.68-.02-.7-.06-1.07h1.13c-.04.29-.05.48-.05.73v.31l.02,1.09h1.43c.7,0,.92-.02,1.32-.08v1.04c-.3-.02-.72-.04-1.31-.04h-1.43l.07,5.66c.01.71.02,1.01.06,1.37h-1.16c.05-.37.06-.5.06-1.06v-.29l-.04-3.59v-.22h.01Z"/>
    </g>
    <path class="cls-2" d="m94.71,163.63c.38.05.83.07,1.65.07h6.74c.96,0,1.2,0,1.62-.07v1.19c-.46-.05-.8-.06-1.63-.06h-6.72c-.95,0-1.25,0-1.67.06v-1.19h0Z"/>
    <path class="cls-2" d="m111.74,160.34c-.01-.08-.02-.18-.02-.28,0-.76.61-1.37,1.37-1.37s1.37.61,1.37,1.37-.61,1.37-1.37,1.37c-.13,0-.28-.02-.4-.06l-.07.25c-.62,2.29-1.55,3.89-3,5.23-1.1,1.02-2.15,1.64-3.79,2.3-.23-.46-.34-.62-.72-1,1.08-.34,1.79-.66,2.69-1.26,1.93-1.28,3.08-3,3.74-5.58h-5.92c-.7,0-1.04.02-1.46.07v-1.14c.48.07.74.08,1.49.08h6.1v.02Zm.5-.28c0,.46.38.84.84.84s.84-.38.84-.84-.38-.84-.84-.84-.84.38-.84.84Z"/>
    <path class="cls-2" d="m115.29,167.65c.96-.04,2.4-.41,3.51-.9,2.29-1.02,3.87-2.76,4.86-5.34.34.42.47.55.89.83-.98,2.13-2.1,3.53-3.71,4.62-1.22.84-2.57,1.37-4.5,1.8-.38.08-.48.11-.74.19l-.31-1.2h0Zm.84-7.44c1.33.85,2.08,1.43,2.95,2.28l-.73.9c-.9-.96-1.86-1.74-2.93-2.38l.71-.8h0Z"/>
    <path class="cls-2" d="m130.52,162.31h-1.35v-1.36h1.35v1.36Zm-1.35,5.24v-1.35h1.35v1.35h-1.35Z"/>
    <g>
      <path class="cls-2" d="m141.9,168.81c-.8,0-1,0-1.39.05.12-.91.16-1.1.34-1.56.31-.79.82-1.48,1.58-2.15.4-.35.68-.55,1.87-1.36,1.14-.77,1.54-1.28,1.54-2,0-.88-.73-1.43-1.87-1.43-.78,0-1.34.25-1.69.76-.22.31-.31.6-.41,1.19l-1.21-.18c.17-.86.37-1.32.78-1.79.56-.63,1.42-.96,2.52-.96,1.87,0,3.08.95,3.08,2.41,0,.56-.2,1.13-.56,1.56-.38.48-.68.72-2.05,1.63-1.58,1.06-2.19,1.74-2.51,2.81h3.71c.64,0,1.13-.02,1.55-.08v1.16c-.52-.05-.92-.06-1.57-.06h-3.71Z"/>
      <path class="cls-2" d="m149.53,168.09c-.34-.34-.59-.72-.73-1.13-.31-.84-.47-1.79-.47-2.76,0-1.28.28-2.58.71-3.27.6-1.01,1.56-1.54,2.79-1.54.92,0,1.73.31,2.29.89.34.34.59.73.73,1.13.31.84.47,1.78.47,2.78,0,1.44-.32,2.75-.85,3.49-.62.86-1.51,1.29-2.66,1.29-.92,0-1.69-.3-2.28-.89h0Zm.83-7.1c-.25.28-.43.58-.53.89-.23.7-.35,1.49-.35,2.34,0,1.08.23,2.23.55,2.77.41.67,1.01,1.01,1.79,1.01.58,0,1.08-.19,1.43-.55.25-.26.46-.59.56-.95.24-.72.35-1.48.35-2.32,0-1.02-.22-2.17-.52-2.72-.38-.72-1-1.08-1.83-1.08-.61,0-1.08.19-1.45.61h0Z"/>
      <path class="cls-2" d="m157.82,168.81c-.8,0-1,0-1.39.05.12-.91.16-1.1.34-1.56.31-.79.82-1.48,1.58-2.15.4-.35.68-.55,1.87-1.36,1.14-.77,1.54-1.28,1.54-2,0-.88-.73-1.43-1.87-1.43-.78,0-1.34.25-1.69.76-.22.31-.31.6-.41,1.19l-1.21-.18c.17-.86.37-1.32.78-1.79.56-.63,1.42-.96,2.52-.96,1.87,0,3.08.95,3.08,2.41,0,.56-.2,1.13-.56,1.56-.38.48-.68.72-2.05,1.63-1.58,1.06-2.19,1.74-2.51,2.81h3.71c.64,0,1.13-.02,1.55-.08v1.16c-.52-.05-.92-.06-1.57-.06h-3.71Z"/>
      <path class="cls-2" d="m165.44,166.47c.18.6.34.84.68,1.09.41.3.91.44,1.52.44,1.33,0,2.17-.68,2.17-1.77,0-1.15-.82-1.75-2.36-1.75-.36,0-.66.02-1.02.07v-1.1c.29.04.6.06.95.06.77,0,1.32-.17,1.69-.53.29-.29.46-.7.46-1.15,0-.94-.68-1.5-1.85-1.5-.72,0-1.21.2-1.54.62-.17.2-.25.4-.37.82l-1.2-.25c.22-.65.37-.94.71-1.28.56-.58,1.4-.88,2.46-.88,1.8,0,2.96.95,2.96,2.41,0,.73-.3,1.38-.84,1.76-.3.22-.55.31-1.13.43.83.11,1.3.31,1.7.76.38.42.58.95.58,1.64s-.25,1.29-.7,1.73c-.6.59-1.52.9-2.66.9-1.27,0-2.21-.35-2.79-1.02-.28-.32-.42-.6-.64-1.22l1.21-.28h0Z"/>
    </g>
    <path class="cls-2" d="m174.15,164.07c0-.24,0-.44-.03-.65.23.02.47.03.78.03h2.39v-1.69h-2.51c-.58.96-1.08,1.57-1.83,2.23-.21-.33-.33-.46-.61-.66,1.1-.94,1.68-1.72,2.19-2.9.14-.33.22-.57.28-.8l.92.23c-.05.12-.08.17-.14.31-.05.09-.13.26-.24.52-.06.13-.11.24-.14.32h5.36c.48,0,.74,0,1.02-.05v.87c-.31-.04-.55-.05-1.02-.05h-2.42v1.69h1.93c.47,0,.73,0,1.02-.06v.86c-.29-.03-.56-.04-1-.04h-1.95v2.05h2.71c.5,0,.81-.02,1.14-.07v.92c-.34-.04-.68-.07-1.14-.07h-2.71v1.69c0,.5.02.77.08,1.07h-1c.05-.3.07-.55.07-1.08v-1.68h-3.89c-.47,0-.79.02-1.14.07v-.92c.33.04.66.07,1.14.07h.76v-2.19l-.02-.02Zm3.13,2.19v-2.05h-2.29v2.05h2.29Z"/>
    <g>
      <path class="cls-2" d="m184.4,168.09c-.34-.34-.59-.72-.73-1.13-.31-.84-.47-1.79-.47-2.76,0-1.28.28-2.58.71-3.27.6-1.01,1.56-1.54,2.79-1.54.92,0,1.73.31,2.29.89.34.34.59.73.73,1.13.31.84.47,1.78.47,2.78,0,1.44-.32,2.75-.85,3.49-.62.86-1.51,1.29-2.66,1.29-.92,0-1.69-.3-2.28-.89h0Zm.83-7.1c-.25.28-.43.58-.53.89-.23.7-.35,1.49-.35,2.34,0,1.08.23,2.23.55,2.77.41.67,1.01,1.01,1.79,1.01.58,0,1.08-.19,1.43-.55.25-.26.46-.59.56-.95.24-.72.35-1.48.35-2.32,0-1.02-.22-2.17-.52-2.72-.38-.72-1-1.08-1.83-1.08-.61,0-1.08.19-1.45.61h0Z"/>
      <path class="cls-2" d="m192.52,159.5c.34.05.58.06,1.06.06h.85c.46,0,.66,0,1.07-.06-.07.72-.11,1.33-.11,1.99v5.9c0,.58.02.95.1,1.42h-1.33c.07-.44.1-.85.1-1.42v-6.85h-.62c-.41,0-.72.02-1.1.07v-1.12h-.02Z"/>
    </g>
    <path class="cls-2" d="m200.94,166.16c-.1.59-.23,1.1-.42,1.58-.29.76-.62,1.29-1.23,1.98-.21-.29-.4-.47-.71-.7.67-.66,1.01-1.21,1.28-2.09.31-1.05.43-2.37.43-4.92,0-.95,0-1.43-.05-1.83.41.04.7.05,1.19.05h4.27c.52,0,.8,0,1.18-.05-.03.32-.04.56-.04,1.17v7.17c0,.47-.1.73-.33.88-.21.12-.46.17-1.09.17-.32,0-.66,0-1.21-.04-.04-.35-.1-.55-.22-.89.56.09,1.07.12,1.54.12.37,0,.45-.06.45-.32v-2.28h-5.04Zm5.02-.8v-1.82h-4.82c0,.45-.03.96-.1,1.82h4.92Zm0-2.62v-1.69h-4.81v1.69h4.81Z"/>
    <g>
      <path class="cls-2" d="m210.39,168.09c-.34-.34-.59-.72-.73-1.13-.31-.84-.47-1.79-.47-2.76,0-1.28.28-2.58.71-3.27.6-1.01,1.56-1.54,2.79-1.54.92,0,1.73.31,2.29.89.34.34.59.73.73,1.13.31.84.47,1.78.47,2.78,0,1.44-.32,2.75-.85,3.49-.62.86-1.51,1.29-2.66,1.29-.92,0-1.69-.3-2.28-.89h0Zm.83-7.1c-.25.28-.43.58-.53.89-.23.7-.35,1.49-.35,2.34,0,1.08.23,2.23.55,2.77.41.67,1.01,1.01,1.79,1.01.58,0,1.08-.19,1.43-.55.25-.26.46-.59.56-.95.24-.72.35-1.48.35-2.32,0-1.02-.22-2.17-.52-2.72-.38-.72-1-1.08-1.83-1.08-.61,0-1.08.19-1.45.61h0Z"/>
      <path class="cls-2" d="m216.94,165.49c.28-.31.54-.61.83-.98l2.99-3.69c.43-.53.65-.82.91-1.25h1.12c-.06.73-.07,1.08-.07,2.03v3.93h.44c.48,0,.79-.02,1.24-.08v1.14c-.46-.06-.73-.08-1.24-.08h-.44v1c0,.59.02.89.1,1.32h-1.27c.08-.41.11-.77.11-1.33v-.98h-3.25c-.68,0-1.03,0-1.45.05v-1.06l-.02-.02Zm4.7-2.83c0-.64,0-1,.06-1.58-.24.36-.48.68-.86,1.15l-2.63,3.31h3.43v-2.88h0Z"/>
    </g>
    <path class="cls-2" d="m225.52,161.42c0-.43-.02-.78-.06-1.11.35.04.69.05,1.2.05h5.04c.52,0,.84,0,1.16-.05-.04.33-.06.63-.06,1.04v7.05c0,.55.02.87.07,1.23h-.96v-.7h-5.5v.7h-.96c.04-.34.07-.73.07-1.22v-7h0Zm.89,2.68h5.5v-2.93h-5.5v2.93Zm0,4.02h5.5v-3.2h-5.5v3.2Z"/>
    <g>
      <path class="cls-2" d="m237.6,170.64c-.63-.95-.89-1.45-1.17-2.24-.34-.95-.51-1.95-.51-2.98s.17-2.02.51-2.98c.27-.79.54-1.29,1.17-2.24l.83.55c-.63.95-.88,1.44-1.12,2.21-.24.77-.36,1.6-.36,2.46s.12,1.71.36,2.48c.24.77.5,1.26,1.12,2.21l-.83.54h0Z"/>
      <path class="cls-2" d="m243.35,162.83c-.09.22-.11.26-.23.7-.61,2.05-1.67,3.65-3.22,4.91-.25-.31-.41-.44-.74-.67.68-.47,1.23-.99,1.77-1.68.67-.88,1.07-1.67,1.4-2.86h-1.69c-.44,0-.79.02-1.06.07v-.96c.3.04.55.05,1.1.05h1.17c.57,0,.81,0,1.02-.04l.48.48h0Zm5.26-.77c-.1.09-.21.21-.34.36-.61.7-1.32,1.39-2.29,2.18.97,1.41,1.95,2.29,3.36,3.03-.31.29-.4.4-.67.83-.79-.5-1.66-1.23-2.27-1.92-.79-.92-1.32-1.86-1.76-3.1.05,1.17.07,1.5.07,2.02v3.08c0,.74-.24.95-1.1.95-.4,0-.89-.02-1.4-.07-.03-.37-.08-.55-.22-.9.64.1,1.06.13,1.51.13.29,0,.35-.06.35-.3v-7.44c0-.42-.02-.77-.08-1.12h1c-.05.36-.08.7-.08,1.12v.8c.15.75.4,1.38.86,2.2,1.21-1.02,1.91-1.8,2.24-2.49l.81.64h0Z"/>
      <path class="cls-2" d="m250.02,170.1c.63-.95.88-1.44,1.12-2.21.24-.77.36-1.6.36-2.48s-.12-1.69-.36-2.46-.5-1.26-1.12-2.21l.83-.55c.63.96.89,1.45,1.17,2.24.34.96.51,1.95.51,2.98s-.17,2.04-.51,2.98c-.28.79-.54,1.3-1.17,2.24l-.83-.54h0Z"/>
    </g>
  </g>
  <g>
    <g>
      <path class="cls-2" d="m49.99,69.41c-.89-.14-1.12-.14-2.54-.14-.23,3.19-.52,4.74-1.38,7.01-.55,1.5-1.21,2.8-2.13,4.13,1.96,2.02,3.63,3.19,6.37,4.4-.89,1.11-1.21,1.69-1.79,3.13-2.6-1.38-4.58-2.94-6.58-5.07-2.02,2.05-4.35,3.66-7.47,5.12-.58-1.25-1.07-1.99-1.93-2.91,3.23-1.08,5.48-2.46,7.53-4.6-1.33-1.99-2.19-3.99-2.8-6.51-.58.89-.63.97-1.7,2.24-.81-1-1.44-1.58-1.99-1.94-.66-.03-1.3-.06-2.31-.06h-4.04v6.54c0,.97.26,1.08,2.28,1.08,1.79,0,2.42-.17,2.65-.72.17-.36.26-1.58.26-3.13v-.42c1.07.53,1.87.83,3.09,1.08-.12,2.58-.4,3.99-.92,4.65-.75.94-2.31,1.33-5.42,1.33-4.15,0-4.99-.5-4.99-2.91v-7.37c0-1.5-.03-2.13-.12-2.96.95.08,1.61.11,2.97.11h4.24v-5.01h-4.24c-1.3,0-2.25.06-3.14.14v-3.05c.87.11,1.82.17,3.14.17h4.3c1.3,0,2.19-.03,3.09-.14-.12.94-.14,1.74-.14,2.85v4.9c0,.72,0,1.02.03,1.61,1.76-2.41,2.74-4.43,3.49-7.01.4-1.44.69-2.99.72-4.02l3.37.53c-.09.22-.2.6-.32,1.14-.26,1.11-.49,1.88-.81,2.94h6.37c1.24,0,2.1-.06,2.85-.14v3.01Zm-10.21-.14c-.26.55-.29.66-.55,1.19.49,3.05,1.3,5.15,2.8,7.48,1.53-2.58,2.19-5.01,2.37-8.67h-4.62Z"/>
      <path class="cls-2" d="m64.67,78.38c-.55.5-.89.78-1.73,1.44v4.46c1.9-.33,4.04-.8,5.22-1.14v2.66c-3.81.94-7.73,1.63-11.74,2.08l-.58-2.94h1.21c.55,0,1.67-.08,2.88-.22v-2.94c-1.93,1.11-3.89,1.97-6.43,2.88-.43-1-.81-1.58-1.61-2.63,3.81-.94,6.43-1.99,9-3.66h-5.34c-1.38,0-2.19.03-3.14.14v-2.94c.92.11,1.82.14,3.26.14h8.25v-.44c0-.66-.03-1.08-.12-1.61h3.32c-.09.5-.12.91-.12,1.63v.42h8.22c1.36,0,2.36-.06,3.11-.14v2.94c-.95-.11-1.79-.14-3.14-.14h-6.86c.58,1.03,1.1,1.63,2.22,2.6,1.56-1.05,2.16-1.52,3.09-2.52l2.65,1.38c-1.53,1.27-2.37,1.91-3.52,2.66,1.96,1.11,3.92,1.83,6.43,2.38-.66.8-1.07,1.52-1.67,2.94-3.92-1.27-6.52-2.63-8.82-4.63-1.64-1.44-2.62-2.8-3.43-4.82h-.61v.02Zm-6.11-6.9c-1.18.55-2.13.94-3.86,1.58-.87.31-.98.33-1.61.58l-.98-2.85c2.02-.36,3.49-.8,6.46-1.97v-4.18c0-.97-.06-1.63-.17-2.33h3.32c-.12.61-.14,1.14-.14,2.33v7.31c0,1.55.03,1.88.12,2.52h-3.29c.12-.72.17-1.44.17-2.52v-.47h-.02Zm-3.89-8.48c1.56,1.38,2.05,1.88,3.46,3.6l-2.19,1.91c-1.15-1.61-1.76-2.27-3.46-3.77,0,0,2.19-1.74,2.19-1.74Zm10.73,4.71c-1.24,0-2.05.03-2.85.14v-2.85c.81.11,1.56.14,2.85.14h2.91v-.64c0-1.03-.03-1.55-.17-2.19h3.43c-.12.61-.14,1.11-.14,2.13v.69h4.04c1.3,0,2.08-.03,2.88-.14v2.85c-.78-.11-1.53-.14-2.88-.14h-4.04v2.74h3.14c1.33,0,1.96-.03,2.71-.14v2.85c-.66-.11-1.33-.14-2.62-.14h-8.68c-1.1,0-2.13.06-2.83.14v-2.83c.69.08,1.44.11,2.65.11h2.51v-2.74h-2.91v.02Z"/>
      <path class="cls-2" d="m86.52,67.66c-1.59,0-2.6.06-3.72.17v-3.27c1.01.11,1.99.17,3.75.17h15.51c1.7,0,2.62-.06,3.72-.17v3.27c-1.18-.11-2.13-.17-3.69-.17h-6.34v14.82h7.73c1.67,0,2.77-.06,3.92-.19v3.35c-1.07-.14-2.36-.19-3.92-.19h-18.4c-1.5,0-2.71.06-3.92.19v-3.35c1.18.14,2.22.19,3.98.19h7.21v-14.82h-5.83Z"/>
    </g>
    <path class="cls-2" d="m121.26,76.17h-6.83c-1.04,0-1.87.03-2.65.11v-2.41c.69.08,1.44.11,2.71.11h6.78v-1.05h-6.11c-1.04,0-1.76.03-2.42.08.06-.58.09-1.16.09-1.86v-1.83c0-.78-.03-1.27-.09-1.94.75.06,1.36.08,2.45.08h6.08v-1.05h-7.9c-1.41,0-2.36.06-3.37.17v-2.74c.89.11,1.87.17,3.55.17h7.73c-.03-.97-.06-1.27-.17-1.88h3.49c-.14.61-.17.89-.2,1.88h8.1c1.67,0,2.62-.06,3.55-.17v2.74c-.98-.11-1.99-.17-3.37-.17h-8.28v1.05h6.52c1.1,0,1.73-.03,2.42-.08-.06.61-.09,1.08-.09,1.94v1.83c0,.83.03,1.25.09,1.86-.63-.06-1.38-.08-2.31-.08h-6.63v1.05h6.46c1.7,0,2.28-.03,3.09-.08-.09.69-.09,1.08-.09,2.52v.97c1.24,0,1.93-.06,2.51-.14v2.63c-.69-.08-1.24-.14-2.51-.14v1.61c0,1.44.03,2.19.14,2.99h-3.23v-1.08h-6.37v1.55c0,2.49-.72,3.02-4.24,3.02-.69,0-1.85-.06-2.77-.11-.17-1.11-.35-1.66-.89-2.74,1.56.17,2.62.25,3.66.25.89,0,1.12-.14,1.12-.64v-1.33h-6.78c-1.3,0-1.99.03-2.85.14v-2.58c.78.08,1.27.11,2.74.11h6.89v-1.19h-8.28c-1.64,0-2.42.03-3.17.14v-2.63c.75.11,1.47.14,3.11.14h8.33v-1.22h-.01Zm-5.39-6.54v1.14h5.39v-1.14h-5.39Zm8.51,1.14h5.8v-1.14h-5.8v1.14Zm6.37,6.62v-1.22h-6.37v1.22h6.37Zm-6.37,3.55h6.37v-1.19h-6.37v1.19Z"/>
    <path class="cls-2" d="m150.04,79.07c-1.64,3.57-3.49,5.21-5.85,5.21-3.29,0-5.65-3.21-5.65-7.67,0-3.05,1.12-5.9,3.17-8.06,2.42-2.55,5.83-3.88,9.92-3.88,6.92,0,11.42,4.04,11.42,10.28,0,4.79-2.6,8.61-7.01,10.33-1.38.55-2.51.83-4.53,1.16-.49-1.47-.84-2.08-1.76-3.24,2.65-.33,4.38-.78,5.74-1.52,2.51-1.33,4.01-3.96,4.01-6.92,0-2.66-1.24-4.82-3.55-6.15-.89-.5-1.64-.72-2.91-.83-.55,4.35-1.56,8.17-3,11.3h0Zm-4.24-9.92c-2.42,1.66-3.92,4.51-3.92,7.48,0,2.27,1.01,4.07,2.28,4.07.95,0,1.93-1.16,2.97-3.55,1.1-2.49,2.05-6.23,2.39-9.36-1.5.17-2.54.55-3.72,1.36Z"/>
    <path class="cls-2" d="m176.01,82.51c0,1.14-.06,1.8-.23,2.35-.26.97-1.3,1.61-2.65,1.61-1.82,0-4.01-.78-5.45-1.97-1.04-.86-1.59-1.94-1.59-3.13,0-1.3.89-2.77,2.48-4.1,1.04-.86,2.31-1.58,4.21-2.35l-.03-4.27c-.15,0-.55.02-1.18.06-.43.03-.84.03-1.56.03-.43,0-1.24-.03-1.59-.03-.37-.03-.63-.03-.72-.03-.12,0-.35,0-.61.03l-.03-3.1c.81.17,1.96.25,3.49.25.29,0,.61,0,1.01-.03.69-.03.84-.03,1.15-.03v-1.83c0-1.58-.03-2.3-.17-3.19h3.6c-.14.89-.17,1.47-.17,3.02v1.77c2.16-.25,4.09-.61,5.57-1.05l.12,3.1c-.52.08-1.07.17-3.06.5-.95.17-1.53.25-2.62.36v3.6c1.96-.55,3.78-.78,5.88-.78,4.82,0,8.25,2.83,8.25,6.76,0,3.6-2.8,6.31-6.55,6.31-2.34,0-3.98-1.08-4.73-3.07-.37-.94-.49-1.86-.49-3.55,1.47-.39,1.96-.58,3.2-1.22-.06.53-.06.78-.06,1.22,0,1.16.12,1.91.4,2.44.32.58,1.01.94,1.82.94,1.7,0,2.91-1.3,2.91-3.07,0-2.38-2.02-3.93-5.1-3.93-1.73,0-3.49.3-5.54.91l.03,5.46h0Zm-3.26-4.46c-2.16,1.11-3.43,2.33-3.43,3.32,0,.47.29.89.95,1.27.58.39,1.3.61,1.85.61.49,0,.63-.25.63-1.16v-4.04h0Zm15.98-5.59c-1.44-2.19-3.55-4.38-5.77-5.98l2.71-1.75c2.51,1.86,4.18,3.52,5.71,5.68l-2.65,2.05h0Z"/>
    <path class="cls-2" d="m198.91,68.52c-.81,1.58-1.36,2.41-2.51,3.77-.75-.86-1.38-1.41-2.48-2.1,1.85-1.88,2.88-3.71,3.69-6.48.23-.72.32-1.19.35-1.72l3.26.61c-.14.36-.23.61-.49,1.44-.17.58-.35,1.05-.61,1.74h4.35c1.36,0,2.05-.03,2.85-.14v3.02c-.84-.08-1.76-.14-2.85-.14h-1.07c-.04,1.96-.1,3.41-.17,4.35h1.73c1.24,0,1.9-.03,2.71-.14v3.05c-.78-.11-1.56-.14-2.8-.14h-1.93c-.06.39-.09.53-.17.94.66,1.14.89,1.47,1.5,2.19,1.12,1.38,1.99,2.19,3.75,3.49-.75.91-1.21,1.72-1.76,3.02-2.08-1.83-3.52-3.49-4.47-5.23-1.12,2.83-2.48,4.54-5.57,7.01-.63-1.11-1.21-1.69-2.39-2.49,2.28-1.36,3.78-2.94,4.85-5.01.55-1.14.89-2.3,1.18-3.91h-2.22c-1.53,0-2.31.03-3.14.17v-3.1c.84.14,1.56.17,3.23.17h2.45c.06-.86.12-2.33.14-4.35h-1.41v-.02Zm12.52,18.39h-3.2c.09-.89.17-2.08.17-3.19v-16.31c0-1.11-.06-2.02-.17-2.94.84.11,1.41.14,2.65.14h6.06c1.15,0,1.85-.03,2.68-.14-.12.89-.14,1.66-.14,2.94v16.04c0,1.27.06,2.46.17,3.49h-3.26v-1.91h-4.96v1.88h0Zm.06-4.65h4.9v-14.87h-4.9v14.87Z"/>
    <path class="cls-2" d="m228.11,68.35c-.43,1.52-.92,4.1-1.3,6.81-.04.26-.09.53-.14.8l.06.06c1.67-1.55,5.25-2.63,8.74-2.63,4.9,0,8.13,2.33,8.13,5.87,0,2.02-1.13,4.07-2.97,5.35-1.87,1.3-4.27,1.88-7.61,1.88-2.48,0-4.07-.19-7.35-.97-.03-1.72-.09-2.27-.43-3.57,2.83.94,5.31,1.38,7.76,1.38,4.07,0,6.89-1.63,6.89-3.99,0-1.86-1.82-2.96-4.87-2.96-2.57,0-5.25.75-7.18,2.02-.52.36-.69.53-1.3,1.19l-3.63-.11c.09-.5.09-.61.23-1.66.23-1.72.69-4.79,1.21-8.06.12-.66.14-1,.17-1.61l3.6.19h-.01Zm.37-5.43c1.99,1.05,7.5,2.63,10.76,3.07l-1.18,3.19c-4.93-1.08-7.96-1.99-11.25-3.46,0,0,1.67-2.8,1.67-2.8Z"/>
    <path class="cls-2" d="m271.2,85.61c-.21.02-.65.07-1.3.14-2.11.22-5.91.42-7.81.42-5.39,0-7.73-1-8.59-3.66-.4-1.25-.52-2.8-.52-7.56,0-.42,0-.53.03-2.69-2.69.19-4.47.35-5.34.5l-.23-3.24c.4.03.69.03.84.03.26,0,1.85-.08,4.7-.25.03-.44.03-.69.03-.86,0-2.94-.03-3.71-.2-4.71h3.86c-.11.68-.2,2.48-.26,5.4,2.69-.13,5.47-.26,8.33-.39,0-2.93-.06-4.76-.17-5.48h3.61c-.12.89-.14,1.22-.14,1.91v3.46c3.09-.09,4.96-.18,5.59-.25l.06,3.3c-.66-.08-.92-.08-1.64-.08-1.01,0-2.65.03-4.01.03-.03,2.8-.29,4.87-.75,5.87-.63,1.39-1.82,2.08-3.52,2.08-1.36,0-2.62-.28-4.12-.94.03-.55.03-.72.03-1.11,0-.75-.06-1.27-.2-2.27,1.56.86,2.91,1.36,3.78,1.36.75,0,1.07-.36,1.24-1.44.14-.8.23-1.91.26-3.46-2.92.11-5.72.24-8.39.39v.75c0,.09-.01.63-.03,1.61v.58c0,1.44.09,4.46.14,5.01.23,2.33,1.47,2.91,6.17,2.91,3.75,0,6.46-.33,8.33-1.05l.23,3.71v-.02Z"/>
  </g>
</svg>