<?xml version="1.0" encoding="utf-8"?>
<!-- Generator: Adobe Illustrator 27.1.1, SVG Export Plug-In . SVG Version: 6.00 Build 0)  -->
<svg version="1.1" id="レイヤー_1" xmlns="http://www.w3.org/2000/svg" xmlns:xlink="http://www.w3.org/1999/xlink" x="0px"
	 y="0px" viewBox="0 0 150 150" style="enable-background:new 0 0 150 150;" xml:space="preserve">
<style type="text/css">
	.st0{fill:#6D6D6C;}
</style>
<path id="バラ_00000029747172588540988910000000721088490984952983_" class="st0" d="M35.4,51.2c-0.1,0-0.1,0-0.2,0
	c0,0.1-0.1,0.3-0.1,0.4c-0.1,0.3-0.6,0.3-0.6-0.1c0.5-2.2,1.9-3.9,3.7-5.2c0.3-0.2,0.6,0.2,0.3,0.4c-1.4,1.1-2.6,2.4-3.2,4
	c3.1-0.3,5-2.4,4.4-5.4c-0.1-0.3,0.5-0.4,0.6-0.1C41,48.5,38.8,50.9,35.4,51.2z M41.2,42.9c-0.2-0.3-0.7,0-0.5,0.3
	c2,2.7,2.4,6,0.1,8.7c-0.2,0.3,0.2,0.6,0.4,0.3C43.8,49.4,43.3,45.8,41.2,42.9z M35.4,46c-2.3,1.3-3.8,3.5-4.8,5.8
	c-0.1,0.3,0.4,0.5,0.5,0.2c1-2.2,2.4-4.3,4.6-5.6C36,46.2,35.7,45.8,35.4,46z M40,53c-3,0.7-5.8,0.3-8.5-0.9
	c-0.3-0.1-0.5,0.3-0.2,0.5c2.8,1.2,5.7,1.7,8.8,0.9C40.4,53.4,40.4,52.9,40,53z M47.5,54.5c-2.6,0.7-5.2,1.8-7.8,2.5
	c3.4-2.7,4.9-6.9,4.7-11c0-0.3-0.6-0.3-0.6,0.1c0.2,4-1.4,8.1-4.7,10.7c-0.1,0.1-0.1,0.2-0.1,0.3c-3.1,0.7-6.1,0.6-8.8-1.8
	c-0.3-0.2-0.6,0.2-0.4,0.4c2.3,2,5.1,2.7,8.2,2.2c3.4-0.5,6.4-2.1,9.7-2.9C48,54.9,47.8,54.5,47.5,54.5z M49.6,60.3
	c-3.1,1.9-6.6,3.3-10.1,4.4c-2.7,0.8-6.5,1.8-9.4,1c1.6-0.6,3.1-1.4,4.6-2.3c0.1,0,0.3,0.1,0.5,0.1c0.3,0.1,0.4-0.4,0.2-0.5
	c1.9-1.2,3.8-2.4,6-3.2c0.3-0.1,0.1-0.6-0.2-0.5c-2.4,0.8-4.4,2.2-6.4,3.5c-4.2-1-6.7-4.8-9-8c-0.2-0.3-0.7,0-0.5,0.3
	c2.3,3.2,4.7,6.9,8.8,8.1c-1.5,0.9-3,1.7-4.7,2.2c-0.2-0.1-0.4-0.2-0.6-0.3c-0.3-0.2-0.7,0.2-0.4,0.4c0,0,0.1,0,0.1,0.1
	c-0.3,0.1-0.2,0.6,0.1,0.5c0.2,0,0.5-0.1,0.7-0.2c2.9,1.1,6.5,0.3,9.4-0.4c4-1,7.9-2.7,11.3-4.8C50.2,60.5,49.9,60.1,49.6,60.3z
	 M35.3,38.6c-3.7,4-6.1,8.8-8.7,13.4c-0.2,0.3,0.4,0.5,0.5,0.2c2.6-4.6,5-9.3,8.6-13.3C36,38.6,35.5,38.3,35.3,38.6z M46.9,38.1
	c-3.8,0.3-7.7,0.1-11.4-0.7c-0.4-0.1-0.4,0.4-0.1,0.5c3.8,0.8,7.7,1,11.5,0.7C47.3,38.6,47.2,38.1,46.9,38.1z M59.4,41.2
	c0-0.1-0.1-0.2-0.2-0.2c-3.1-0.2-6.1-0.5-9.2-0.8c0-0.1-0.1-0.1-0.1-0.2c-0.5-0.6-0.6-0.4-1.5-0.3c-4.3,0.4-8.5,1.7-12.5,3.1
	c-0.3,0.1-0.1,0.6,0.2,0.5c4.2-1.4,8.5-2.6,12.9-3.1c0.1,0,0.2,0,0.3,0.1c-0.1,0.1-0.1,0.4,0.2,0.4c0.1,0,0.3,0,0.4,0
	c0.3,0.3,0.5,0.6,0.7,0.8c0.6,0.5,1.3,1,2,1.3c1.6,0.8,3.3,1.3,5.1,1.4c0.4,0,0.4-0.5,0.1-0.5c-2-0.2-3.9-0.7-5.6-1.7
	c-0.6-0.4-1.1-0.8-1.6-1.2c2.3,0.2,4.7,0.4,7,0.6c0.6,0,1.3-0.1,1.4,0.5c0.1,0.5,0.1,0.9,0.2,1.4c0.2,1.3,0.3,2.6-0.4,3.7
	c-0.2,0.3,0.4,0.5,0.5,0.2C60.2,45.2,59.6,43.1,59.4,41.2z M51.5,43.3c-0.1-0.3-0.6-0.1-0.5,0.2c1.3,4.1-0.3,8.5-2.5,12.2
	c-0.2,0.3,0.3,0.5,0.5,0.2C51.3,52.1,52.9,47.5,51.5,43.3z M59.8,46.8c-3.9,6.3-10.3,9.7-17.7,11.3c-0.4,0.1-0.3,0.6,0.1,0.5
	c3.7-0.8,7.3-2,10.5-3.9c3.2-1.9,5.7-4.6,7.6-7.7C60.5,46.7,60,46.6,59.8,46.8z M60,49c-1.8,2.9-3.7,5.8-6.3,8.1
	c-2.7,2.3-6.1,3.3-9.6,3.6c-0.4,0-0.3,0.6,0.1,0.5c3.7-0.3,7.1-1.4,9.9-3.7c2.8-2.3,4.7-5.3,6.5-8.3C60.7,48.9,60.2,48.7,60,49z
	 M52.8,44.2c-0.2-0.3-0.7-0.1-0.5,0.2c1.2,2.4,2,5,1.7,7.7c0,0.3,0.5,0.4,0.6,0.1C54.8,49.4,54,46.8,52.8,44.2z M28.1,64.2
	c-0.6-1.5-0.8-3-0.9-4.6c0-0.3-0.6-0.3-0.6,0.1c0.1,1.6,0.3,3.2,0.9,4.8C27.7,64.7,28.2,64.5,28.1,64.2z M55.5,58
	c0-0.3-0.5-0.4-0.6-0.1c-0.4,3.4-1.2,6.8-0.4,10.2c0.1,0.3,0.6,0.3,0.6-0.1C54.4,64.7,55.2,61.3,55.5,58z M58.8,118.6
	c-1.1-1-2.1-2.2-3.1-3.3c-0.2-0.2-0.3-0.4-0.5-0.5c0,0.1-0.1,0.1-0.3,0.1c-3.9-0.4-7.7-2.1-8.7-5.9c0-0.2,0.1-0.3,0.3-0.3
	c3.4,0.3,6.1,2.7,8.3,5c1.1,1.2,2.2,2.4,3.3,3.6c0.6,0.6,1.4,1.6,2.3,1.9c-0.3-2-0.6-4-0.9-6c-0.6-5.5-1.1-11.4,0.9-16.7
	c-0.2-0.9-0.5-1.8-0.7-2.7c-0.1,0.1-0.2,0.2-0.4,0.1c-1.9-1.5-3.8-3.1-5.8-4.6c-0.8-0.1-1.6-0.3-2.1-0.8c0,0.1,0,0.1-0.1,0.2
	c-2.8,1.8-5.7,3-9.1,2.9c-0.1,0-0.3-0.2-0.2-0.3c0.9-3.7,4.5-5.8,8.5-5.6c0.1,0,0.2,0.1,0.2,0.2c0.3,1.1,0.7,2.5,2,2.8
	c0.2,0,0.4,0.1,0.5,0.1c0.1-0.2,0.3-0.3,0.4-0.1l0.3,0.2c0.4,0,0.9,0.1,1.3,0.1c0.4,0,0.3,0.6-0.1,0.5c-0.2,0-0.4,0-0.5-0.1l5,4
	c-0.5-1.9-1.1-3.8-1.8-5.7c-0.1-0.2-0.1-0.4-0.2-0.6c0,0.3,0,0.6,0,0.9c0,0.3-0.5,0.4-0.6,0.1c-0.1-0.8-0.1-1.6,0-2.4
	c-0.4-1.1-0.9-2.3-1.3-3.5c-0.3-0.8-0.6-1.6-0.9-2.5c-1.7-4.3-3.7-8.6-5.7-12.8c-0.1-0.1,0-0.2,0-0.3c-4.1,1.9-9.1,1.6-13.6,0.4
	c-0.3-0.1-0.1-0.6,0.2-0.5c5.9,1.6,12.9,1.5,17.1-3.4c0.2-0.3,0.7,0.1,0.4,0.3c-1.1,1.3-2.5,2.3-4,3.1c0.1,0,0.2,0,0.3,0.1
	c1.3,2.6,2.5,5.3,3.7,8c-0.2-0.8-0.4-1.6-0.6-2.4c-0.5-2.4-0.9-4.9-0.4-7.4c0.1-0.3,0.6-0.3,0.6,0.1c-0.5,2.6,0,5.3,0.5,7.8
	c0.5,2.3,1.2,4.5,1.9,6.8c0.6,1.5,1.2,3,1.7,4.5c0.2-1.7,0.7-3.3,1.5-4.9c0.2-0.3,0.7-0.1,0.5,0.2c-0.3,0.6-0.6,1.2-0.8,1.8
	c0.2-0.1,0.5,0.1,0.4,0.3c-0.9,1.6-1.4,3.5-0.2,5.1c0.2,0.3-0.2,0.6-0.4,0.3c0,0.1,0.1,0.2,0.1,0.2c1.6,4,3.4,8,5.3,11.8
	c0.1,0.2-0.2,0.5-0.4,0.3c-1.1-0.8-1.3,1-1.5,1.7c-0.2,0.9-0.4,1.9-0.6,2.8c-0.3,2.1-0.4,4.2-0.4,6.3c0.1,3.6,0.5,7.1,1.1,10.6
	c0.9-1.4,2-2.6,3.1-3.8c-0.2-1.4-0.2-2.4,0.3-3.8c0-0.1,0.2-0.2,0.3-0.2c1.8,0.4,3.7,0.1,5.4,0.5c0.2-0.4,0.4-0.9,0.5-1.3
	c0.1-0.3,0.6-0.3,0.6,0.1c-0.1,0.5-0.3,0.9-0.5,1.4c0.1,0.1,0,0.4-0.2,0.4c-0.8,1.5-2,2.9-3.5,3.6c-1.3,0.6-2,0.1-2.3-0.7
	c0,0,0,0.1-0.1,0.1c-1.3,1.4-2.5,2.8-3.5,4.4c0.1,0.3,0.1,0.6,0.2,0.9c1.4,7.7,3.8,15.3,4.4,23c0,0.1,0,0.1-0.1,0.2
	c-0.3,0.3-0.6,0.5-0.9,0.8c-0.1,0.1-0.4,0.3-0.5,0.5c0,0,0,0,0,0c-0.2,0-0.4,0.1-0.7,0.1c0-0.1,0-0.2,0.1-0.2c0,0,0-0.1,0-0.1
	c-0.2-4.9-0.6-10.2-3.5-14.5c-0.2-0.3,0.3-0.6,0.5-0.3c2.7,4.1,3.3,9.1,3.5,13.9c0,0.1,0,0.2,0,0.4c0.3-0.3,0.7-0.5,0.9-0.8
	c-0.6-7.8-3-15.4-4.4-23.1c0,0.1-0.1,0.1-0.1,0.2c0.5,2.8,0.9,5.6,1.1,8.5c0,0.3-0.5,0.4-0.6,0.1c-0.2-2.8-0.6-5.5-1.1-8.2
	c-0.1-0.1-0.2-0.2-0.1-0.3c0,0,0-0.1,0.1-0.1c-0.1-0.9-0.3-1.8-0.5-2.7C59.9,119.6,59.3,119.1,58.8,118.6z M65.6,116
	c0-0.2,0-0.4,0-0.6c0-0.3,0.6-0.3,0.6,0.1c-0.1,0.5-0.3,2.1,0.7,2.1c0.7,0,1.4-0.5,1.9-1c0.8-0.7,1.6-1.6,2.1-2.6
	c-1.5-0.3-3.1-0.1-4.6-0.4C65.4,113.5,65.5,114.9,65.6,116z M51.3,88.2c-0.3-0.3-0.6-0.8-0.8-1.4c-0.3-0.9-1.1-0.7-2-0.5
	c-0.8,0.1-1.6,0.4-2.3,0.7c-1.7,0.9-2.9,2.3-3.5,4.1c3.1,0.1,5.8-1.1,8.4-2.8C51.2,88.2,51.2,88.2,51.3,88.2z M61.6,121.5
	c-0.1-0.6-0.2-1.2-0.3-1.8c0,0,0,0-0.1,0.1c0.1,0.6,0.2,1.3,0.3,1.9C61.6,121.6,61.6,121.5,61.6,121.5z M60.4,114.3
	c0.2,1.7,0.5,3.3,0.7,5c0,0,0.1,0,0.1,0c-1.1-6.8-1.6-14.1,0.8-20.7c0-0.1,0.2-0.2,0.3-0.2c0.2,0,0.4,0.1,0.5,0.1
	c-0.9-1.9-1.8-3.8-2.7-5.7c0.3,1,0.6,2,0.8,3c0.1,0,0.2,0.1,0.2,0.2l0.1,1.1c0,0.3-0.4,0.4-0.5,0.2
	C59.1,102.8,59.7,108.8,60.4,114.3z M54.9,114.4c-2.1-2.3-4.6-4.6-7.9-5.1C48,112.5,51.5,113.9,54.9,114.4z M68.6,71
	c-1.4,0.7-3.1,0.9-4.6,1.3c-1.8,0.4-3.7,0.8-5.4,1.5c-1.1,0.4-2.5,1.2-2.8,2.4c-0.4,1.6,0.9,3,2,4c0.3,0.2,0.7-0.1,0.5-0.3
	c-1-1-2.5-2.5-1.7-4c0.6-1.2,2.5-1.8,3.8-2.1c2.8-0.8,6.1-0.9,8.6-2.3C69.3,71.2,68.9,70.8,68.6,71z M68.2,72.6
	c-1.2,1-2.4,1.9-3.4,3.1c-0.6,0.6-1.1,1.3-1.5,2c-0.8,1.3-2.3,0.9-3.6,0.9c-0.4,0-0.3,0.5,0.1,0.5c0.9,0,2.1,0.3,3-0.1
	c0.9-0.4,1-1,1.5-1.8c1.1-1.6,2.7-2.9,4.3-4.2C68.8,72.8,68.5,72.4,68.2,72.6z"/>
<path id="バラ" class="st0" d="M115.4,28.4c0.1,0,0.2,0,0.2,0c0,0.2,0,0.3,0,0.5c0,0.4,0.7,0.5,0.7,0c0-2.9-1.2-5.4-3.1-7.5
	c-0.3-0.3-0.8,0.1-0.5,0.5c1.4,1.7,2.5,3.7,2.8,5.9c-3.6-1.1-5.3-4.2-3.8-7.9c0.2-0.4-0.5-0.6-0.7-0.2
	C109.4,23.6,111.3,27.2,115.4,28.4z M110.6,16.4c0.3-0.3,0.8,0.2,0.5,0.5c-3,3-4.5,7.1-2.4,11.1c0.2,0.4-0.4,0.7-0.6,0.3
	C105.8,24.1,107.3,19.6,110.6,16.4z M116.8,21.6c2.4,2.2,3.5,5.3,4.2,8.5c0.1,0.4-0.6,0.6-0.7,0.1c-0.6-3-1.7-6-4-8.2
	C115.9,21.8,116.5,21.3,116.8,21.6z M109.4,29.6c3.3,1.6,6.8,1.7,10.3,0.8c0.4-0.1,0.6,0.6,0.1,0.7c-3.6,0.9-7.2,0.9-10.7-0.8
	C108.8,30,109,29.4,109.4,29.6z M100.1,29.9c2.9,1.4,5.7,3.5,8.7,4.9c-3.3-4.3-4-10-2.7-15.1c0.1-0.4,0.8-0.2,0.7,0.2
	c-1.3,5.1-0.5,10.7,2.8,14.8c0.1,0.2,0.1,0.3,0,0.5c3.5,1.6,7,2.1,10.9-0.2c0.4-0.2,0.7,0.4,0.3,0.6c-3.3,2-6.7,2.3-10.3,0.9
	c-3.8-1.4-7.1-4.2-10.8-6C99.3,30.3,99.7,29.7,100.1,29.9z M96.2,36.7c3.2,3.1,6.9,5.8,10.8,7.9c3,1.7,7.2,3.8,10.9,3.4
	c-1.8-1.1-3.3-2.5-4.8-4c-0.2,0-0.4,0-0.6,0c-0.4,0-0.4-0.5-0.1-0.7c-1.9-2-3.8-4-6.3-5.4c-0.4-0.2,0-0.8,0.4-0.6
	c2.6,1.5,4.6,3.8,6.7,5.9c5.3-0.4,9.2-4.7,12.8-8.3c0.3-0.3,0.8,0.2,0.5,0.5c-3.6,3.6-7.4,7.7-12.6,8.4c1.5,1.5,3.1,2.9,5.1,3.9
	c0.3-0.1,0.5-0.1,0.8-0.2c0.4-0.1,0.7,0.5,0.3,0.6c-0.1,0-0.1,0-0.2,0.1c0.3,0.2,0.1,0.8-0.3,0.6c-0.3-0.1-0.5-0.2-0.8-0.4
	c-3.7,0.7-7.8-1.1-11.1-2.7c-4.4-2.2-8.6-5.2-12.2-8.7C95.3,36.9,95.8,36.4,96.2,36.7z M118.8,12.2c3.3,6,4.9,12.7,6.8,19.2
	c0.1,0.4-0.6,0.6-0.7,0.1c-1.9-6.5-3.5-13.1-6.8-19C117.9,12.1,118.5,11.8,118.8,12.2z M105.1,9c4.5,1.2,9.1,1.9,13.7,1.7
	c0.4,0,0.4,0.7,0,0.7c-4.7,0.2-9.4-0.5-13.9-1.7C104.5,9.6,104.7,8.9,105.1,9z M89.5,10c0-0.1,0.2-0.2,0.3-0.2
	c3.7,0.4,7.4,0.7,11.2,1.1c0.1-0.1,0.1-0.1,0.2-0.2c0.7-0.6,0.9-0.4,1.8-0.1c5,1.5,9.7,4.1,14.1,6.8c0.4,0.2,0,0.8-0.4,0.6
	c-4.6-2.8-9.4-5.3-14.5-6.9c-0.1,0-0.2,0-0.4,0c0.1,0.2,0,0.5-0.3,0.5c-0.2,0-0.3,0-0.5-0.1c-0.4,0.3-0.8,0.7-1.1,0.9
	c-0.8,0.5-1.8,1-2.7,1.3c-2.1,0.7-4.3,0.9-6.5,0.7c-0.4,0-0.4-0.7,0-0.7c2.4,0.2,4.8,0,7.1-1c0.8-0.3,1.5-0.7,2.2-1.2
	c-2.8-0.3-5.7-0.5-8.5-0.8c-0.7-0.1-1.6-0.4-1.8,0.3c-0.2,0.6-0.4,1.1-0.6,1.7c-0.5,1.6-1,3.2-0.5,4.9c0.1,0.4-0.6,0.6-0.7,0.1
	C87.4,15.1,88.7,12.5,89.5,10z M98.2,14.5c0.2-0.4,0.8,0,0.6,0.4c-2.7,5-1.9,11-0.2,16.2c0.1,0.4-0.5,0.6-0.7,0.1
	C96.2,25.8,95.5,19.7,98.2,14.5z M87.4,17.2c3,9,9.7,14.7,18.1,18.5c0.4,0.2,0.2,0.8-0.2,0.7c-4.2-1.9-8.2-4.2-11.5-7.4
	c-3.3-3.2-5.6-7.3-7.1-11.6C86.6,16.9,87.3,16.8,87.4,17.2z M86.7,19.9c1.3,4.1,2.8,8.3,5.4,11.8c2.6,3.5,6.4,5.6,10.5,6.8
	c0.4,0.1,0.2,0.8-0.2,0.7c-4.3-1.2-8-3.4-10.8-7c-2.7-3.5-4.2-7.9-5.6-12.1C85.9,19.6,86.6,19.4,86.7,19.9z M96.5,15.5
	c0.3-0.4,0.8,0,0.6,0.4c-2.1,2.8-3.7,5.9-4.1,9.5c0,0.4-0.7,0.4-0.7,0C92.7,21.6,94.4,18.4,96.5,15.5z M120.7,46.6
	c1.1-1.8,1.7-3.7,2.3-5.7c0.1-0.4,0.8-0.2,0.7,0.2c-0.6,2.1-1.2,4.1-2.4,5.9C121,47.4,120.5,47,120.7,46.6z M89.7,32.4
	c0-0.4,0.7-0.4,0.7,0c-0.5,4.4-0.4,9-2.2,13.1c-0.2,0.4-0.8,0.2-0.6-0.2C89.3,41.3,89.2,36.8,89.7,32.4z M69.9,109.4
	c1.6-1.1,3-2.3,4.5-3.5c0.2-0.2,0.5-0.4,0.7-0.6c0,0.1,0.1,0.2,0.3,0.2c4.7,0.3,9.7-1,11.8-5.6c0.1-0.2-0.1-0.4-0.3-0.5
	c-4.2-0.4-8,2.1-11.2,4.5c-1.6,1.2-3.2,2.6-4.8,3.8c-0.8,0.6-2.1,1.8-3.3,1.9c0.9-2.5,1.8-5,2.6-7.5c2.2-6.9,4.3-14.4,3.3-21.6
	c0.5-1.1,1-2.2,1.6-3.3c0.1,0.2,0.2,0.3,0.5,0.2c2.7-1.5,5.4-3.1,8.1-4.6c1,0,1.9-0.1,2.8-0.5c0,0.1,0,0.2,0.1,0.3
	c2.8,2.9,6,5.2,10.1,5.7c0.2,0,0.4-0.1,0.4-0.3c-0.2-4.9-3.8-8.5-8.6-9.1c-0.2,0-0.3,0.1-0.3,0.2c-0.6,1.3-1.5,3-3.1,3.1
	c-0.2,0-0.4,0-0.7,0c0-0.2-0.2-0.4-0.5-0.3l-0.4,0.2c-0.5-0.1-1.1-0.1-1.6-0.1c-0.4,0-0.5,0.7,0,0.7c0.2,0,0.4,0,0.6,0l-7,4
	c1.1-2.3,2.3-4.7,3.6-6.9c0.1-0.2,0.3-0.5,0.4-0.7c-0.1,0.4-0.2,0.7-0.3,1.1c-0.1,0.4,0.5,0.7,0.6,0.2c0.3-1,0.5-2,0.6-3
	c0.8-1.4,1.6-2.7,2.4-4.1c0.6-1,1.1-2,1.7-3c3.2-5.2,6.6-10.2,10.1-15.1c0.1-0.1,0.1-0.3,0-0.4c4.4,3.3,10.4,4.2,16,3.6
	c0.4,0,0.3-0.7-0.1-0.7c-7.4,0.8-15.8-1-19.4-8.2c-0.2-0.4-0.8-0.1-0.6,0.3c1,2,2.4,3.6,3.9,4.8c-0.1-0.1-0.3,0-0.4,0.1
	c-2.2,3.1-4.4,6.2-6.5,9.4c0.4-1,0.9-1.9,1.3-2.9c1.2-2.9,2.4-6.1,2.4-9.3c0-0.4-0.7-0.5-0.7,0c0,3.4-1.3,6.8-2.7,9.9
	c-1.2,2.8-2.6,5.5-4,8.2c-1.1,1.8-2.2,3.6-3.2,5.4c0.2-2.2,0-4.4-0.5-6.6c-0.1-0.4-0.8-0.3-0.7,0.1c0.2,0.8,0.4,1.7,0.5,2.5
	c-0.2-0.2-0.6,0-0.5,0.3c0.7,2.2,0.7,4.8-1.1,6.5c-0.3,0.3,0.1,0.8,0.4,0.5c-0.1,0.1-0.1,0.2-0.2,0.3c-2.9,4.8-6.1,9.4-9.4,13.9
	c-0.2,0.3,0.1,0.7,0.4,0.5c1.6-0.8,1.3,1.5,1.3,2.5c0,1.2,0,2.5-0.1,3.7c-0.2,2.7-0.6,5.5-1.2,8.1c-1,4.5-2.5,9-4.1,13.3
	c-0.7-1.9-1.7-3.8-2.7-5.6c0.6-1.7,0.9-3,0.6-4.9c0-0.1-0.2-0.3-0.3-0.3c-2.2,0.1-4.4-0.7-6.6-0.6c-0.1-0.6-0.2-1.2-0.2-1.8
	c0-0.4-0.7-0.5-0.7,0c0,0.6,0.1,1.3,0.2,1.9c-0.2,0.2-0.1,0.5,0.1,0.6c0.5,2.1,1.6,4.2,3.2,5.4c1.4,1.1,2.3,0.6,2.9-0.4
	c0,0.1,0,0.1,0,0.2c1.1,2,2.3,4.2,3,6.4c-0.1,0.4-0.3,0.8-0.4,1.1c-3.7,9.5-8.5,18.7-11.2,28.5c0,0.1-0.1,0.2,0,0.3
	c0.3,0.4,0.6,0.8,0.9,1.2c0.1,0.2,0.4,0.4,0.5,0.7c0,0,0,0,0,0c0.3,0.1,0.5,0.2,0.8,0.3c0-0.1,0-0.2,0-0.3c0,0,0-0.1,0-0.1
	c1.6-6.3,3.4-12.9,7.9-17.8c0.3-0.3-0.2-0.8-0.5-0.5c-4.3,4.7-6.3,11-7.8,17c0,0.1-0.1,0.3-0.1,0.5c-0.3-0.4-0.7-0.8-0.9-1.2
	c2.8-9.9,7.6-19.1,11.3-28.6c0,0.1,0,0.1,0.1,0.2c-1.3,3.5-2.5,7-3.5,10.6c-0.1,0.4,0.5,0.7,0.6,0.2c1-3.5,2.2-6.9,3.4-10.3
	c0.1,0,0.3-0.2,0.2-0.4c0,0,0-0.1,0-0.1c0.4-1.1,0.8-2.3,1.3-3.4C68.3,110.4,69.2,109.9,69.9,109.4z M62.5,104.5
	c0.1-0.3,0.1-0.5,0.1-0.8c0-0.4-0.6-0.5-0.7,0c-0.1,0.7-0.2,2.8-1.3,2.6c-0.9-0.2-1.6-1-2-1.7c-0.8-1.1-1.5-2.4-1.9-3.8
	c1.8-0.1,3.7,0.5,5.6,0.6C63.4,101.4,63,103.1,62.5,104.5z M86.8,72.1c0.5-0.4,0.9-0.9,1.3-1.7c0.6-1.1,1.5-0.7,2.5-0.2
	c0.9,0.4,1.8,0.8,2.5,1.5c1.8,1.6,2.9,3.6,3,6c-3.8-0.6-6.6-2.7-9.2-5.4C86.9,72.2,86.9,72.1,86.8,72.1z M65.8,112.5
	c0.3-0.8,0.6-1.5,0.9-2.3c0,0,0,0.1,0.1,0.1c-0.3,0.8-0.6,1.6-0.9,2.4C65.8,112.6,65.8,112.5,65.8,112.5z M69.1,103.5
	c-0.7,2.1-1.4,4.1-2.2,6.2c0,0-0.1,0-0.1,0c3.1-8.5,5.6-17.6,4.4-26.7c0-0.2-0.2-0.3-0.3-0.3c-0.2,0-0.4,0-0.7,0
	c1.6-2.2,3.2-4.4,4.7-6.7c-0.6,1.2-1.2,2.5-1.8,3.7c-0.1,0-0.3,0.1-0.4,0.2l-0.4,1.3c-0.1,0.4,0.3,0.6,0.6,0.4
	C73.7,89,71.4,96.6,69.1,103.5z M75.7,104.9c3.1-2.4,6.7-4.9,10.7-4.8C84.4,104.1,79.9,105.1,75.7,104.9z M70.7,46.1
	c1.4,1.2,3.4,1.9,5.2,2.7c2.1,0.9,4.2,1.8,6,3.1c1.2,0.8,2.6,2.1,2.7,3.7c0.1,2.1-1.9,3.6-3.4,4.7c-0.4,0.2-0.8-0.3-0.5-0.5
	c1.5-1,3.6-2.6,3.1-4.7c-0.4-1.7-2.5-2.8-3.9-3.6c-3.1-1.7-7-2.6-9.7-4.9C69.8,46.3,70.4,45.8,70.7,46.1z M70.8,48.3
	c1.2,1.5,2.3,3,3.3,4.7c0.5,0.9,0.9,1.9,1.2,2.9c0.6,1.9,2.5,1.6,4.1,2c0.4,0.1,0.2,0.7-0.2,0.7c-1-0.2-2.6-0.1-3.5-0.8
	c-0.9-0.7-0.9-1.5-1.3-2.6c-0.9-2.4-2.5-4.3-4-6.3C70,48.4,70.5,48,70.8,48.3z"/>
</svg>
