<?xml version="1.0" encoding="utf-8"?>
<!-- Generator: Adobe Illustrator 27.1.1, SVG Export Plug-In . SVG Version: 6.00 Build 0)  -->
<svg version="1.1" id="レイヤー_1" xmlns="http://www.w3.org/2000/svg" xmlns:xlink="http://www.w3.org/1999/xlink" x="0px"
	 y="0px" viewBox="0 0 150 150" style="enable-background:new 0 0 150 150;" xml:space="preserve">
<style type="text/css">
	.st0{fill:#6D6D6C;}
</style>
<g id="左">
	<path id="かすみ草_1_" class="st0" d="M128.1,80.3c-3.1-0.3-6.2-0.4-9.3-0.4c1.6,1.5,3.2,2.9,4.5,4.6c0.3,0.4-0.3,0.9-0.6,0.5
		c-1.5-1.9-3.2-3.4-4.9-5c0,0-0.1-0.1-0.1-0.1c-3.2,0.1-6.5,0.3-9.7,0.9c-0.1,0.1-0.2,0.2-0.3,0.3c-0.2,0.3-0.3,0.5-0.5,0.8
		c-0.1,0.2-0.3,0.2-0.5,0.1c-4.1,4-8.1,8.3-12.5,11.7c0,0.2,0,0.4,0,0.6c0,0,0,0,0,0.1c-0.1,0-0.2,0.1-0.2,0.2c0,0,0,0,0,0
		c-0.1,0-0.1,0-0.2,0c-7.6,18.6-15.1,37.3-26.1,54.1c-0.3,0.4-0.8,0-0.6-0.4c11-16.8,18.5-35.4,26-54c-0.3-0.1-0.4-0.4-0.1-0.6
		c0.2-0.1,0.4-0.3,0.5-0.4c0.2-7.8-1.8-15.4-4.2-22.5c0,0.1-0.1,0.1-0.1,0.1c0,0,0,0.1,0,0.1c0-0.1-0.2-0.2-0.4-0.1
		c0,0-0.1,0.1-0.1,0.1c0,0-0.1,0-0.1,0c0,0-0.1-0.1-0.2-0.1c0,0-0.1-0.1-0.2,0c0-0.1,0-0.2,0-0.3c-4.8-2.1-9.3-4.8-13.3-8.2
		c-0.3-0.3,0.1-0.9,0.4-0.6c3.6,3,7.5,5.5,11.7,7.5c-1.3-5.5-2.7-10.9-4.5-16.2c-0.2-0.4,0.5-0.7,0.6-0.2c1.9,5.5,3.2,11.3,4.7,17
		c0.1,0.1,0.3,0.1,0.4,0.2c0.3-2.7,1.3-5.3,2.4-7.8c0.2-0.5,0.9-0.3,0.7,0.2c-1,2.4-1.9,4.6-2.2,7.1c0.2-0.1,0.4-0.1,0.5,0.1
		c2.4,7,4.5,14.3,4.6,22c4.1-10.2,8.4-20.4,13.3-30.2c-0.2,0-0.4-0.1-0.4-0.4c0.2-3.6-0.3-7.1-1.2-10.4c-0.3,0.2-0.6-0.1-0.5-0.4
		c-2.5-1.1-5.1-2.2-7.8-2.9c-0.4-0.1-0.2-0.8,0.3-0.7c2.6,0.8,5.2,1.8,7.7,2.9c-0.8-2.6-1.8-5.1-2.9-7.6c-0.2-0.4,0.5-0.8,0.7-0.3
		c1.1,2.5,2.1,5.1,2.9,7.7c1.3-1.5,2.2-3.4,3-5.3c0.2-0.5,0.8-0.2,0.7,0.2c-0.9,2.1-1.9,4.1-3.4,5.8c0,0,0,0.1,0,0.1
		c1,3.4,1.6,7,1.3,10.7c0.3-0.6,0.6-1.1,0.9-1.7c0,0,0-0.1,0.1-0.1c0.3-0.6,0.6-1.1,0.9-1.7c-0.1-0.1-0.1-0.2,0-0.4
		c4.2-9.8,7.2-20.2,11.4-30c0.2-0.5,0.8-0.2,0.7,0.2c-3.9,9.1-6.7,18.5-10.5,27.6c2.1-2.9,4.6-5.5,7.3-7.9c0-0.2,0.2-0.5,0.5-0.4
		c0,0,0,0,0,0c0.5-1.4,0.8-2.9,0.8-4.4c0-0.5,0.7-0.6,0.7-0.1c0,1.2-0.2,2.4-0.5,3.6c1.9-1.7,3.9-3.4,5.8-5c0.4-0.3,0.8,0.2,0.4,0.6
		c-2.1,1.9-4.4,3.8-6.6,5.8c2.2,1.1,4.6,1.5,7,2.1c0.4,0.1,0.2,0.8-0.3,0.7c-2.5-0.7-5.1-1.1-7.3-2.3c-4,3.6-7.8,7.6-10,12.7
		c0,0.1-0.1,0.1-0.1,0.2c-5.3,10.5-9.8,21.3-14.2,32.2c4.3-3.5,8.1-7.6,12.1-11.4c0,0-0.1,0-0.1,0c-0.1,0-0.2,0-0.2,0
		c0.2-0.3,0.5-0.5,0.9-0.7c0.1,0,0.1-0.1,0.1-0.1c0,0,0,0,0.1,0c2.6-4.3,5.1-8.8,7.1-13.5c0.2-0.4,0.9-0.2,0.7,0.2
		c-1.8,4.2-3.9,8.2-6.2,12.1c4.2-3.9,8.7-7.2,14.2-9c0.4-0.1,0.5,0.6,0.1,0.7c-5.5,1.8-10,5.2-14.3,9.2c6.4-1,12.9-0.9,19.2-0.3
		C128.6,79.6,128.6,80.3,128.1,80.3z M124.1,63.7c-0.2-0.7,0-1.4,0.3-2.1c0.2-0.5-0.5-0.7-0.7-0.2c-0.4,0.9-0.6,1.7-0.3,2.7
		C123.6,64.5,124.2,64.2,124.1,63.7z M126.4,60.6c-1.1,0.5-1.6,1.6-2,2.7c-0.2,0.5,0.5,0.7,0.7,0.2c0.4-0.9,0.7-1.9,1.7-2.3
		C127.1,61.1,126.8,60.4,126.4,60.6z M130.2,62.2l-1.1,0.5c0,0,0-0.1,0-0.1c-0.6,0.3-1.2,0.7-1.8,1.2c0,0-0.1,0.1-0.1,0.1
		c0,0.2,0.2,0.4,0.5,0.3l2.8-1.3C130.9,62.7,130.6,62,130.2,62.2z M131.5,64.5c-0.9,0.4-2,0.6-2.9,0.3c-0.4-0.2-0.7,0.6-0.3,0.7
		c1,0.4,2.4,0.1,3.4-0.3C132.2,65,132,64.3,131.5,64.5z M130.1,67.5c-0.6-0.3-1.1-0.9-1.8-1.2c-0.4-0.2-0.7,0.5-0.3,0.7
		c0.6,0.3,1.1,0.9,1.8,1.2C130.2,68.4,130.5,67.7,130.1,67.5z M128.7,68.9c-0.4-0.2-0.7-0.7-1.1-0.9c-0.4-0.2-0.7,0.5-0.3,0.7
		c0.4,0.2,0.7,0.7,1.1,0.9C128.9,69.9,129.1,69.1,128.7,68.9z M123.3,65.8c-0.5-0.2-0.9-0.2-1.4,0c-0.4,0.2-0.2,0.9,0.3,0.7
		c0.3-0.1,0.6,0,0.8,0.1C123.4,66.7,123.7,65.9,123.3,65.8z M124.2,67.5c-0.3,0.1-0.6,0-0.8-0.1c-0.4-0.2-0.7,0.5-0.3,0.7
		c0.5,0.2,0.9,0.2,1.4,0C124.9,68,124.6,67.3,124.2,67.5z M129.8,76.1c-0.6-0.2-0.9,0.3-1.1,0.8c-0.2,0.5,0.5,0.7,0.7,0.2
		c0-0.1,0.1-0.2,0.2-0.3c0,0,0,0,0,0C130,76.9,130.2,76.2,129.8,76.1z M133.9,77c-0.8-0.3-1.6-0.2-2.4-0.1c-0.5,0-0.4,0.8,0.1,0.7
		c0.7-0.1,1.4-0.1,2,0.1C134.1,77.9,134.3,77.2,133.9,77z M134.3,81c-0.4-0.5-0.9-0.9-1.3-1.4c-0.3-0.4-0.8,0.1-0.6,0.5
		c0.4,0.5,0.9,0.9,1.3,1.4C134,81.8,134.6,81.3,134.3,81z M132.2,84.2c-0.3-0.4-0.5-1-0.3-1.4c0.2-0.5-0.5-0.7-0.7-0.2
		c-0.3,0.7,0,1.6,0.4,2.2C131.9,85.1,132.4,84.6,132.2,84.2z M130.1,82.6c-1,0.5-1.7,1.2-2.2,2.3c-0.2,0.4,0.5,0.7,0.7,0.2
		c0.4-0.9,1-1.4,1.8-1.8C130.8,83.1,130.6,82.4,130.1,82.6z M128.4,78.4c-0.1,0.3-0.3,0.4-0.6,0.5c-0.2,0.1-0.4,0.1-0.6,0.2
		c-0.2,0.1-0.4,0-0.5-0.2c-0.1-0.2,0-0.4,0.2-0.5c0.2-0.1,0.4-0.1,0.6-0.2c0.1,0,0.1,0,0.2,0c0,0,0,0,0,0c0.1-0.2,0.3-0.3,0.5-0.2
		C128.4,77.9,128.5,78.2,128.4,78.4z M128.4,81.8c-0.1-0.5-0.8-0.1-0.7,0.3c0,0,0,0,0,0c0,0-0.1,0-0.1,0.1c-0.2,0.1-0.5,0.1-0.7,0.2
		c-0.2,0-0.3,0.3-0.3,0.4c0,0.2,0.2,0.3,0.4,0.3c0.4,0,0.8-0.1,1.1-0.3C128.4,82.5,128.5,82.1,128.4,81.8z M80.6,46.9
		c-0.4-0.6-0.4-1.4-0.4-2.1c0-0.5-0.7-0.3-0.7,0.1c0,0.9,0.1,1.8,0.6,2.5C80.3,47.8,80.8,47.3,80.6,46.9z M82.6,45
		c-0.1-0.5-0.8-0.1-0.7,0.3c0.1,0.5-0.2,1.2-0.4,1.6c-0.2,0.5,0.5,0.7,0.7,0.2C82.5,46.5,82.8,45.7,82.6,45z M85,46.4
		c-0.6,0.1-1.2,0.3-1.8,0.5c-0.4,0.2-0.2,0.9,0.3,0.7c0.5-0.2,1.1-0.4,1.6-0.5C85.5,47.1,85.4,46.3,85,46.4z M85.9,48.5
		c-0.8,0.4-1.4,0-2-0.6c-0.3-0.3-0.8,0.3-0.4,0.6c0.8,0.7,1.6,1.1,2.7,0.6C86.6,49,86.3,48.3,85.9,48.5z M79.2,47.7
		c-0.1-0.4-0.4-0.7-0.7-0.8c-0.2-0.1-0.4,0.1-0.5,0.2c-0.1,0.2,0,0.4,0.2,0.5c0.2,0.1,0.2,0.3,0.3,0.4
		C78.7,48.4,79.4,48.1,79.2,47.7z M79.2,48.8c-0.2-0.1-0.4,0.1-0.5,0.2c-0.1,0.2-0.3,0.2-0.5,0.2c-0.4-0.2-0.7,0.6-0.3,0.7
		c0.5,0.2,1.1-0.1,1.4-0.7C79.5,49.1,79.4,48.9,79.2,48.8z M79.6,52.2c-0.2,0.1-0.3,0.1-0.5,0.2c-0.1,0-0.3,0.1-0.4,0.1
		c-0.3-0.1-0.5-0.3-0.3-0.7c0.1-0.3,0.4-0.3,0.6-0.1c0,0,0,0,0,0c0.1-0.1,0.2-0.1,0.4-0.2C79.7,51.3,80,52,79.6,52.2z M80.5,52.7
		l-0.3-0.1c-0.4-0.2-0.7,0.5-0.3,0.7l0.3,0.1C80.7,53.6,80.9,52.9,80.5,52.7z M85.1,51.8l-0.3-0.1c-0.4-0.2-0.7,0.5-0.3,0.7l0.3,0.1
		C85.2,52.7,85.5,51.9,85.1,51.8z M90.8,60.1c-0.2-0.2-0.3-0.4-0.3-0.7c0-0.3,0-0.6,0-1c0-0.5-0.7-0.3-0.7,0.1c0,0.3,0,0.7,0,1
		c0,0.4,0.2,0.7,0.4,1C90.5,61,91,60.5,90.8,60.1z M93,57.4c-0.3,0.1-0.6,0-0.8-0.1c-0.4-0.2-0.7,0.5-0.3,0.7c0.5,0.2,0.9,0.2,1.4,0
		C93.7,57.9,93.4,57.2,93,57.4z M95,59c-0.5,0-0.8,0-1.2-0.2c-0.4-0.2-0.7,0.5-0.3,0.7c0.5,0.2,1,0.3,1.6,0.2
		C95.6,59.7,95.5,59,95,59z M95.3,60.9c-0.4,0.2-0.8-0.1-1.2-0.2c-0.4-0.2-0.7,0.5-0.3,0.7c0.5,0.2,1.1,0.4,1.7,0.2
		C96,61.4,95.7,60.7,95.3,60.9z M95.5,63.4c-0.2-0.5-0.8-0.7-1-1.3c-0.2-0.4-0.8-0.1-0.7,0.3c0.2,0.5,0.8,0.7,1,1.3
		C95,64.2,95.6,63.9,95.5,63.4z M92.6,64c0-0.6-0.1-1.2,0.1-1.8c0.2-0.5-0.5-0.7-0.7-0.2c-0.3,0.7-0.2,1.5-0.1,2.2
		C92,64.6,92.7,64.4,92.6,64z M71,58.2c-0.4-0.2-0.6-0.7-0.8-1.1c-0.2-0.4-0.8-0.1-0.7,0.3c0.2,0.6,0.6,1.2,1.2,1.4
		C71.1,59.1,71.4,58.4,71,58.2z M72.6,58.5c-0.2-0.6-0.3-1.1-0.3-1.7c0-0.5-0.7-0.3-0.7,0.1c0,0.7,0.2,1.3,0.4,1.9
		C72.1,59.3,72.8,59,72.6,58.5z M74.1,57.5l-0.5,1.1c-0.2,0.5,0.5,0.7,0.7,0.2l0.5-1.1C75,57.2,74.3,57,74.1,57.5z M76.3,58.5
		l-0.9,0.4c-0.4,0.2-0.2,0.9,0.3,0.7l0.9-0.4C77,59,76.7,58.3,76.3,58.5z M69.2,59.2c-0.2,0.1-0.5,0-0.7,0c-0.3,0-0.6,0-0.8,0.1
		c-0.4,0.2-0.2,0.8,0.3,0.7c0.2-0.1,0.5,0,0.7,0c0.3,0,0.6,0,0.8-0.1C69.9,59.7,69.6,59,69.2,59.2z M70.8,60.7l-0.5,0.2
		c-0.4,0.2-0.2,0.9,0.3,0.7l0.5-0.2C71.5,61.2,71.2,60.5,70.8,60.7z M73,62.3c-0.2,0.4-0.6,0.7-1,0.6c-0.4-0.2-0.2-0.8,0.2-0.6
		c0,0,0,0,0,0c0,0,0.1-0.1,0.1-0.1c0.1-0.2,0.3-0.3,0.5-0.3C72.9,62,73.1,62.1,73,62.3z M100.9,36.1c-0.6-0.3-0.9-0.8-0.9-1.5
		c0-0.5-0.7-0.3-0.7,0.1c0,0.9,0.6,1.7,1.4,2C101.1,37,101.3,36.3,100.9,36.1z M101.8,34l-0.5,1.1c-0.2,0.5,0.5,0.7,0.7,0.2l0.5-1.1
		C102.6,33.8,102,33.6,101.8,34z M104.3,34.8l-0.9,0.4c-0.4,0.2-0.2,0.9,0.3,0.7l0.9-0.4C105,35.3,104.7,34.6,104.3,34.8z
		 M105.9,36.3c-0.3,0.1-0.6,0-0.8-0.1c-0.4-0.2-0.7,0.5-0.3,0.7c0.5,0.2,0.9,0.2,1.4,0C106.6,36.8,106.3,36.2,105.9,36.3z M106.3,39
		c-0.5,0-1-0.1-1-0.7c0-0.5-0.7-0.3-0.7,0.1c0.1,1.1,0.9,1.4,1.8,1.3C106.9,39.7,106.8,38.9,106.3,39z M99.6,36.9
		c-0.3,0.1-0.6,0-0.8-0.1c-0.4-0.2-0.7,0.5-0.3,0.7c0.5,0.2,0.9,0.2,1.4,0C100.3,37.4,100,36.8,99.6,36.9z M100.8,38.3
		c-0.3,0.1-0.7,0.4-1,0.3c-0.4-0.2-0.7,0.6-0.3,0.7c0.5,0.2,1-0.1,1.5-0.3C101.5,38.8,101.3,38.1,100.8,38.3z M101.8,40.3l-0.3-0.1
		c-0.4-0.2-0.7,0.5-0.3,0.7l0.3,0.1C101.9,41.2,102.2,40.4,101.8,40.3z M126.5,38c-0.7,0-1.3-0.2-2-0.5c-0.4-0.2-0.7,0.5-0.3,0.7
		c0.7,0.3,1.4,0.5,2.2,0.5C126.8,38.8,126.9,38,126.5,38z M127.2,36.4c-0.1-0.3-0.3-0.7-0.2-1c0.2-0.5-0.5-0.7-0.7-0.2
		c-0.2,0.5,0,1.1,0.2,1.6C126.7,37.1,127.3,36.8,127.2,36.4z M129.7,34.4c-0.2,0.5-0.7,0.8-0.9,1.3c-0.1,0.2,0,0.3,0.1,0.4
		c0,0,0,0,0.1,0.1c0.2,0.1,0.3,0,0.4-0.2c0,0,0,0,0-0.1c0.1-0.2,0.3-0.3,0.4-0.4c0.2-0.3,0.4-0.5,0.6-0.8
		C130.5,34.2,129.9,34,129.7,34.4z M132.7,36.6c-0.8,0.1-1.4,0.6-2.2,0.7c-0.5,0.1-0.4,0.8,0.1,0.7c0.8-0.1,1.4-0.6,2.2-0.7
		C133.2,37.3,133.1,36.5,132.7,36.6z M132.6,39.5c-0.6,0-0.9-0.1-1.3-0.6c-0.3-0.4-0.8,0.1-0.6,0.5c0.2,0.3,0.5,0.6,0.8,0.7
		c0.4,0.2,0.7,0.1,1.1,0.1C133.1,40.2,133,39.4,132.6,39.5z M131.1,42.2c-0.2-0.6-0.6-1.1-0.6-1.9c0-0.2-0.2-0.3-0.4-0.3
		c-0.1-0.2-0.4-0.2-0.6,0c-0.8,0.9-1.3,2-1.7,3.1c-0.2,0.5,0.5,0.7,0.7,0.2c0.4-0.9,0.8-1.8,1.4-2.6c0.1,0.6,0.4,1.1,0.6,1.7
		C130.6,43,131.2,42.6,131.1,42.2z M128.2,39.6c-0.2-0.1-0.4,0.1-0.5,0.2c-0.1,0.1-0.2,0.2-0.3,0.3c-0.2,0.1-0.4,0.2-0.6,0.3
		c-0.4,0.2-0.2,0.9,0.3,0.7c0.5-0.2,1-0.5,1.3-1C128.4,39.9,128.3,39.6,128.2,39.6z M113.4,64.8c-0.7,0-1.3-0.2-2-0.5
		c-0.4-0.2-0.7,0.5-0.3,0.7c0.7,0.3,1.4,0.5,2.1,0.5C113.7,65.6,113.8,64.8,113.4,64.8z M112.8,62.9c-0.4-0.2-0.8-0.3-0.9-0.7
		c-0.2-0.4-0.8-0.1-0.7,0.3c0.2,0.6,0.8,0.9,1.3,1.1C112.9,63.8,113.2,63.1,112.8,62.9z M115.2,62.4c-0.2-0.6-0.5-1.2-0.2-1.9
		c0.2-0.5-0.5-0.7-0.7-0.2c-0.4,0.9-0.1,1.7,0.2,2.4C114.7,63.2,115.3,62.8,115.2,62.4z M117.2,61.7c-0.5,0.5-1,0.7-1.7,0.8
		c-0.5,0-0.4,0.8,0.1,0.7c0.8-0.1,1.4-0.4,2.1-0.9C118,61.9,117.5,61.4,117.2,61.7z M117.4,63.8c-0.2,0.1-0.4,0.1-0.6,0.1
		c-0.2,0-0.4,0.1-0.7,0.2c-0.4,0.2-0.2,0.9,0.3,0.7c0.2-0.1,0.4-0.1,0.6-0.1c0.2,0,0.4-0.1,0.7-0.2
		C118.1,64.3,117.9,63.6,117.4,63.8z M117.8,66.3c-0.1-0.1-0.2-0.3-0.3-0.4c-0.1-0.2-0.3-0.3-0.5-0.4c-0.2-0.1-0.4,0.1-0.5,0.2
		c-0.1,0.2,0,0.4,0.2,0.5c0.1,0.1,0.2,0.3,0.3,0.4c0.1,0.2,0.3,0.3,0.5,0.4c0.2,0.1,0.4-0.1,0.5-0.2C118,66.6,117.9,66.4,117.8,66.3
		z M126.3,70.9c-0.1-0.4-0.2-1,0-1.4c0.2-0.5-0.5-0.7-0.7-0.2c-0.2,0.6-0.2,1.4,0,2C125.7,71.7,126.4,71.3,126.3,70.9z M89.4,61.1
		c-0.5-0.2-0.9-0.2-1.4,0c-0.4,0.2-0.2,0.9,0.3,0.7c0.3-0.1,0.6,0,0.8,0.1C89.5,62,89.8,61.3,89.4,61.1z M118.9,25.7
		c-0.6,0-0.9-0.1-1.3-0.6c-0.3-0.4-0.8,0.1-0.6,0.5c0.2,0.3,0.5,0.6,0.8,0.7c0.4,0.2,0.7,0.1,1.1,0.1
		C119.4,26.4,119.3,25.6,118.9,25.7z M120,24.1c-0.2-0.6-0.6-1-0.8-1.6c-0.2-0.4-0.8-0.1-0.7,0.3c0.2,0.6,0.6,1,0.8,1.6
		C119.5,24.9,120.2,24.5,120,24.1z M121.1,23.5c0.1-0.9,0.4-1.8,0.4-2.7c0-0.5-0.7-0.5-0.7,0c0,0.9-0.3,1.8-0.4,2.7
		C120.4,24,121.1,24,121.1,23.5z M124.5,21.2c-0.8,0.7-1.6,1.2-2.3,1.9c-0.4,0.3,0.1,0.9,0.4,0.6c0.8-0.7,1.6-1.2,2.3-1.9
		C125.2,21.4,124.8,20.8,124.5,21.2z M125.1,23.4c-0.4,0.2-1,0.1-1.4,0.1c-0.5,0-0.5,0.7-0.1,0.8c0.6,0,1.2,0,1.8-0.2
		C125.8,23.9,125.5,23.2,125.1,23.4z M125.3,25.6c-0.4,0.2-0.8-0.1-1.2-0.2c-0.4-0.2-0.7,0.5-0.3,0.7c0.6,0.2,1.1,0.4,1.7,0.2
		C126,26.1,125.7,25.4,125.3,25.6z M124.4,28.9l-0.5-1.5c-0.2-0.4-0.8-0.1-0.7,0.3l0.5,1.5C123.9,29.7,124.5,29.3,124.4,28.9z
		 M120.4,26.8c-0.2-0.4-0.8-0.1-0.7,0.3c0.1,0.2,0.3,0.6,0.1,0.7c-0.4,0.2-0.2,0.9,0.3,0.7C120.7,28.1,120.6,27.4,120.4,26.8z
		 M113.7,66.2c-0.1,0.3-0.3,0.5-0.6,0.7c-0.4,0.2-0.2,0.9,0.3,0.7c0.5-0.2,0.7-0.6,1-1.1C114.5,66,113.9,65.8,113.7,66.2z M122.9,64
		l-1-0.4c-0.4-0.2-0.7,0.6-0.3,0.7l1,0.4C123.1,64.9,123.3,64.1,122.9,64z M131.2,74.6c0,0.1-0.1,0.2-0.2,0.3c0,0,0,0,0,0
		c-0.4-0.2-0.7,0.6-0.3,0.7c0.6,0.2,0.9-0.3,1.1-0.8C132.1,74.4,131.4,74.2,131.2,74.6z M120.9,87.2l-0.6,1.4
		c-0.2,0.5,0.5,0.7,0.7,0.2l0.6-1.4C121.7,87,121,86.7,120.9,87.2z M122.6,88c-0.3-0.4-0.8,0.1-0.6,0.5c0.4,0.5,0.1,1.1-0.2,1.7
		c-0.2,0.5,0.5,0.7,0.7,0.2C122.9,89.5,123.1,88.7,122.6,88z M125.6,89.2c-0.1-0.1-0.2-0.3-0.3-0.4c-0.1-0.2-0.3-0.3-0.5-0.4
		c-0.2-0.1-0.4,0.1-0.5,0.2c-0.1,0.2,0,0.4,0.2,0.5c0.1,0.1,0.2,0.3,0.3,0.4c0.1,0.2,0.3,0.3,0.5,0.4c0.2,0.1,0.4-0.1,0.5-0.2
		C125.9,89.5,125.8,89.3,125.6,89.2z M126.5,87.1c-0.1-0.1-0.2-0.3-0.3-0.4c-0.1-0.2-0.3-0.3-0.5-0.4c-0.2-0.1-0.4,0.1-0.5,0.2
		c-0.1,0.2,0,0.4,0.2,0.5c0.1,0.1,0.2,0.3,0.3,0.4c0.1,0.2,0.3,0.3,0.5,0.4c0.2,0.1,0.4-0.1,0.5-0.2
		C126.8,87.4,126.7,87.2,126.5,87.1z M121.5,84.8l-1.3-0.6c-0.4-0.2-0.7,0.6-0.3,0.7l1.3,0.6C121.6,85.7,121.9,84.9,121.5,84.8z
		 M125.6,84.8l-0.2-0.1c0,0,0.2-0.2,0.2-0.2c0.1-0.1,0.3-0.3,0.4-0.5c0.2-0.5-0.4-0.7-0.6-0.2c0,0,0,0.1-0.1,0.1
		c0,0-0.1,0.1-0.1,0.1c0,0,0,0.1,0,0.1l0,0c0,0,0-0.1,0-0.1c0,0-0.1,0-0.1,0c-0.1,0-0.2,0.1-0.3,0.1c-0.3,0.1-0.3,0.6,0,0.7
		c-0.1,0.2-0.1,0.5,0.1,0.6l0.3,0.1C125.8,85.7,126,85,125.6,84.8z M94.9,44.5l-0.3-1c-0.2-0.4-0.8-0.1-0.7,0.3l0.3,1
		C94.4,45.3,95.1,44.9,94.9,44.5z M96.6,43.4c-0.1,0-0.2-0.1-0.3-0.2c0,0-0.1-0.1,0-0.1c0,0,0-0.1,0,0c0,0,0-0.1,0-0.1
		c0.1-0.1,0.1-0.2,0.2-0.3c0.4-0.3-0.1-0.9-0.4-0.6c-0.3,0.3-0.6,0.7-0.5,1.1c0.1,0.4,0.4,0.7,0.8,0.8C96.8,44.3,97,43.6,96.6,43.4z
		 M97.6,42.7l-0.5,1.1c-0.2,0.5,0.5,0.7,0.7,0.2l0.5-1.1C98.5,42.4,97.8,42.2,97.6,42.7z M93.7,45.2c-0.2,0.1-0.4,0.1-0.6,0.1
		c-0.2,0-0.4,0.1-0.7,0.2c-0.4,0.2-0.2,0.9,0.3,0.7c0.2-0.1,0.4-0.1,0.6-0.1c0.2,0,0.4-0.1,0.7-0.2C94.4,45.7,94.1,45,93.7,45.2z
		 M94.9,46.5c-0.2-0.1-0.4,0.1-0.5,0.2c0,0,0,0,0,0c0,0,0,0,0,0c0,0,0,0,0,0c-0.1,0-0.1,0.1-0.2,0.1c-0.2,0.1-0.3,0.3-0.4,0.5
		c-0.1,0.2,0,0.4,0.2,0.5c0.2,0.1,0.4-0.1,0.5-0.2c0,0,0,0,0,0c0,0,0,0,0,0c0,0,0,0,0,0c0.1,0,0.1-0.1,0.2-0.1
		c0.2-0.1,0.3-0.3,0.4-0.5C95.2,46.7,95.1,46.5,94.9,46.5z M96.4,48.9c-0.1-0.3-0.3-0.7-0.2-1c0.2-0.5-0.5-0.7-0.7-0.2
		c-0.2,0.5,0,1.1,0.2,1.6C95.9,49.7,96.6,49.3,96.4,48.9z M98.9,44.4l-0.3-0.1c-0.4-0.2-0.7,0.5-0.3,0.7l0.3,0.1
		C99,45.3,99.3,44.6,98.9,44.4z M108.6,43.6c-0.1-0.1-0.3-0.1-0.5-0.1c-0.1-0.2-0.2-0.2-0.4-0.2c-0.1,0.1-0.3,0.2-0.3,0.3
		c-0.1,0.2,0.1,0.4,0.2,0.5c0.1,0,0.3,0.1,0.4,0.1c0.1,0,0.2,0,0.3,0.1C108.8,44.5,109.1,43.8,108.6,43.6z M109.3,41.9
		c-0.2-0.5-0.4-1.1-0.8-1.3c-0.2-0.1-0.4,0.1-0.5,0.2c-0.1,0.2,0,0.4,0.2,0.5c0.1,0.1,0.2,0.2,0.2,0.3c0.1,0.2,0.2,0.4,0.2,0.6
		C108.8,42.7,109.4,42.4,109.3,41.9z M111.3,40.2c-0.2,0.6-0.5,1-1,1.5c-0.4,0.3,0.1,0.9,0.4,0.6c0.6-0.5,0.9-1.1,1.2-1.8
		C112.1,40,111.5,39.8,111.3,40.2z M112.8,43.7c-0.3-0.1-0.5-0.3-0.6-0.6c-0.2-0.4-0.8-0.1-0.7,0.3c0.2,0.5,0.5,0.8,1,1
		C112.9,44.6,113.2,43.9,112.8,43.7z M112.2,46.5c-0.2-0.7-0.5-1.2-1.2-1.4c-0.4-0.2-0.7,0.5-0.3,0.7c0.4,0.2,0.6,0.6,0.8,1.1
		C111.7,47.3,112.4,47,112.2,46.5z M110.6,47.5c-0.2-0.5-0.4-1.1-0.8-1.3c-0.2-0.1-0.4,0.1-0.5,0.2c-0.1,0.2,0,0.4,0.2,0.5
		c0.1,0.1,0.2,0.2,0.2,0.3c0.1,0.2,0.2,0.4,0.2,0.6C110.1,48.3,110.8,48,110.6,47.5z M129.8,47.5c-0.3,0.1-0.7,0.4-1,0.3
		c-0.4-0.2-0.7,0.6-0.3,0.7c0.5,0.2,1-0.1,1.5-0.3C130.5,48,130.2,47.3,129.8,47.5z M131.4,49.6l-1.6-0.7c-0.4-0.2-0.7,0.6-0.3,0.7
		l1.6,0.7C131.5,50.5,131.8,49.8,131.4,49.6z M130.8,51.9c-0.3-0.1-0.8-0.3-0.9-0.7c-0.2-0.4-0.8-0.1-0.7,0.3
		c0.2,0.6,0.8,0.9,1.3,1.1C130.9,52.8,131.2,52.1,130.8,51.9z M128,52.6c0-0.1,0-0.1-0.1-0.2c0,0,0,0,0,0c0,0,0,0,0,0
		c0.2-0.5-0.5-0.7-0.7-0.2c-0.1,0.2-0.1,0.4,0,0.6c0,0.1,0,0.1,0.1,0.2c0-0.1,0,0,0,0c0,0,0,0,0,0c-0.2,0.5,0.5,0.7,0.7,0.2
		C128,53,128.1,52.8,128,52.6z M126.2,50.4c-0.4-0.2-0.7,0.5-0.3,0.7C126.3,51.3,126.6,50.5,126.2,50.4z M128,48.4l-0.5-1.5
		c-0.2-0.4-0.8-0.1-0.7,0.3l0.5,1.5C127.5,49.2,128.2,48.8,128,48.4z M119.4,42.4c-0.2,0.4-0.5,0.5-0.9,0.4c-0.4-0.2-0.1-1,0.3-0.8
		c0,0,0,0,0,0c0,0,0,0.1,0,0.1c0.1-0.2,0.2-0.2,0.4-0.2c-0.1,0-0.1-0.1-0.2-0.2l-0.7-1.9c-0.2-0.4,0.5-0.8,0.7-0.3l0.7,2
		c0.1,0.3-0.2,0.6-0.5,0.5C119.4,42,119.5,42.3,119.4,42.4z M120.6,40.3c0-0.6,0.2-1.1,0.4-1.7c0.2-0.5-0.5-0.7-0.7-0.2
		c-0.3,0.7-0.5,1.3-0.5,2.1C119.9,40.9,120.6,40.7,120.6,40.3z M123,40.4c-0.4,0.2-0.8-0.1-1.2-0.2c-0.4-0.2-0.7,0.5-0.3,0.7
		c0.6,0.2,1.1,0.4,1.7,0.2C123.7,40.9,123.4,40.2,123,40.4z M122.2,42l-0.3-0.1c-0.4-0.2-0.7,0.5-0.3,0.7l0.3,0.1
		C122.3,42.9,122.6,42.2,122.2,42z"/>
	<path id="かすみ草_9_" class="st0" d="M25.4,62.1c6.6-2.1,13.4-3.7,20.4-4.3c-5.1-2.9-10.4-5.3-16.5-5.8c-0.5,0-0.5-0.8,0-0.8
		c6,0.5,11.3,2.8,16.4,5.6c-3-3.4-5.9-6.9-8.5-10.6c-0.3-0.4,0.4-0.8,0.7-0.4C40.7,50,44,54,47.4,57.7c0,0,0,0,0.1,0
		c0,0,0.1,0.1,0.1,0.1c0.4,0.1,0.7,0.3,1,0.5c-0.1,0.1-0.1,0.1-0.2,0.1c-0.1,0-0.1,0-0.2,0c4.8,2.9,9.5,6.2,14.5,8.6
		c-6.4-9.9-12.8-19.7-20-29c-0.1,0-0.1-0.1-0.2-0.1c-3.2-4.5-7.8-7.6-12.6-10.3c-2.2,1.8-4.9,2.8-7.4,4.1c-0.4,0.2-0.8-0.4-0.4-0.7
		c2.4-1.2,4.9-2.2,7.1-3.8c-2.6-1.4-5.3-2.8-7.9-4.2c-0.4-0.2-0.1-0.9,0.4-0.7c2.2,1.2,4.6,2.4,6.9,3.7c-0.5-1.1-0.9-2.3-1.1-3.5
		c-0.1-0.5,0.7-0.5,0.8,0c0.2,1.5,0.8,2.9,1.6,4.2c0,0,0,0,0,0c0.3-0.1,0.6,0.1,0.6,0.3c3.2,1.8,6.3,3.8,9,6.2
		C34.1,25,29.6,16.2,24.1,8c-0.3-0.4,0.4-0.8,0.7-0.4c6,8.9,10.8,18.5,16.8,27.4c0.1,0.1,0.1,0.3,0,0.4c0.4,0.5,0.8,1,1.2,1.5
		c0,0,0.1,0,0.1,0.1c0.4,0.5,0.8,1,1.2,1.5c-0.8-3.7-0.7-7.4-0.2-11.1c0,0,0-0.1,0-0.1c-1.9-1.3-3.2-3.1-4.5-5
		c-0.3-0.4,0.4-0.8,0.7-0.4c1.2,1.7,2.3,3.4,4,4.6c0.4-2.9,1.1-5.7,1.9-8.5c0.1-0.5,0.9-0.3,0.7,0.2c-0.7,2.7-1.4,5.5-1.9,8.3
		c2.5-1.7,5-3.4,7.7-4.7c0.4-0.2,0.8,0.4,0.4,0.7c-2.7,1.4-5.3,3.1-7.8,4.8c0.2,0.3-0.1,0.7-0.5,0.6c-0.5,3.6-0.5,7.2,0.3,10.8
		c0.1,0.3-0.2,0.5-0.4,0.5c6.7,8.7,12.7,17.9,18.7,27.2C62,58.4,63.2,50.6,64.6,43c0-0.3,0.3-0.3,0.5-0.3c-0.7-2.4-2-4.5-3.5-6.6
		c-0.3-0.4,0.4-0.7,0.7-0.3c1.6,2.3,3,4.6,3.7,7.3c0.1-0.1,0.3-0.2,0.4-0.3c0.6-6,1.2-12.2,2.3-18.2c0.1-0.5,0.8-0.4,0.7,0.1
		c-1.1,5.7-1.7,11.5-2.3,17.3c4.1-3,7.9-6.4,11.2-10.3c0.3-0.4,0.9,0.2,0.5,0.5c-3.7,4.4-8.1,8.2-12.8,11.5c0,0.1,0,0.2,0,0.2
		c-0.1,0-0.1,0-0.2,0.1c0,0-0.1,0.1-0.1,0.1c0,0,0,0-0.1,0c0,0,0-0.1-0.1-0.1c-0.2-0.1-0.3,0-0.3,0.2c0,0,0-0.1,0-0.1
		c-0.1,0-0.2,0-0.2-0.1c-1.4,7.8-2.5,15.8-1.1,23.7c0.2,0.1,0.4,0.2,0.6,0.3c0.3,0.1,0.2,0.5,0,0.7c10.9,16.9,21.7,33.8,35.9,48
		c0.3,0.3-0.2,0.9-0.5,0.5C85.8,102.9,75,85.9,64.1,69c-0.1,0-0.1,0-0.2,0c0,0,0,0,0,0c0-0.1-0.2-0.2-0.3-0.2c0,0,0,0,0-0.1
		c0-0.2-0.1-0.4-0.1-0.6c-5.2-2.4-10.1-5.8-15-8.8c-0.1,0.1-0.3,0.2-0.5,0c-0.2-0.2-0.4-0.4-0.6-0.7c-0.1-0.1-0.2-0.1-0.3-0.2
		c-3.5,0.2-7,0.7-10.4,1.5c0,0,0,0.1-0.1,0.1c-1.6,2-3.2,4-4.4,6.2c-0.2,0.4-0.9,0.1-0.7-0.4c1.2-2,2.6-3.9,4.1-5.7
		c-3.3,0.7-6.6,1.6-9.8,2.6C25.2,63,25,62.2,25.4,62.1z M28.1,45.4c0.2-1-0.1-1.8-0.7-2.6c-0.3-0.4-0.9,0-0.7,0.4
		c0.4,0.6,0.7,1.2,0.6,2C27.3,45.7,28,45.8,28.1,45.4z M24.2,43.3c1,0.2,1.5,1.1,2.1,1.9c0.3,0.4,0.9,0,0.7-0.4
		c-0.7-1-1.3-2-2.6-2.3C23.9,42.5,23.8,43.2,24.2,43.3z M20.4,45.9l3.2,0.6c0.3,0.1,0.5-0.2,0.5-0.4c0,0-0.1,0-0.2,0
		c-0.7-0.4-1.3-0.7-2.1-0.8c0,0,0,0.1,0,0.1l-1.3-0.2C20.1,45.1,20,45.8,20.4,45.9z M19.4,48.5c1.2,0.2,2.6,0.1,3.7-0.5
		c0.4-0.3,0-0.9-0.4-0.7c-0.9,0.5-2.1,0.6-3.1,0.4C19.1,47.6,18.9,48.4,19.4,48.5z M21.9,51.1c0.6-0.5,1.1-1.1,1.7-1.6
		c0.4-0.3,0-0.9-0.4-0.7c-0.6,0.5-1.1,1.1-1.7,1.6C21.1,50.7,21.5,51.3,21.9,51.1z M23.6,52.2c0.4-0.3,0.6-0.9,1-1.2
		c0.4-0.3,0-1-0.4-0.7c-0.4,0.3-0.6,0.9-1,1.2C22.9,51.8,23.2,52.5,23.6,52.2z M28.9,47.7c0.3-0.2,0.5-0.3,0.9-0.3
		c0.5,0.1,0.7-0.7,0.2-0.7c-0.6-0.1-1,0.1-1.4,0.4C28.1,47.3,28.5,48,28.9,47.7z M27.7,49.8c0.6,0.1,1-0.1,1.4-0.4
		c0.4-0.3,0-0.9-0.4-0.7c-0.3,0.2-0.5,0.3-0.9,0.3C27.4,49,27.2,49.7,27.7,49.8z M23.6,59.6C23.6,59.6,23.6,59.6,23.6,59.6
		c0.1,0.1,0.2,0.2,0.2,0.3c0.3,0.4,0.9,0,0.7-0.4c-0.3-0.4-0.7-0.9-1.3-0.5C22.8,59.2,23.2,59.9,23.6,59.6z M19.4,61.6
		c0.6-0.4,1.4-0.5,2.1-0.6c0.5-0.1,0.5-0.8,0-0.8c-0.9,0.1-1.8,0.2-2.5,0.7C18.6,61.2,19,61.8,19.4,61.6z M19.9,65.3
		c0.3-0.6,0.8-1.1,1.2-1.7c0.2-0.4-0.4-0.8-0.7-0.4c-0.3,0.6-0.8,1.1-1.2,1.7C19,65.4,19.6,65.8,19.9,65.3z M22.6,68.1
		c0.4-0.7,0.5-1.6,0.1-2.3c-0.3-0.4-0.9,0-0.7,0.4c0.3,0.4,0.1,1.1-0.1,1.5C21.7,68.1,22.4,68.5,22.6,68.1z M23.7,66.3
		c0.9,0.2,1.7,0.6,2.2,1.4c0.3,0.4,0.9,0,0.7-0.4c-0.7-1-1.5-1.5-2.7-1.7C23.4,65.5,23.2,66.2,23.7,66.3z M25.1,60.4
		c0.2-0.1,0.4,0,0.5,0.1c0,0,0,0,0,0c0,0,0.1,0,0.2,0c0.2,0,0.4,0,0.6,0c0.2,0,0.3,0.3,0.3,0.5c-0.1,0.2-0.3,0.3-0.5,0.3
		c-0.2,0-0.4,0-0.6,0c-0.3,0-0.5-0.1-0.7-0.4C24.9,60.8,25,60.5,25.1,60.4z M26,65.3c0.4,0.2,0.8,0.1,1.2,0.1c0.2,0,0.4-0.2,0.4-0.4
		c0-0.2-0.2-0.4-0.4-0.4c-0.3,0-0.5,0.1-0.8,0c0,0-0.1,0-0.1,0c0,0,0,0,0,0c0.1-0.5-0.7-0.7-0.7-0.2C25.6,64.7,25.7,65.1,26,65.3z
		 M71.5,18.3c0.4-0.8,0.4-1.7,0.2-2.6c-0.1-0.5-0.8-0.5-0.8,0c0.1,0.8,0.2,1.5-0.1,2.2C70.6,18.4,71.2,18.7,71.5,18.3z M69.1,18.5
		c0.3,0.4,0.9,0,0.7-0.4c-0.3-0.4-0.8-1-0.7-1.5c0.1-0.5-0.7-0.7-0.7-0.2C68.2,17.2,68.7,17.9,69.1,18.5z M66.1,19.2
		c0.6-0.1,1.2,0,1.8,0.1c0.5,0.1,0.7-0.7,0.2-0.7c-0.7-0.1-1.3-0.2-2-0.1C65.6,18.5,65.6,19.2,66.1,19.2z M65.2,21.5
		c1.2,0.2,2.1-0.4,2.8-1.3c0.3-0.4-0.2-0.9-0.5-0.5c-0.5,0.7-1.1,1.2-2.1,1.1C64.9,20.7,64.8,21.4,65.2,21.5z M73.1,18.5
		c0-0.2,0.1-0.4,0.2-0.5c0.2-0.1,0.2-0.3,0.1-0.5c-0.1-0.2-0.4-0.3-0.5-0.1c-0.3,0.2-0.5,0.6-0.6,1C72.3,18.8,73,19,73.1,18.5z
		 M72.4,20c0.4,0.5,1.1,0.7,1.6,0.3c0.4-0.3,0-0.9-0.4-0.7c-0.2,0.1-0.4,0.1-0.5-0.1c-0.1-0.2-0.3-0.2-0.5-0.1
		C72.4,19.6,72.3,19.8,72.4,20z M72.9,22.2c0.1,0,0.3,0.1,0.4,0.1c0,0,0,0,0,0c0.1-0.2,0.5-0.3,0.7,0c0.2,0.3,0.1,0.6-0.2,0.8
		c-0.1,0.1-0.3,0-0.5,0c-0.2,0-0.4-0.1-0.5-0.1C72.2,22.8,72.4,22.1,72.9,22.2z M72.1,24.4l0.3-0.2c0.4-0.3,0-0.9-0.4-0.7l-0.3,0.2
		C71.3,24,71.7,24.6,72.1,24.4z M67.1,24.5l0.3-0.2c0.4-0.3,0-0.9-0.4-0.7l-0.3,0.2C66.3,24.1,66.7,24.8,67.1,24.5z M62.7,33.9
		c0.2-0.3,0.3-0.7,0.3-1.1c0-0.3-0.1-0.7-0.2-1c-0.1-0.5-0.8-0.5-0.8,0c0,0.3,0.1,0.6,0.2,1c0,0.3-0.1,0.5-0.2,0.8
		C61.8,34,62.5,34.4,62.7,33.9z M59.1,32.1c0.6,0.1,1-0.1,1.4-0.4c0.4-0.3,0-0.9-0.4-0.7c-0.3,0.2-0.5,0.3-0.9,0.3
		C58.8,31.3,58.6,32.1,59.1,32.1z M57.4,34.3c0.6-0.1,1.2-0.2,1.7-0.6c0.4-0.3,0-0.9-0.4-0.7c-0.4,0.3-0.8,0.4-1.3,0.5
		C56.9,33.6,56.9,34.4,57.4,34.3z M57.2,36.2c0.7,0.1,1.2-0.2,1.8-0.6c0.4-0.3,0-0.9-0.4-0.7c-0.3,0.2-0.8,0.6-1.2,0.5
		C56.9,35.4,56.7,36.1,57.2,36.2z M58.3,38.2c0.1-0.6,0.7-0.9,0.8-1.5c0.1-0.5-0.6-0.7-0.7-0.2c-0.1,0.6-0.7,0.9-0.8,1.5
		C57.5,38.5,58.2,38.7,58.3,38.2z M61.4,37.9c-0.1-0.8-0.1-1.5-0.5-2.2c-0.3-0.4-0.9,0-0.7,0.4c0.4,0.6,0.3,1.2,0.4,1.8
		C60.7,38.4,61.5,38.4,61.4,37.9z M83.1,27.6c0.5-0.4,0.9-1.1,1-1.7c0.1-0.5-0.6-0.7-0.7-0.2c-0.1,0.4-0.3,1-0.7,1.3
		C82.3,27.2,82.7,27.8,83.1,27.6z M81.8,27.9c0.1-0.7,0.2-1.3,0.1-2c-0.1-0.5-0.8-0.5-0.8,0c0.1,0.6,0,1.2-0.1,1.8
		C80.9,28.2,81.7,28.3,81.8,27.9z M78.6,27.4l0.6,0.9c0.3,0.4,1,0,0.7-0.4l-0.6-0.9C79,26.5,78.3,26.9,78.6,27.4z M77,29.2l1.1,0.2
		c0.5,0.1,0.7-0.7,0.2-0.7l-1.1-0.2C76.7,28.4,76.5,29.1,77,29.2z M84.6,28.2c0.3,0,0.6,0,0.9-0.1c0.2-0.1,0.5-0.2,0.8-0.1
		c0.5,0.1,0.7-0.7,0.2-0.7c-0.3,0-0.6,0-0.9,0.1c-0.2,0.1-0.5,0.2-0.8,0.1C84.3,27.4,84.1,28.1,84.6,28.2z M83.1,30.1l0.5,0.1
		c0.5,0.1,0.7-0.7,0.2-0.7l-0.5-0.1C82.8,29.3,82.6,30,83.1,30.1z M81.4,31.1c0.2-0.1,0.4,0,0.5,0.2c0,0,0.1,0.1,0.1,0.1
		c0,0,0,0,0,0c0.4-0.3,0.7,0.3,0.3,0.6c-0.4,0.2-0.9,0-1.1-0.3C81.1,31.4,81.2,31.2,81.4,31.1z M48,12.6c0.8-0.5,1.2-1.4,1.1-2.4
		c-0.1-0.5-0.8-0.5-0.8,0c0.1,0.7-0.2,1.3-0.7,1.7C47.2,12.2,47.6,12.9,48,12.6z M45.7,10.4l0.6,0.9c0.3,0.4,1,0,0.7-0.4L46.4,10
		C46.1,9.6,45.4,10,45.7,10.4z M43.7,12.1l1.1,0.2c0.5,0.1,0.7-0.7,0.2-0.7l-1.1-0.2C43.4,11.3,43.2,12.1,43.7,12.1z M42.2,14.1
		c0.6,0.1,1-0.1,1.4-0.4c0.4-0.3,0-0.9-0.4-0.7c-0.3,0.2-0.5,0.3-0.9,0.3C41.9,13.2,41.7,14,42.2,14.1z M42.3,16.8
		c1-0.1,1.8-0.7,1.7-1.8c0-0.5-0.8-0.5-0.8,0c0.1,0.6-0.4,0.9-1,1C41.8,16.1,41.8,16.9,42.3,16.8z M49,13.2c0.6,0.1,1-0.1,1.4-0.4
		c0.4-0.3,0-0.9-0.4-0.7c-0.3,0.2-0.5,0.3-0.9,0.3C48.7,12.3,48.5,13.1,49,13.2z M47.8,14.9c0.5,0.1,1.2,0.2,1.7-0.1
		c0.4-0.3,0-0.9-0.4-0.7c-0.3,0.2-0.8,0-1.1,0C47.5,14,47.3,14.8,47.8,14.9z M47.7,16.9l0.3-0.2c0.4-0.3,0-0.9-0.4-0.7l-0.3,0.2
		C46.9,16.6,47.3,17.2,47.7,16.9z M21.1,20.7c0.8-0.1,1.5-0.5,2.2-1c0.4-0.3,0-0.9-0.4-0.7c-0.6,0.4-1.3,0.8-2,0.9
		C20.4,20,20.6,20.8,21.1,20.7z M20.6,18.6c0.1-0.5,0.2-1.2-0.1-1.7c-0.3-0.4-0.9,0-0.7,0.4c0.2,0.3,0,0.8,0,1.1
		C19.7,18.9,20.5,19.1,20.6,18.6z M16.3,17.5c0.2,0.3,0.4,0.5,0.7,0.7c0.1,0.1,0.3,0.2,0.5,0.3c0,0,0,0,0.1,0
		c0.1,0.1,0.3,0.2,0.5,0.1c0,0,0.1,0,0.1-0.1c0.1-0.1,0.2-0.3,0.1-0.4c-0.3-0.4-0.9-0.6-1.2-1C16.6,16.7,16,17.1,16.3,17.5z
		 M14.1,20.8c0.8-0.1,1.6,0.3,2.4,0.2c0.5-0.1,0.5-0.8,0-0.8c-0.8,0.1-1.6-0.3-2.4-0.2C13.6,20.1,13.6,20.8,14.1,20.8z M14.6,23.6
		c0.4-0.1,0.8-0.1,1.2-0.4c0.3-0.2,0.5-0.6,0.7-0.9c0.2-0.4-0.4-0.8-0.7-0.4c-0.3,0.5-0.6,0.8-1.3,0.9
		C14.1,22.9,14.1,23.7,14.6,23.6z M17.3,25.4c0.1-0.6,0.4-1.2,0.4-1.9c0.7,0.7,1.3,1.4,1.8,2.3c0.3,0.4,0.9,0,0.7-0.4
		c-0.7-1-1.4-2-2.3-2.7c-0.2-0.2-0.5-0.1-0.6,0.1c-0.2,0-0.4,0.1-0.4,0.4c0.1,0.7-0.3,1.3-0.4,2C16.5,25.7,17.2,25.9,17.3,25.4z
		 M19.2,22.4c0.4,0.5,1,0.6,1.5,0.7c0.5,0.1,0.7-0.7,0.2-0.7c-0.2,0-0.5-0.1-0.7-0.2c-0.1,0-0.3-0.1-0.4-0.2
		c-0.1-0.2-0.3-0.2-0.5-0.1C19.1,22,19,22.3,19.2,22.4z M39.1,44.5c0.8-0.1,1.5-0.5,2.2-1c0.4-0.3,0-0.9-0.4-0.7
		c-0.6,0.4-1.3,0.8-2,0.9C38.4,43.8,38.6,44.6,39.1,44.5z M39.5,42.3c0.5-0.4,1.1-0.7,1.2-1.4c0.1-0.5-0.6-0.7-0.7-0.2
		c-0.1,0.5-0.5,0.7-0.9,0.9C38.8,41.9,39.1,42.6,39.5,42.3z M37.3,41.9c0.2-0.9,0.3-1.7-0.2-2.5c-0.3-0.4-0.9,0-0.7,0.4
		c0.4,0.6,0.2,1.3,0.1,1.9C36.5,42.2,37.2,42.4,37.3,41.9z M34,42.2c0.7,0.4,1.5,0.6,2.3,0.5c0.5-0.1,0.5-0.8,0-0.8
		c-0.7,0.1-1.3,0-1.9-0.4C33.9,41.3,33.5,41.9,34,42.2z M34.2,44.4c0.2,0,0.5,0,0.7,0c0.2,0,0.4-0.1,0.7,0c0.5,0.1,0.7-0.7,0.2-0.7
		c-0.2,0-0.5,0-0.7,0c-0.2,0-0.4,0.1-0.7,0C33.9,43.6,33.7,44.3,34.2,44.4z M34.3,46.8c0.1,0.2,0.4,0.3,0.5,0.1
		c0.2-0.1,0.3-0.3,0.4-0.5c0.1-0.1,0.2-0.4,0.3-0.5c0.2-0.1,0.2-0.3,0.1-0.5c-0.1-0.2-0.4-0.3-0.5-0.1c-0.2,0.1-0.3,0.3-0.4,0.5
		c-0.1,0.1-0.2,0.4-0.3,0.5C34.3,46.4,34.2,46.6,34.3,46.8z M26.9,53.1c0.1-0.6,0.1-1.4-0.3-2c-0.3-0.4-0.9,0-0.7,0.4
		c0.2,0.4,0.3,1,0.2,1.4C26.1,53.4,26.8,53.6,26.9,53.1z M64.1,34.9c0.3-0.2,0.5-0.3,0.9-0.3c0.5,0.1,0.7-0.7,0.2-0.7
		c-0.6-0.1-1,0.1-1.4,0.4C63.3,34.5,63.7,35.2,64.1,34.9z M27,6.5c0.4-0.1,0.8-0.1,1.2-0.4c0.3-0.2,0.5-0.6,0.7-0.9
		c0.2-0.4-0.4-0.8-0.7-0.4c-0.3,0.5-0.6,0.8-1.3,0.9C26.5,5.8,26.5,6.5,27,6.5z M26.3,4.6c0.1-0.6,0.5-1.2,0.6-1.8
		c0.1-0.5-0.6-0.7-0.7-0.2c-0.1,0.6-0.5,1.2-0.6,1.8C25.4,4.9,26.2,5.1,26.3,4.6z M25,3.9c-0.3-0.9-0.7-1.7-0.9-2.6
		C24,0.8,23.3,1,23.4,1.5c0.1,0.9,0.6,1.8,0.9,2.6C24.4,4.6,25.1,4.4,25,3.9z M20,3.2c0.9,0.5,1.9,0.9,2.8,1.4
		c0.4,0.2,0.8-0.4,0.4-0.7c-0.9-0.5-1.9-0.9-2.8-1.4C19.9,2.3,19.6,3,20,3.2z M19.9,5.7c0.6,0.1,1.3-0.1,1.9-0.2
		c0.5-0.1,0.3-0.9-0.2-0.7c-0.5,0.1-1,0.3-1.5,0.2C19.6,4.9,19.4,5.6,19.9,5.7z M20,7.9c0.7,0.1,1.2-0.2,1.8-0.6
		c0.4-0.3,0-0.9-0.4-0.7c-0.4,0.2-0.7,0.6-1.2,0.5C19.7,7.1,19.5,7.8,20,7.9z M22.4,10.5l0.3-1.6c0.1-0.5-0.7-0.7-0.7-0.2l-0.3,1.6
		C21.6,10.8,22.3,10.9,22.4,10.5z M26.2,8.8c0.5,0.1,0.7-0.6,0.2-0.7c-0.2-0.1-0.1-0.5,0-0.7c0.1-0.5-0.7-0.7-0.7-0.2
		C25.4,7.8,25.4,8.6,26.2,8.8z M38.1,45.6c0.3,0.5,0.6,0.8,1.2,0.9c0.5,0.1,0.7-0.6,0.2-0.7c-0.3-0.1-0.5-0.3-0.7-0.6
		C38.5,44.8,37.8,45.2,38.1,45.6z M29,45.8l0.9-0.6c0.4-0.3,0-1-0.4-0.7l-0.9,0.6C28.2,45.4,28.6,46.1,29,45.8z M20.8,58.2
		c0.3,0.4,0.7,0.9,1.3,0.5c0.4-0.3,0-0.9-0.4-0.7c0,0,0,0,0,0c-0.1-0.1-0.1-0.2-0.2-0.3C21.2,57.4,20.6,57.8,20.8,58.2z M33.7,68.4
		l0.9,1.3c0.3,0.4,1,0,0.7-0.4L34.4,68C34.1,67.6,33.4,68,33.7,68.4z M33.1,71.6c0.3,0.4,0.9,0,0.7-0.4c-0.3-0.5-0.7-1-0.4-1.6
		c0.2-0.4-0.4-0.8-0.7-0.4C32.2,70.1,32.6,70.8,33.1,71.6z M29.5,71.7c0.1,0.2,0.4,0.3,0.5,0.1c0.2-0.1,0.3-0.3,0.4-0.5
		c0.1-0.1,0.2-0.4,0.3-0.5c0.2-0.1,0.2-0.3,0.1-0.5c-0.1-0.2-0.4-0.3-0.5-0.1c-0.2,0.1-0.3,0.3-0.4,0.5c-0.1,0.1-0.2,0.4-0.3,0.5
		C29.5,71.3,29.4,71.5,29.5,71.7z M28.2,69.8c0.1,0.2,0.4,0.3,0.5,0.1c0.2-0.1,0.3-0.3,0.4-0.5c0.1-0.1,0.2-0.4,0.3-0.5
		c0.2-0.1,0.2-0.3,0.1-0.5c-0.1-0.2-0.4-0.3-0.5-0.1c-0.2,0.1-0.3,0.3-0.4,0.5c-0.1,0.1-0.2,0.4-0.3,0.5
		C28.2,69.4,28.1,69.6,28.2,69.8z M33.7,66.4l1.3-0.9c0.4-0.3,0-1-0.4-0.7l-1.3,0.9C32.9,66,33.3,66.7,33.7,66.4z M29.4,67.4
		l0.3-0.2c0.2-0.1,0.2-0.4,0.1-0.6c0.2-0.2,0.2-0.7-0.2-0.7c-0.1,0-0.2,0-0.3,0c0,0-0.1,0-0.1,0c0,0,0,0.1,0,0.1l0,0
		c0,0-0.1,0-0.1,0c0,0-0.1,0-0.1-0.1c0,0-0.1-0.1-0.1-0.1c-0.3-0.4-0.8-0.1-0.5,0.3c0.1,0.2,0.3,0.3,0.5,0.4c0.1,0,0.3,0.2,0.3,0.1
		L29,66.8C28.5,67.1,29,67.7,29.4,67.4z M55.9,19.1l0.2-1.1c0.1-0.5-0.7-0.7-0.7-0.2l-0.2,1.1C55.1,19.4,55.9,19.6,55.9,19.1z
		 M53.6,18.9c0.3-0.2,0.7-0.6,0.7-1c0-0.5-0.3-0.8-0.7-1c-0.4-0.2-0.8,0.4-0.4,0.7c0.1,0.1,0.2,0.1,0.3,0.2c0,0,0,0.1,0,0.1
		c0,0,0,0,0,0c0,0-0.1,0.1,0,0.1c-0.1,0.1-0.2,0.2-0.3,0.2C52.9,18.5,53.2,19.2,53.6,18.9z M51.4,18.1l0.6,0.9c0.3,0.4,1,0,0.7-0.4
		l-0.6-0.9C51.8,17.3,51.1,17.7,51.4,18.1z M56.4,20.1c0.2,0,0.5,0,0.7,0c0.2,0,0.4-0.1,0.7,0c0.5,0.1,0.7-0.7,0.2-0.7
		c-0.2,0-0.5,0-0.7,0c-0.2,0-0.4,0.1-0.7,0C56.1,19.3,56,20,56.4,20.1z M55.4,21.4c0.1,0.2,0.3,0.3,0.5,0.4c0.1,0,0.1,0,0.2,0
		c0,0,0,0,0,0c0,0,0,0,0,0c0,0,0,0,0,0c0.1,0.2,0.3,0.2,0.5,0.1c0.2-0.1,0.3-0.4,0.1-0.5c-0.1-0.2-0.3-0.3-0.5-0.4
		c-0.1,0-0.1,0-0.2,0c0,0,0,0,0,0c0,0,0,0,0,0c0,0,0,0,0,0c-0.1-0.2-0.3-0.2-0.5-0.1C55.3,21,55.2,21.2,55.4,21.4z M55,23.8
		c0.1-0.5,0.2-1.2-0.1-1.7c-0.3-0.4-0.9,0-0.7,0.4c0.2,0.3,0,0.8,0,1.1C54.2,24.1,54.9,24.3,55,23.8z M51.4,20.4l0.3-0.2
		c0.4-0.3,0-0.9-0.4-0.7L51,19.8C50.6,20,51,20.7,51.4,20.4z M41,22c0.1-0.1,0.2-0.1,0.4-0.2c0.1,0,0.3-0.1,0.4-0.2
		c0.2-0.1,0.3-0.4,0.2-0.6c-0.1-0.1-0.2-0.2-0.4-0.2c-0.2,0-0.4,0.1-0.4,0.3c-0.2,0.1-0.3,0.1-0.5,0.2C40.2,21.6,40.6,22.2,41,22z
		 M40.4,19.9c0-0.2,0.1-0.5,0.2-0.7c0-0.1,0.1-0.3,0.2-0.4c0.2-0.1,0.2-0.3,0.1-0.5c-0.1-0.2-0.4-0.3-0.5-0.1
		c-0.5,0.4-0.6,1-0.7,1.5C39.5,20.2,40.3,20.4,40.4,19.9z M36.6,18.9c0.4,0.6,0.9,1.1,1.5,1.5c0.4,0.2,0.8-0.4,0.4-0.7
		c-0.5-0.3-0.9-0.7-1.2-1.2C37,18.1,36.3,18.5,36.6,18.9z M36.6,23.1c0.5-0.3,0.8-0.6,0.9-1.2c0.1-0.5-0.6-0.7-0.7-0.2
		c-0.1,0.3-0.3,0.5-0.6,0.7C35.8,22.7,36.2,23.4,36.6,23.1z M38,25.3c0.1-0.5,0.2-0.9,0.7-1.3c0.4-0.3,0-0.9-0.4-0.7
		c-0.6,0.4-0.9,1-1,1.7C37.2,25.6,37.9,25.7,38,25.3z M39.8,25.9c0-0.2,0.1-0.5,0.2-0.7c0-0.1,0.1-0.3,0.2-0.4
		c0.2-0.1,0.2-0.3,0.1-0.5c-0.1-0.2-0.4-0.3-0.5-0.1c-0.5,0.4-0.6,1-0.7,1.5C39,26.2,39.7,26.4,39.8,25.9z M18.6,31
		c0.5,0.1,1.2,0.2,1.7-0.1c0.4-0.3,0-0.9-0.4-0.7c-0.3,0.2-0.8,0-1.1,0C18.3,30.2,18.1,30.9,18.6,31z M17.8,33.5l1.6-1.1
		c0.4-0.3,0-1-0.4-0.7l-1.6,1.1C17,33.1,17.4,33.7,17.8,33.5z M18.8,35.6c0.5-0.4,1.1-0.8,1.2-1.4c0.1-0.5-0.6-0.7-0.7-0.2
		c-0.1,0.4-0.5,0.7-0.9,0.9C18,35.2,18.4,35.9,18.8,35.6z M21.6,35.6c0.3,0.4,0.9,0,0.7-0.4c0,0,0,0,0,0c0,0,0-0.1,0,0
		c0-0.1,0-0.1,0-0.2c0-0.2,0-0.4-0.1-0.6c-0.3-0.4-0.9,0-0.7,0.4c0,0,0,0,0,0c0,0,0,0.1,0,0c0,0.1,0,0.1,0,0.2
		C21.5,35.2,21.5,35.4,21.6,35.6z M23.5,32.9c0.4-0.3,0-0.9-0.4-0.7C22.7,32.5,23.1,33.2,23.5,32.9z M21.5,30.9l0.3-1.6
		c0.1-0.5-0.7-0.7-0.7-0.2l-0.3,1.6C20.7,31.2,21.4,31.4,21.5,30.9z M29.1,22.2c-0.2,0.1-0.6-0.1-0.6-0.4l0.4-2.1
		c0.1-0.5,0.8-0.3,0.7,0.2l-0.4,2.1C29.2,22,29.2,22,29.1,22.2c0.2-0.2,0.4-0.1,0.5,0c0,0,0-0.1,0-0.1c0,0,0,0,0,0
		c0.4-0.3,0.9,0.5,0.4,0.7c-0.4,0.2-0.7,0.2-1-0.1C28.9,22.6,29,22.3,29.1,22.2z M28.1,20.8c-0.1-0.8-0.4-1.3-0.8-2
		c-0.3-0.4-0.9,0-0.7,0.4c0.3,0.5,0.6,1,0.7,1.6C27.4,21.3,28.2,21.3,28.1,20.8z M24.7,22.3c0.7,0.1,1.2-0.2,1.8-0.6
		c0.4-0.3,0-0.9-0.4-0.7c-0.4,0.2-0.7,0.6-1.2,0.5C24.4,21.4,24.2,22.2,24.7,22.3z M26.4,23.6l0.3-0.2c0.4-0.3,0-0.9-0.4-0.7
		L26,22.9C25.6,23.2,26,23.9,26.4,23.6z"/>
</g>
</svg>
