<?xml version="1.0" encoding="utf-8"?>
<!-- Generator: Adobe Illustrator 27.1.1, SVG Export Plug-In . SVG Version: 6.00 Build 0)  -->
<svg version="1.1" id="レイヤー_1" xmlns="http://www.w3.org/2000/svg" xmlns:xlink="http://www.w3.org/1999/xlink" x="0px"
	 y="0px" viewBox="0 0 150 150" style="enable-background:new 0 0 150 150;" xml:space="preserve">
<style type="text/css">
	.st0{fill:#6D6D6C;}
</style>
<path id="レンゲソウ" class="st0" d="M123.9,97.4c-0.6-2.5-2.5-3.6-4.6-3.8c4.3-0.2,6.7-9.2-3.9-6.9c-2.1,0.5-2.4,3.3-2.4,5.4
	c-0.8-1.3-1.8-2.3-3.4-2.8c-2.3-0.7-6.2,0.1-6.3,3.1c-0.2,4,6.5,3.6,9.5,3.3c-2,3.4-5.1,5.9-8.5,7.8c0,0-0.9-8.5-7.7-6.5
	c-1.3,0.4-1.8,1.8-1.2,3.1c1.1,2.5,4.8,3.6,7.4,4.3c-1.5,0.8-6.7,3.2-7.8,3.6c0,0-0.1,0-0.1,0c0.4-0.9,0.9-5.3-3.4-6.3
	c-2.3-0.5-3.4,1-4.1,3.2c-1,3.3,2.8,4.1,5.5,4c-2.6,1.1-5.1,2.2-7.6,3.5c0.3-1,0.9-7.1-3.7-6.2c-4.3,0.8-1,5.9,2.3,7
	c-0.4,0.2-6,4-8.2,6c0.7-0.6,1-2.7,1.3-3.6c0.9-2.8,1.3-5.7,1.3-8.7c0,0,0.1-0.1,0.1-0.1c1.7-5,3.3-10.2,4.6-15.4
	c0.6,1.6,1.5,3.1,3.3,3.5c3,0.7,5.9-1,4.5-4.6c-0.9-2.2-4.8-1.7-7.1-1.5c0.6-2.6,1.2-5.1,1.7-7.7c0.5,1.5,1.6,2.5,2.9,3.3
	c2.7,1.7,5.8-0.7,6-1.5c1.4-5-4.8-6.2-8.4-4.7c0.5-2.9,0.9-5.7,1.2-8.6c4.5,7.4,8.8,5.3,9.6,2.5c0.5-1.8-2.3-4.9-6.5-5.2
	c8.3-10.1-1.1-10.3-3.5-7.9c-1.4,1.4-1.6,3.7-1.3,5.7c-0.1-1.3-5.3-5.1-6.5-1.2c-1.4,4.9,3.5,6,7.3,5c0,0.1-0.1,0.1-0.1,0.2
	c-0.3,2.6-0.6,5.3-1.1,7.9c-0.6-1-1.4-1.9-2.5-2.1c-2.6-0.5-4.7,2.9-3.5,5C80,81.1,84,81,84.3,81c-0.3,1.7-0.7,3.5-1.1,5.2
	c-0.1-1.2-2.2-4-4-2.2c-2.8,2.7-0.5,6,3,6.3c-1.2,4.7-2.6,9.3-4.1,13.8c0-0.7,0-1.4,0-2.1c-0.5-13-1.4-25.9-2.8-38.8
	c-1.2-11.3-2.8-22.8-6.2-33.8c-0.1-0.5-1.1-0.1-1,0.4c3.4,11.1,5,22.8,6.2,34.4c1.4,12.6,2.1,25.3,2.7,38c0,3.1-1.4,14.3-2.4,16.6
	c-1.9-9.7-9.4-6.4-10.4-4.1c-1.2,2.5,1.8,7.2,6.1,6.5c0,0-0.1,0-0.1,0.1c-3.8,4.2-7.2,8.8-10,13.8c-2.2,3.9-3.5,7.6-3.1,12.1
	c0,0.4,0.6,0.3,0.9,0.1c3.3-2.8,4-7.6,6-11.5c1.2-2.5,9.1-12.4,9.4-13.3c-0.5,1.6,1.4,9,7.4,5.1c2-1.3,0.1-8.5-3.9-8.5
	c2.1-1.9,4.4-3.5,6.8-4.9c-1.8,7.4,5,11.1,7.4,6.7c1.5-2.9-2.5-6.9-5.2-7.9c2.2-1.1,4.7-2.2,7.2-3.2c-0.7,2.2-0.4,4.9,1.6,6.2
	c2.6,1.7,7.4,2.4,8.5-1.6c0.8-3.3-3.4-5.6-6.4-6.1c2.2-0.9,4.4-1.9,6.5-3c0.6,7.8,8.9,7.9,10.9,6.2c1.9-1.6-1-8.8-7.6-8.2
	c2.8-1.9,5.3-4.2,7-7.1c0.8,2,1.6,3.9,3,4.9C119.3,102.8,125.1,102.4,123.9,97.4z M95.7,71.8c0,1.4-3.1,2.8-5.3,0.7
	c-1.3-1.2-2.1-2.8-3-4.4c0,0,0,0,0,0C90.2,67.3,95.6,67.9,95.7,71.8z M86.7,60.7c0.7-2.2,4.3-3.1,5.5-0.9c1.5,2.7-2.2,8.1-5.2,7.3
	C86.3,65,86,62.8,86.7,60.7z M79.8,64.1c0.1-1.1,1.5-1.5,2.4-1.1c0.8,0.3,1.3,1,1.8,1.6c0.8,1,1.4,2.1,2.1,3.2
	C83,68.6,79.4,68.1,79.8,64.1z M89.5,93.3c-2.5,2-5.3-1.1-6.1-3.7C87.1,88.6,92.9,90.5,89.5,93.3z M93.4,81.8c0,2.5-3.7,2.4-5.2,1.5
	c-1.6-0.9-2.2-2.7-2.2-4.4C88.6,77.7,93.4,78.1,93.4,81.8z M80.2,79.3c-0.9-1.2-0.4-3,0.9-3.7c3.6-1.8,3.4,4,3.3,4.6
	C83.6,80.4,80.6,79.8,80.2,79.3z M79.6,84.9c0.5-0.9,4-0.5,2.5,4.6C79.7,89.2,78.3,87.4,79.6,84.9z M64.9,115.9
	c0.1-3.2,3.8-3.6,6-2.3c2.1,1.3,2.8,3.9,2.8,6.2C70.5,121.3,64.9,119.9,64.9,115.9z M59.5,144.4c-0.8,0.1-1,0.7-1.4,1.3
	c0-4,1.3-7.4,3.3-11.1c2.6-4.7,5.9-9,9.5-13c0.2-0.2,0.2-0.4,0-0.5c0.9,0,1.8-0.2,2.7-0.5l0,0c0,0.1,0,0.2,0.1,0.2
	C67.1,127.5,62,136,59.5,144.4z M79.5,125.9c-1.5,1.9-7.7,1.3-4.5-5.2C77.9,118.1,81.7,123,79.5,125.9z M88.1,105.3
	c0-3,3.1-3.5,5.1-1.8c1.4,1.3,1.1,3,0.5,4.5C91.5,108.4,88.1,108.2,88.1,105.3z M82.5,107c2.3-0.3,2.8,3.7,1.7,5.4
	C82.3,112.5,78.1,107.7,82.5,107z M87.6,120.8c-3.7,0.4-3.4-5.5-2.8-7.3C90,115.5,92.2,120.2,87.6,120.8z M101.5,111.9
	c1.2,3.2-4,4.3-6.1,3.3c-1.6-0.8-1.6-3.1-1.6-4.6C94,107,100.6,109.5,101.5,111.9z M96.8,97.7c1.1-0.7,6.1-0.8,6.3,5.9
	C100.4,102.7,93.3,99.8,96.8,97.7z M112.8,110c-1.2,0.8-8.5,1.3-8.7-5.4C109.4,100.9,114.7,108.7,112.8,110z M115.5,87.5
	c1.1-0.6,3.3-0.8,4.7,0c5.8,3.1-2.5,6.8-6.1,6.6C113.8,91.8,113.4,88.6,115.5,87.5z M104.7,93.5c-1.4-1.5,0.3-3.2,1.8-3.6
	c3.9-0.9,5.3,1.9,6.5,5C110.4,95.3,106.6,95.6,104.7,93.5z M123,98.8c-0.3,1.9-7,4.6-8.7-3.6C116.9,93.8,123.7,94.5,123,98.8z
	 M51.3,92.3c2,0.8,4.8,1.6,6.5,3c-2,1.1-5.4,3.9-3.2,6.3c2.2,2.4,4.8,0.4,5.2-2.1c0.2-1,0.1-2.1,0.1-3.2c2.8,1.2,5.8,3.3,8.2,5.2
	c-1.3,0.2-6,0.2-5.5,3c0.4,2.2,2.3,3,5.9,0.5c2.3-1.6,4.4-0.2,5.4,2.6c0.4,1.2,0.4,2.7,1,3.8c0.4,0.8,0.2,0.9,0.6,0.1
	c0.6-1.4,0.3-3.9,0.3-5.4c0.1-2.6,0-5.2,0-7.8c-0.1-4.3-0.5-8.6-0.8-12.9c-0.7-9.2-1.2-18.3-2.4-27.4c-1.3-9.7-2.2-19.1-5.4-28.5
	c1.3-0.5,2.2-1.4,2.8-2.7c3.2,1.6,7.5,1.2,7.5-3.2c2.3-1,5-1.8,6.6-3.8c1.2-1.4,2.6-5.1,1.2-6.9c-1.4-1.7-2.5,1.5-2.9,2.5
	c-0.9,2-1.8,4.2-3.3,5.8c-1.7,1.7-3.4,1.7-5.5,0.8c0.5-0.5,0.9-1.1,1.2-1.7c2.4,0.7,5.1-0.9,6.2-3.1c-0.9-0.8-4.3,3-6,2.1
	c3-2.5,10.9-4.5,8.1-9.8c-2-3.7-6.3,6.6-1.4,0.1c2.9,2.1,0.2,4.9-2.4,6.2c-0.8,0.4-2.8,1.9-3.7,1.6c-0.6-0.2-1.3-2.9-1.3-2.9
	c2.2-0.4,5-3,6-5c0.4-0.8,0.7-1.8-0.3-1.2c-1.1,0.6-2.1,2.8-3,3.7c1.3-1.4,1.8-3.3,1.7-5.2c-0.1-2.7-1.4-1.6-3.1-0.4
	c1.2-2.3-0.4-3-2.4-1.8c-2.4,1.5-3.8,4.2-4.7,6.7c0.1-2.3,0.2-5.6-1.2-7.6c-1.3-1.8-1.5,1.1-1.9,2.3c-0.2-0.8-0.2-3.4-1.3-3.1
	c-0.9,0.2-1.4,2.9-1.6,3.7c-0.4,1.6-0.3,3.3-0.2,4.9c-0.9-1.6-2.9-2.2-4-3.6c-0.4-0.5-1.3-2.4-2.1-2.1c-0.4,0.2-0.6,1.9-0.7,2.3
	c-1.7-1.5-3.6-3.6-3.4,0.2c0.2,2.4,1.4,4.4,3,6c-0.1,0.3-0.3,0.7-0.5,0.9c-1-1.9-5.1-4.2-5.2-0.7c-0.8-0.4-2-1.3-2.7-0.4
	c-1,1.3,0.5,3.9,1.3,4.9c-4.2,1.2-0.2,6.2,2.4,6.8c-1.2,2.9,2.7,3.7,4.8,3.7c2.9-0.1,5.3-1.3,7.5-3c0.2,2,1.2,3.4,3.4,3.3
	c3.2,9.2,4.3,19.1,5.4,28.7c1.2,10.3,2.1,20.7,2.6,31.1c0.3,5.7,0.5,11.5,0.7,17.2c-2.5-7.6-9.6-14.1-14.5-20.3
	c-2.8-3.6-5.6-7.3-7.9-11.2c-1.8-3.3-2.4-6.2-2.7-9.9c-0.1-1.4-1.1-5.2,0.7-5.7c0.7-0.2,1.6,0.6,2.3,0.2c0.9-0.4,0.9-1.9,1-2.8
	c2.3,0.6,4.7,1,6.9,0.1c1-0.4,3.6-2,3.4-3.5c-0.2-1.2-1.9-0.9-2.8-0.9c-1.7,0-3.3-0.1-5-0.5c1.8-0.3,3.6-0.7,5-2.1
	c0.7-0.7,2-2.5,1.1-3.4c-1.2-1.2-5.7,1.1-7.4,1c1.5-1,2.5-3.3,2.7-5.1c-3-0.6-5.7,1-7.3,3.5c0.3-1.7-0.9-3.9-2.5-4.7
	c-2.3-1.1-3.5,1.7-3.8,3.5c-1.1-2.2-3.8-6.2-6-2.5c-1.8,3.1,1,6,2.8,8.3c-2.9,0.2-5-3.1-6.9-4.8c-2.6,1.5-5.1,4.4-2.4,7.2
	c2.3,2.3,5.9,1.8,8.7,1c-1.9,0-4.1-0.1-5.9-0.6c-1.3-0.3-2.6-1.3-2.9-2.7c-0.4-1.8,1.1-3,2.5-3.9c1.3,1.9,3,3.3,5.2,4.1
	c1.3,0.5,1.8,0.1,3.2-0.4c-2.5-2-5.6-6.5-2-9c1.2,1,2.2,2.4,3.1,3.6c0.7,0.8,2.3,3.9,3.5,2.5c-1.7-0.7-2.5-3.5-1.3-4.9
	c2.8-3.2,3.8,4.1,3.8,5.6c1.2-1.6,3.6-4.2,5.5-4.8c3.1-1.1-0.3,3.7-1.2,4.5c1,0.5,2,0.5,3.2,0.3c0.9-0.1,3.5-1.2,4.3-0.6
	c0.9,0.6-0.2,1.5-0.9,2.1C58.9,51,57.6,51,56,51.2c-1.7,0.2-1.8,0.9-0.2,1.7c1.1,0.6,2.4,0.8,3.7,0.9c0.8,0.1,2.4-0.3,3.1,0.1
	c1.3,0.6-0.5,1.5-1.5,1.9c-1.9,0.9-4.5,1-6.5,0.5c-3.6-1-0.2-8-5.6-5c-0.5-1.3-0.3-3.1-2.1-2.2c-1.9,0.9-2.6,3.1-2.6,5
	c-2.8,1.3-6,1.5-9.1,1.8c-1,0.1-2.9-0.1-2.4,1.2c0.6,1.4,4,2.2,5.3,2.3c2.9,0.3,4.9-1.3,6.8-3.2c1.5,1.4-0.1,5,3.3,4.2
	c-0.1,6.9,1,12.6,4.8,18.4C56.6,84.4,61.1,89,65.3,94c2.3,2.8,4.4,5.8,6.4,8.9c-0.9-1.4-3.1-2.3-4.4-3.1c-2.4-1.5-4.9-3-7.3-4.5
	c1.9-0.9,4.1-2.6,1.4-4.2c-2.5-1.4-3.1,1.1-3.6,3c-1.8-0.7-3.7-1.6-5.4-2.5c1.4-1,4.1-3.9,1.1-4.9c-2.6-0.9-3.8,1.9-3.7,3.9
	c-2.2-0.8-5.1-2.1-7.6-1.8c-1.8,0.2-0.6,0.6,0.2,1.5c1.9,2.2-1.6,6.5-3.2,4.1c-1.7-2.4,1.3-5.3,3.1-6.6c1.4-1.1,3.9-2.9,3.7-5
	c-0.1-1.5-1.9-2.3-3.3-2.2c-2.7,0.1-3.1,2.6-3.2,4.7c-3.1-2.2-11.1-7.5-13.1-1.1c-1.6,5,4.8,6.3,8.4,5.8c2-0.3,3.8-1,5.6-1.8
	c-1.7,1.8-4.1,6.6-0.5,7.9c1.5,0.5,3.2-0.5,3.8-1.9c0.8-1.6,0.1-3.2-0.6-4.6c1.9,0.3,5.8,0.9,7.1,2.3c-1.8,0.9-5.9,4.3-2.3,6
	C51.1,99.6,51.4,94.1,51.3,92.3z M72.3,26.9c-1.4-0.2-2.5-1.1-3.3-2.3c2.2,1.3,6.3,0.7,7-0.8c0,0,0,0,0,0
	C76.2,23.8,76.8,27.4,72.3,26.9z M84.4,13.4c1.3,4.1-1.7,7.3-5.4,8.9C81.3,20.1,83.1,16,84.4,13.4z M70.1,21.6
	c-0.6,0-0.9,0.1-0.5,0.6c0.6,0.8,2.6,0.1,2.9,0.8c0.2,0.6,2.9,1.2,3.4,0.9c-2.4,1.7-5.2,1.2-7.2-1c-1.2-1.3-0.8-3.1-2.3-4.2
	c-0.5,0.9,0,2.2-0.9,3.1c-1.4-0.8,0.2-2.4-0.5-3c-1-0.8-1.2,1.6-1.2,2c-3.4-1.4-1.9-5.6-0.3-6.9c1,2.4,1.8,1.8,3,0.1
	c0.8-0.2,2.9,3.3,2.2,5.1c-0.2,0.5-0.9,1.9-0.3,2.3c0.3,0.2,1.5-0.5,1.8-0.7c0.9-0.8,1.1-1.8,1.3-2.9c0.2-1.6-0.2-3.2-0.3-4.8
	c2.7-1.5,3.2,4.3,2.7,6.4C73.3,22,72.1,21.7,70.1,21.6z M69,16.6c0.1,0,0.1,0,0.2,0c0.5-0.1,0.9-0.2,1.4-0.3c0,1.8,0,3.5-1.3,4.2
	C69.8,19.2,69.6,17.9,69,16.6z M75,4.8c-0.3,0.5-1,2.5,0,2.9c0.5,0.2,2-1.3,2.5-1.6c0.9,2.9-0.6,6.5-3.7,7.7
	c-0.5-0.6-1.8-2.2-2.7-1.7c-0.8,0.4-0.5,2.7-0.5,3.4c-0.6,0.2-1,0.3-1.7-0.4C68.1,14.4,69.1,5.9,75,4.8z M64,4
	c0.2,0.8,1.1,3.5,1.3,3.3c0.6-0.6,1.1-2.1,1.5-2.9c0.9,2.6,1.7,6.9,0.4,8.9c-0.1-0.1-1-0.7-1.2-0.4c-0.3,0.6-0.7,1.1-1,1.7
	c-0.3-0.4-0.6-0.9-0.6-1.5c0-0.3-0.4-0.4-0.6-0.3C61.6,10.6,63,6.7,64,4z M53.1,7.4c0,0,2,1.3,2.8,1.6c0,0,0.4-1.7,0.5-2.1
	c2.2,1.9,4.7,4.4,6.3,6.7c-1.7,1.5-2,5.2-0.8,7.1c-0.8-0.3-1.5-0.9-2.1-1.6c0.1,0,0.1,0,0.2-0.1c0.4-0.3,0.7-0.5,0.9-0.9
	c0.2-0.4-0.2-1.3-0.2-1.3c0,0,0,0,0,0c0,0,0,0,0-0.1c0,0-1.9-1.2-3-1.6c-0.2-0.6-1-2.1-1.2-2c-0.3,0.1-0.5,0.3-0.7,0.4
	C52.9,12.6,52.6,9.2,53.1,7.4z M59.8,17.2c0.4,0.3,0.5,0.6-0.3,1.2c0,0-0.1,0-0.1,0.1c-0.5-0.7-0.9-1.5-1.3-2.3
	C58.4,16.6,59.3,16.9,59.8,17.2z M56.3,14.2c1,3.3,3.2,5.9,6.8,7.5c0.1,0,0.2,0,0.3,0c0.1,0,0.3,0,0.4,0c0.1,0.3,0.3,0.6,0.7,0.8
	c-0.2,0-0.4,0.1-0.5,0.3c-1,1.9-2.4,3.5-4.7,3.5c-0.7,0-1.4-0.2-2-0.4c1.9-0.2,3.7-1,4.1-3c0-0.2-0.1-0.3-0.2-0.3
	c-0.1,0-0.2,0-0.4,0C56.5,24.3,53,16.5,56.3,14.2z M58.5,23.5c0.6,0.1,1.1,0.1,1.7,0c-0.7,1.5-3.1,1.6-4.6,1.6c0,0-0.1,0-0.1,0
	c1-0.4,2-0.9,2.9-1.4C58.4,23.6,58.4,23.5,58.5,23.5z M47.6,14.6c0.7-0.7,2.4,1.1,2.5,1.1c0.4,0,0.9-0.3,0.6-0.7
	c-0.4-0.6-0.4-1.2,0-1.7c1.7-0.2,2.4,1.6,3.4,2.7c0,0,0.1,0,0.1,0.1c-0.4,1.5,0,3.4,0.8,4.8C54,21.1,45.2,19.2,47.6,14.6z
	 M47.1,20.7c-0.1-2,6.9,1.3,8.3,0.8c0.6,0.7,1.3,1.3,2.1,1.7C56.2,24.7,47.5,27.4,47.1,20.7z M54.6,28.5c-1.2,0-2.6-0.3-3.4-1.2
	c-1.4-1.5,3-1.6,3.9-1.5c0,0,0,0,0.1,0c1.6,0.7,3.1,1.2,4.8,1.1c0.4,0,0.7-0.1,1.1-0.2C59.2,28,56.8,28.5,54.6,28.5z M65.8,28.9
	c-2.9,0.1-2.4-4.6-1-6c0.5-0.5,1.2-0.7,1.8-1.1c-0.4,0.3,1.7,3.1,1.9,3.5C69.3,27.1,67.8,28.9,65.8,28.9z M34.1,56.9
	c3.6,0.4,10.4-2.1,10.4-2.1C43.5,57.5,38,60.8,34.1,56.9z M47.4,59.7c-0.9-0.2-0.7-1.9-0.6-2.7c0-0.1-3.7-3.3,0.6-7.2
	c0.3,1.2,0.9,2.4,1.2,3.6c0,0,0,0.2,0.1,0.2c0.2,0.7,0.2,1.3,0.1,2c-0.1,0.5,0.9,0.3,1-0.2c0.1-0.8-0.8-4.1,0.6-4.7
	c0.6,0.5,1.2,1.1,1.4,1.9c0.3,0.8-0.1,3,0,3c0.5,1,1.7,2.1,1.2,3.2c-0.6-0.1-0.9-0.5-1.4-1c-0.2-0.2-0.6-0.1-0.8,0
	C50,58.6,48.5,59.9,47.4,59.7z M64.3,105.6c-0.7-0.2-0.8-1.2-0.9-1.8c-0.1-1.1,1.2-1.3,2-1.4c1.2-0.2,2.9-0.2,4.2,0.2
	c0.1,0.1,0.3,0.2,0.4,0.3C68.9,104.4,65.9,106,64.3,105.6z M59.3,99.2c-0.1,0.8-0.4,1.5-0.8,1.8c-1.2,1.1-3.7,0.9-3.7-1.1
	c0-1.2,1.7-4.1,3.1-4C59.3,95.9,59.6,97.7,59.3,99.2z M60.8,91.9c2.1,1.3-0.2,2.5-1.7,3c-0.1,0-0.2-0.1-0.3-0.1
	C58.7,93.2,58.9,90.7,60.8,91.9z M27.3,86.1c-0.6-1.3,0.7-2.8,1.7-3.5c1.5-1.1,3.6-0.5,5.2,0.2c2,0.9,4.4,2.8,5.4,4.9
	C36.9,90.2,28.9,89.6,27.3,86.1z M43.6,81.6c3.5,0.9,0.4,4-1,5c-0.5,0.4-1,0.7-1.4,1C40.1,85.2,39.5,80.5,43.6,81.6z M53,87.6
	c0.6,0.2,0.9,0.7,0.7,1.3c-0.3,1-1.4,1.8-2.4,2.4c-0.2-0.1-0.3-0.1-0.5-0.2C50.4,89.6,50.8,87.1,53,87.6z M50.3,96.7
	c-0.6,0.8-1.8,1-2.4,0.2c-1.5-2.1,0.6-3.5,2.5-4.1c0.1,0.3,0.2,0.6,0.3,1C50.9,94.7,50.9,95.8,50.3,96.7z"/>
</svg>
