<?xml version="1.0" encoding="utf-8"?>
<!-- Generator: Adobe Illustrator 27.1.1, SVG Export Plug-In . SVG Version: 6.00 Build 0)  -->
<svg version="1.1" id="レイヤー_1" xmlns="http://www.w3.org/2000/svg" xmlns:xlink="http://www.w3.org/1999/xlink" x="0px"
	 y="0px" viewBox="0 0 150 150" style="enable-background:new 0 0 150 150;" xml:space="preserve">
<style type="text/css">
	.st0{fill:#6D6D6C;}
</style>
<path id="シロツメクサ" class="st0" d="M119.3,114c5.7-11.8-16.8-16-16.7-7.1c-8.5-5.9-13.5,1.1-13.2,2.7
	c0.4,2,2.6,3.1,4.4,3.8c0.5,0.2,1.2-0.1,0.4-0.3c-1.6-0.6-3.8-1.7-3.7-3.7c0.1-1.3,4.3-8,12.2-1.3c0.2,0.3,1,0.4,1.1,0.2
	c0,0,0,0,0,0c0,0,0,0,0,0c-0.5-2.6,0.2-4.8,3-5.2c4.3-0.6,8.4,0,10.6,3.2c5.6,8.4-4.3,9.4-6.7,8.7c-0.2-0.1-2.3-0.8-3.2-1.1
	c-0.5-0.2-1.2,0.1-0.4,0.3c10.7,4,5.7,11.3,0,11.7c-2.9,0.2-13.3-1.3-8.5-9.8c0.1-0.2-0.9-0.6-1.1-0.3c-4.5,7.2,3.5,12.4,10.1,11.2
	c2.2-0.4,5.4-1.4,6.5-4.8c1-3-0.5-5.3-2.8-6.7C113.9,116.1,118.5,115.7,119.3,114z M107.9,27.7c0.1-0.3-0.8-0.5-1-0.4
	c-1.8,0.8-7.2,0-8-0.1c0.4-1,1.2-3.5-0.7-3.4c-1.1,0.1-2.7,2.1-3.9,2.6c-0.3-1-0.5-2.5-1.4-1.4c-0.5,0.7-2.4,1.2-3.1,1.7
	c-0.2,0.1,0.7,0.5,1.5,0.2c0.6-0.2,1.1-0.8,1.6-1c0.6,3.8,4.2-1.4,5.4-1.4c0.7,1.5-0.5,3.4-2.4,3.6c0.1,0,0,1,2.8,0.1
	c1.4-0.4,3.2,0.3,4.6,0.4c1,0.1,2,0,3-0.3c-0.6,1.3-1.6,2.6-3.1,3.1c-0.5,0.2-4,0.1-4.2-0.4c-0.1-0.3-0.4-0.5-0.4-0.8
	c0-0.4-0.9-0.6-0.9-0.4c0.1,2.1,1.1,4.2,3.7,4.5c-0.6,0.6-1.4,1-2.2,1.1c-1.7,0.1-2.8-1.1-3.6-2.4c-0.1-0.2-0.7-0.3-1-0.2
	c0.2-0.7,0.4-1.4,0.4-2.1c0-0.4-2.8,3.7-2,4.5c-0.6-0.6-1.1-1.3-1.2-2.1c-0.1-0.8,0.2-1.8,0-2.5c-0.1-0.4-0.8-1.1-0.8-1.2
	c-0.2-1.4-1.6,1.1-1.7,1.6c-2-0.5-3.6-0.8-4.8-2.4c-0.1-0.2-0.9-0.5-1.1-0.2c-0.3,0.6-0.4,1.1-0.3,1.7c0,0.9,3.2,5.5,7.5,1.1
	c-0.6,3.5,1.5,4.1,2.6,5.4c0.1,0.1,1.2,0.1,1.1-0.3c-1-5.2,5.7,4.6,8.6-2.4c0.1-0.3-0.2-0.2-0.6-0.1c-1.1,0.4-3.2-1.4-3.2-1.8
	c0.6,0,3.8,1,5.1,0C106,30.7,107.2,29.5,107.9,27.7z M88.8,31.4c-1.4,0.9-3.7,0.6-4.5-1c-0.1-0.5-0.5-1.2,0.1-1
	C85.5,30.4,87.2,31.4,88.8,31.4z M105.7,120.7c-0.3-0.8,0-2.8,0.2-2.6c0.5,0.8,0.8,1.8,1,2.7C106.9,121.2,106.7,123.1,105.7,120.7z
	 M102,27.1c-0.3,0.1-1.3-0.3-0.9-0.5c1.1-0.5,4.7-1.5,4.9-3.8c-0.6,0.2-1.2,0.4-1.9,0.5c-1.1,0.1-2.2-0.2-3.3,0.1
	c-0.3,0.1-1.3-0.4-0.9-0.5c0.8-0.2,1.6-0.2,2.4-0.2c1.5,0.1,2.7-0.1,3.9-0.9c0.2-0.2,1.2,0,1.1,0.3C106.6,26.1,103.2,26.6,102,27.1z
	 M106.2,108.9c0-0.1,0.4-1.6,0.4-1.8c0-0.3,1.2-1.4,1.2-0.1C107.8,107.2,106.2,109.3,106.2,108.9z M91.1,114.2
	c0.1-0.3,1.2,0,1.1,0.3c-1.7,4.6-9.6,2.3-10.6-1.6c-0.9,2.9-2.2,9.7-3.3,12.5c-0.6,1.6-0.2-1.4,0.4-3.9c0.9-3.8,1.4-7.3,2.6-11.3
	c0.1-0.3,1.1-0.5,1,1C82.2,116.2,89.3,119.1,91.1,114.2z M107.5,116.6c1.4,0.5,2.5,2.5,1.9,2.5c-0.5,0-2.9-2.5-2.7-2.6
	C107,116.4,107.3,116.5,107.5,116.6z M103.5,121.5c-0.4,1-1.8-3.4-1.7-3.4C101.9,118,104.1,120,103.5,121.5z M102.8,22.1
	c-0.4,0.7-1.1-0.3-1-0.6c0.8-1.7,2.9-3.5,1.2-5.4c-0.5-0.6-3.3,1.9-4.1,3.6c-0.9,1.8,0-2.6,0.2-3.1c0.4-1,0.5-2.3,0-3.5
	c-1.1-2.5-2.9,2.2-3.8,3.6c-0.7,1.3-0.7-0.7-0.3-1.6c0.7-1.6,1.5-3.2,3.2-3.6c0.3-0.1,0.8,0.2,1,0.5c1.2,1.7,1.5,3.5,0.9,5.2
	c0.1-0.7,2.7-2.7,3.4-1.9c0.8,1,1.4,2.1,1.2,3.5C104.5,20,103.4,21.1,102.8,22.1z M52.2,46.5c0.3,0.3-0.7,0.4-1,0.3
	c-1.5-0.9-2.2-1.9-2.5-3.3c-0.5,0.7-0.6,3.1-0.4,3.9c0.1,0.3-0.6,0.9-0.7,0.6c-0.4-1.2-1.2-5.2,1-6c0.3-0.1,1.1,0,1.1,0.3
	C49.6,44.4,51,44.9,52.2,46.5z M91.7,22.5c-0.1,0.2-0.7,0.5-0.9,0.6c-0.2,0.2-0.9-0.2-0.6-0.5c0.8-0.8,1.9-3.2,2.2-2.8
	c0.3,0.4-0.1,1.1-0.2,1.6c0.5-0.5,1.6-1.1,2-1.7c0.2-0.2,0.2,0.4,0,0.7C93.5,21.3,92.3,23.1,91.7,22.5z M68.5,47
	c1.2-1.6,0.8-3.6-0.7-5.4c-1.4,1-0.8,2.6-2.3,4.6c-0.2,0.2-1.1,0.3-0.8,0c0.5-0.8,0.7-2.2,1-3c0,0-1.4-3.5-2.1-3.8
	c-0.7,0.8-0.9,1.1-1.1,3.5c0,0.3-1,2-1.3,1c-0.3-0.9,0.6-1.6,0.6-2.4c0.1-1.8,1.4-3,1.5-3c1.4-0.4,2.9,3.1,2.9,4.4
	c0.4-0.9,0.5-1.4,1.1-2.3c0.2-0.3,1,0,1.1,0.2c2.3,3,2.2,5.7,0.6,7.7C68.8,48.7,68.3,47.2,68.5,47z M73.6,50.1
	c0.2-1.2,0-5.2-2.5-3.3c-2.2,1.7-2.3,5.7-5.7,6.4c-1.2,0.5-2.6,0.3-3.7,0.9c-0.6,0.3,4.4,1.3,6.2-1.1c-0.6,2.8-4.4,5.9-6.6,2.9
	c-0.7-1-2.2-1.4-2.3-1.2c-1.8,2.7-3.3,1-4.4,1.6c-4.6,2.3,5.1,5.3,5.9-0.1c2,3.1,5.9,1.7,7.7-0.9C70.9,54.8,73.2,53.1,73.6,50.1z
	 M58.1,58.3c-1.2,0.7-3.3,0.3-3.6-1.1c0,0,0.6-0.2,0.6-0.3c1.4,0.3,2.8-0.1,4-0.9C60.3,57.3,58.8,57.9,58.1,58.3z M68.8,54.5
	c0.2-0.6,0.1-1.6,0.1-2.3c0-0.2,1.8-5.1,3-4.4C72,48,74.7,50.9,68.8,54.5z M46.4,46.8c-0.1-0.2-1.1-0.6-1.1-0.2
	c-0.1,1.8-0.7,4.2,0.1,6c0.6,1.3,1.5,2.3,2.8,2.8c0.4,0.7,1.3,1.3,2.2,1.6c2.4,0.8,3.8-0.9,5.3-2.5c0.2-0.2-0.2-1.1-1.4-0.7
	c-1.8,0.5-2.9-0.7-4.7-1.6c-0.2-0.1-0.9-0.4-1-0.1c-0.4,0.8-0.5,1.6-0.3,2.3c-1.1-0.5-3-3.4-1.8-6.4c0.4,0.5,2.8,3.1,4.3,3.5
	c0.3,0.1,1.4,0.3,0.9-0.1C51,50.8,47.2,48.8,46.4,46.8z M49.5,52.8c1.5,0.9,3.1,1.7,4.9,1.5c-1.1,1.2-2.9,3.2-4.4,1.4
	C49.2,54.9,49.1,53.8,49.5,52.8z M61.4,51.5c-0.2-0.8,0.2-2.4-1.5-4.2c-1.4,0.7-1.8,3.5-2.2,5.1c-0.1,0.3-2.1-1.1-2.8-3.1
	c-0.7-0.7-1.2,0.1-0.7,1.4c0.1,0.3-2,0.3-3.2-1.4c-0.4-0.5,1.7,0.9,2.2,0.6c0.2-1.1,0.2-1.4,0.8-1.8c0.3-0.2,0.6,0,0.7,0.1
	c1,1.6,1.5,2,2.4,2.9c0.4-1.6,1.2-3.1,2.3-4.5c0.2-0.3,1,0.1,1.1,0.3c0.6,1,1,2.1,1.4,3.1c0.8-0.9,1.7-1.7,2.2-2.8
	c0.2-0.3,0.9,0,1.1,0.2c1.9,1.7,1.6,5-1.1,5.7c-0.3,0.1-1.3,0-0.9-0.1c3.8-1.4,3.1-3.8,1.6-5.2c-0.6,0.9-2.3,3.1-2.5,3
	c0.1,0.3-0.2,0.8-0.1,1.1C62.2,52.1,61.5,51.8,61.4,51.5z M59.7,42.1c-0.2-1.2-0.2-3.2-1.2-3.6c-1.5,0.8-1.4,3.1-1.4,4.6
	c0,0,0,0,0,0c0.1,0.4-0.4,1.6-0.9,0.2c-0.6-1.5-2.8-4.8-4.4-3.9c0.1-0.1-1.5,3,1.2,6.6c0.3,0.3-0.6-0.2-0.8-0.4
	c-1-1.2-1.5-2.8-1.5-4.3c0-0.8,0-2.3,1-2.6c1-0.3,2.3,0.3,2.8,1c0.8,1.1,1.3,1.5,1.9,2.2c0,0,0,0,0,0c0-1.8,0-2.7,1.4-4.1
	c1.4-1.3,3.2,2.6,2.8,4.9C60.7,43,59.9,43.1,59.7,42.1z M84.7,16.9c0.3,0.3-1-0.3-1.2-0.5c-2-2.2-3-4.3-2.5-7.2
	c-2.6,1.7-2.8,4.8-1.4,7.6c0.1,0.2-0.7,0-0.9-0.3c-1.7-3.4-1.4-7,2.6-8.4c0.2-0.1,1.1,0.1,1,0.4C81.4,11.6,82.5,14.5,84.7,16.9z
	 M91.6,15.6c0.6-2.3,0.5-4.5-0.7-6.5c-0.1-0.2-2,2-2.1,6.2c0,0.8-1.7-4.2-3.5-5.2c-1.3-0.4-0.3,4.3-0.6,4.8
	c-0.1,0.1-0.8,1.9-0.8,0.6c0-2.2-0.9-5.6,1.3-6.1c0.7-0.2,2.4,2,2.8,3c0.4-1.6,1.5-4.2,2.6-4.4c1.8-0.4,3,5.2,1.7,7.7
	C92.2,16.1,91.5,15.9,91.6,15.6z M85.2,25c-0.6,0.4-1.8-2.1-1.7-3.2c0.1-0.4,0.1-1.8,0.6-2.5c0.2-0.3,1.1-0.4,0.9,0
	c-0.6,0.9-0.2,2.8,0.2,3c0.3-1.1,1.4-3.7,2.6-2.1c0.7,0.9-0.3,2.5-0.1,3.5c0.2,1.3,0.7,2.3,1.5,3.4c-2.1,0.8-2.7-5.4-2-6.4
	C86.8,19.9,85.7,24.6,85.2,25z M82.7,27.2c-2.2-0.4-2.9-3.6-3.6-5.3c-0.4-1-0.9-0.5-1.1-0.3c-1.4,1.9-2.3,4.5,0,6.1
	c1.4,1,3.8,1.3,5.2,0.2C83.3,27.9,84.1,27.4,82.7,27.2z M82.2,27.5C82.2,27.5,82.2,27.5,82.2,27.5c-1.4,1.2-6.8-0.4-3.7-5.1
	C79.2,24.3,80.1,26.8,82.2,27.5z M81.9,21.3c0.7,0.3,0,0.5-0.4,0.3c-3-1.1-3.9-4.2-5.4-6.7c-1.5,1.3-1.3,6.2,1.1,6.9
	c0.7,0.2,0.5,0.6-0.1,0.4c-3.4-1-3.8-6.1-1.6-8.4c0.2-0.2,0.9,0,1.1,0.2C78.2,16.4,78.9,20.2,81.9,21.3z M117,124.2
	c0.5,1.4,0.6,2.9-0.5,4.1c-1.2,1.3-3.4,1.5-5.1,1.5c-0.4,0-1.2-0.5-0.5-0.5c1.6,0,3.3-0.2,4.5-1.4c1.1-1.1,0.9-2.8,0.4-4.1
	c0,0,0-0.1,0-0.1c0,0,0.1-0.1,0.3-0.1c1.8,0,3.7-0.5,4.5-2.1c0.8-1.4,0-3-1.1-4c-0.3-0.3,0.8-0.2,1,0c1.2,1.2,1.9,2.9,1,4.5
	C120.8,123.7,118.8,124.2,117,124.2z M69.7,123.6c0,0.2-1.1,0.9-1.4,1.1c0.1-0.3,0.3-1.3,0.3-1.4C68.6,123,69.7,123.2,69.7,123.6z
	 M35.6,130.7c0,0.8-0.3,1.5-0.8,2.2c-0.2,0.2-2,0.8-1.8,0.5C33.5,132.7,35.6,130.3,35.6,130.7z M67.1,140.3c-0.4-1,0.1-3.2,0.2-2.8
	c0.3,1,0.7,2,0.9,3C68.2,140.8,67.6,141.7,67.1,140.3z M68.2,124.7C68.2,124.7,68.2,124.7,68.2,124.7
	C68.1,124.8,68.2,124.7,68.2,124.7z M30.2,131.1c-0.2-0.1,1-0.5,1.2-0.5c0.2,0,1.9-0.1,1.6,0.1C32.7,131,30.4,131.3,30.2,131.1z
	 M47,115.4c-0.2,0.3-0.7,1.4-1,1.6c-0.2,0.2-1,0.8-1,0.4C45,116.3,47.3,114.9,47,115.4z M20.2,127.4c1.1,1.5,3.1,1.6,4.9,1.3
	c-1.7,1.9-3.7,4.6-1.9,6.8c1.7,2.1,9.8,7.8,16.4,3.5c3-1.9,2-7.4,0.7-10.2c0.1,0,2.9,1.1,3.7,1.4c0.3,0.1,1.4,0.1,0.7-0.2
	c-0.6-0.3-1.2-0.5-1.9-0.8c1.2-0.1,5-1.5,2.5-5.1c-0.2-0.3-1.3-0.4-1.1-0.2c3.4,4.5-1.4,4.7-2.6,4.8c-4.5-1.6-9.3-2.3-14.2-2.4
	c-0.8,0,0.1,0.5,0.5,0.5c3.8,0.1,7.6,0.6,11.2,1.6c0,0,2.5,6.6,0.4,9c-3.4,3.7-13.4,0.5-14.8-2.5c-1.2-2.6,0.5-4.9,2.3-6.7
	c0.3-0.3-0.8-0.5-1-0.4c-6.5,2.8-7.8-10.2,1.8-9.3c3.2,0.3,4.7,4.4,5.8,7c0.1,0.3,1.2,0.5,1.1,0.2c-1.1-3-1-6,2.3-7
	c0.1,0.2,4.6,3.5,7.4,3c0.9,2.4,3.5,3.7,6.2,3.1c2.9-0.7,4-2.9,3.9-5.2c1,1.7,1.8,3.4,2.6,5.1c0.1,0.3,1.2,0.4,1.1,0.2
	c-1.2-2.7-2.6-5.4-4.3-7.8c0,0,0,0,0-0.1c2.9,1.5,6.6,1.4,8.5-1.3c0,0.2,0.2,0.9,0.3,0.9c-3.2,2.2-4.3,6.5-2.5,10.3
	c-12.2-4.6-13,5.2-13.1,8.6c-0.3,14,10.3,6.1,10.3,6.1c6.8,8.5,16.6,6.9,18.9-0.1c1.4,2.8,3.5,5.6,6.9,6.1c4.4,0.6,8.5-3.1,10.1-6.8
	c3.7,1.6,11.4,3,11.1-2.9c-0.2-4.8-5.3-6.7-10-7.3c0.9-0.1,3.7-0.4,4.1-2.9c0.7-4.6-4.1-6.5-8.4-7c-0.7-0.1-1.1,0-1-0.1
	c-1.9-0.1-3.6,0-4.5,0.3c-2.4,0.7-2.3,2.8-1.6,4.8c0,0-3.6,3.6-5.1,5.6c0,0,0,0.1,0,0.1c-1.2,0.4-2.1,1-2.9,2
	c-0.2-0.4-0.5-0.8-0.8-1.2c0.1-1.4,0.2-2.8,0.3-4.2c6.7-4.5,0.9-9.8,0.8-9.8c0.5-5.6,1.1-11.2,1.8-16.8c1.7,0,4.4,1.6,5.8,2.6
	c0.1,0.1,0.2-0.6,0-1c-2.8-6.6,10.5-6.4,6.3,2.2c-0.2,0.3,0.5,0.3,0.7,0c5.7-6.5-8.7-11.9-8.4-3.2c-1.3-0.7-2.7-1.1-4.3-1.2
	c0.8-6.5,1.7-13,2.5-19.6c2.1-15.9,2.6-32.7,9-47.7c0.1-0.3-1-0.6-1.1-0.3c-6.3,15-6.9,31.8-9,47.7c-2.2,16.5-4.4,33-5.3,49.6
	c0,0,0-0.1,0,0c6.9,15.3-6.1,19.7-15.1,10.5c0.5-0.5,2.1-1.6,2.6-2.1c0,0,0-0.1,0-0.1c0,0,0,0,0,0c0,0,0,0,0-0.1c0,0,0,0-0.1-0.1
	c0,0,0,0,0,0c-0.2-0.2-0.8-0.3-0.9-0.2c-0.7,0.3-3.9,6.1-10.1,3.3c-2.1-0.9-2.3-11.9,1.5-14.1c3.4-2,6.6-1.2,9.7,0
	c1.6,2.7,3.1,5.4,5,7.9c0.2,0.2,1.3,0.4,1,0c-2-2.5-3.4-5.2-5-7.9c-2.6-4.7-0.7-10.9,5.1-12c1.7-0.2,3.3-0.1,4.9,0.6
	c-0.4,4-0.7,8-1,12c-0.2-0.1-1-0.8-1.2-0.8c-0.2,0-0.4,0-0.3,0.2c0.4,0.6,2.3,2.9,2.6,1.2c0,0,0,0,0,0c0,0,0,0,0,0c0,0,0,0,0,0
	c1.1-16.7,3.3-33.3,5.5-49.9c2-15.2,2.6-31.2,8.7-45.5c0.1-0.3-1-0.6-1.1-0.3c-6.2,14.6-6.8,31-8.8,46.5c-1,7.3-1.9,14.6-2.8,21.9
	c-0.1,0-3.7,1.6-3.7,3.3c0,1.6,1.4,5.1,2.8,4.6c-0.3,2.3-0.4,3.9-0.6,6.2c-1.8-0.7-3.7-0.9-5.6-0.6c-2.8-18.4-3.7-36.9-4.9-55.4
	c0-0.4-1.1-0.5-1.1-0.3c1.2,18.7,2.1,37.4,5,55.9c-0.5,0.2-1,0.4-1.5,0.6c-2.7-18.5-3.1-37.1-5-55.6c0-0.3-1.2-0.5-1.1-0.2
	c1.7,16,2.2,32.2,4,48.2c-1.2-0.7-1.6-1-2.7-0.5c0.5-1.9-0.2-4-2.6-4.3c-2.5-0.4-4.3,0.9-5.2,2.8c-1.1-2.5-3-4.8-5.4-6
	c-3.7-1.9-4.8,1.6-4.8,4.5c-2.6-0.4-6.8,0.1-5.2,3.6c1.1,2.6,3.7,3.9,6.4,4.4c-2.6,0.8-5.4,2.6-5,5.2c-2.6,0.6-3.7,2.1-3.9,4
	c-1.3-2.1-3-3.9-5.5-4.3c-2.6-0.4-4.8,1.1-6.3,3.1C20,122.5,18.7,125.6,20.2,127.4z M72.2,108.6c-1-0.8-2.1-2.1-1.8-3.5
	c0.3-1.3,1.3-2.1,2.5-2.6C72.7,104.5,72.5,106.5,72.2,108.6z M74.2,127.2c0.2-2.7,0.4-5.3,0.6-8C76.6,121.8,76.6,124.9,74.2,127.2z
	 M75,134.1c0.2,0.1,5.8-5.6,15.9,0.9c0.2,0.2,1.4,0.2,0.9-0.1c-2.7-1.9-8.4-4.3-12.7-3.8c1.2-1.6,2.6-3,4-4.4
	c0.4,0.8,0.8,1.5,1.1,2.1c0.2,0.3,1.3,0.4,1.1,0.2c-1-1.6-3.3-5.4-1.2-7c1.5-1.2,12.3-1.2,13.2,4.9c0.5,3.4-8.4,3.8-8.3,3.8
	c0,0.2,0.5,0.4,0.8,0.4c0.2,0,14.8-0.6,13.4,8.1c-0.8,5.2-11-0.3-11,0.9c0.1,2.4-4.4,6.5-8.4,6.2c-3.9-0.3-6.6-3.1-7.3-6.6
	c0,0,0,0,0,0C76.5,137.6,75.9,135.8,75,134.1z M37.7,116.3c1.3-2.3,3.9-3,6.6-3.3c0.6-0.1-0.5-0.5-0.7-0.5c-2.8,0.1-7.8-2.1-7.4-5.1
	c0.3-2.3,5.5-1.9,5.5-2.1c0-1.3-0.2-3.4,0.9-4.4c3.1-3,8.1,6.5,8,9c0,0.1,1.1,0.7,1,0.3c0,0,0,0,0-0.1c-1.6-3.8,3.1-6.7,4.7-6.1
	c1.8,0.7,1.8,3.5-0.1,5.2c-0.2,0.2,0.6,1.2,1.1,0.3c0.8-1.4,3.3-0.7,4.1-0.1c0.2,2,0.4,3.2,0.7,5.2c-0.1-0.4-1.6,2.4-4.1,2.4
	c-4.9,0-7.5-4.5-10.6-6.7c-0.2-0.2-1.4-0.2-0.9,0.1c2.5,1.7,4.5,3.9,6.1,6.4c3,10.2-6.8,6.8-7.4,4.4c-0.1-0.3-0.8-0.4-1-0.3
	C41.7,121.9,36.1,119,37.7,116.3z M58.8,133.6c-1,0.2-2.4,0.5-3.4,0.1c-0.1-0.1-0.4-0.9,0.3-0.9c0.3,0,0.6,0,0.8,0.1
	C57,133.1,59.4,133.5,58.8,133.6z M70.8,138.9c0.1,0.3-1,0.1-1.1-0.2c-0.2-0.7-0.6-1.4-1.2-1.8c-0.2-0.1-0.1-0.3,0.1-0.3
	c0.3,0,0.6,0,0.8,0.2C70.1,137.4,70.5,138.1,70.8,138.9z M64.5,123.2c-0.7-1.5-0.5-1.9-0.2-2.5C64.7,119.8,64.9,123.9,64.5,123.2z
	 M66.5,121.6c0.6,0.4,0.1,1.7-0.1,2C66.3,124,65.6,121,66.5,121.6z M56.3,129.4c0.3,0,1.1,0.6,1.3,0.8c0.2,0.2-2.2-0.1-2.4-0.3
	C55.1,129.7,56.2,129.4,56.3,129.4z M58.4,135.9c-1.2,0.2-2.3,0.7-3.5,0.6c-0.5-0.1-1.6-0.9-0.3-0.9C55.7,135.6,59,135.8,58.4,135.9
	z M98.8,135.6c1,0.4,1.1,1.2-1,0.9c-0.3,0-2.6-0.8-2.9-0.9C94.8,135.5,98.2,135.3,98.8,135.6z M87.2,127c-0.3,0-1.1-1.1-1.2-1.6
	c-0.1-2.5,1.4-1.6,0.7,0.1C86.5,125.9,87.3,127,87.2,127z M93.4,126.1c-0.4,0.4-1.4,1.6-2,1.7c-0.3,0-0.6,0-0.8-0.2
	C90.4,127.4,93.6,125.9,93.4,126.1z M101,111.5c0.3-0.1,2.6,0,1.5,0.3c-4.6,1.2-9.1,5.5-12.4,8.8c0,0-1,0.1-1.3,0.1
	C93.3,116.1,97.3,112.8,101,111.5z M107.8,130.7c-7.3,5.5,6.4,8,5.5,1.9c-0.1-0.3,0.9,0.4,1.1,0.5c1.6,2.3,5.4,4,9.3,2.9
	c3.2-0.9,8.1-9.8-3.4-9.5c-0.3,0-1.3-0.4-0.9-0.5c2.5-0.6,5.6-0.9,7.6,1.1c1.8,1.7,2,5.5,0.6,7.2c-5.5,7.1-11.9,1.9-13.5,0.1
	c0.2,3.1-7,3.7-9.1,1.5c-1.7-1.8,0.1-4.2,1.7-5.7C106.9,130.1,108,130.5,107.8,130.7z M113.5,110.4c-0.7,0.6-3.7,1.7-3.7,1
	C109.8,110.1,113.9,110,113.5,110.4z M89,125.6c1-2.5,1.9-1.2,1.1,0.3c-0.2,0.4-0.4,0.7-0.6,1.1C89.4,127.3,88.8,125.9,89,125.6z
	 M110.8,106.9c0.3-0.1,1.3,0.2,0.9,0.5c-0.7,0.6-2.2,2.2-2.8,2.7C108.7,110.3,110,107.3,110.8,106.9z M83.8,139.3
	c0,0-0.8,0.9-1.2-0.5c-0.1-0.3,1.9-3,2.1-3.2C85,135.3,83.8,139.3,83.8,139.3z M48.1,118.1c-0.2,0.2-0.3,1.2-0.6-0.3
	c-0.1-0.8,0.3-1.5,0.6-2.3C48.2,115.2,48.7,117.6,48.1,118.1z M81,136.9c-0.2,0.2-1.3,2.3-1.3-0.3c0-0.5,2-0.9,2.5-1.1
	C82.5,135.4,81.4,136.6,81,136.9z M97.3,138.7c-1.3,0.6-2.8-0.6-3.3-1.8C93.9,136.7,97.4,138.6,97.3,138.7z M87.1,136.4
	c0.3,1,0.3,2.1,0,3.1c-0.1,0.3-1.1,1.6-1.1-0.3C86,138.2,87.1,136.1,87.1,136.4z"/>
</svg>
