<?xml version="1.0" encoding="utf-8"?>
<!-- Generator: Adobe Illustrator 27.1.1, SVG Export Plug-In . SVG Version: 6.00 Build 0)  -->
<svg version="1.1" id="レイヤー_1" xmlns="http://www.w3.org/2000/svg" xmlns:xlink="http://www.w3.org/1999/xlink" x="0px"
	 y="0px" viewBox="0 0 87 25.5" style="enable-background:new 0 0 87 25.5;" xml:space="preserve">
<style type="text/css">
	.st0{fill:#3FC4AB;}
	.st1{fill:#FFFFFF;}
</style>
<path class="st0" d="M74,24.8H13c-6.6,0-12-5.4-12-12v0c0-6.6,5.4-12,12-12l61,0c6.6,0,12,5.4,12,12v0C86,19.4,80.6,24.8,74,24.8z"
	/>
<g>
	<path class="st1" d="M35.5,15.8h-0.6l-1.3-5.4c-0.1-0.4-0.2-0.7-0.4-0.8c-0.1-0.1-0.2-0.1-0.5-0.2V9.2H35v0.2c-0.3,0-0.4,0-0.5,0.1
		c-0.1,0.1-0.2,0.2-0.2,0.4c0,0.1,0,0.2,0.1,0.7l1,4.2L37,9.3h0.6l1.5,5.4l1-3.9c0.1-0.3,0.1-0.6,0.1-0.8c0-0.2-0.1-0.4-0.3-0.5
		c-0.1,0-0.3-0.1-0.4-0.1V9.2h2.1v0.2c-0.6,0.1-0.8,0.3-1,1.3l-1.4,5h-0.5l-1.5-5.5L35.5,15.8z"/>
	<path class="st1" d="M42,15.5c0.3,0,0.5,0,0.6-0.1c0.1-0.1,0.1-0.1,0.1-0.8v-4.2c0-0.6,0-0.6,0-0.7c-0.1-0.2-0.2-0.3-0.6-0.3V9.2
		h4.5l0.1,1.6l-0.3,0c-0.2-1.1-0.5-1.4-1.7-1.4h-1.2v2.7h0.9c1,0,1.2-0.1,1.3-0.9h0.3v2.1h-0.3c-0.1-0.4-0.1-0.6-0.3-0.7
		c-0.1-0.1-0.5-0.2-1-0.2h-0.9v3h1.4c1.1,0,1.5-0.3,1.7-1.5l0.3,0l-0.2,1.8H42V15.5z"/>
	<path class="st1" d="M47.7,15.5c0.3,0,0.5,0,0.6-0.1c0.1-0.1,0.1-0.1,0.1-0.8v-4.2c0-0.6,0-0.6,0-0.7c-0.1-0.2-0.2-0.3-0.6-0.3V9.2
		h2.5c0.7,0,1.3,0.1,1.7,0.3c0.5,0.3,0.8,0.7,0.8,1.3c0,0.9-0.5,1.3-1.7,1.5v0.1c0.4,0,0.7,0.1,1,0.2c0.6,0.3,0.9,0.8,0.9,1.5
		c0,0.8-0.4,1.3-1.2,1.6c-0.3,0.1-0.9,0.2-1.5,0.2h-2.4V15.5z M50.1,12.1c1.1,0,1.6-0.5,1.6-1.3c0-0.9-0.6-1.3-1.7-1.3h-0.8v2.6
		H50.1z M50,15.4c0.7,0,1.1-0.1,1.4-0.4c0.3-0.2,0.5-0.7,0.5-1.2c0-0.6-0.2-1.1-0.7-1.3c-0.3-0.1-0.7-0.2-1.2-0.2h-0.9v3.1H50z"/>
	<path class="st1" d="M61.7,9.1c0.2-0.2,0.2-0.3,0.4-0.5c0.3,0.3,0.4,0.3,0.7,0.6c0.1,0.1,0.1,0.1,0.1,0.2c0,0.1-0.1,0.1-0.2,0.1
		c0,0,0,0,0,0c0,0-0.1,0-0.3,0c-0.6,0.4-1.6,1.1-2,1.3c0.2,0.2,0.3,0.3,0.3,0.5c0,0.2-0.1,0.4-0.2,0.5h2.1c0.2-0.2,0.2-0.3,0.4-0.4
		c0.4,0.3,0.5,0.4,0.8,0.6c0.1,0,0.1,0.1,0.1,0.1c0,0,0,0,0,0c0,0,0,0.1-0.1,0.1c0,0-0.1,0-0.2,0.1h-0.2c-0.1,0-0.1,0-0.2,0
		c-0.8,0.6-1.4,1-2.1,1.3l-0.1-0.1c0.7-0.6,1.2-1,1.5-1.6h-2.4v1.5c0,0.3,0,1.1,0,2.2c0,0.4-0.1,0.5-0.3,0.7
		c-0.1,0.1-0.3,0.1-0.7,0.2c-0.1-0.3-0.2-0.5-0.5-0.6c-0.2-0.1-0.4-0.1-1.3-0.2l0-0.1c1.2,0.1,1.2,0.1,2,0.1c0.2,0,0.2,0,0.2-0.2
		v-3.7h-2.8c-0.4,0-0.7,0-1,0l-0.1-0.3c0.3,0.1,0.6,0.1,1.1,0.1h3.5c0,0-0.2-0.2-0.4-0.6c-0.3-0.4-0.9-0.9-1.5-1.4l0.1-0.1
		c0.7,0.3,1.2,0.6,1.7,1c0.4-0.3,1-0.9,1.4-1.3h-3.8c-0.4,0-0.6,0-0.9,0L56.8,9c0.4,0.1,0.6,0.1,1,0.1H61.7z"/>
	<path class="st1" d="M64.8,16.3c0.4-0.9,0.5-1.8,0.6-2.9c0.8,0.2,0.8,0.2,0.8,0.3s-0.1,0.1-0.3,0.2c-0.3,1-0.5,1.5-1,2.5L64.8,16.3
		z M65,9.8c0.4,0.2,0.5,0.2,0.7,0.4c0.4-0.7,0.6-1.3,0.7-1.8c0.2,0.1,0.4,0.1,0.5,0.2c0.4,0.1,0.5,0.2,0.5,0.3
		c0,0.1-0.1,0.1-0.4,0.1c-0.2,0.3-0.3,0.4-0.9,1c0,0.1,0,0.1-0.3,0.3c0.2,0.2,0.3,0.2,0.4,0.3c0.1,0.1,0.2,0.2,0.2,0.3
		c0,0.1-0.1,0.3-0.1,0.4c0,0.1-0.1,0.1-0.1,0.1c-0.1,0-0.1,0-0.2-0.2c0-0.1-0.2-0.4-0.3-0.5C65.5,10.4,65.3,10.3,65,9.8L65,9.8z
		 M66.5,12.6c-0.3,0.1-0.4,0.1-1.1,0.2c0,0.2-0.1,0.3-0.2,0.3c-0.1,0-0.1-0.1-0.3-0.9c0.1,0,0.2,0,0.3,0c0.1,0,0.3,0,0.7,0
		c0.3-0.3,0.4-0.5,0.8-1.1c0.5-0.8,0.7-1.2,0.8-1.7c0.2,0.1,0.4,0.1,0.5,0.2c0.4,0.1,0.5,0.2,0.5,0.2c0,0.1-0.1,0.1-0.4,0.1
		c-0.6,0.8-1.2,1.6-1.8,2.2c0.4,0,0.6,0,1.6-0.1c-0.1-0.3-0.2-0.4-0.4-0.7l0.1-0.1c0.4,0.3,0.6,0.6,0.8,0.8c0.1,0.2,0.2,0.3,0.2,0.4
		c0,0.2-0.2,0.5-0.3,0.5c-0.1,0-0.1-0.1-0.2-0.3c0-0.1-0.1-0.2-0.2-0.4c0,0-0.3,0.1-0.8,0.2v1.9l0,2.1c0,0,0,0,0,0.1
		c0,0.1-0.1,0.1-0.4,0.1c-0.1,0-0.1,0-0.1-0.1c0-1.3,0-1.4,0-2.2V12.6z M67.5,13.3c0.6,0.8,0.9,1.3,0.9,1.6c0,0.3-0.2,0.7-0.4,0.7
		c-0.1,0-0.1,0-0.1-0.1c0-0.1,0-0.1-0.1-0.5c-0.1-0.6-0.2-1.1-0.5-1.7L67.5,13.3z M72.1,10.3c0.2-0.2,0.2-0.2,0.4-0.4
		c0.2,0.2,0.3,0.2,0.5,0.4c0.1,0.1,0.1,0.1,0.1,0.1c0,0.1-0.1,0.1-0.3,0.2c-0.1,2.6-0.1,2.7-0.2,3.4c-0.1,0.7-0.2,1.4-0.4,1.8
		c-0.2,0.5-0.5,0.7-1.3,0.8c-0.1-0.3-0.1-0.4-0.4-0.5c-0.2-0.1-0.4-0.1-1.1-0.3l0-0.1c1.1,0.1,1.5,0.1,1.8,0.1c0.2,0,0.3,0,0.4-0.3
		c0.3-0.6,0.5-2.6,0.5-4.7v-0.4h-2.7c-0.3,0.6-0.5,0.9-1,1.5l-0.1-0.1c0.4-0.7,0.6-1.3,0.9-2.2c0.1-0.5,0.2-0.8,0.3-1.3
		c0.8,0.2,1,0.3,1,0.4c0,0.1-0.1,0.1-0.4,0.2c-0.3,0.7-0.4,0.9-0.6,1.3H72.1z M69.4,11.7c0.5,0.4,0.8,0.7,1.2,1
		c0.3,0.3,0.4,0.5,0.4,0.7c0,0.3-0.2,0.7-0.4,0.7c-0.1,0-0.1-0.1-0.2-0.2c-0.2-0.7-0.6-1.4-1.1-2.1L69.4,11.7z"/>
</g>
<g>
	<path class="st1" d="M23.6,7.9h-1.2V7.6c0-0.6-0.5-1.1-1.1-1.1h-0.5c-0.6,0-1.1,0.5-1.1,1.1v0.3H18V7.6c0-0.6-0.5-1.1-1-1.1h-0.5
		c-0.6,0-1.1,0.5-1.1,1.1v0.3h-1.2c-0.2,0-0.4,0.2-0.4,0.4v9.2c0,0.2,0.2,0.4,0.4,0.4h9.2c0.2,0,0.4-0.2,0.4-0.4V8.3
		C24,8.1,23.8,7.9,23.6,7.9z M16.5,7.5H17c0.1,0,0.1,0.1,0.1,0.2v0.3v0.9c0,0,0,0.1-0.1,0.1h-0.6c0,0-0.1,0-0.1-0.1V7.9V7.6
		C16.4,7.5,16.4,7.5,16.5,7.5z M20.9,7.5h0.5c0.1,0,0.2,0.1,0.2,0.2v0.3v0.9c0,0,0,0.1-0.1,0.1h-0.6c0,0-0.1,0-0.1-0.1V7.9V7.6
		C20.7,7.5,20.8,7.5,20.9,7.5z M22.8,10.6v6.2h-7.7v-6.2L22.8,10.6L22.8,10.6z"/>
	<polygon class="st1" points="16.3,12.7 16.3,12.7 17.2,12.7 17.2,11.8 16.3,11.8 16.3,12.7 	"/>
	<rect x="17.8" y="11.8" class="st1" width="0.9" height="0.9"/>
	<rect x="19.2" y="11.8" class="st1" width="0.9" height="0.9"/>
	<polygon class="st1" points="20.7,12.7 20.7,12.7 21.6,12.7 21.6,11.8 20.7,11.8 20.7,12.7 	"/>
	<polygon class="st1" points="16.3,14.2 17.2,14.2 17.2,13.2 16.3,13.2 16.3,14.1 16.3,14.1 16.3,14.1 	"/>
	<rect x="17.8" y="13.2" class="st1" width="0.9" height="0.9"/>
	<rect x="19.2" y="13.2" class="st1" width="0.9" height="0.9"/>
	<polygon class="st1" points="20.7,14.2 21.6,14.2 21.6,13.2 20.7,13.2 20.7,14.1 20.7,14.1 20.7,14.1 	"/>
	<polygon class="st1" points="16.3,15.6 17.2,15.6 17.2,14.7 16.3,14.7 16.3,15.6 16.3,15.6 16.3,15.6 	"/>
	<rect x="17.8" y="14.7" class="st1" width="0.9" height="0.9"/>
	<rect x="19.2" y="14.7" class="st1" width="0.9" height="0.9"/>
	<polygon class="st1" points="20.7,15.6 21.6,15.6 21.6,14.7 20.7,14.7 20.7,15.6 20.7,15.6 20.7,15.6 	"/>
</g>
</svg>
