<?xml version="1.0" encoding="utf-8"?>
<!-- Generator: Adobe Illustrator 27.1.1, SVG Export Plug-In . SVG Version: 6.00 Build 0)  -->
<svg version="1.1" id="レイヤー_1" xmlns="http://www.w3.org/2000/svg" xmlns:xlink="http://www.w3.org/1999/xlink" x="0px"
	 y="0px" viewBox="0 0 577 118" style="enable-background:new 0 0 577 118;" xml:space="preserve">
<style type="text/css">
	.st0{fill:#006837;}
</style>
<g>
	<path d="M41,53.2c0,1.5,0.1,2,0.5,2.2c0.3,0.2,0.9,0.3,1.9,0.3v0.6h-7v-0.6c1.1,0,1.7-0.1,1.9-0.4c0.3-0.3,0.4-0.8,0.4-2.2V38.8
		c-4.5,0-5.2,0.6-5.8,4.7l-0.8,0l0.5-5.3h14.7l0.5,5.3l-0.8,0c-0.7-4.1-1.4-4.7-5.9-4.7V53.2z"/>
	<path d="M51.1,45.1c1.1-1.1,2.6-1.7,4.4-1.7c3.7,0,6.1,2.6,6.1,6.5c0,4.2-2.4,6.8-6.2,6.8c-3.6,0-6-2.6-6-6.5
		C49.2,48.2,49.9,46.2,51.1,45.1z M55.3,56.1c2.5,0,3.8-2.1,3.8-6c0-3.9-1.4-6.2-3.9-6.2c-2.4,0-3.7,2.1-3.7,6
		C51.6,53.9,52.9,56.1,55.3,56.1z"/>
	<path d="M67.3,52.8c0,1.5,0.1,2.1,0.3,2.5c0.3,0.4,0.7,0.5,1.2,0.5c0.6,0,1-0.1,1.6-0.5l0.2,0.7c-0.8,0.4-1.6,0.6-2.5,0.6
		c-1.2,0-2.2-0.4-2.6-1.2c-0.3-0.5-0.4-1.1-0.4-2.9v-8.1h-1.6v-0.6c1.5-0.1,2.2-1.1,2.6-3.5l1.2-0.3c-0.1,1.1-0.1,2-0.1,3.7h3v0.7
		h-3V52.8z"/>
	<path d="M83.9,56.3c-1,0.2-2.1,0.3-2.6,0.3c-0.8,0-1-0.4-1.1-2.1c-0.4,0.5-0.7,0.7-1.2,1.1c-1.1,0.8-2,1.1-3.3,1.1
		c-1.1,0-1.9-0.3-2.6-0.8c-0.7-0.6-1.1-1.6-1.1-2.7c0-2,1.3-3.3,3.7-3.8c1.3-0.3,2.6-0.5,4.5-0.6v-1.6c0-1.2-0.1-1.8-0.4-2.3
		c-0.3-0.7-1-1-2.1-1c-1.7,0-2.5,0.8-2.6,2.3c0,0.5-0.1,0.7-0.3,0.9c-0.2,0.1-0.5,0.2-0.9,0.2c-0.9,0-1.2-0.2-1.2-0.8
		c0-0.9,0.7-1.8,1.7-2.4c1-0.5,2.2-0.8,3.7-0.8c1.6,0,2.8,0.4,3.4,1.1c0.5,0.6,0.7,1.5,0.7,2.8c0,0.1,0,0.1-0.1,2.5l0,2.4l0,1.2
		c0,1.1,0.1,2,0.3,2.2s0.5,0.3,1.4,0.3V56.3z M80.3,49.4c-2.2,0.2-3.2,0.4-4.2,0.9c-1.1,0.5-1.7,1.5-1.7,2.9c0,1.6,0.9,2.7,2.1,2.7
		c1.3,0,2.6-0.8,3.2-1.8c0.4-0.7,0.6-1.8,0.6-3.4V49.4z"/>
	<path d="M85.7,55.8c1.7-0.1,1.8-0.3,1.8-2.6V41.1c0-1.2-0.1-1.8-0.4-2.1c-0.2-0.2-0.6-0.2-1.4-0.2v-0.6l4-0.2
		c-0.1,1.7-0.2,3.7-0.2,5v10.2c0,2.3,0.1,2.5,1.8,2.6v0.6h-5.7V55.8z"/>
	<path d="M101.5,55.8c0.9,0,1.4-0.1,1.6-0.4c0.3-0.3,0.3-0.3,0.3-2.2V41.4c-0.1-1.6-0.1-1.6-0.1-1.9c-0.2-0.5-0.6-0.7-1.8-0.7v-0.6
		h12.7l0.4,4.5l-0.7,0.1c-0.6-3-1.5-3.8-4.7-3.8h-3.5v7.6h2.6c2.8,0,3.3-0.4,3.5-2.6h0.7v5.9h-0.7c-0.2-1.2-0.4-1.6-0.7-2
		c-0.4-0.4-1.4-0.6-2.8-0.6h-2.6v8.3h4c3.2,0,4.1-0.8,4.8-4.3l0.7,0l-0.5,5h-13.1V55.8z"/>
	<path d="M117.8,52.4h0.8c0.1,1.2,0.3,1.8,0.7,2.3c0.7,0.9,1.6,1.4,2.7,1.4c1.7,0,2.7-0.9,2.7-2.4c0-0.6-0.2-1.1-0.6-1.5
		c-0.5-0.4-0.5-0.4-2.8-1.4c-2.7-1.2-3.5-2.1-3.5-3.8c0-0.9,0.3-1.7,0.7-2.3c0.7-0.9,1.9-1.4,3.1-1.4c0.7,0,1,0.1,2.3,0.3
		c0.2,0,0.4,0.1,0.5,0.1c0.3,0,0.7-0.1,1.2-0.2l-0.1,4h-0.8c-0.1-2.2-1.2-3.6-3-3.6c-1.6,0-2.6,0.9-2.6,2.2c0,0.6,0.2,1,0.7,1.4
		c0.5,0.4,1,0.6,2.6,1.3c1.7,0.7,2.3,1.1,2.9,1.7c0.5,0.6,0.8,1.4,0.8,2.4c0,2.3-1.5,3.8-3.9,3.8c-0.7,0-1-0.1-2.5-0.3
		c-0.4-0.1-0.7-0.1-0.9-0.1c-0.3,0-0.6,0-1.1,0.1L117.8,52.4z"/>
	<path d="M132.2,52.8c0,1.5,0.1,2.1,0.3,2.5c0.3,0.4,0.7,0.5,1.2,0.5c0.6,0,1-0.1,1.6-0.5l0.2,0.7c-0.8,0.4-1.6,0.6-2.5,0.6
		c-1.2,0-2.2-0.4-2.6-1.2c-0.3-0.5-0.4-1.1-0.4-2.9v-8.1h-1.6v-0.6c1.5-0.1,2.2-1.1,2.6-3.5l1.2-0.3c-0.1,1.1-0.1,2-0.1,3.7h3v0.7
		h-3V52.8z"/>
	<path d="M140.5,46.1c1.2-1.9,2.4-2.7,4.5-2.7c1.8,0,3.1,0.6,3.7,1.8c0.3,0.6,0.5,1.7,0.5,3.1v5c0,2.3,0.1,2.5,1.8,2.6v0.6h-5.7
		v-0.6c1.7-0.1,1.8-0.2,1.8-2.6v-5c0-1.3-0.1-2.2-0.4-2.7c-0.4-0.8-1.1-1.2-2.2-1.2c-1,0-1.9,0.4-2.5,1c-0.5,0.5-0.9,1.3-1.2,2.1
		c-0.2,0.6-0.3,1.1-0.3,1.9v4c0,2.4,0.1,2.5,1.8,2.6v0.6h-5.7v-0.6c1.7-0.1,1.8-0.2,1.8-2.6V41.1c0-2.1-0.1-2.3-1.8-2.3v-0.6l4-0.2
		c-0.1,1.9-0.1,2.8-0.1,5V46.1z"/>
	<path d="M155,49.3c0,1.7,0.2,2.7,0.6,3.8c0.7,1.9,2,2.8,3.8,2.8c1.8,0,3.1-0.9,4.1-2.8l0.6,0.3c-1.1,2.3-2.8,3.4-5.3,3.4
		c-3.6,0-6-2.7-6-6.5c0-4.1,2.4-6.8,5.9-6.8c2.3,0,4,1.2,4.8,3.2c0.3,0.7,0.4,1.3,0.4,2.8H155z M161.7,48.6c0-1.3-0.2-2.1-0.5-2.8
		c-0.6-1.2-1.4-1.9-2.6-1.9c-1.2,0-2.2,0.7-2.9,2c-0.4,0.7-0.5,1.4-0.7,2.7H161.7z"/>
	<path d="M169.6,52.8c0,1.5,0.1,2.1,0.3,2.5c0.3,0.4,0.7,0.5,1.2,0.5c0.6,0,1-0.1,1.6-0.5l0.2,0.7c-0.8,0.4-1.6,0.6-2.5,0.6
		c-1.2,0-2.2-0.4-2.6-1.2c-0.3-0.5-0.4-1.1-0.4-2.9v-8.1h-1.6v-0.6c1.5-0.1,2.2-1.1,2.6-3.5l1.2-0.3c-0.1,1.1-0.1,2-0.1,3.7h3v0.7
		h-3V52.8z"/>
	<path d="M178.2,43.5c-0.1,1.5-0.2,3.6-0.2,4.7v5.1c0,2.3,0.1,2.5,1.8,2.6v0.6h-5.7v-0.6c1.7-0.1,1.9-0.3,1.9-2.6v-6.7
		c0-1.3-0.1-1.8-0.4-2.1c-0.2-0.2-0.6-0.2-1.5-0.2v-0.6L178.2,43.5z M177,38.1c0.8,0,1.4,0.6,1.4,1.4c0,0.8-0.6,1.4-1.4,1.4
		c-0.8,0-1.4-0.6-1.4-1.4C175.5,38.8,176.2,38.1,177,38.1z"/>
	<path d="M193.1,53.2c-1,2.3-2.8,3.5-5.2,3.5c-3.5,0-6-2.7-6-6.5c0-4.1,2.5-6.8,6.1-6.8c1.5,0,2.8,0.5,3.7,1.3
		c0.7,0.6,1.1,1.4,1.1,2c0,0.5-0.5,0.8-1.3,0.8c-0.4,0-0.7-0.1-0.9-0.3c-0.2-0.2-0.2-0.2-0.2-0.9c-0.2-1.4-1.2-2.3-2.6-2.3
		c-2.3,0-3.6,2.1-3.6,5.7c0,3.8,1.6,6.1,4.2,6.1c1.8,0,3.2-1,4-3L193.1,53.2z"/>
	<path d="M203.9,51.4h0.8c0.1,1.6,0.4,2.4,1,3.2c0.8,0.9,2.1,1.4,3.8,1.4c2.3,0,3.6-1.2,3.6-3.3c0-2-0.9-2.9-4.7-4.7
		c-2.1-1-2.9-1.5-3.6-2.3c-0.7-0.8-1.1-1.8-1.1-3c0-1.5,0.6-2.7,1.6-3.6c1-0.8,2.1-1.2,3.6-1.2c1,0,1.4,0.1,3,0.4
		c0.4,0.1,0.7,0.1,0.9,0.1c0.4,0,0.8-0.1,1.5-0.4l-0.2,4.9h-0.8c-0.1-1.2-0.3-2-0.7-2.6c-0.7-1.2-2-1.8-3.6-1.8
		c-1.2,0-2.1,0.4-2.7,1.1c-0.5,0.6-0.7,1.4-0.7,2.2c0,1.7,0.8,2.5,3.8,3.9c3.1,1.5,4.3,2.3,5,3.4c0.5,0.8,0.7,1.6,0.7,2.8
		c0,1.5-0.5,2.6-1.4,3.4c-1.1,0.9-2.4,1.4-4.1,1.4c-1,0-1.6-0.1-3.4-0.4c-0.3-0.1-0.6-0.1-0.8-0.1c-0.4,0-0.9,0.1-1.7,0.3
		L203.9,51.4z"/>
	<path d="M229.2,56.3c-1,0.2-2.1,0.3-2.6,0.3c-0.8,0-1-0.4-1.1-2.1c-0.4,0.5-0.7,0.7-1.2,1.1c-1.1,0.8-2,1.1-3.3,1.1
		c-1.1,0-1.9-0.3-2.6-0.8c-0.7-0.6-1.1-1.6-1.1-2.7c0-2,1.3-3.3,3.7-3.8c1.3-0.3,2.6-0.5,4.5-0.6v-1.6c0-1.2-0.1-1.8-0.4-2.3
		c-0.3-0.7-1-1-2.1-1c-1.7,0-2.5,0.8-2.6,2.3c0,0.5-0.1,0.7-0.3,0.9c-0.2,0.1-0.5,0.2-0.9,0.2c-0.9,0-1.2-0.2-1.2-0.8
		c0-0.9,0.7-1.8,1.7-2.4c1-0.5,2.2-0.8,3.7-0.8c1.6,0,2.8,0.4,3.4,1.1c0.5,0.6,0.7,1.5,0.7,2.8c0,0.1,0,0.1-0.1,2.5l0,2.4l0,1.2
		c0,1.1,0.1,2,0.3,2.2s0.5,0.3,1.4,0.3V56.3z M225.6,49.4c-2.2,0.2-3.2,0.4-4.2,0.9c-1.1,0.5-1.7,1.5-1.7,2.9c0,1.6,0.9,2.7,2.1,2.7
		c1.3,0,2.6-0.8,3.2-1.8c0.4-0.7,0.6-1.8,0.6-3.4V49.4z"/>
	<path d="M230.9,55.8c1.7-0.1,1.8-0.3,1.8-2.6V41.1c0-1.2-0.1-1.8-0.4-2.1c-0.2-0.2-0.6-0.2-1.4-0.2v-0.6l4-0.2
		c-0.1,1.7-0.2,3.7-0.2,5v10.2c0,2.3,0.1,2.5,1.8,2.6v0.6h-5.7V55.8z"/>
	<path d="M240.5,45.1c1.1-1.1,2.6-1.7,4.4-1.7c3.7,0,6.1,2.6,6.1,6.5c0,4.2-2.4,6.8-6.2,6.8c-3.6,0-6-2.6-6-6.5
		C238.6,48.2,239.3,46.2,240.5,45.1z M244.7,56.1c2.5,0,3.8-2.1,3.8-6c0-3.9-1.4-6.2-3.9-6.2c-2.4,0-3.7,2.1-3.7,6
		C241,53.9,242.3,56.1,244.7,56.1z"/>
	<path d="M256.7,46c1.1-1.9,2.3-2.7,4.4-2.7c1.6,0,2.6,0.5,3.3,1.6c0.5,0.7,0.7,1.6,0.7,3.1v5.2c0,2.4,0.1,2.5,1.8,2.6v0.6h-5.7
		v-0.6c0.8,0,1.3-0.1,1.5-0.4c0.2-0.2,0.2-0.4,0.3-0.8c0-0.3,0.1-1.2,0.1-1.4v-5c0-1.3-0.1-2.1-0.4-2.7c-0.4-0.9-1.2-1.3-2.2-1.3
		c-1.2,0-2.1,0.6-2.8,1.7c-0.5,0.8-0.9,2-0.9,3.1v4.3c0,2.4,0.1,2.5,1.8,2.6v0.6h-5.7v-0.6c1.7-0.1,1.8-0.3,1.8-2.6v-6.7
		c0-1.9-0.3-2.3-1.7-2.3v-0.6l3.8-0.3V46z"/>
	<path d="M39.6,67.2c0.5,0,1,0.1,1.8,0.4c1,0.4,1.6,0.9,1.6,1.3c0,0.2,0,0.2-0.1,0.5c-0.3,0.6-0.4,2.4-0.4,5.2
		c1.8,0.2,4.2,0.7,5.6,1.3c1.1,0.5,1.5,1,1.5,1.8c0,0.7-0.2,1.1-0.6,1.1c-0.2,0-0.3,0-0.9-0.6c-1.6-1.5-3.4-2.5-5.6-3.1
		c0,1.5,0,2.2,0,3c0,0.6,0,0.9,0,1.4c0,1.1,0,1.4,0,2.1c0,0.7,0,0.7,0,2.7c0,0.5,0,0.9,0,1.3c0,0.5,0,0.7-0.1,0.8
		c-0.1,0.1-0.3,0.2-0.4,0.2c-0.6,0-1.5-1.3-1.5-2.1c0-0.2,0-0.4,0.1-0.7c0.4-1.1,0.5-4.3,0.5-10.3c0-1.7-0.1-3.5-0.2-4.1
		c-0.1-1.1-0.7-1.7-1.8-2.1C39.3,67.2,39.4,67.2,39.6,67.2z"/>
	<path d="M58.9,75.7c0.6,0.5,1.1,0.6,2.3,0.6c0.3,0,0.3,0,2.9-0.1c0.9,0,8.5-0.1,9.3-0.1c2.1,0,2.7,0,3.1,0.2
		c0.2,0.1,0.3,0.3,0.3,0.5c0,0.3-0.2,0.5-0.5,0.6c-0.6,0.2-1.2,0.2-5.7,0.3c-2.2,0-7.7,0.2-8.5,0.2c-1.1,0.1-1.3,0.1-1.7,0.3
		c-0.1,0-0.3,0.1-0.4,0.1c-0.4,0-0.7-0.3-1.1-0.8c-0.5-0.6-0.9-1.6-0.9-2.2c0-0.3,0-0.4,0.2-0.5C58.4,75.3,58.6,75.4,58.9,75.7z"/>
	<path d="M83.6,86.7c2.3-1.5,3.1-2.1,4.5-3.3c1.7-1.6,2.9-2.8,4-4.3c-0.4-0.1-0.5-0.2-1-1c-1-1.5-1.8-2.4-3.3-3.6
		c-1.7,1.7-3,2.7-4.4,3.6l-0.3-0.4c1.7-1.5,3.1-3,4.6-4.9c1.5-2,2.4-3.5,2.4-4.2c0-0.5-0.4-0.9-1.5-1.4c0.2-0.1,0.3-0.1,0.5-0.1
		c0.5,0,1.4,0.3,2.1,0.7c0.7,0.4,1,0.7,1,1c0,0.3-0.2,0.7-1.1,1.8c0.3,0.1,0.4,0.1,0.7,0.1c0.5,0,1.4-0.1,3.2-0.5
		c1.2-0.3,1.5-0.3,1.9-0.6c0.1-0.1,0.3-0.1,0.4-0.1c0.3,0,0.7,0.2,1.3,0.8c0.4,0.4,0.6,0.7,0.6,1c0,0.2-0.1,0.3-0.3,0.5
		c-0.3,0.2-0.4,0.4-0.8,1.1c-2.5,4.6-5,7.8-8.1,10.4c-2,1.7-4.1,3-6.1,3.8L83.6,86.7z M95,71c-1.9,0.5-1.9,0.5-2.2,0.6
		c-0.4,0.1-0.5,0.2-0.7,0.2c-0.4,0-0.8-0.2-1.4-0.6c-0.9,1.2-1.5,2-2.5,3c1.8,0.8,1.8,0.8,2.3,1.1c1.1,0.6,1.6,1.1,2.1,1.9
		c0.2,0.4,0.3,0.6,0.3,1.1c1.7-2.3,3.3-5.1,4.1-7.5C96.3,70.8,95.8,70.9,95,71z"/>
	<path d="M105.4,85.1c1.3-1.2,2.3-2.6,3.2-4.5c0.9-1.9,1.6-4.8,1.6-6.5c0-0.9-0.4-1.4-1.6-1.9c0.3-0.2,0.4-0.2,0.6-0.2
		c0.5,0,1.1,0.2,1.8,0.6c0.9,0.5,1.3,0.9,1.3,1.3c0,0.2,0,0.4-0.3,1.1c0,0.1,0,0.1-0.2,0.8c-0.8,2.5-1,3.1-1.6,4.4
		c-1.1,2.3-2.5,3.8-4.5,5.1L105.4,85.1z M125.7,75.6c-0.7,1.3-1.4,2.1-2.6,3.4c-1.4,1.5-3.6,3.4-5.1,4.4c-0.5,0.3-1.1,0.9-1.4,1.1
		c-0.2,0.2-0.3,0.3-0.5,0.3c-0.5,0-1.4-1.2-1.4-2c0,0,0-0.3,0.2-0.7c0.1-0.5,0.2-2.7,0.2-6.5c0-5.4-0.1-5.7-1.8-6.1
		c0.2-0.3,0.4-0.4,0.8-0.4c0.6,0,1.3,0.3,2.1,0.7c0.7,0.4,1,0.8,1,1.1c0,0.1,0,0.2-0.2,0.6c-0.1,0.3-0.2,1.1-0.3,2.3
		c-0.1,1-0.3,6.3-0.3,7.2c0,0.3,0,0.6,0,1.1c2.8-1.1,6.3-3.7,9-6.8L125.7,75.6z"/>
	<path d="M132.7,71.1c1,0.8,1,0.8,1.4,1c0.4,0.1,0.9,0.2,1.4,0.2c1.1,0,3.7-0.4,5.3-0.8c1.1-0.3,1.9-0.6,2.5-1
		c0.2-0.1,0.3-0.1,0.4-0.1c0.2,0,0.7,0.2,1.1,0.4c0.5,0.3,0.7,0.5,0.7,0.8c0,0.3-0.4,0.5-1.5,0.7c-1.3,0.3-3.9,0.6-5.5,0.8
		c1.2,0.7,1.6,1.1,1.6,1.6c0,0.1,0,0.3-0.2,1.1c-0.2,1.1-0.4,3-0.5,5.1c1.2-0.1,2.8-0.1,3.8-0.2c2.3,0,2.4-0.1,3.2-0.3
		c0,0,0.1,0,0.2,0c0.3,0,0.8,0.2,1.4,0.5c0.5,0.4,0.9,0.8,0.9,1.1c0,0.3-0.2,0.5-0.6,0.5c-0.1,0-0.2,0-1.7-0.3
		c-1.3-0.2-3.6-0.4-5.1-0.4c-2,0-4.1,0.2-6,0.7c-1.4,0.3-1.9,0.5-3.1,1c-0.2,0.1-0.5,0.2-0.7,0.2c-0.7,0-1.5-0.6-2.1-1.6
		c-0.3-0.5-0.5-1-0.5-1.2c0-0.1,0-0.2,0.1-0.3c0.6,0.9,1.3,1.3,2.2,1.3c0.7,0,1.3-0.1,4.6-0.6c0.3,0,0.6-0.1,2-0.3
		c0.1-1.7,0.1-3.1,0.1-4.6c0-2.1-0.1-2.6-0.7-3.1c-0.7,0-1.1,0-1.6,0c-1.6,0-2.3-0.4-3.5-2.1L132.7,71.1z"/>
	<path d="M153.3,85.2c2.3-1.4,4.7-3.4,6.4-5.2c1.4-1.5,3.2-3.7,4.6-5.9c0.8-1.2,1.2-2,1.6-3.1c-1.1,0.1-2.4,0.3-5,1.1
		c-1.1,0.3-1.2,0.3-2,0.6c-0.1,0-0.3,0.1-0.4,0.1c-0.5,0-1-0.4-1.6-1.4c-0.3-0.5-0.5-1.1-0.5-1.4c0-0.1,0-0.3,0.2-0.5
		c0.7,1.2,1.2,1.6,2.2,1.6c0.8,0,3.2-0.3,5-0.7c1.4-0.3,1.8-0.4,2.2-0.7c0.3-0.2,0.4-0.2,0.5-0.2c0.5,0,1.9,1.2,1.9,1.7
		c0,0.2-0.1,0.3-0.3,0.5c-0.5,0.3-0.5,0.3-1.4,1.6c-1.1,1.7-1.1,1.7-3,4.2c3.4,1.8,5.3,3,6.2,4c0.6,0.7,0.9,1.4,0.9,2.4
		c0,0.8-0.2,1.2-0.6,1.2c-0.2,0-0.4-0.1-0.5-0.4c-0.1-0.1-0.1-0.1-0.6-1c-1.2-2-3.2-4.1-5.7-5.9c-1.9,2.3-3.5,3.8-5.8,5.4
		c-1.5,1-2.5,1.6-4.2,2.3L153.3,85.2z"/>
	<path d="M182,86.8c1.6-1.8,2.6-3.4,3.4-5.6c0.7-1.7,1.1-3.7,1.1-4.9c0-0.6-0.1-0.8-0.6-1.2c-1.6,0.2-4.2,0.9-5.3,1.5
		c-0.4,0.2-0.5,0.2-0.8,0.2c-0.5,0-1.2-0.5-1.9-1.4c-0.2-0.3-0.5-0.8-0.5-1.1c0-0.1,0-0.2,0.1-0.5c0.6,0.8,1.1,1.1,2,1.1
		c0.6,0,0.8,0,4.1-0.6c1.5-0.2,4.2-0.6,7.4-0.9c0.5,0,1.4-0.2,1.9-0.4c0.4-0.1,0.4-0.1,0.6-0.1c0.3,0,0.8,0.1,1.3,0.4
		c0.6,0.3,1.1,0.8,1.1,1.1c0,0.3-0.3,0.5-0.7,0.5c-0.2,0-0.3,0-0.6-0.1c-1-0.2-2.5-0.3-3.8-0.3c-1.5,0-2.7,0.1-3.9,0.2
		c1.1,0.6,1.6,1.1,1.6,1.6c0,0.9-0.7,3-1.5,4.7c-1.3,2.7-2.5,4.2-4.7,5.8L182,86.8z M181.5,68.4c1,1,1.7,1.3,2.8,1.3
		c1.6,0,3.7-0.5,5-1.2c0.3-0.1,0.5-0.2,0.7-0.2c0.6,0,1.6,0.8,1.6,1.3c0,0.3-0.3,0.4-1.2,0.6c-1.6,0.3-4.2,0.6-5.4,0.6
		c-1.8,0-2.7-0.5-3.9-2.2L181.5,68.4z"/>
	<path d="M207.3,86.8c2.1-1.3,3.7-3.1,4.6-4.9c0.9-1.8,1.2-3.8,1.3-7.7c-1.8,0.1-3.8,0.4-5.3,0.7c0,0.3,0,0.3,0,0.8c0,0.1,0,1,0,2.7
		c0,0.1,0,0.4,0,0.9c0,0.2,0,0.5,0,0.6c0,0.9-0.2,1.3-0.6,1.3c-0.5,0-1.2-1.2-1.2-1.9c0-0.2,0-0.2,0.1-0.5c0.1-0.3,0.2-0.6,0.3-1.1
		c0-0.2,0.1-1.1,0.1-2.6c-1.3,0.2-2.1,0.5-3.1,0.9c-0.4,0.2-0.7,0.3-0.9,0.3c-0.7,0-2.1-1.6-2.1-2.5c0,0,0-0.1,0.1-0.2
		c0.7,0.8,1.3,1.1,2,1.1c0.3,0,1-0.1,1.7-0.2c0.6-0.1,0.6-0.1,1.6-0.3c0.5-0.1,0.5-0.1,0.8-0.1c0-1.1-0.2-2.7-0.3-3.2
		c-0.1-0.4-0.4-0.8-0.8-1.1c-0.1,0-0.3-0.2-0.7-0.4c0.2-0.2,0.2-0.2,0.5-0.2c0.5,0,1.4,0.3,2,0.7c0.6,0.3,0.8,0.7,0.8,1.1
		c0,0.2,0,0.2-0.1,0.5c-0.1,0.3-0.2,1.3-0.2,2.3c2-0.3,2-0.3,5.3-0.6c0-0.6,0-0.7,0-1.5c0-1.9-0.1-2.6-0.4-3
		c-0.3-0.4-0.8-0.7-1.6-0.9c0.3-0.2,0.6-0.3,0.9-0.3c0.6,0,1.5,0.2,2.3,0.5c0.5,0.2,0.8,0.6,0.8,0.9c0,0.1,0,0.2-0.1,0.4
		c-0.3,0.6-0.4,1.9-0.5,3.7c1.8-0.1,2.3-0.2,2.9-0.5c0.3-0.1,0.4-0.2,0.7-0.2c0.8,0,2.1,0.9,2.1,1.4c0,0.2-0.2,0.4-0.5,0.4
		c-0.1,0-0.3,0-0.4,0c-1-0.1-2.1-0.2-2.8-0.2c0,0-0.2,0-0.9,0c-0.8,0-0.8,0-1.1,0c-0.1,4.5-0.6,6.6-1.6,8.4
		c-1.1,1.8-3.2,3.6-5.5,4.5L207.3,86.8z"/>
	<path d="M226.5,70.8c0.7,0,1.3,0.2,2.7,1.1c0.9,0,3.7-0.3,7.5-0.7c2.1-0.2,2.3-0.3,2.8-0.5c0.2-0.1,0.3-0.1,0.4-0.1
		c0.3,0,0.7,0.3,1.2,0.8c0.5,0.5,0.8,0.9,0.8,1.2c0,0.2,0,0.3-0.2,0.5c-0.2,0.3-0.3,0.5-0.6,1.3c-0.2,0.8-0.4,1.3-1,4
		c-0.4,1.9-0.4,1.9-0.6,2.5c0.8,0.4,1.2,0.8,1.2,1.2c0,0.3-0.2,0.5-0.5,0.5c-0.2,0-0.2,0-1.2-0.2c-0.6-0.1-2-0.1-3.4-0.1
		c-1.9,0-3.4,0.1-5.5,0.4c0,0.6,0,0.6,0,0.9c0,0.6-0.1,0.9-0.5,0.9c-0.4,0-0.7-0.3-1.1-1.1c-0.2-0.4-0.3-0.8-0.3-1.1
		c0-0.1,0-0.2,0.1-0.5c0-0.2,0.1-0.9,0.1-1.9c0-2.8-0.4-6.1-0.8-7.1c-0.3-0.8-0.8-1.3-1.6-1.7C226.2,70.9,226.3,70.8,226.5,70.8z
		 M230.1,81.5c1.8-0.1,6.5-0.4,7.9-0.5c0.5-2.5,1.2-6.6,1.5-8.8c-0.3,0-0.4,0-0.6,0c-0.5,0-1.7,0.1-4.7,0.3
		c-2.6,0.2-3.4,0.3-4.6,0.5C229.6,75.4,229.9,79.4,230.1,81.5z"/>
	<path d="M250.8,70.1c2.3,0.6,3.7,1.1,4.6,1.8c0.5,0.4,0.8,0.9,0.8,1.6c0,0.8-0.3,1.3-0.7,1.3c-0.3,0-0.4-0.1-1-1
		c-1.2-1.6-2-2.3-3.9-3.5L250.8,70.1z M267.7,71.4c-1.2,2.2-2.7,4.1-5,6.4c-2.2,2.1-3.7,3.3-6.7,5.4c-1.1,0.8-1.2,0.9-1.4,1.1
		c-0.4,0.5-0.5,0.6-0.8,0.6c-1,0-2.8-2.3-2.8-3.5c0-0.1,0-0.2,0.1-0.5c0.5,0.7,0.5,0.8,0.9,1.1c0.4,0.3,0.7,0.5,1,0.5
		c0.4,0,1.1-0.3,2.3-1c2.7-1.6,3.6-2.2,5.7-3.9c2.9-2.4,4.4-3.8,6.4-6.4L267.7,71.4z"/>
</g>
<g>
	<path d="M282.6,83l4.9-5.3l1.2,0.3c1.5,0.4,3,0.7,4.4,0.9c2.1-1.3,3.5-2.8,4.2-4.7c0.7-1.8,1.4-5.4,2-10.6l3.2-29.1
		c-5.4,0.4-9.6,1.8-12.8,4.3c-3.2,2.5-4.8,5.6-4.8,9.4c0,2.3,0.6,4.4,1.7,6.4l-6.2,5.5c-0.5-2-0.8-4-0.8-6c0-7,3-12.7,8.9-17.1
		c5.9-4.5,13.6-6.7,22.8-6.7c11.9,0,17.9,3.4,17.9,10.3c0,5.8-4.1,10.5-12.4,14C325,57.5,329,62,329,68.1c0,5-2.5,8.9-7.5,11.9
		c-5,2.9-11.8,4.4-20.2,4.4C296.1,84.4,289.9,83.9,282.6,83z M306.2,57.7l-0.6,5.2l-0.3,3.2c-0.4,3.8-1.2,6.5-2.3,8.1
		c-1.1,1.6-3.4,3.2-7,5c5.1,0.8,10.2,1.3,15.1,1.3c8.1,0,12.1-3.2,12.1-9.6c0-2.8-1.1-5.4-3.3-8c-2.2-2.6-4.9-4.3-8.1-5.2l-1,0
		l-1.9,0.1l-1.7-0.1L306.2,57.7z M308.9,34.1l-2.3,20.4c1.5,0.1,2.8,0.2,4,0.2c1.2,0,2.7-0.1,4.5-0.3c5.5-3.2,8.2-7,8.2-11.4
		C323.2,37.1,318.5,34.1,308.9,34.1z"/>
	<path d="M366.8,84.9c-5.8,0-8.7-3.8-8.7-11.5c0-6.2,2.3-12.2,6.8-17.9c4.5-5.7,9.3-8.6,14.1-8.6c5.9,0,8.8,3.8,8.8,11.5
		c0,6.2-2.3,12.2-6.8,17.9C376.5,82,371.8,84.9,366.8,84.9z M371.5,80.6c3,0,5.5-1.7,7.5-5c2-3.3,3-7.4,3-12.3
		c0-8.1-2.5-12.1-7.5-12.1c-2.9,0-5.4,1.7-7.4,5c-2,3.3-3,7.4-3,12.3C364.1,76.5,366.5,80.6,371.5,80.6z"/>
	<path d="M389.8,82.8l5.4-4.4c2,2.1,4.6,3.2,7.6,3.2c3.7,0,5.6-1.8,5.6-5.4c0-2-1.7-4.8-5.1-8.3l-2.2-2.3c-3.2-3.4-4.9-6.1-4.9-8.2
		c0-3,1.3-5.5,3.9-7.5c2.6-2,5.8-3.1,9.6-3.1c2.1,0,4.3,0.4,6.8,1.2l-4.6,4.3c-2-1.5-4.1-2.2-6.5-2.2c-2.8,0-4.2,1.2-4.2,3.5
		c0,1.7,1.6,4.1,4.7,7.4l2.4,2.6c3.6,3.7,5.3,6.7,5.3,9c0,3.3-1.6,6.1-4.7,8.6c-3.1,2.5-6.7,3.7-10.8,3.7
		C395,84.9,392.3,84.2,389.8,82.8z"/>
	<path d="M418,82.8l5.4-4.4c2,2.1,4.6,3.2,7.6,3.2c3.7,0,5.6-1.8,5.6-5.4c0-2-1.7-4.8-5.1-8.3l-2.2-2.3c-3.2-3.4-4.9-6.1-4.9-8.2
		c0-3,1.3-5.5,3.9-7.5c2.6-2,5.8-3.1,9.6-3.1c2.1,0,4.3,0.4,6.8,1.2l-4.6,4.3c-2-1.5-4.1-2.2-6.5-2.2c-2.8,0-4.2,1.2-4.2,3.5
		c0,1.7,1.6,4.1,4.7,7.4l2.4,2.6c3.6,3.7,5.3,6.7,5.3,9c0,3.3-1.6,6.1-4.7,8.6c-3.1,2.5-6.7,3.7-10.8,3.7
		C423.2,84.9,420.5,84.2,418,82.8z"/>
	<path d="M457.2,84.9c-5.8,0-8.7-3.8-8.7-11.5c0-6.2,2.3-12.2,6.8-17.9c4.5-5.7,9.3-8.6,14.1-8.6c5.9,0,8.8,3.8,8.8,11.5
		c0,6.2-2.3,12.2-6.8,17.9C466.9,82,462.1,84.9,457.2,84.9z M461.9,80.6c3,0,5.5-1.7,7.5-5c2-3.3,3-7.4,3-12.3
		c0-8.1-2.5-12.1-7.5-12.1c-2.9,0-5.4,1.7-7.4,5c-2,3.3-3,7.4-3,12.3C454.4,76.5,456.9,80.6,461.9,80.6z"/>
	<path d="M512.9,82.5l-5.8,2.4l0.1-1.1l0.3-2.9l0.3-2.7l1.9-17.4l0.3-2c0.1-1,0.2-2,0.2-3c0-2.5-0.8-3.8-2.3-3.8
		c-2.4,0-5.1,2.4-8.3,7.3c-3.2,4.9-5,9.5-5.5,13.9l-1,9.3l-5.8,2.4l0.1-1.1l0.3-2.9l0.3-2.7l2-18l0.2-2.1c0.2-1.6,0.3-2.9,0.3-3.9
		c0-1.7-0.4-2.5-1.2-2.5c-1.9,0-4,2.2-6.3,6.6c-0.6-0.5-0.9-0.9-0.9-1.3c0-1.5,1.4-3.7,4.2-6.3c2.8-2.7,5.1-4,6.7-4
		c2.2,0,3.3,1.4,3.3,4.3c0,0.7-0.1,1.7-0.2,2.9l-0.3,3.1l-0.3,2.6l-0.3,2.7l1.1-1.7c5.8-9.3,11.2-14,16.1-14c2.4,0,3.6,1.7,3.6,5.2
		c0,0.6-0.1,1.8-0.3,3.8l-0.4,3.6l-0.5,4.8c2.4-5,5.2-9.1,8.5-12.4s6.2-4.9,8.8-4.9c2.6,0,3.8,1.7,3.8,5c0,1.4-0.1,3.1-0.4,5.1
		l-2.1,14.4c-0.5,3-0.7,5.3-0.7,6.9c0,1.4,0.4,2.1,1.1,2.1c0.9,0,2-0.7,3.3-2.2c1.3-1.5,2.4-3.1,3.2-5c0.7,0.5,1.1,0.9,1.1,1.3
		c0,1.6-1.4,3.8-4.3,6.5c-2.9,2.7-5.2,4.1-6.9,4.1c-2.2,0-3.3-1.5-3.3-4.4c0-1.9,0.3-4.7,0.9-8.6l1.4-9.3c0.1-0.3,0.1-1.1,0.3-2.2
		c0.1-0.5,0.1-1.3,0.3-2.4c0.1-1.1,0.2-2,0.2-2.6c0-2.2-0.7-3.3-2.2-3.3c-2.4,0-5.2,2.4-8.4,7.3c-3.2,4.9-5,9.5-5.5,13.9L512.9,82.5
		z"/>
</g>
<g>
	<g>
		<path class="st0" d="M340.7,83.9c-1.9-8.5-1.6-17.4,0.9-25.7c2.3-7.6,6.4-14.6,11.8-20.4c3-3.1,6.4-5.9,10.1-8.2
			c-0.7-0.6-1.5-1.1-2.2-1.7c-1.6,7.7-4,15.3-7.4,22.4c-1.7,3.6-3.6,7.1-5.8,10.5c-2.1,3.4-4.6,6.4-6.8,9.7c-1.3,1.9-2.4,3.9-3,6.1
			c-0.6,2.4-0.5,4.9-0.5,7.3c0,1.9,3,1.9,3,0c0-2-0.2-4.1,0.3-6.1c0.4-1.9,1.3-3.6,2.4-5.2c1.1-1.7,2.3-3.2,3.5-4.8
			c1.2-1.6,2.3-3.3,3.4-4.9c4.3-6.7,7.8-13.9,10.4-21.4c1.5-4.2,2.6-8.5,3.5-12.9c0.2-1.2-1-2.4-2.2-1.7c-7,4.3-12.9,10.2-17.3,17.2
			c-4.7,7.5-7.5,16.1-8.1,25c-0.3,5.2,0.1,10.4,1.2,15.5c0.2,0.8,1.1,1.3,1.8,1C340.5,85.5,340.9,84.7,340.7,83.9L340.7,83.9z"/>
	</g>
</g>
</svg>
