<?xml version="1.0" encoding="utf-8"?>
<!-- Generator: Adobe Illustrator 27.1.1, SVG Export Plug-In . SVG Version: 6.00 Build 0)  -->
<svg version="1.1" id="レイヤー_1" xmlns="http://www.w3.org/2000/svg" xmlns:xlink="http://www.w3.org/1999/xlink" x="0px"
	 y="0px" viewBox="0 0 605.7 265.6" style="enable-background:new 0 0 605.7 265.6;" xml:space="preserve">
<style type="text/css">
	.st0{enable-background:new    ;}
	.st1{fill:#006837;}
</style>
<g class="st0">
	<path d="M62.2,210.5c-0.8,4.6-1.4,6.9-2.6,10c-1.5,3.6-3.1,6.5-5.2,9.2c4.4,2,10.9,5.6,13.3,7.3c1.3,0.9,2.1,2.6,2.1,4.2
		c0,1.5-0.5,2.5-1.3,2.5c-0.6,0-1.2-0.4-3.4-2.5c-3.6-3.5-5.6-4.9-12.5-9.3c-3.7,3.8-7,6.1-12.5,8.2c-4.3,1.7-8.3,2.7-14.4,3.5
		l-0.2-1c6.4-1.7,10.3-3.1,14.5-5.3c4.3-2.3,7-4.3,9.6-7.3c-3.2-1.8-5.4-2.8-11.4-5.2c-0.5,1-1,1.9-1.9,3.6
		c-0.2,0.4-0.4,0.5-0.8,0.5c-0.7,0-2.5-0.3-2.9-0.5c-0.3-0.1-0.4-0.3-0.4-0.4c0-0.1,0.1-0.3,0.2-0.5c3.5-6.2,5-9.3,8.1-17H31
		c-1.9,0-3.3,0.1-5.6,0.4l-0.6-2.4c2.6,0.6,3.8,0.7,6.4,0.7h9.6c2.5-6.4,3.7-10.3,4.6-14.2c2,0.4,4.5,1.2,5.6,1.5
		c0.5,0.2,0.7,0.4,0.7,0.7c0,0.5-0.4,0.7-2.8,1c-1.6,5.1-2.5,7.4-3.8,10.9h21.3c1.5-1.8,2-2.3,3.7-4c2.4,1.8,3.1,2.4,5.3,4.3
		c0.1,0.2,0.2,0.4,0.2,0.5c0,0.2-0.2,0.4-0.6,0.4H62.2z M44.6,210.5c-1.9,4.7-3.9,9.1-6,13.4c5.8,1.8,7.3,2.3,12.4,4.3
		c2.5-3.2,4.5-7.1,5.8-11.8c0.6-2,0.8-2.9,1.3-5.9H44.6z"/>
	<path d="M84.7,204.6c0.1,0.6,0.1,1.2,0.1,1.4c0,5.2-0.6,9-1.8,11.4c-0.7,1.5-1.5,2.4-2.3,2.4c-0.4,0-0.8-0.4-1.2-1.2
		c-0.4-0.8-0.7-1.9-0.7-2.3c0-0.6,0.2-0.9,1.2-1.8c2.1-2,3.2-4.8,3.8-9.9H84.7z M86.7,199.5c0-2.3,0-3-0.2-4.8
		c5.2,0.7,6.2,0.9,6.2,1.5c0,0.4-0.4,0.7-2.4,1.3l-0.1,30.4c0,0.5,0.1,5.9,0.2,16.1c0,0.3-0.1,0.4-0.2,0.5c-0.2,0.2-1.9,0.4-3,0.4
		c-0.5,0-0.7-0.2-0.7-0.6c0.2-8.2,0.3-11.8,0.3-19.5c0-3.7,0-5.9,0-9.2c-0.1-6.4-0.1-8.7-0.1-12.9V199.5z M92.5,204.3
		c2.6,2.9,3.9,5,3.9,6.4c0,1.6-1.2,3.8-2.1,3.8c-0.4,0-0.7-0.3-0.7-1.2c-0.2-3.3-0.6-5.9-1.6-8.8L92.5,204.3z M109.6,209.5v-6.2
		c0-5.1-0.1-6.2-0.3-8.6c5.9,0.8,6.7,1,6.7,1.6c0,0.5-0.2,0.6-2.5,1.3v11.9h7.1c1.3-1.7,1.7-2.2,3.1-3.8c2.3,1.8,2.9,2.4,5.1,4.3
		c0.1,0.2,0.1,0.3,0.1,0.4c0,0.2-0.2,0.4-0.4,0.4h-15v13h6.3c1.4-1.7,1.8-2.2,3.3-3.8c2.1,1.7,2.7,2.3,4.5,4.1
		c0.2,0.2,0.2,0.4,0.2,0.5s-0.2,0.4-0.5,0.4h-13.7v15.3h8c1.4-1.8,1.9-2.4,3.4-4.1c2.4,1.9,3,2.5,5.1,4.6c0.2,0.2,0.3,0.4,0.3,0.5
		c0,0.2-0.2,0.3-0.4,0.3H99.5c-2.2,0-3.6,0.1-5.4,0.3l-0.3-2.1c2,0.4,3.5,0.5,5.8,0.5h10.2V225h-6.4c-1.8,0-3.6,0.1-4.9,0.3l-0.4-2
		c1.5,0.4,2.6,0.5,5.3,0.5h6.4v-13h-8.2c-2.7,5.7-4.3,8.3-7.4,12l-0.7-0.5c2.4-3.7,4.1-7.8,5.8-13.3c1.2-4.1,1.9-7.5,1.9-10.2
		c5.1,1.4,6,1.8,6,2.3c0,0.4-0.5,0.7-2.3,1.1c-0.8,2.9-1.3,4.2-2.8,7.4H109.6z"/>
	<path d="M157.3,239.5c5.9-1.8,9.7-4,12.9-7.6c3.2-3.7,4.9-8.2,4.9-13.3c0-5.3-2.1-9.6-6.2-12.2c-2.4-1.6-6-2.5-9.5-2.5
		c-0.7,0-1,0-1.9,0.1c1.3,1.9,1.7,3,1.7,4.6c0,4.3-3.1,12.3-7.3,19c-3.5,5.5-6.2,8.2-8.2,8.2c-0.9,0-1.8-0.4-2.4-1.2
		c-0.5-0.7-0.6-0.9-1.5-3.5c-0.5-1.4-0.8-2.1-2.4-5.2c-0.9-1.8-1.3-3.2-1.3-5c0-3.5,1.9-7.5,4.9-10.9c4.5-4.7,11.7-7.7,18.9-7.7
		c5.6,0,10.7,1.8,14.2,5.1c3.5,3.2,5.3,7.6,5.3,12.9c0,6.9-4,13-10.9,16.7c-3.2,1.7-6,2.6-10.7,3.4L157.3,239.5z M139.2,222.4
		c0,2.6,0.8,5.3,2.2,7.3c0.8,1,1.5,1.6,2.1,1.6c1.2,0,3.8-3,6.5-7.3c4.1-6.5,7-13.6,7-17c0-0.8-0.2-1.4-0.8-2.8
		C146.7,205.9,139.2,213.9,139.2,222.4z"/>
	<path d="M189.4,209.6c2,1.3,3.6,1.9,5.7,1.9c2.1,0,5.8-0.8,9.5-2.1c-1.1-4.8-1.9-7.2-2.8-8.5c-0.9-1.3-1.8-1.7-4.5-1.9
		c0.9-0.8,1.5-1,3.2-1c1.4,0,3.2,0.2,4.5,0.5c1.4,0.4,2.1,1,2.1,1.9c0,0.1,0,0.3-0.1,0.5c-0.2,0.8-0.2,1.1-0.2,1.7
		c0,1.5,0.2,2.8,0.7,5.8c4.9-1.8,6.8-2.6,8.3-3.7c0.7-0.6,0.9-0.7,1.4-0.7c0.8,0,1.7,0.2,2.6,0.5c0.8,0.3,1.2,0.8,1.2,1.3
		c0,0.8-0.7,1.3-3.1,2c-6.2,2-6.8,2.2-9.9,3.1c0.5,2.8,1.2,5.9,1.9,8.7c3-0.8,6.7-1.9,8.4-2.6c1.5-0.5,1.7-0.6,3.5-1.6
		c0.5-0.3,0.7-0.4,1.1-0.4c2.2,0,4.9,1.3,4.9,2.4c0,0.4-0.2,0.7-0.6,0.9c-0.5,0.2-0.6,0.2-3.8,0.5c-2.6,0.3-8,1.5-12.9,2.9
		c1.8,7.3,3.1,12.4,4,15.4c0.5,1.8,0.6,2.5,0.6,3.2c0,1.3-0.4,1.9-1.3,1.9c-1.3,0-4.1-3-4.1-4.5c0-0.1,0-0.1,0.1-0.8
		c0-0.3,0.1-1.1,0.1-1.4c0-2-0.5-5.2-2.1-13c-4.1,1.2-9,3.1-11.4,4.5c-1.2,0.7-1.9,0.9-2.4,0.9c-2,0-5.8-3.3-5.8-5
		c0-0.2,0.1-0.3,0.2-0.7c1.3,1.3,2.7,2,4.1,2c1.7,0,2.6-0.2,10.2-2.6c0.5-0.2,1.5-0.5,4.7-1.4c-0.7-3-1.5-6.9-2-8.8
		c-5.8,1.6-7,1.9-9.1,1.9c-2.5,0-5.1-1.2-7.1-3.4L189.4,209.6z"/>
	<path d="M274.7,215.3c-3,4.2-4.8,6.3-8.2,9.3c-4.9,4.5-10.2,8.1-16.6,11.2c-3.1,1.6-3.1,1.6-4.1,2.6c-0.4,0.5-0.8,0.7-1.3,0.7
		c-1.1,0-3.6-3.2-3.6-4.7c0-0.3,0-0.3,0.3-1c0.4-1.2,0.4-2.5,0.4-8.4c0-12.2-0.3-17.5-1-19.5c-0.5-1.4-1.4-2-3.8-2.9
		c0.7-0.4,1-0.5,1.7-0.5c1.2,0,2.9,0.5,4.4,1.3c2.1,1.2,3.2,2.3,3.2,3.4c0,0.3,0,0.3-0.3,1.2c-0.3,0.9-0.5,2.9-0.7,5.4
		c-0.3,3.4-0.6,13.4-0.6,17.4c0,0.5,0,1.5,0,2.7c7.9-2.9,12.8-5.4,18.8-9.7c4.2-3,8-6.3,10.7-9.2L274.7,215.3z"/>
	<path d="M278.6,227.7c6.9-3.7,14.2-9.2,20.7-15.6c5.4-5.3,9-9.8,9-11.4c0-1-0.9-1.9-3.1-3.1c0.6-0.2,0.7-0.2,1.1-0.2
		c1.6,0,3,0.5,4.7,1.6c1.9,1.3,2.9,2.5,2.9,3.6c0,0.5-0.1,0.6-2.2,2.4c-0.5,0.4-0.5,0.4-4.5,4.2c-3.8,3.7-4.2,4-6.5,5.9
		c2.1,1.6,3.1,2.4,3.4,3.1c0.2,0.6,0.3,3.1,0.4,8.1c0.1,3.8,0.2,7.4,0.3,10.5c0,1.2,0.1,2.8,0.1,3.1c0,1.9-0.4,2.8-1.3,2.8
		c-1.3,0-3.7-3-3.7-4.6c0-0.4,0-0.4,0.3-1.4c0.5-1.4,1-8.2,1-13.5c0-2.7-0.1-4.3-0.3-5.2c-0.2-0.5-0.4-0.8-1.2-1.7
		c-3.8,3.1-7.8,5.9-10.6,7.5c-3.1,1.8-7,3.7-9.9,4.8L278.6,227.7z"/>
	<path d="M334.2,232.5c4.2,2.4,7.4,3.7,8.5,3.7c1.2,0,2.1-1.2,3.6-4.6c1.9-4.5,3.2-10.6,3.2-14.7c0-2.3-0.5-3.8-1.5-4.5
		c-0.5-0.4-1.3-0.5-2.5-0.5c-1.5,0-2.6,0.2-5.7,1.1c-0.8,1.9-0.8,1.9-3.2,7.5c-0.3,0.7-1.4,3.2-3.2,7.7c-2.2,5.2-4,9.1-4.9,10.7
		c-0.4,0.7-0.8,1-1.3,1c-1,0-1.6-1.4-1.6-3.8c0-1.4,0.2-1.8,1.3-3.1c2.5-3,4.8-7.5,10.1-19.1c-3.7,1.2-6,2.1-7.1,2.9
		c-0.8,0.5-1.2,0.6-1.6,0.6c-0.6,0-1.7-0.7-2.4-1.7c-1-1.3-1.8-3.2-1.8-4.2c0-0.3,0.1-0.7,0.3-1.2c1.2,2.3,2.1,3,4.2,3
		c1.2,0,5.3-0.8,9.3-1.9c1.3-3.1,2.3-7.1,2.3-9c0-1.7-1.1-2.7-4.2-3.7c0.7-0.5,1-0.6,1.6-0.6c0.8,0,2.3,0.3,3.7,0.7
		c2.5,0.7,3.8,1.8,3.8,2.9c0,0.4-0.1,0.6-0.8,1.6c-1,1.8-1.9,3.6-3.5,7.4c2.4-0.5,3.4-0.6,4.8-0.6c4.7,0,7,2.8,7,8.6
		c0,7-2.8,16.2-6,19.7c-1.4,1.4-3.5,2.5-5.3,2.5c-0.9,0-1.4-0.4-1.5-1.3c-0.1-1.4-0.3-1.7-6.1-6.4L334.2,232.5z M358.4,210.3
		c4.3,1.3,7.6,3.5,10.1,6.6c2.1,2.7,3.1,5.3,3.1,7.8c0,1.9-0.8,3-2.2,3c-0.4,0-0.7-0.1-1.3-0.4c-0.9-0.5-1.2-0.6-2.3-0.6
		c-1.9,0-2.2,0-6.9,0.5l-0.2-0.7c5.4-1.6,6.8-2.1,8.4-2.8c-0.7-5.3-4.4-10.4-9.2-12.6L358.4,210.3z M360.3,199.3
		c2,1.1,3.5,2.1,4.9,3.4c2,1.8,2.7,3,2.7,4.3c0,1.3-0.8,2.3-1.7,2.3c-0.7,0-0.7,0-2.4-3.6c-1-1.9-2.8-4.3-4.2-5.8L360.3,199.3z
		 M366,196.2c2,0.9,3.6,1.8,5.3,3.1c2.1,1.6,2.8,2.7,2.8,4.2c0,1.3-0.5,2.3-1.4,2.3c-0.5,0-0.8-0.3-1.3-1c-1.9-3.5-3-4.9-6-7.9
		L366,196.2z"/>
	<path d="M383.2,232.1c-0.1,0.7-0.5,0.9-2,1c-0.4,0-0.8,0.1-0.8,0.1c-0.1,0-0.1,0-0.1,0c-0.5,0-0.8-0.2-0.8-0.6
		c0.1-3.5,0.2-12.8,0.2-16.2c0-9.3-0.1-15.1-0.2-17.5c1.9,1.3,2.6,1.6,4.6,3.1h6.5c0.9-1.2,1.2-1.5,2.3-2.5c1.4,1.1,1.8,1.4,3.1,2.5
		c0.4,0.4,0.5,0.6,0.5,0.8c0,0.4-0.4,0.7-2,1.3c0,13.5,0,13.5,0.2,24.8c-0.1,0.9-0.6,1.2-2.7,1.2c-0.7,0-0.9-0.2-0.9-0.8v-2.5h-7.7
		V232.1z M383.2,225.5h7.7v-22.3h-7.7V225.5z M419.4,215.2c1.4-1.7,1.9-2.3,3.3-4c2.4,1.8,3,2.4,5.1,4.3c0.1,0.2,0.2,0.4,0.2,0.5
		c0,0.2-0.3,0.4-0.6,0.4h-15.6c0.1,22.1,0.1,22.1,0.2,27.4c-0.1,0.7-0.7,0.9-2.5,0.9c-0.2,0-0.3,0-0.4,0c-0.2,0-0.3,0-0.3,0
		c-0.8,0-1.1-0.2-1.1-0.7c0.1-3.2,0.1-12.4,0.2-27.6h-6.5c-4.1,0.1-4.1,0.1-5.5,0.3l-0.4-2.1c2.3,0.4,3.8,0.5,5.9,0.5h6.5
		c0-0.8,0-2.3,0-2.3c0-10.9-0.1-15.2-0.2-17.9c1.3,0.2,2.4,0.3,3.1,0.4c2.4,0.3,3.4,0.7,3.4,1.2c0,0.4-0.7,0.8-2.4,1.2v17.4H419.4z"
		/>
	<path d="M447,244.3c3.2-2.6,5.4-4.9,7.3-7.9c2.9-4.7,4.7-11.1,4.7-16.7c0-5.4-2-8.8-5.2-8.8c-2.9,0-6.8,2.4-10.6,6.5
		c-1,1-1.4,1.3-2.3,1.3c-1.2,0-2.5-0.9-3.6-2.5c-0.9-1.3-1.5-2.7-1.5-3.7c0-0.7,0.2-1.2,0.9-2c0.5,2.4,1.6,3.8,3,3.8
		c0.8,0,2.2-0.6,5.1-2.1c4.7-2.5,6.5-3.1,9.3-3.1c2.5,0,5.2,1.4,6.8,3.7c1.3,1.9,2.1,4.8,2.1,8.1c0,6.5-2.5,12.9-6.8,17.8
		c-2.7,3-5.5,5.1-8.6,6.4L447,244.3z M444,194.3c2.7,2.3,6.4,3.5,10.3,3.5h1.3c1.1,0,1.9,0.4,3,1.3c0.8,0.7,1.2,1.3,1.2,1.9
		c0,0.8-0.8,1.2-2.3,1.2c-2.3,0.1-2.3,0.1-13.7,3.4l-0.3-0.8c4.1-1.9,7.9-3.6,9.3-4.1c-4.5-0.9-7.2-2.6-9.3-6L444,194.3z"/>
	<path d="M487.2,211.1c1.2-1.4,1.5-1.8,2.6-3.1c1.7,1.4,2.3,1.9,3.8,3.5c0.2,0.3,0.3,0.4,0.3,0.5s-0.2,0.3-0.6,0.3h-8.7v13.9
		c2.4-1,3.5-1.5,6.3-2.8l0.4,0.8c-3.1,2.3-4.9,3.5-6.4,4.3c-5.6,3.5-5.6,3.5-7,4.3c-0.1,2-0.3,2.7-0.8,2.7c-0.2,0-0.4-0.2-0.6-0.5
		c-0.1-0.1-0.8-1.9-2.1-5.3c1.9-0.5,3.9-1.1,6.7-2.1v-15.2h-3.2c-1.6,0-2.5,0.1-3.5,0.3l-0.4-2c1.2,0.3,2.3,0.4,3.9,0.4h3.2v-9.7
		c0-2-0.1-3.1-0.2-5.1c5.3,0.7,6,0.8,6,1.4c0,0.4-0.5,0.7-2.2,1.2v12.3H487.2z M506.1,226c-2.4,3.6-3.8,5.4-6,7.4
		c-3.6,3.4-7.8,5.7-13.6,7.8l-0.4-0.8c4.9-2.3,8.5-4.8,11.7-8c1.9-2,2.9-3.4,4.5-6.3h-4.7c-2.8,2.9-7.4,6-12.8,8.7l-0.4-0.8
		c4.1-2.6,6.3-4.5,9.3-7.9c2.1-2.4,2.9-3.4,4.5-6.3h-4.7c-2.1,0-3.1,0.1-4.6,0.3l-0.4-2.1c1.7,0.4,2.8,0.5,4.9,0.5h23.6
		c1.4-1.5,1.8-1.9,3.2-3.3c2,1.5,2.6,2,4.5,3.7c0.2,0.2,0.3,0.4,0.3,0.5c0,0.2-0.2,0.3-0.7,0.3h-22.2c-1.9,2.8-2.4,3.5-3.6,5h18.8
		c0.9-1,1.2-1.3,2-2c1.4,1,1.9,1.3,3.2,2.4c0.3,0.2,0.4,0.4,0.4,0.6c0,0.4-0.5,0.8-1.8,1.4c-0.7,6.9-1.9,12.5-2.9,14.6
		c-0.8,1.6-3,2.8-6,3.2c-0.5-2.8-1.1-3.2-6.5-4l0.1-0.9c3.4,0.3,5.7,0.5,7.1,0.5c1.5,0,2-0.3,2.5-1.4c0.8-1.8,1.8-7.5,2.2-13.1h-2.9
		c-2,4.4-3.5,6.7-6.2,9.4c-2.5,2.5-5.9,5.1-9.7,7.2c-1.6,0.9-2.8,1.4-5.5,2.6l-0.5-0.8c5.3-2.8,9-5.7,12.9-10.1
		c2.5-2.9,3.6-4.5,5.3-8.4H506.1z M499.2,214.9c0,0.8-0.6,1-2.6,1c-0.8,0-1-0.2-1-0.7c0.1-3.9,0.2-5.9,0.2-7.7
		c0-6.5-0.1-9.9-0.2-11.9c1.9,1,2.5,1.3,4.2,2.4h12.8c0.9-1,1.2-1.3,2.1-2.3c1.4,1,1.9,1.3,3.1,2.3c0.4,0.3,0.6,0.6,0.6,0.8
		c0,0.3-0.2,0.5-1.8,1.3c0,1.6,0,1.8,0,3.2c0,2.3,0.1,5.2,0.1,11.1c0,0.5-0.1,0.7-0.5,0.8c-0.4,0.1-1.6,0.3-2.3,0.3
		c-0.5,0-0.7-0.2-0.7-0.6v-1.4h-14V214.9z M513.2,199.3h-14v5.7h14V199.3z M499.2,206.2v6.1h14v-6.1H499.2z"/>
	<path d="M536.9,221.5c-0.3,4-0.9,7.4-2,10.8c-1.5,4.6-3,7.2-6.4,11.2l-0.7-0.6c1.9-3.1,2.5-4.5,3.6-8.9c1.4-5.2,1.8-8.4,1.9-16.4
		c0.1-3.9,0.1-5.2,0.1-7.8c0-1.9-0.1-3.2-0.3-5.3c2,0.9,2.6,1.3,4.6,2.5h8.9c0.9-1.1,1.2-1.4,2.1-2.5c1.4,1,1.9,1.3,3.2,2.5
		c0.2,0.2,0.4,0.4,0.4,0.5s-0.6,0.7-1.3,1.2c0,1.1,0,1.7,0,2.5c0,1,0.1,3.4,0.1,6.1c0.1,3.6,0.1,3.6,0.1,6.5c0,0.4-0.1,0.6-0.4,0.8
		c-0.3,0.1-2.1,0.3-3,0.3c-0.4,0-0.5-0.2-0.5-0.7v-2.7H536.9z M529.9,197.8c2.1,0.3,3.9,0.4,6.3,0.4h11.2c1.3-1.4,1.7-1.9,3.1-3.4
		c1.9,1.5,2.5,2.1,4.4,3.9c0.1,0.2,0.2,0.4,0.2,0.4c0,0.2-0.3,0.4-0.5,0.4h-18.3c-3.2,0-3.8,0.1-5.8,0.3L529.9,197.8z M547.4,208.3
		h-10.1c-0.2,9.8-0.2,9.8-0.2,12h10.3V208.3z M559.5,214c-0.1,0.7-0.1,1.4-0.1,1.8c-0.2,7.5-1.5,12.9-4.3,17.7c-1.8,3-4,5.6-6.7,7.6
		c-1,0.8-2,1.4-4.1,2.6l-0.5-0.8c3.5-2.7,5-4.3,6.8-6.9c3.2-4.7,4.7-10,5.1-17.8c0.2-3.7,0.3-10,0.3-13.7c0-1.9-0.1-2.9-0.2-5.1
		c2.1,1.2,2.7,1.5,4.7,2.9c3.1-1,5.6-2.2,8.7-4.1c2.1-1.3,2.9-1.9,4.2-3.3c1.2,0.7,2,1.2,2.6,1.5c1.6,0.9,2.6,1.7,2.6,2.1
		c0,0.3-0.4,0.5-1.2,0.5c-0.3,0-0.9-0.1-1.8-0.3c-5.8,2.5-9.6,3.6-16,4.7c-0.1,2.9-0.1,2.9-0.2,9.4h13.5c1.3-1.7,1.6-2.2,3-3.8
		c2,1.9,2.6,2.5,4.6,4.3c0.2,0.2,0.3,0.4,0.3,0.5c0,0.2-0.2,0.3-0.7,0.3h-9.5v14.1c0,4,0.1,8.5,0.2,14.4c0,0.5-0.1,0.7-0.5,0.8
		c-0.6,0.2-1.4,0.3-2.5,0.3c-0.8,0-1-0.1-1.1-0.5c0.2-4,0.2-7.1,0.2-14.5V214H559.5z"/>
</g>
<g class="st0">
	<path d="M32,137.7l10.4-11.1l2.5,0.6c3.3,0.8,6.4,1.4,9.3,1.8c4.4-2.7,7.4-6,9-9.9c1.6-3.8,3-11.3,4.2-22.4l6.8-61.6
		c-11.3,0.8-20.4,3.9-27.2,9.2C40.4,49.5,37,56.2,37,64.2c0,4.8,1.2,9.3,3.6,13.6L27.4,89.4c-1.1-4.2-1.7-8.5-1.7-12.8
		c0-14.7,6.3-26.8,18.9-36.2c12.6-9.4,28.7-14.1,48.3-14.1c25.3,0,37.9,7.3,37.9,21.8c0,12.4-8.8,22.3-26.3,29.7
		c17.2,6.2,25.8,15.8,25.8,28.7c0,10.5-5.3,18.9-16,25.1c-10.6,6.2-24.9,9.3-42.8,9.3C60.5,140.8,47.4,139.8,32,137.7z M82,84.3
		l-1.2,11l-0.7,6.9c-0.9,8.1-2.6,13.8-4.9,17.1c-2.3,3.3-7.2,6.9-14.8,10.7c10.8,1.8,21.5,2.7,32.1,2.7c17.1,0,25.6-6.8,25.6-20.3
		c0-5.8-2.3-11.5-7-16.9c-4.7-5.4-10.4-9.1-17.1-11.1l-2.1,0.1l-3.9,0.2l-3.6-0.2L82,84.3z M87.6,34.4l-4.8,43.2
		c3.2,0.3,6,0.4,8.4,0.4c2.6,0,5.8-0.2,9.4-0.6c11.6-6.7,17.5-14.7,17.5-24.2C118,40.7,107.9,34.4,87.6,34.4z"/>
	<path d="M210.2,141.8c-12.3,0-18.4-8.1-18.4-24.4c0-13.1,4.8-25.7,14.4-37.9c9.6-12.1,19.6-18.2,29.9-18.2
		c12.5,0,18.7,8.1,18.7,24.4c0,13.2-4.8,25.8-14.4,37.9C230.8,135.7,220.7,141.8,210.2,141.8z M220.2,132.6
		c6.3,0,11.5-3.5,15.8-10.5c4.2-7,6.3-15.7,6.3-26.1c0-17-5.3-25.6-15.9-25.6c-6.2,0-11.5,3.5-15.7,10.5c-4.2,7-6.3,15.7-6.3,26.1
		C204.3,124.1,209.6,132.6,220.2,132.6z"/>
	<path d="M258.8,137.4l11.3-9.3c4.3,4.5,9.6,6.8,16.1,6.8c7.9,0,11.8-3.8,11.8-11.4c0-4.2-3.6-10.1-10.8-17.6l-4.7-4.8
		c-6.8-7.2-10.3-12.9-10.3-17.4c0-6.3,2.7-11.7,8.2-16c5.5-4.3,12.2-6.5,20.3-6.5c4.4,0,9.1,0.8,14.3,2.5l-9.8,9.1
		c-4.2-3.1-8.8-4.7-13.8-4.7c-6,0-8.9,2.5-8.9,7.5c0,3.6,3.3,8.8,9.9,15.6l5.1,5.4c7.5,7.9,11.3,14.2,11.3,19c0,6.9-3.3,13-9.9,18.2
		c-6.6,5.3-14.2,7.9-22.9,7.9C269.9,141.8,264.2,140.3,258.8,137.4z"/>
	<path d="M318.4,137.4l11.3-9.3c4.3,4.5,9.6,6.8,16.1,6.8c7.9,0,11.8-3.8,11.8-11.4c0-4.2-3.6-10.1-10.8-17.6l-4.7-4.8
		c-6.8-7.2-10.3-12.9-10.3-17.4c0-6.3,2.7-11.7,8.2-16c5.5-4.3,12.2-6.5,20.3-6.5c4.4,0,9.1,0.8,14.3,2.5l-9.8,9.1
		c-4.2-3.1-8.8-4.7-13.8-4.7c-6,0-8.9,2.5-8.9,7.5c0,3.6,3.3,8.8,9.9,15.6l5.1,5.4c7.5,7.9,11.3,14.2,11.3,19c0,6.9-3.3,13-9.9,18.2
		c-6.6,5.3-14.2,7.9-22.9,7.9C329.5,141.8,323.8,140.3,318.4,137.4z"/>
	<path d="M401.4,141.8c-12.3,0-18.4-8.1-18.4-24.4c0-13.1,4.8-25.7,14.4-37.9c9.6-12.1,19.6-18.2,29.9-18.2
		c12.5,0,18.7,8.1,18.7,24.4c0,13.2-4.8,25.8-14.4,37.9C421.9,135.7,411.9,141.8,401.4,141.8z M411.3,132.6
		c6.3,0,11.5-3.5,15.8-10.5c4.2-7,6.3-15.7,6.3-26.1c0-17-5.3-25.6-15.9-25.6c-6.2,0-11.5,3.5-15.7,10.5c-4.2,7-6.3,15.7-6.3,26.1
		C395.5,124.1,400.8,132.6,411.3,132.6z"/>
	<path d="M519.2,136.8l-12.2,5l0.2-2.3l0.7-6.1l0.6-5.7l4.1-36.8l0.6-4.2c0.2-2.2,0.3-4.3,0.3-6.4c0-5.3-1.6-7.9-4.8-7.9
		c-5,0-10.9,5.1-17.6,15.4c-6.7,10.3-10.6,20-11.6,29.3l-2.1,19.7l-12.3,5l0.2-2.3l0.7-6.1l0.7-5.7l4.2-38l0.5-4.3
		c0.4-3.4,0.6-6.1,0.6-8.2c0-3.5-0.9-5.2-2.6-5.2c-4.1,0-8.5,4.6-13.3,13.9c-1.3-1-1.9-1.9-1.9-2.7c0-3.3,3-7.7,9-13.4
		c6-5.7,10.7-8.5,14.2-8.5c4.7,0,7.1,3,7.1,9c0,1.5-0.1,3.6-0.4,6.1l-0.7,6.6l-0.7,5.6l-0.7,5.8l2.3-3.6
		c12.2-19.7,23.6-29.6,34.2-29.6c5.1,0,7.6,3.7,7.6,11c0,1.3-0.2,3.9-0.7,7.9l-0.8,7.5L523.5,98c5.1-10.5,11.1-19.3,18.1-26.3
		s13.2-10.4,18.6-10.4c5.4,0,8.1,3.5,8.1,10.5c0,3-0.3,6.6-0.9,10.7l-4.4,30.4c-1,6.3-1.5,11.1-1.5,14.6c0,2.9,0.8,4.3,2.4,4.3
		c1.9,0,4.2-1.6,7-4.7c2.8-3.1,5.1-6.6,6.8-10.6c1.5,1,2.2,1.9,2.2,2.7c0,3.4-3.1,8.1-9.2,13.8c-6.1,5.8-11,8.7-14.6,8.7
		c-4.7,0-7-3.1-7-9.3c0-3.9,0.6-10,1.8-18.3l2.9-19.7c0.1-0.7,0.3-2.3,0.6-4.7c0.1-1,0.3-2.6,0.6-5c0.3-2.3,0.4-4.1,0.4-5.4
		c0-4.6-1.5-7-4.6-7c-5.1,0-11.1,5.1-17.8,15.4c-6.8,10.3-10.7,20-11.7,29.3L519.2,136.8z"/>
</g>
<g>
	<g>
		<path class="st1" d="M158.6,138.8c-0.5-2.3-1-4.6-1.4-6.9c-0.1-0.6-0.2-1.1-0.3-1.7c0-0.3-0.1-0.6-0.1-0.9c0.1,0.5,0-0.3-0.1-0.4
			c-0.1-1.2-0.3-2.4-0.4-3.6c-0.4-4.7-0.6-9.4-0.4-14.1c0.1-2.3,0.2-4.6,0.5-6.9c0.1-1.2,0.3-2.4,0.4-3.6c0-0.1,0.1-0.5,0,0
			c0-0.1,0-0.2,0-0.3c0-0.3,0.1-0.6,0.1-0.9c0.1-0.6,0.2-1.2,0.3-1.8c0.8-4.7,1.8-9.3,3.2-13.8c0.7-2.3,1.4-4.5,2.2-6.7
			c0.4-1.1,0.8-2.2,1.3-3.2c0.1-0.3,0.2-0.6,0.3-0.8c0.1-0.3,0,0.1-0.1,0.1c0-0.1,0.1-0.2,0.2-0.4c0.2-0.5,0.4-1,0.6-1.5
			c1.7-3.8,3.6-7.5,5.8-11.1c2.1-3.6,4.5-7.1,7-10.4c0.2-0.2,0.3-0.4,0.5-0.6c0,0,0.2-0.3,0-0.1c-0.2,0.3,0.1-0.1,0.1-0.1
			c0.3-0.4,0.7-0.8,1-1.2c0.7-0.8,1.3-1.6,2-2.5c1.4-1.6,2.8-3.1,4.2-4.7c2.9-3,5.9-5.8,9.1-8.5c0.8-0.7,1.6-1.3,2.4-1.9
			c0.2-0.2,0.4-0.3,0.6-0.5c0.4-0.3,0,0,0,0c0.1-0.1,0.2-0.2,0.3-0.2c0.4-0.3,0.8-0.6,1.3-1c1.7-1.2,3.4-2.4,5.1-3.6
			c0.9-0.6,1.7-1.1,2.6-1.7c-1.2-0.9-2.4-1.9-3.7-2.8c-1.7,8.2-3.8,16.4-6.4,24.3c-1.3,4-2.8,7.9-4.3,11.8c-0.4,1-0.8,1.9-1.2,2.9
			c-0.1,0.1-0.3,0.8-0.1,0.3c-0.1,0.2-0.2,0.5-0.3,0.7c-0.2,0.5-0.4,1-0.6,1.5c-0.8,1.9-1.7,3.8-2.6,5.7c-3.6,7.6-7.6,15-12.1,22.1
			c-2.2,3.6-4.6,7-7,10.4c-2.5,3.4-5.1,6.7-7.5,10.2c-2.4,3.6-4.6,7.4-6,11.5c-1.5,4.4-1.5,9-1.5,13.5c0,1.1,0,2.2,0,3.3
			c0,1.3,1.2,2.6,2.5,2.5c1.4-0.1,2.5-1.1,2.5-2.5c0-2.2,0-4.5,0-6.7c0-1.1,0.1-2.2,0.2-3.3c0-0.3,0.1-0.5,0.1-0.8
			c0-0.1,0-0.2,0-0.3c0-0.4-0.1,0.4,0,0c0.1-0.6,0.2-1.1,0.3-1.7c0.2-1,0.5-2,0.8-2.9c0.2-0.5,0.3-0.9,0.5-1.4c0.2-0.4,0-0.1,0,0
			c0-0.1,0.1-0.2,0.1-0.3c0.1-0.3,0.3-0.6,0.4-0.9c0.9-1.9,1.9-3.7,3-5.4c2.3-3.6,4.9-7,7.5-10.4c2.5-3.4,4.8-6.8,7.1-10.3
			c4.5-7,8.7-14.3,12.3-21.8c3.7-7.6,7-15.5,9.8-23.6c2.7-7.9,5-16,6.8-24.1c0.2-1,0.4-2.1,0.6-3.1c0.2-1-0.1-2-0.9-2.6
			c-0.8-0.6-1.9-0.7-2.8-0.2c-7.3,4.5-14.2,9.9-20.3,16S172.6,47.7,168,55c-4.8,7.5-8.6,15.7-11.4,24.1c-3.1,9.2-4.9,18.8-5.5,28.5
			s0,19.4,1.8,28.9c0.2,1.2,0.5,2.3,0.7,3.5c0.3,1.3,1.8,2.1,3.1,1.7C158.2,141.5,158.9,140.2,158.6,138.8L158.6,138.8z"/>
	</g>
</g>
</svg>
